#N canvas 283 50 601 689 12;
#X obj 56 19 inlet;
#X text 101 18 note;
#X obj 239 184 list prepend gain;
#X obj 316 154 list prepend gate;
#X obj 133 456 list trim;
#X obj 239 155 / 127;
#X obj 221 596 outlet~;
#X obj 56 152 list prepend freq;
#X obj 56 106 mtof;
#X obj 316 127 > 0;
#X obj 133 354 r \$0-mess;
#X obj 164 407 r \$2-global-mess;
#X obj 221 559 *~ 0.25;
#X obj 56 72 unpack 0 0, f 22;
#X obj 207 100 t a a, f 16;
#X obj 207 124 sel 0;
#X obj 316 258 s \$0-mess;
#X obj 56 196 s \$0-mess;
#X obj 132 525 additive_12~;
#X connect 0 0 13 0;
#X connect 2 0 16 0;
#X connect 3 0 16 0;
#X connect 4 0 18 0;
#X connect 5 0 2 0;
#X connect 7 0 17 0;
#X connect 8 0 7 0;
#X connect 9 0 3 0;
#X connect 10 0 4 0;
#X connect 11 0 4 0;
#X connect 12 0 6 0;
#X connect 13 0 8 0;
#X connect 13 1 14 0;
#X connect 14 0 15 0;
#X connect 14 1 9 0;
#X connect 15 1 5 0;
#X connect 18 1 12 0;
