#N canvas 400 50 1516 905 12;
#X obj 70 22 inlet;
#X obj 72 729 outlet;
#X obj 163 504 + 1;
#X obj 207 352 v \$0-dir;
#X obj 207 376 sel 0 1, f 16;
#X obj 207 400 i 1;
#X obj 261 401 i -1;
#X text 984 203 Arg1: step;
#X obj 207 456 * \$1;
#X obj 249 451 r \$0-step;
#X obj 839 16 inlet;
#X obj 912 139 s \$0-loop-size;
#X obj 986 82 s \$0-step;
#X obj 1059 83 s \$0-mode;
#X obj 1057 488 r \$0-mode;
#X obj 955 701 v \$0-count;
#X obj 482 541 r \$0-mode;
#X obj 457 757 v \$0-count;
#X obj 537 756 v \$0-count;
#X obj 770 757 v \$0-dir;
#X obj 770 789 == 0;
#X obj 770 821 v \$0-dir;
#X text 834 786 invert direction;
#X obj 457 696 i \$2;
#X obj 537 696 i \$2;
#X obj 508 644 r \$0-loop-size;
#X obj 626 757 v \$0-count;
#X obj 651 783 r \$0-step;
#X obj 626 846 v \$0-count;
#X obj 626 704 t b b, f 21;
#X obj 1272 804 v \$0-dir;
#X obj 1272 833 == 0;
#X obj 1272 859 v \$0-dir;
#X text 1335 854 invert direction;
#X obj 1143 804 v \$0-count;
#X obj 1184 827 r \$0-step;
#X obj 1143 853 v \$0-count;
#X obj 1143 751 t b b;
#X obj 1143 828 - \$1;
#X obj 457 469 moses 0;
#X obj 457 493 t b;
#X obj 782 441 moses 0;
#X text 830 313 greater than?;
#X obj 839 332 r \$0-loop-size;
#X obj 782 349 t a b;
#X obj 814 376 i \$2;
#X obj 782 566 v \$0-count;
#X obj 457 568 i \$3;
#X obj 912 108 max 1;
#X obj 955 534 list prepend \$3;
#X obj 955 558 list trim;
#X obj 955 621 t b;
#X obj 1033 623 t b;
#X obj 70 149 max 0;
#X obj 1111 628 sel 2;
#X obj 207 176 i \$3;
#X obj 232 148 r \$0-mode;
#X obj 240 241 i 1;
#X obj 207 241 i 0;
#X obj 1133 107 s \$0-down;
#X obj 1206 81 s \$0-up;
#X obj 347 20 inlet;
#X obj 347 44 t b b, f 15;
#X obj 207 285 == 0, f 18;
#X obj 330 177 i 1;
#X obj 70 86 t b b, f 15;
#X obj 70 46 t b b, f 29;
#X obj 373 177 i 0;
#X obj 72 650 v \$0-count;
#X obj 457 602 sel 0 1 2 3, f 34;
#X obj 955 597 route 0 1 2 3, f 46;
#X obj 1243 633 r \$0-loop-size;
#X obj 1218 666 i \$2;
#X obj 633 657 v \$0-count;
#X obj 1218 726 v \$0-count;
#X text 986 267 Arg3: 0 = up loop \, 1 = down loop \, 2 = up/down loop
\, 3 = clip;
#X obj 839 40 route set loop step mode down up setOut, f 74;
#X obj 70 120 v \$0-count;
#X obj 776 118 v \$0-count;
#X obj 1379 155 v \$0-count;
#X obj 1347 124 t b a;
#X obj 1347 188 s \$0-out;
#X obj 99 603 r \$0-out;
#X obj 1280 76 route bang;
#X obj 207 200 sel 0 1 3, f 15;
#X obj 1200 628 t b;
#X obj 71 174 t b a b, f 10;
#X text 984 233 Arg2: Loop size (count 0 - (size-1) );
#X obj 813 400 + 1;
#X obj 1218 690 + 1;
#X obj 955 671 i 1;
#X obj 633 628 i 1;
#X obj 72 674 - 1;
#X obj 626 811 - \$1;
#X obj 457 720 + 1;
#X obj 537 720 + 1;
#X connect 0 0 66 0;
#X connect 2 0 39 0;
#X connect 3 0 4 0;
#X connect 4 0 5 0;
#X connect 4 1 6 0;
#X connect 5 0 8 0;
#X connect 6 0 8 0;
#X connect 8 0 2 1;
#X connect 9 0 8 1;
#X connect 10 0 76 0;
#X connect 14 0 49 1;
#X connect 16 0 47 1;
#X connect 19 0 20 0;
#X connect 20 0 21 0;
#X connect 23 0 94 0;
#X connect 24 0 95 0;
#X connect 25 0 23 1;
#X connect 25 0 24 1;
#X connect 26 0 93 0;
#X connect 27 0 93 1;
#X connect 29 0 26 0;
#X connect 29 1 19 0;
#X connect 30 0 31 0;
#X connect 31 0 32 0;
#X connect 34 0 38 0;
#X connect 35 0 38 1;
#X connect 37 0 34 0;
#X connect 37 1 30 0;
#X connect 38 0 36 0;
#X connect 39 0 40 0;
#X connect 39 1 44 0;
#X connect 40 0 47 0;
#X connect 41 0 46 0;
#X connect 41 1 49 0;
#X connect 43 0 45 1;
#X connect 44 0 41 0;
#X connect 44 1 45 0;
#X connect 45 0 88 0;
#X connect 47 0 69 0;
#X connect 48 0 11 0;
#X connect 49 0 50 0;
#X connect 50 0 70 0;
#X connect 51 0 90 0;
#X connect 52 0 90 0;
#X connect 53 0 86 0;
#X connect 54 0 90 0;
#X connect 54 1 37 0;
#X connect 55 0 84 0;
#X connect 56 0 55 1;
#X connect 57 0 63 0;
#X connect 58 0 63 0;
#X connect 61 0 62 0;
#X connect 62 0 65 0;
#X connect 62 1 67 0;
#X connect 63 0 3 0;
#X connect 64 0 63 1;
#X connect 65 0 77 0;
#X connect 65 1 55 0;
#X connect 66 0 65 0;
#X connect 66 1 64 0;
#X connect 67 0 63 1;
#X connect 68 0 92 0;
#X connect 69 0 23 0;
#X connect 69 1 24 0;
#X connect 69 2 29 0;
#X connect 69 3 91 0;
#X connect 70 0 51 0;
#X connect 70 1 52 0;
#X connect 70 2 54 0;
#X connect 70 3 85 0;
#X connect 71 0 72 1;
#X connect 72 0 89 0;
#X connect 76 0 78 0;
#X connect 76 1 48 0;
#X connect 76 2 12 0;
#X connect 76 3 13 0;
#X connect 76 4 59 0;
#X connect 76 5 60 0;
#X connect 76 6 83 0;
#X connect 77 0 53 0;
#X connect 80 0 81 0;
#X connect 80 1 79 0;
#X connect 82 0 68 0;
#X connect 83 0 81 0;
#X connect 83 1 80 0;
#X connect 84 0 58 0;
#X connect 84 1 57 0;
#X connect 84 2 58 0;
#X connect 85 0 72 0;
#X connect 86 0 68 0;
#X connect 86 1 2 0;
#X connect 86 2 3 0;
#X connect 88 0 41 1;
#X connect 89 0 74 0;
#X connect 90 0 15 0;
#X connect 91 0 73 0;
#X connect 92 0 1 0;
#X connect 93 0 28 0;
#X connect 94 0 17 0;
#X connect 95 0 18 0;
