#N canvas 705 215 978 660 12;
#X obj 30 16 inlet;
#X text 85 17 0-360 ticks;
#X obj 260 25 inlet;
#N canvas 4 50 562 468 messages 0;
#X obj 37 37 inlet;
#X obj 36 85 s \$0-length;
#X obj 111 175 s \$0-syncStart;
#X obj 179 143 s \$0-freeStart;
#X obj 232 100 s \$0-stop;
#X obj 110 147 t b;
#X obj 176 111 t b;
#X obj 40 62 route length syncStart freeStart stop atom;
#X obj 344 109 s \$0-atom;
#X connect 0 0 7 0;
#X connect 5 0 2 0;
#X connect 6 0 3 0;
#X connect 7 0 1 0;
#X connect 7 1 5 0;
#X connect 7 2 6 0;
#X connect 7 3 4 0;
#X connect 7 4 8 0;
#X restore 260 49 pd messages;
#X obj 62 188 spigot 0;
#X obj 30 40 t b a;
#X obj 148 492 + 1;
#X obj 30 518 t f f;
#X obj 208 376 r \$0-length;
#X obj 208 408 * 360;
#X obj 30 382 spigot 0;
#X obj 115 34 r \$0-syncStart;
#X obj 62 242 sel 0;
#X obj 62 266 t b b, f 10;
#X obj 237 254 r \$0-freeStart;
#X obj 83 328 1;
#X obj 498 8 r \$0-stop;
#X obj 498 56 t a a;
#X obj 30 584 outlet;
#X text 255 412 convert bar length to ticks;
#X obj 83 298 t b b;
#X obj 115 359 s \$0-reset;
#X obj 48 431 r \$0-reset;
#X obj 48 455 0;
#X obj 498 32 i 0;
#X obj 115 58 i 1;
#X obj 237 278 t b b;
#X obj 208 578 s \$0-reset;
#X obj 208 546 t b;
#X obj 30 494 f 0;
#X obj 30 406 t b;
#X obj 171 218 i 0;
#X obj 148 520 moses 360;
#X text 545 224 arg1: sync start amount;
#X obj 62 212 %, f 11;
#X obj 115 88 t a b;
#X obj 147 117 f \$1;
#X obj 147 141 * 360;
#X obj 147 165 i;
#X obj 172 84 r \$0-atom;
#X connect 0 0 5 0;
#X connect 2 0 3 0;
#X connect 4 0 34 0;
#X connect 5 0 10 0;
#X connect 5 1 4 0;
#X connect 6 0 32 0;
#X connect 7 0 18 0;
#X connect 7 1 6 0;
#X connect 8 0 9 0;
#X connect 9 0 32 1;
#X connect 10 0 30 0;
#X connect 11 0 25 0;
#X connect 12 0 13 0;
#X connect 13 0 20 0;
#X connect 13 1 31 0;
#X connect 14 0 26 0;
#X connect 15 0 10 1;
#X connect 16 0 24 0;
#X connect 17 0 10 1;
#X connect 17 1 4 1;
#X connect 20 0 15 0;
#X connect 20 1 21 0;
#X connect 22 0 23 0;
#X connect 23 0 29 1;
#X connect 24 0 17 0;
#X connect 25 0 35 0;
#X connect 26 0 20 0;
#X connect 26 1 31 0;
#X connect 28 0 27 0;
#X connect 29 0 7 0;
#X connect 30 0 29 0;
#X connect 31 0 4 1;
#X connect 32 0 29 1;
#X connect 32 1 28 0;
#X connect 34 0 12 0;
#X connect 35 0 4 1;
#X connect 35 1 36 0;
#X connect 36 0 37 0;
#X connect 37 0 38 0;
#X connect 38 0 34 1;
#X connect 39 0 36 1;
