#N canvas 233 293 1216 647 12;
#X obj 317 301 + 1;
#X obj 128 300 i 0, f 7;
#X obj 128 71 i 1;
#X obj 178 75 i -1;
#X obj 128 2 inlet;
#X obj 128 26 t b;
#X obj 178 1 inlet;
#X obj 178 25 t b;
#X obj 349 420 outlet;
#X obj 214 194 v \$0-dir;
#X obj 294 196 spigot 1;
#X obj 370 206 i 0;
#X obj 294 220 t b b;
#X obj 294 253 i -1;
#X text 361 169 init on zero;
#N canvas 520 155 450 722 looper 0;
#X obj 97 57 inlet;
#X obj 133 275 i, f 14;
#X obj 154 133 r \$0-loop;
#X obj 97 239 sel 1 0;
#X obj 57 320 i 0;
#X obj 97 602 outlet;
#X obj 133 440 - 1;
#X obj 129 190 - 1;
#X obj 97 215 >;
#X obj 97 127 t a b;
#X text 268 105 bigger than loop?;
#X obj 97 81 t a a, f 19;
#X text 256 318 less than loop?;
#X obj 133 319 t a a, f 17;
#X obj 231 437 i;
#X obj 133 379 sel 1 0, f 15;
#X obj 133 349 < 0;
#X obj 57 344 t a b;
#X obj 133 464 t a b;
#X obj 247 607 outlet;
#X text 258 576 report;
#X obj 184 521 i 0;
#X obj 238 531 i 1;
#X text 294 515 0 = loop back to top;
#X text 294 535 1 = loop back to 0;
#X obj 129 166 i \$1;
#X obj 133 410 i \$1;
#X connect 0 0 11 0;
#X connect 1 0 13 0;
#X connect 2 0 25 1;
#X connect 3 0 4 0;
#X connect 3 1 1 0;
#X connect 4 0 17 0;
#X connect 6 0 18 0;
#X connect 7 0 8 1;
#X connect 8 0 3 0;
#X connect 9 0 8 0;
#X connect 9 1 25 0;
#X connect 11 0 9 0;
#X connect 11 1 1 1;
#X connect 13 0 16 0;
#X connect 13 1 14 1;
#X connect 14 0 5 0;
#X connect 15 0 26 0;
#X connect 15 1 14 0;
#X connect 16 0 15 0;
#X connect 17 0 5 0;
#X connect 17 1 22 0;
#X connect 18 0 5 0;
#X connect 18 1 21 0;
#X connect 21 0 19 0;
#X connect 22 0 19 0;
#X connect 25 0 7 0;
#X connect 26 0 6 0;
#X restore 317 343 pd looper;
#X obj 317 367 t a a;
#X text 507 8 Looper;
#X text 565 6 count 0 - (loop size - 1);
#X obj 128 163 t b a a a, f 19;
#X obj 476 424 outlet;
#X text 528 424 report loop;
#X text 636 402 0 = loop back to top;
#X text 636 422 1 = loop back to 0;
#X obj 410 5 inlet;
#X obj 410 29 s \$0-step;
#X obj 128 125 * \$2;
#X obj 180 112 r \$0-step;
#X text 509 47 arg1: Loop size;
#X text 515 77 arg2: step;
#X obj 297 9 inlet;
#X obj 297 33 s \$0-loop;
#X connect 0 0 15 0;
#X connect 1 0 0 0;
#X connect 2 0 26 0;
#X connect 3 0 26 0;
#X connect 4 0 5 0;
#X connect 5 0 2 0;
#X connect 6 0 7 0;
#X connect 7 0 3 0;
#X connect 10 0 12 0;
#X connect 11 0 10 1;
#X connect 12 0 13 0;
#X connect 12 1 11 0;
#X connect 13 0 1 1;
#X connect 15 0 16 0;
#X connect 15 1 20 0;
#X connect 16 0 1 1;
#X connect 16 1 8 0;
#X connect 19 0 1 0;
#X connect 19 1 0 1;
#X connect 19 2 9 0;
#X connect 19 3 10 0;
#X connect 24 0 25 0;
#X connect 26 0 19 0;
#X connect 27 0 26 1;
#X connect 30 0 31 0;
