#N canvas 786 201 1005 757 12;
#X obj 47 34 inlet;
#X obj 302 649 outlet;
#X obj 279 32 inlet;
#X obj 506 27 inlet;
#X text 558 35 ticks;
#X text 327 31 length float beat;
#X obj 506 356 t b;
#X obj 506 301 spigot 0;
#X obj 506 385 int-looper 7e+06 1;
#X obj 629 326 list prepend set;
#X obj 629 350 list trim;
#X obj 629 298 i 0;
#X obj 559 268 i 1;
#X obj 559 244 t b b a, f 15;
#X obj 661 269 - 1;
#X obj 588 343 i 0;
#X text 158 231 midinote pair;
#X obj 170 135 unpack;
#X obj 47 269 s \$0-trigger;
#X obj 559 114 r \$0-trigger;
#X obj 170 159 v \$0-freq;
#X obj 506 536 v \$0-freq;
#X obj 506 560 pack 0 0;
#X obj 279 67 s \$0-length;
#X obj 603 142 r \$0-length;
#X obj 559 148 f \$1;
#X obj 559 172 * 360;
#X obj 559 196 i;
#X obj 506 51 route ticks stop;
#X obj 560 76 s \$0-stop;
#X obj 404 377 r \$0-stop;
#X obj 212 103 s \$0-stop;
#X obj 404 401 v \$0-on;
#X obj 404 425 sel 1;
#X obj 88 201 v \$0-on;
#X obj 88 175 i 1;
#X obj 506 486 t b b b;
#X obj 598 523 i 0;
#X obj 598 547 v \$0-on;
#X obj 47 58 t b b a a b, f 24;
#X floatatom 718 400 5 0 0 0 - - -;
#X obj 506 432 >= 7, f 24;
#X obj 506 456 sel 1;
#X connect 0 0 39 0;
#X connect 2 0 23 0;
#X connect 3 0 28 0;
#X connect 6 0 8 0;
#X connect 7 0 6 0;
#X connect 8 0 41 0;
#X connect 9 0 10 0;
#X connect 10 0 8 4;
#X connect 11 0 9 0;
#X connect 12 0 7 1;
#X connect 13 0 12 0;
#X connect 13 1 11 0;
#X connect 13 2 14 0;
#X connect 14 0 40 0;
#X connect 14 0 41 1;
#X connect 15 0 7 1;
#X connect 17 0 20 0;
#X connect 19 0 25 0;
#X connect 21 0 22 0;
#X connect 22 0 1 0;
#X connect 24 0 25 1;
#X connect 25 0 26 0;
#X connect 26 0 27 0;
#X connect 27 0 13 0;
#X connect 28 0 7 0;
#X connect 28 1 29 0;
#X connect 30 0 32 0;
#X connect 32 0 33 0;
#X connect 33 0 36 0;
#X connect 35 0 34 0;
#X connect 36 0 21 0;
#X connect 36 1 15 0;
#X connect 36 2 37 0;
#X connect 37 0 38 0;
#X connect 39 0 18 0;
#X connect 39 1 35 0;
#X connect 39 2 1 0;
#X connect 39 3 17 0;
#X connect 39 4 31 0;
#X connect 41 0 42 0;
#X connect 42 0 36 0;
