#N canvas 178 25 1262 770 12;
#X text 368 104 if theres a new note action;
#X obj 304 103 t b;
#X text 506 138 get size;
#X obj 304 172 t a a, f 14;
#X obj 304 201 > 0;
#X obj 304 254 i, f 10;
#X obj 304 225 sel 1 0, f 29;
#X obj 335 691 max 0;
#X text 380 525 counter/looper;
#X text 369 485 set size of loop;
#N canvas 63 88 659 441 track-notes 0;
#X obj 66 34 inlet;
#X text 109 36 notes from keyboard;
#X obj 66 192 outlet;
#X obj 66 68 t a a a, f 33;
#N canvas 92 117 450 463 retrigger 0;
#X obj 81 10 inlet;
#X obj 106 205 i;
#X obj 155 205 + 1;
#X obj 106 153 max 1;
#X obj 106 177 until;
#X obj 159 170 i 0;
#X obj 106 126 t a b, f 8;
#X obj 73 99 sel 0;
#X obj 106 288 outlet;
#X obj 73 75 text size note-tracke-\$1;
#X obj 106 234 text get note-tracker-\$1;
#X connect 0 0 9 0;
#X connect 1 0 2 0;
#X connect 1 0 10 0;
#X connect 2 0 1 1;
#X connect 3 0 4 0;
#X connect 4 0 1 0;
#X connect 5 0 1 1;
#X connect 6 0 3 0;
#X connect 6 1 5 0;
#X connect 7 1 6 0;
#X connect 9 0 7 0;
#X connect 10 0 8 0;
#X restore 84 146 pd retrigger;
#X obj 84 122 del 1;
#X obj 291 131 cg-note-tracker note-tracker-\$1;
#X obj 84 96 r re-trig-notes-\$1;
#X connect 0 0 3 0;
#X connect 3 0 2 0;
#X connect 3 2 6 0;
#X connect 4 0 2 0;
#X connect 5 0 4 0;
#X connect 7 0 5 0;
#X restore 304 50 pd track-notes;
#X obj 315 17 r notesIn-\$1;
#X obj 36 17 inlet~ inL-\$1;
#X obj 146 17 inlet~ inR-\$1;
#X obj 485 16 r auxIn-\$1;
#X obj 584 16 r expIn-\$1;
#X obj 584 41 r fsIn-\$1;
#X obj 702 16 r ctrlIn-\$1;
#X obj 702 42 s ctrlOut-\$1;
#X obj 335 870 s notesOut-\$1;
#X obj 25 880 outlet~ outL-\$1;
#X obj 164 880 outlet~ outR-\$1;
#X obj 304 141 text size note-tracker-\$1;
#X obj 335 721 text get note-tracker-\$1;
#X obj 740 187 r arp_select-\$1;
#X obj 287 553 i;
#X obj 335 555 + 1;
#X obj 335 579 moses, f 9;
#X obj 395 604 t b;
#X obj 335 662 i;
#X obj 395 628 i 0;
#X obj 335 791 makenote 60 100;
#X obj 335 815 pack 0 0;
#X obj 335 745 unpack 0 0;
#X obj 923 484 * 1000;
#X text 974 473 arp tick is /4 \, then we want /2 of that, f 19;
#X obj 923 460 / 8;
#X obj 924 440 /;
#X obj 915 396 t b f;
#X obj 917 375 r global-bpm;
#X text 965 440 seconds / beat;
#X msg 912 418 60;
#X text 959 411 note lenght from bpm;
#X obj 151 327 sel 1 94 181 274;
#X obj 152 301 r beat-clock;
#X obj 168 378 t b;
#X connect 1 0 22 0;
#X connect 3 0 4 0;
#X connect 3 1 5 1;
#X connect 4 0 6 0;
#X connect 5 0 27 1;
#X connect 6 0 5 0;
#X connect 7 0 23 0;
#X connect 10 0 1 0;
#X connect 11 0 10 0;
#X connect 22 0 3 0;
#X connect 23 0 33 0;
#X connect 25 0 26 0;
#X connect 26 0 27 0;
#X connect 27 0 29 0;
#X connect 27 1 28 0;
#X connect 28 0 30 0;
#X connect 29 0 25 1;
#X connect 29 0 7 0;
#X connect 30 0 29 0;
#X connect 31 0 32 0;
#X connect 31 1 32 1;
#X connect 32 0 19 0;
#X connect 33 0 31 0;
#X connect 33 1 31 1;
#X connect 34 0 31 2;
#X connect 36 0 34 0;
#X connect 37 0 36 0;
#X connect 38 0 41 0;
#X connect 38 1 37 1;
#X connect 39 0 38 0;
#X connect 41 0 37 0;
#X connect 43 0 45 0;
#X connect 43 1 45 0;
#X connect 43 2 45 0;
#X connect 43 3 45 0;
#X connect 44 0 43 0;
#X connect 45 0 25 0;
