#N canvas 581 118 859 685 12;
#X obj 122 302 pack 0 0 0, f 16;
#X obj 26 34 inlet~ inL-\$1;
#X obj 136 34 inlet~ inR-\$1;
#X obj 354 36 r ctrlIn-\$1;
#X obj 302 621 s notesOut-\$1;
#X obj 408 621 s ctrlOut-\$1;
#X obj 303 180 list prepend vowel;
#X obj 273 309 list prepend all;
#X obj 273 336 list trim;
#X obj 626 163 list prepend vibRate;
#X obj 458 168 list prepend vibGain;
#X obj 310 108 * 4;
#X obj 481 453 list prepend noise;
#X obj 481 413 f 0.1;
#X obj 254 31 r notesIn-\$1;
#X obj 129 597 outlet~ outR-\$1;
#X obj 105 624 outlet~ outL-\$1;
#X obj 481 389 r loadbang-\$1;
#X obj 304 61 r knob2-\$1;
#X obj 528 40 t a a;
#X obj 640 81 sqrt;
#X obj 566 232 r knob1-\$1;
#X obj 564 307 list prepend rel;
#X obj 626 126 * 12;
#X obj 528 16 r knob3-\$1;
#X obj 116 368 clone -s 1 voice~ 2 \$1;
#X obj 472 95 pow 2;
#X obj 460 138 * 5;
#X obj 121 217 poly 2 1, f 15;
#X obj 565 256 * 2000;
#X obj 565 280 + 20;
#X obj 120 540 hip~ 5;
#X obj 116 392 *~ 2;
#X connect 0 0 25 0;
#X connect 6 0 7 0;
#X connect 7 0 8 0;
#X connect 8 0 25 1;
#X connect 9 0 7 0;
#X connect 10 0 7 0;
#X connect 11 0 6 0;
#X connect 12 0 7 0;
#X connect 13 0 12 0;
#X connect 14 0 28 0;
#X connect 17 0 13 0;
#X connect 18 0 11 0;
#X connect 19 0 26 0;
#X connect 19 1 20 0;
#X connect 20 0 23 0;
#X connect 21 0 29 0;
#X connect 22 0 7 0;
#X connect 23 0 9 0;
#X connect 24 0 19 0;
#X connect 25 0 32 0;
#X connect 26 0 27 0;
#X connect 27 0 10 0;
#X connect 28 0 0 0;
#X connect 28 1 0 1;
#X connect 28 2 0 2;
#X connect 29 0 30 0;
#X connect 30 0 22 0;
#X connect 31 0 15 0;
#X connect 31 0 16 0;
#X connect 32 0 31 0;
