#N canvas 402 129 1038 743 12;
#X obj 17 24 inlet;
#X obj 273 146 / 127;
#X obj 17 48 unpack 0 0, f 37;
#X obj 445 143 > 0;
#X obj 630 655 outlet~;
#X obj 445 466 list trim;
#X obj 273 95 t a a, f 25;
#X obj 17 93 t a a, f 21;
#X obj 17 387 list prepend freq;
#X obj 273 245 spigot 0;
#X obj 17 349 spigot 0;
#X obj 273 269 list prepend gain;
#X obj 17 124 mtof;
#X obj 445 214 list prepend gate;
#X obj 595 56 inlet;
#X obj 588 293 list prepend vowel;
#X obj 629 248 list prepend vibRate;
#X obj 698 210 list prepend vibGain;
#X obj 749 181 list prepend noise;
#X obj 595 80 route vowel vibRate vibGain noise rel;
#X obj 445 178 t a a a a;
#X obj 797 523 vline~;
#X obj 797 547 *~;
#X obj 892 471 pack 0 8;
#X obj 803 346 sel 0 1;
#X obj 860 413 t b b;
#X obj 892 445 i 1;
#X obj 795 473 pack 0 300 8;
#X obj 801 385 i 0;
#X obj 696 467 pack 0 0;
#X obj 795 447 f 0.74;
#X obj 631 619 *~;
#X obj 444 530 sff_form_vocal~, f 27;
#X connect 0 0 2 0;
#X connect 1 0 9 0;
#X connect 2 0 7 0;
#X connect 2 1 6 0;
#X connect 3 0 20 0;
#X connect 5 0 32 0;
#X connect 6 0 1 0;
#X connect 6 1 3 0;
#X connect 7 0 12 0;
#X connect 8 0 5 0;
#X connect 9 0 11 0;
#X connect 10 0 8 0;
#X connect 11 0 5 0;
#X connect 12 0 10 0;
#X connect 13 0 5 0;
#X connect 14 0 19 0;
#X connect 15 0 5 0;
#X connect 16 0 5 0;
#X connect 17 0 5 0;
#X connect 18 0 5 0;
#X connect 19 0 15 0;
#X connect 19 1 16 0;
#X connect 19 2 17 0;
#X connect 19 3 18 0;
#X connect 19 4 29 1;
#X connect 20 0 13 0;
#X connect 20 1 9 1;
#X connect 20 2 10 1;
#X connect 20 3 24 0;
#X connect 21 0 22 0;
#X connect 21 0 22 1;
#X connect 22 0 31 1;
#X connect 23 0 21 0;
#X connect 24 0 28 0;
#X connect 24 1 25 0;
#X connect 25 0 30 0;
#X connect 25 1 26 0;
#X connect 26 0 23 0;
#X connect 27 0 21 0;
#X connect 28 0 29 0;
#X connect 29 0 21 0;
#X connect 30 0 27 0;
#X connect 31 0 4 0;
#X connect 32 1 31 0;
