#N canvas 63 88 689 518 12;
#X text 191 93 THE LATCH!;
#X obj 137 58 inlet;
#X obj 137 316 outlet;
#N canvas 8 50 759 486 latch-notes 0;
#N canvas 623 59 817 631 latcher 0;
#X obj 169 378 bag;
#X msg 317 311 flush;
#X obj 169 81 t a a, f 17;
#X obj 285 257 t a b;
#X obj 169 44 inlet;
#X obj 285 475 outlet;
#X obj 443 58 inlet;
#X obj 285 126 stripnote;
#X obj 285 228 pack, f 9;
#X obj 443 142 t b;
#X obj 169 123 unpack;
#X obj 169 156 swap, f 6;
#X obj 169 188 pack, f 6;
#X obj 169 225 route 0;
#X obj 169 400 pack 1 0;
#X obj 169 261 pack 0 100;
#X connect 0 0 14 0;
#X connect 1 0 0 0;
#X connect 2 0 10 0;
#X connect 2 1 7 0;
#X connect 3 0 5 0;
#X connect 3 1 1 0;
#X connect 4 0 2 0;
#X connect 6 0 9 0;
#X connect 7 0 8 0;
#X connect 7 1 8 1;
#X connect 8 0 3 0;
#X connect 9 0 1 0;
#X connect 10 0 11 0;
#X connect 10 1 11 1;
#X connect 11 0 12 0;
#X connect 11 1 12 1;
#X connect 12 0 13 0;
#X connect 13 0 15 0;
#X connect 14 0 5 0;
#X connect 15 0 0 0;
#X restore 43 413 pd latcher;
#X obj 173 298 spigot 1;
#X obj 43 298 spigot 0;
#X obj 226 272 == 0;
#X obj 193 134 inlet;
#X obj 43 626 outlet;
#X obj 43 106 inlet;
#X text 241 135 bang enable / disables latch;
#X text 44 53 incoming notes get sent through latch if enabled \, or directly to output if disabled;
#X obj 309 298 b;
#X obj 193 159 t f f b, f 17;
#X connect 0 0 5 0;
#X connect 1 0 5 0;
#X connect 2 0 0 0;
#X connect 3 0 1 1;
#X connect 4 0 10 0;
#X connect 6 0 2 0;
#X connect 6 0 1 0;
#X connect 9 0 0 1;
#X connect 10 0 2 1;
#X connect 10 1 3 0;
#X connect 10 2 9 0;
#X restore 137 273 pd latch-notes;
#X obj 232 142 inlet;
#X text 253 170 0 - Pass through \, 1 - Latch Notes;
#X connect 1 0 3 0;
#X connect 3 0 2 0;
#X connect 4 0 3 1;
