#N canvas 63 88 450 300 12;
#X obj 116 63 inlet;
#X obj 116 87 t b b;
#X obj 116 126 delay 10;
#X msg 115 153 1;
#X obj 115 180 s \$1-enable;
#X msg 204 125 0;
#X obj 204 149 s switcheroo-disable-all;
#X connect 0 0 1 0;
#X connect 1 0 2 0;
#X connect 1 1 5 0;
#X connect 2 0 3 0;
#X connect 3 0 4 0;
#X connect 5 0 6 0;
