#N canvas 170 25 1003 847 12;
#X obj 259 70 inlet;
#X text 300 70 seqKnob;
#X obj 68 65 inlet;
#X text 110 62 knob;
#X obj 369 70 inlet;
#X text 409 69 override;
#X obj 259 776 outlet;
#X obj 68 688 spigot 1;
#X obj 291 262 spigot 1;
#X obj 361 261 i 0;
#X obj 259 207 * 255;
#X obj 259 231 t a a;
#X obj 291 343 s \$0-status;
#X obj 291 310 i 1;
#X obj 291 286 t b b b;
#X obj 177 256 i 0;
#X obj 100 327 s \$0-status;
#X obj 68 229 t a a;
#X obj 100 255 spigot 0;
#X obj 100 303 i 0;
#X obj 121 632 r \$0-status;
#X obj 121 656 == 0;
#X obj 405 416 i;
#X obj 145 166 t b b;
#X obj 177 215 i 1;
#X obj 122 598 i 1;
#X obj 312 666 r \$0-status;
#X obj 99 387 change -1;
#X obj 67 358 t a a;
#X obj 100 411 t a a b;
#X obj 145 439 f;
#X obj 122 465 -;
#X obj 122 489 abs;
#X obj 122 537 sel 1;
#X obj 122 513 > 2;
#X obj 259 745 / 255;
#X obj 369 94 t b;
#X obj 68 205 override \$1;
#X text 538 22 Arg 1: override amount;
#X text 303 208 if seq knob is moving override knob;
#X text 600 122 r \$0-status;
#X obj 100 279 t b b, f 7;
#X text 177 481 if knob stops moving \,;
#X text 216 563 after 2 seconds return to the sequence knob;
#X obj 259 703 spigot 0;
#N canvas 63 88 450 300 delay-2000 0;
#X obj 40 20 inlet;
#X obj 40 44 t b b;
#X msg 81 80 stop;
#X obj 40 153 outlet;
#X obj 40 115 delay 2000;
#X connect 0 0 1 0;
#X connect 1 0 4 0;
#X connect 1 1 2 0;
#X connect 2 0 4 0;
#X connect 4 0 3 0;
#X restore 122 564 pd delay-2000;
#X text 637 141 0: knob out;
#X text 636 164 1: seq-knob out;
#X text 525 303 after no movement of knob after 2 seconds and seq is still play mute knob and send out seq-knob;
#X text 525 281 if knob is moved mute seq-knob;
#X connect 0 0 10 0;
#X connect 2 0 37 0;
#X connect 4 0 36 0;
#X connect 7 0 35 0;
#X connect 8 0 14 0;
#X connect 9 0 8 1;
#X connect 10 0 11 0;
#X connect 11 0 44 0;
#X connect 11 1 8 0;
#X connect 13 0 12 0;
#X connect 14 0 13 0;
#X connect 14 1 23 0;
#X connect 14 2 9 0;
#X connect 15 0 18 1;
#X connect 17 0 28 0;
#X connect 17 1 18 0;
#X connect 18 0 41 0;
#X connect 19 0 16 0;
#X connect 20 0 21 0;
#X connect 21 0 7 1;
#X connect 22 0 8 1;
#X connect 23 0 37 1;
#X connect 23 1 24 0;
#X connect 24 0 18 1;
#X connect 25 0 22 0;
#X connect 26 0 44 1;
#X connect 27 0 29 0;
#X connect 28 0 7 0;
#X connect 28 1 27 0;
#X connect 29 0 30 1;
#X connect 29 1 31 0;
#X connect 29 2 30 0;
#X connect 30 0 31 1;
#X connect 31 0 32 0;
#X connect 32 0 34 0;
#X connect 33 0 45 0;
#X connect 34 0 33 0;
#X connect 35 0 6 0;
#X connect 36 0 23 0;
#X connect 37 0 17 0;
#X connect 41 0 19 0;
#X connect 41 1 15 0;
#X connect 44 0 35 0;
#X connect 45 0 25 0;
