#N canvas 193 49 1057 660 10;
#X obj 47 241 s knob1;
#X obj 619 84 notein \$1;
#X obj 816 90 pgmin \$1;
#X obj 58 81 ctlin \$3 \$1;
#X obj 230 78 ctlin \$4 \$1;
#X obj 416 82 ctlin \$5 \$1;
#X obj 82 560 ctlout \$3 \$2;
#X obj 246 560 ctlout \$4 \$2;
#X obj 447 564 ctlout \$5 \$2;
#X obj 624 458 noteout \$2;
#X obj 817 420 pgmout \$2;
#X obj 74 363 r knob1;
#X obj 240 366 r knob2;
#X obj 428 375 r knob3;
#X obj 54 166 t f b;
#X obj 105 213 s knob1-override;
#X obj 232 165 t f b;
#X obj 414 163 t f b;
#X obj 227 231 s knob2;
#X obj 283 212 s knob2-override;
#X obj 408 232 s knob3;
#X obj 465 210 s knob3-override;
#X obj 74 415 * 127;
#X obj 74 436 i;
#X obj 80 532 change -1;
#X obj 242 416 * 127;
#X obj 242 437 i;
#X obj 248 533 change -1;
#X obj 436 419 * 127;
#X obj 436 440 i;
#X obj 442 536 change -1;
#X obj 48 206 / 127;
#X obj 232 198 / 127;
#X obj 409 205 / 127;
#X obj 621 116 pack;
#X obj 626 431 unpack;
#X obj 623 166 s midi-note-in;
#X obj 616 340 r midi-note-out;
#X obj 818 155 s midi-pc-in;
#X obj 815 360 r midi-pc-out;
#X text 141 9 params: in channel \, out channel \, cc knob1 \, cc knob2
\, cc knob3, f 71;
#X obj 82 487 spigot;
#X obj 95 459 r midi-cc-out-enable;
#X obj 249 489 spigot;
#X obj 262 461 r midi-cc-out-enable;
#X obj 452 487 spigot;
#X obj 465 459 r midi-cc-out-enable;
#X obj 53 127 spigot;
#X obj 89 103 r midi-cc-in-enable;
#X obj 229 133 spigot;
#X obj 265 109 r midi-cc-in-enable;
#X obj 427 126 spigot;
#X obj 463 102 r midi-cc-in-enable;
#X obj 615 140 spigot;
#X obj 669 116 r midi-note-in-enable;
#X obj 879 92 r midi-pc-in-enable;
#X obj 823 125 spigot;
#X obj 821 390 spigot;
#X obj 649 377 r midi-note-out-enable;
#X obj 910 363 r midi-pc-out-enable;
#X obj 618 407 spigot;
#X connect 1 0 34 0;
#X connect 1 1 34 1;
#X connect 2 0 56 0;
#X connect 3 0 47 0;
#X connect 4 0 49 0;
#X connect 5 0 51 0;
#X connect 11 0 22 0;
#X connect 12 0 25 0;
#X connect 13 0 28 0;
#X connect 14 0 31 0;
#X connect 14 1 15 0;
#X connect 16 0 32 0;
#X connect 16 1 19 0;
#X connect 17 0 33 0;
#X connect 17 1 21 0;
#X connect 22 0 23 0;
#X connect 23 0 41 0;
#X connect 24 0 6 0;
#X connect 25 0 26 0;
#X connect 26 0 43 0;
#X connect 27 0 7 0;
#X connect 28 0 29 0;
#X connect 29 0 45 0;
#X connect 30 0 8 0;
#X connect 31 0 0 0;
#X connect 32 0 18 0;
#X connect 33 0 20 0;
#X connect 34 0 53 0;
#X connect 35 0 9 0;
#X connect 35 1 9 1;
#X connect 37 0 60 0;
#X connect 39 0 57 0;
#X connect 41 0 24 0;
#X connect 42 0 41 1;
#X connect 43 0 27 0;
#X connect 44 0 43 1;
#X connect 45 0 30 0;
#X connect 46 0 45 1;
#X connect 47 0 14 0;
#X connect 48 0 47 1;
#X connect 49 0 16 0;
#X connect 50 0 49 1;
#X connect 51 0 17 0;
#X connect 52 0 51 1;
#X connect 53 0 36 0;
#X connect 54 0 53 1;
#X connect 55 0 56 1;
#X connect 56 0 38 0;
#X connect 57 0 10 0;
#X connect 58 0 60 1;
#X connect 59 0 57 1;
#X connect 60 0 35 0;
