#N canvas 15 50 861 613 10;
#X obj 343 305 -;
#X obj 343 327 abs;
#X obj 339 94 tgl 15 0 empty empty empty 17 7 0 10 #fcfcfc #000000
#000000 0 1;
#X obj 212 129 t f f;
#X text 414 135 if the knob is locked \, route to check for unlock
;
#X obj 332 248 t f b;
#X text 440 248 snapshot of knob1 before it was locked;
#X obj 211 40 inlet;
#X obj 343 384 sel 1;
#X msg 343 437 0;
#X obj 161 427 outlet;
#X text 391 317 if it changes more than 20 it has been moved \, so
disable lock;
#X obj 466 8 inlet;
#X obj 313 27 r \$0-lock;
#X obj 343 462 s \$0-lock;
#X obj 213 256 v \$0-snapshot;
#X msg 460 57 1;
#X obj 364 276 v \$0-snapshot;
#X obj 343 351 > \$1;
#X obj 461 32 t b;
#X obj 339 114 t f f, f 8;
#X obj 339 138 ==;
#X obj 211 209 spigot 1;
#X obj 332 211 spigot 0;
#X obj 315 409 t b b;
#X obj 292 440 outlet;
#X text 417 413 bang on unlock;
#X connect 0 0 1 0;
#X connect 1 0 18 0;
#X connect 2 0 20 0;
#X connect 3 0 22 0;
#X connect 3 1 23 0;
#X connect 5 0 0 0;
#X connect 5 1 17 0;
#X connect 7 0 3 0;
#X connect 8 0 24 0;
#X connect 9 0 14 0;
#X connect 12 0 19 0;
#X connect 13 0 2 0;
#X connect 16 0 2 0;
#X connect 17 0 0 1;
#X connect 18 0 8 0;
#X connect 19 0 16 0;
#X connect 20 0 21 0;
#X connect 20 1 23 1;
#X connect 21 0 22 1;
#X connect 22 0 15 0;
#X connect 22 0 10 0;
#X connect 23 0 5 0;
#X connect 24 0 25 0;
#X connect 24 1 9 0;
