#N canvas 85 29 964 641 10;
#X obj 386 321 spigot;
#X obj 545 270 bag;
#X obj 542 215 sel 0;
#X msg 542 240 flush;
#X obj 542 297 pack 0 0;
#X msg 642 108 0;
#X obj 376 147 t a a;
#X obj 642 142 s \$1-enable;
#X obj 427 96 r \$1-enable;
#X obj 377 443 \$2 \$1;
#X text 599 249 shut off any notes before disbaling;
#X obj 387 362 s notesIn-\$1;
#X text 429 443 the pattern module;
#X obj 642 84 r pattern-disable-all;
#X text 276 13 Loads a pattern module and allows it to be enabled and
disabled.;
#X obj 426 147 t f f;
#X obj 379 492 r notesOut-\$1;
#X obj 333 69 r notes-to-pattern;
#X obj 377 531 s notes-from-pattern;
#X connect 0 0 11 0;
#X connect 1 0 4 0;
#X connect 2 0 3 0;
#X connect 3 0 1 0;
#X connect 4 0 11 0;
#X connect 5 0 7 0;
#X connect 6 0 0 0;
#X connect 6 1 1 0;
#X connect 8 0 15 0;
#X connect 13 0 5 0;
#X connect 15 0 0 1;
#X connect 15 1 2 0;
#X connect 16 0 18 0;
#X connect 17 0 6 0;
