#N canvas 63 88 887 693 12;
#N canvas 55 54 526 600 switcher 0;
#X obj 113 261 t b b;
#X obj 113 295 delay 5;
#X obj 263 387 line~;
#X msg 176 296 0 4;
#X obj 133 476 *~;
#X msg 113 327 0;
#X obj 113 220 bang;
#X msg 406 229 1;
#X msg 359 193 1 4;
#X obj 352 143 t b b b;
#X obj 139 506 outlet~;
#X obj 371 507 outlet;
#X obj 112 48 inlet;
#X obj 353 50 inlet;
#X connect 0 0 1 0;
#X connect 0 1 3 0;
#X connect 1 0 5 0;
#X connect 2 0 4 0;
#X connect 2 0 4 1;
#X connect 3 0 2 0;
#X connect 4 0 10 0;
#X connect 5 0 11 0;
#X connect 6 0 0 0;
#X connect 7 0 11 0;
#X connect 8 0 2 0;
#X connect 9 1 8 0;
#X connect 9 2 7 0;
#X connect 12 0 6 0;
#X connect 13 0 9 0;
#X restore 417 548 pd switcher;
#X obj 417 519 sel 0 1;
#X obj 398 608 *~;
#X obj 500 593 switch~;
#X obj 386 275 spigot;
#X obj 545 224 bag;
#X obj 542 169 sel 0;
#X msg 542 194 flush;
#X obj 426 101 t f f;
#X obj 385 387 \$1 \$2;
#X obj 397 661 throw~ outL;
#X obj 289 558 r~ \$2-out;
#X obj 542 251 pack 0 0;
#X obj 387 316 s \$2-notes;
#X obj 387 30 r notes;
#X obj 426 54 r \$2-enable;
#X obj 418 462 r \$2-enable;
#X obj 144 49 r knob1;
#X obj 203 48 r knob2;
#X obj 260 48 r knob3;
#X obj 151 254 spigot;
#X obj 208 253 spigot;
#X obj 261 255 spigot;
#X obj 105 304 s \$2-knob1;
#X obj 200 307 s \$2-knob2;
#X obj 279 310 s \$2-knob3;
#X obj 190 201 r \$2-enable;
#X obj 235 165 r \$2-enable;
#X obj 286 137 r \$2-enable;
#X obj 642 38 r switcheroo-disable-all;
#X msg 642 62 0;
#X obj 642 96 s \$2-enable;
#X connect 0 0 2 1;
#X connect 0 1 3 0;
#X connect 1 0 0 0;
#X connect 1 1 0 1;
#X connect 2 0 10 0;
#X connect 4 0 13 0;
#X connect 5 0 12 0;
#X connect 6 0 7 0;
#X connect 7 0 5 0;
#X connect 8 0 4 1;
#X connect 8 1 6 0;
#X connect 11 0 2 0;
#X connect 12 0 13 0;
#X connect 14 0 5 0;
#X connect 14 0 4 0;
#X connect 15 0 8 0;
#X connect 16 0 1 0;
#X connect 17 0 20 0;
#X connect 18 0 21 0;
#X connect 19 0 22 0;
#X connect 20 0 23 0;
#X connect 21 0 24 0;
#X connect 22 0 25 0;
#X connect 26 0 20 1;
#X connect 27 0 21 1;
#X connect 28 0 22 1;
#X connect 29 0 30 0;
#X connect 30 0 31 0;
