#N canvas 85 29 964 641 10;
#N canvas 55 54 526 600 switcher 0;
#X obj 113 261 t b b;
#X obj 263 387 line~;
#X obj 133 476 *~;
#X msg 113 327 0;
#X obj 113 220 bang;
#X msg 406 229 1;
#X msg 359 193 1 4;
#X obj 352 143 t b b b;
#X obj 139 506 outlet~;
#X obj 371 507 outlet;
#X obj 112 48 inlet;
#X obj 353 50 inlet;
#X msg 176 296 0 5;
#X obj 113 295 delay 7;
#X connect 0 0 13 0;
#X connect 0 1 12 0;
#X connect 1 0 2 0;
#X connect 1 0 2 1;
#X connect 2 0 8 0;
#X connect 3 0 9 0;
#X connect 4 0 0 0;
#X connect 5 0 9 0;
#X connect 6 0 1 0;
#X connect 7 1 6 0;
#X connect 7 2 5 0;
#X connect 10 0 4 0;
#X connect 11 0 7 0;
#X connect 12 0 1 0;
#X connect 13 0 3 0;
#X restore 553 403 pd switcher;
#X obj 553 374 sel 0 1;
#X obj 363 543 *~;
#X obj 626 441 switch~;
#X obj 386 321 spigot;
#X obj 545 270 bag;
#X obj 542 215 sel 0;
#X msg 542 240 flush;
#X obj 380 579 throw~ outL;
#X obj 542 297 pack 0 0;
#X obj 144 95 r knob1;
#X obj 203 94 r knob2;
#X obj 260 94 r knob3;
#X obj 151 300 spigot;
#X obj 208 299 spigot;
#X obj 261 301 spigot;
#X msg 642 108 0;
#X obj 376 147 t a a;
#X obj 642 84 r synth-disable-all;
#X obj 642 142 s \$1-enable;
#X obj 501 98 r \$1-enable;
#X obj 286 183 r \$1-enable;
#X obj 235 211 r \$1-enable;
#X obj 200 419 \$2 \$1;
#X text 252 419 the synth module;
#X text 276 13 Loads a synth module and allows it to be enabled and
disabled. When enabled knobs and notes are sent to the module.;
#X text 647 403 fade out when disabled;
#X text 599 249 shut off any notes before disbaling;
#X obj 426 147 t f f f;
#X text 687 444 switch it off after fade out;
#X obj 105 350 s shape-\$1;
#X obj 200 353 s tone-\$1;
#X obj 387 362 s notesIn-\$1;
#X obj 338 93 r notes-to-synth;
#X obj 190 247 r \$1-enable;
#X obj 279 356 s suprise-\$1;
#X obj 300 379 s surprise-\$1;
#X connect 0 0 2 1;
#X connect 0 1 3 0;
#X connect 1 0 0 0;
#X connect 1 1 0 1;
#X connect 2 0 8 0;
#X connect 4 0 32 0;
#X connect 5 0 9 0;
#X connect 6 0 7 0;
#X connect 7 0 5 0;
#X connect 9 0 32 0;
#X connect 10 0 13 0;
#X connect 11 0 14 0;
#X connect 12 0 15 0;
#X connect 13 0 30 0;
#X connect 14 0 31 0;
#X connect 15 0 35 0;
#X connect 15 0 36 0;
#X connect 16 0 19 0;
#X connect 17 0 4 0;
#X connect 17 1 5 0;
#X connect 18 0 16 0;
#X connect 20 0 28 0;
#X connect 21 0 15 1;
#X connect 22 0 14 1;
#X connect 23 0 2 0;
#X connect 28 0 4 1;
#X connect 28 1 1 0;
#X connect 28 2 6 0;
#X connect 33 0 17 0;
#X connect 34 0 13 1;
