#N canvas 0 25 1440 772 10;
#N canvas 0 50 450 278 (subpatch) 0;
#X array \$1-array 1280 float 2;
#X coords 0 1 1280 -1 335 251 1 0 0;
#X restore 887 256 graph;
#X obj 1243 391 soundfiler;
#X floatatom 1243 422 10 0 0 0 - - - 0;
#X floatatom 1243 481 10 0 0 0 - - - 0;
#X obj 1243 450 / 44.1;
#X text 1299 450 sample rate / 1000;
#X obj 207 689 line~;
#X obj 145 215 inlet;
#X obj 145 281 bng 15 250 50 0 empty empty empty 17 7 0 10 #fcfcfc
#000000 #000000;
#X msg 285 379 0 0;
#X obj 116 528 pack 0 0;
#X floatatom 172 470 5 0 0 0 - - - 0;
#X floatatom 180 403 5 0 0 0 - - - 0;
#X obj 126 426 f;
#X obj 112 478 * 44.1;
#X obj 1243 512 s \$1-duration;
#X obj 208 716 tabread4~ \$1-array;
#X obj 171 439 r \$1-duration;
#X obj 180 378 r \$1-duration;
#X obj 1243 193 bng 15 250 50 0 empty empty empty 17 7 0 10 #fcfcfc
#000000 #000000;
#X obj 1243 219 symbol \$1-array;
#X obj 1243 305 list prepend -resize;
#X obj 1243 333 list prepend read;
#X obj 1243 361 list trim;
#X text 1123 121 construct the read message using the sound file name
(\$1);
#X obj 1243 241 list;
#X obj 1243 272 list prepend \$1;
#X obj 212 504 f;
#X obj 202 554 * 1;
#X obj 341 439 * 1.5;
#X obj 341 468 + 0.5;
#X obj 300 510 t b f;
#X obj 341 392 - 1;
#X obj 341 416 abs;
#X text 421 23 loads and plays sound file;
#X text 422 45 argument 1: soundfile to load;
#X text 423 66 argument 2: key number to play;
#X text 1319 480 milliseconds;
#X obj 208 794 hip~ 5;
#X obj 207 760 *~ 0.5;
#X obj 208 839 outlet~;
#X obj 1243 166 inlet;
#X obj 341 354 r \$2-samp-speed;
#X obj 197 328 t b b;
#X connect 1 0 2 0;
#X connect 2 0 4 0;
#X connect 3 0 15 0;
#X connect 4 0 3 0;
#X connect 6 0 16 0;
#X connect 7 0 8 0;
#X connect 8 0 43 0;
#X connect 9 0 6 0;
#X connect 10 0 6 0;
#X connect 11 0 27 0;
#X connect 12 0 13 1;
#X connect 13 0 14 0;
#X connect 14 0 10 0;
#X connect 16 0 39 0;
#X connect 17 0 11 0;
#X connect 18 0 12 0;
#X connect 19 0 20 0;
#X connect 20 0 25 0;
#X connect 21 0 22 0;
#X connect 22 0 23 0;
#X connect 23 0 1 0;
#X connect 25 0 26 0;
#X connect 26 0 21 0;
#X connect 27 0 28 0;
#X connect 28 0 10 1;
#X connect 29 0 30 0;
#X connect 30 0 31 0;
#X connect 31 0 27 0;
#X connect 31 1 28 1;
#X connect 32 0 33 0;
#X connect 33 0 29 0;
#X connect 38 0 40 0;
#X connect 39 0 38 0;
#X connect 41 0 19 0;
#X connect 42 0 32 0;
#X connect 43 0 13 0;
#X connect 43 1 9 0;
