#N canvas 179 204 262 186 10;
#X obj 88 92 symbol;
#X obj 88 65 t b;
#X obj 88 113 outlet;
#X obj 88 41 inlet;
#X obj 129 61 r \$1;
#X connect 0 0 2 0;
#X connect 1 0 0 0;
#X connect 3 0 1 0;
#X connect 4 0 0 1;
