#N canvas 579 227 1199 672 12;
#X obj 68 34 inlet;
#X obj 68 58 unpack 0 0;
#X obj 143 99 sel 0;
#X obj 179 124 t b;
#X obj 179 190 pack 0 8;
#X obj 179 148 i 1;
#X obj 89 594 outlet~;
#N canvas 4 50 1686 818 wave-control 0;
#X obj 169 466 * 6.28319;
#X obj 169 496 cos;
#X obj 258 399 / 2;
#X obj 258 498 * 6.28319;
#X obj 258 528 cos;
#X obj 258 465 * 0.5;
#X obj 258 433 - 0.5;
#X obj 358 399 / 2;
#X obj 358 498 * 6.28319;
#X obj 358 528 cos;
#X obj 358 465 * 0.5;
#X obj 358 433 - 0.5;
#X obj 448 399 / 2;
#X obj 448 498 * 6.28319;
#X obj 448 528 cos;
#X obj 448 465 * 0.5;
#X obj 448 433 - 0.5;
#X obj 548 399 / 2;
#X obj 548 498 * 6.28319;
#X obj 548 528 cos;
#X obj 548 465 * 0.5;
#X obj 548 433 - 0.5;
#X obj 1063 465 * 6.28319;
#X obj 169 348 clip 0 1;
#X obj 169 433 * 0.25;
#X obj 258 350 clip 0 2;
#X obj 357 350 clip 1 3;
#X obj 448 350 clip 2 4;
#X obj 358 374 - 1;
#X obj 448 375 - 2;
#X obj 548 374 - 3;
#X obj 548 350 clip 3 5;
#X obj 1063 432 * 0.25;
#X obj 1063 495 sin;
#X obj 169 520 s \$0-wave-1;
#X obj 258 563 s \$0-wave-2;
#X obj 359 563 s \$0-wave-3;
#X obj 455 563 s \$0-wave-4;
#X obj 555 563 s \$0-wave-5;
#X obj 170 281 t a a a a a a a a a a, f 116;
#X obj 668 400 / 2;
#X obj 668 499 * 6.28319;
#X obj 668 529 cos;
#X obj 668 466 * 0.5;
#X obj 668 434 - 0.5;
#X obj 768 400 / 2;
#X obj 768 499 * 6.28319;
#X obj 768 529 cos;
#X obj 768 466 * 0.5;
#X obj 768 434 - 0.5;
#X obj 858 400 / 2;
#X obj 858 499 * 6.28319;
#X obj 858 529 cos;
#X obj 858 466 * 0.5;
#X obj 858 434 - 0.5;
#X obj 958 400 / 2;
#X obj 958 499 * 6.28319;
#X obj 958 529 cos;
#X obj 958 466 * 0.5;
#X obj 958 434 - 0.5;
#X obj 668 351 clip 4 6;
#X obj 668 375 - 4;
#X obj 768 375 - 5;
#X obj 767 351 clip 5 7;
#X obj 858 351 clip 6 8;
#X obj 958 351 clip 7 9;
#X obj 1063 367 clip 8 9;
#X obj 858 376 - 6;
#X obj 958 375 - 7;
#X obj 1063 390 - 8;
#X obj 668 564 s \$0-wave-6;
#X obj 770 562 s \$0-wave-7;
#X obj 866 563 s \$0-wave-8;
#X obj 966 564 s \$0-wave-9;
#X obj 1065 529 s \$0-wave-10;
#X obj 364 129 inlet;
#X connect 0 0 1 0;
#X connect 1 0 34 0;
#X connect 2 0 6 0;
#X connect 3 0 4 0;
#X connect 4 0 35 0;
#X connect 5 0 3 0;
#X connect 6 0 5 0;
#X connect 7 0 11 0;
#X connect 8 0 9 0;
#X connect 9 0 36 0;
#X connect 10 0 8 0;
#X connect 11 0 10 0;
#X connect 12 0 16 0;
#X connect 13 0 14 0;
#X connect 14 0 37 0;
#X connect 15 0 13 0;
#X connect 16 0 15 0;
#X connect 17 0 21 0;
#X connect 18 0 19 0;
#X connect 19 0 38 0;
#X connect 20 0 18 0;
#X connect 21 0 20 0;
#X connect 22 0 33 0;
#X connect 23 0 24 0;
#X connect 24 0 0 0;
#X connect 25 0 2 0;
#X connect 26 0 28 0;
#X connect 27 0 29 0;
#X connect 28 0 7 0;
#X connect 29 0 12 0;
#X connect 30 0 17 0;
#X connect 31 0 30 0;
#X connect 32 0 22 0;
#X connect 33 0 74 0;
#X connect 39 0 23 0;
#X connect 39 1 25 0;
#X connect 39 2 26 0;
#X connect 39 3 27 0;
#X connect 39 4 31 0;
#X connect 39 5 60 0;
#X connect 39 6 63 0;
#X connect 39 7 64 0;
#X connect 39 8 65 0;
#X connect 39 9 66 0;
#X connect 40 0 44 0;
#X connect 41 0 42 0;
#X connect 42 0 70 0;
#X connect 43 0 41 0;
#X connect 44 0 43 0;
#X connect 45 0 49 0;
#X connect 46 0 47 0;
#X connect 47 0 71 0;
#X connect 48 0 46 0;
#X connect 49 0 48 0;
#X connect 50 0 54 0;
#X connect 51 0 52 0;
#X connect 52 0 72 0;
#X connect 53 0 51 0;
#X connect 54 0 53 0;
#X connect 55 0 59 0;
#X connect 56 0 57 0;
#X connect 57 0 73 0;
#X connect 58 0 56 0;
#X connect 59 0 58 0;
#X connect 60 0 61 0;
#X connect 61 0 40 0;
#X connect 62 0 45 0;
#X connect 63 0 62 0;
#X connect 64 0 67 0;
#X connect 65 0 68 0;
#X connect 66 0 69 0;
#X connect 67 0 50 0;
#X connect 68 0 55 0;
#X connect 69 0 32 0;
#X connect 75 0 39 0;
#X restore 436 180 pd wave-control;
#X obj 82 511 *~, f 15;
#N canvas 4 62 1524 739 the-waves 0;
#X obj 63 373 *~;
#X obj 80 347 line~;
#X obj 82 291 r \$0-wave-1;
#X obj 183 373 *~;
#X obj 200 347 line~;
#X obj 313 373 *~;
#X obj 330 347 line~;
#X obj 433 373 *~;
#X obj 450 347 line~;
#X obj 583 373 *~;
#X obj 600 347 line~;
#X obj 703 373 *~;
#X obj 720 347 line~;
#X obj 201 291 r \$0-wave-2;
#X obj 329 293 r \$0-wave-3;
#X obj 452 291 r \$0-wave-4;
#X obj 602 291 r \$0-wave-5;
#X obj 723 291 r \$0-wave-6;
#X obj 715 675 outlet~;
#X obj 80 319 pack 0 100;
#X obj 200 319 pack 0 100;
#X obj 331 318 pack 0 100;
#X obj 451 318 pack 0 100;
#X obj 601 318 pack 0 100;
#X obj 720 319 pack 0 100;
#X obj 841 372 *~;
#X obj 858 346 line~;
#X obj 961 372 *~;
#X obj 978 346 line~;
#X obj 1111 372 *~;
#X obj 1128 346 line~;
#X obj 1231 372 *~;
#X obj 1248 346 line~;
#X obj 859 317 pack 0 100;
#X obj 979 317 pack 0 100;
#X obj 1129 317 pack 0 100;
#X obj 1248 318 pack 0 100;
#X obj 857 292 r \$0-wave-7;
#X obj 980 290 r \$0-wave-8;
#X obj 1129 290 r \$0-wave-9;
#X obj 1253 289 r \$0-wave-10;
#X obj 63 249 tabread4~ form-1;
#X obj 183 249 tabread4~ form-2;
#X obj 313 249 tabread4~ form-3;
#X obj 433 249 tabread4~ form-4;
#X obj 584 249 tabread4~ form-5;
#X obj 703 249 tabread4~ form-6;
#X obj 841 248 tabread4~ form-7;
#X obj 960 248 tabread4~ form-8;
#X obj 1113 247 tabread4~ form-9;
#X obj 1231 248 tabread4~ form-10;
#X obj 673 127 +~ 1;
#X obj 673 101 *~ 1024;
#X obj 674 26 phasor~;
#X obj 677 0 inlet~;
#X obj 674 50 +~;
#X obj 674 79 wrap~;
#X obj 867 20 inlet~;
#X connect 0 0 18 0;
#X connect 1 0 0 1;
#X connect 2 0 19 0;
#X connect 3 0 18 0;
#X connect 4 0 3 1;
#X connect 5 0 18 0;
#X connect 6 0 5 1;
#X connect 7 0 18 0;
#X connect 8 0 7 1;
#X connect 9 0 18 0;
#X connect 10 0 9 1;
#X connect 11 0 18 0;
#X connect 12 0 11 1;
#X connect 13 0 20 0;
#X connect 14 0 21 0;
#X connect 15 0 22 0;
#X connect 16 0 23 0;
#X connect 17 0 24 0;
#X connect 19 0 1 0;
#X connect 20 0 4 0;
#X connect 21 0 6 0;
#X connect 22 0 8 0;
#X connect 23 0 10 0;
#X connect 24 0 12 0;
#X connect 25 0 18 0;
#X connect 26 0 25 1;
#X connect 27 0 18 0;
#X connect 28 0 27 1;
#X connect 29 0 18 0;
#X connect 30 0 29 1;
#X connect 31 0 18 0;
#X connect 32 0 31 1;
#X connect 33 0 26 0;
#X connect 34 0 28 0;
#X connect 35 0 30 0;
#X connect 36 0 32 0;
#X connect 37 0 33 0;
#X connect 38 0 34 0;
#X connect 39 0 35 0;
#X connect 40 0 36 0;
#X connect 41 0 0 0;
#X connect 42 0 3 0;
#X connect 43 0 5 0;
#X connect 44 0 7 0;
#X connect 45 0 9 0;
#X connect 46 0 11 0;
#X connect 47 0 25 0;
#X connect 48 0 27 0;
#X connect 49 0 29 0;
#X connect 50 0 31 0;
#X connect 51 0 41 0;
#X connect 51 0 42 0;
#X connect 51 0 43 0;
#X connect 51 0 44 0;
#X connect 51 0 45 0;
#X connect 51 0 46 0;
#X connect 51 0 47 0;
#X connect 51 0 48 0;
#X connect 51 0 49 0;
#X connect 51 0 50 0;
#X connect 52 0 51 0;
#X connect 53 0 55 0;
#X connect 54 0 53 0;
#X connect 55 0 56 0;
#X connect 56 0 52 0;
#X connect 57 0 55 1;
#X restore 51 427 pd the-waves;
#X obj 184 272 vline~;
#X obj 129 236 pack 0 100;
#X obj 184 306 *~;
#X obj 50 370 mtof~;
#X obj 50 291 +~;
#X obj 95 298 osc~ 0.5;
#X obj 68 82 sig~;
#X obj 414 322 lop~ 5;
#X obj 94 321 *~;
#X obj 355 56 inlet;
#X obj 52 457 *~ 0.35, f 11;
#X obj 353 83 route wave rel lfoD lfoR;
#X connect 0 0 1 0;
#X connect 1 0 16 0;
#X connect 1 1 2 0;
#X connect 2 0 11 0;
#X connect 2 1 3 0;
#X connect 3 0 5 0;
#X connect 4 0 10 0;
#X connect 5 0 4 0;
#X connect 8 0 6 0;
#X connect 9 0 20 0;
#X connect 10 0 12 0;
#X connect 10 0 12 1;
#X connect 11 0 10 0;
#X connect 12 0 8 1;
#X connect 13 0 9 0;
#X connect 14 0 13 0;
#X connect 15 0 18 0;
#X connect 16 0 14 0;
#X connect 17 0 18 1;
#X connect 18 0 14 1;
#X connect 19 0 21 0;
#X connect 20 0 8 0;
#X connect 21 0 7 0;
#X connect 21 1 11 1;
#X connect 21 2 17 0;
#X connect 21 3 15 0;
