#N canvas 268 120 1172 685 12;
#X obj 122 302 pack 0 0 0, f 16;
#X obj 26 34 inlet~ inL-\$1;
#X obj 136 34 inlet~ inR-\$1;
#X obj 354 36 r ctrlIn-\$1;
#X obj 302 621 s notesOut-\$1;
#X obj 408 621 s ctrlOut-\$1;
#X obj 323 301 list prepend all;
#X obj 323 328 list trim;
#X obj 254 31 r notesIn-\$1;
#X obj 129 597 outlet~ outR-\$1;
#X obj 105 624 outlet~ outL-\$1;
#X obj 120 540 *~ 0.75;
#X obj 304 61 r tone-\$1;
#X obj 453 85 r shape-\$1;
#X obj 610 100 r surprise-\$1;
#X msg 559 578 all read;
#X obj 559 604 clone -s 1 wave-bank-voice 12;
#X obj 559 546 r loadbang-\$1;
#X obj 310 108 * 11;
#X obj 303 180 list prepend wave;
#X obj 455 177 list prepend rel;
#X obj 453 109 * 1990;
#X obj 453 133 + 10;
#X obj 621 304 t a a;
#X obj 733 345 sqrt;
#X obj 719 390 * 12;
#X obj 553 402 * 3;
#X obj 551 432 list prepend lfoD;
#X obj 719 427 list prepend lfoR;
#X obj 121 217 poly 1 1, f 15;
#X obj 116 368 clone -s 1 form-synth-voice~ 1;
#X connect 0 0 30 0;
#X connect 6 0 7 0;
#X connect 7 0 30 1;
#X connect 8 0 29 0;
#X connect 11 0 9 0;
#X connect 11 0 10 0;
#X connect 12 0 18 0;
#X connect 13 0 21 0;
#X connect 14 0 23 0;
#X connect 15 0 16 0;
#X connect 17 0 15 0;
#X connect 18 0 19 0;
#X connect 19 0 6 0;
#X connect 20 0 6 0;
#X connect 21 0 22 0;
#X connect 22 0 20 0;
#X connect 23 0 26 0;
#X connect 23 1 24 0;
#X connect 24 0 25 0;
#X connect 25 0 28 0;
#X connect 26 0 27 0;
#X connect 27 0 6 0;
#X connect 28 0 6 0;
#X connect 29 0 0 0;
#X connect 29 1 0 1;
#X connect 29 2 0 2;
#X connect 30 0 11 0;
