#N canvas 726 189 859 685 12;
#X obj 122 302 pack 0 0 0, f 16;
#X obj 122 216 poly 4 1, f 15;
#X obj 638 289 loadbang;
#X obj 322 228 + 0.1;
#X obj 322 204 * 0.6;
#X obj 664 415 t b a;
#X obj 638 455 + 0;
#X obj 492 210 * 0.03;
#X obj 638 324 f 0.1335;
#X obj 322 111 swap 1;
#X obj 322 136 -;
#X obj 322 160 t a a;
#X obj 120 540 *~ 0.5;
#X obj 494 147 s \$1-pick-pos;
#X obj 632 154 s \$1-pick-tone;
#X obj 322 259 s \$1-ring;
#X obj 638 495 s \$1-tune;
#X obj 26 34 inlet~ inL-\$1;
#X obj 136 34 inlet~ inR-\$1;
#X obj 253 31 r notesIn-\$1;
#X obj 354 36 r ctrlIn-\$1;
#X obj 122 368 clone -s 1 voice~ 4 \$1;
#X obj 721 97 / 100;
#X obj 400 109 / 100;
#X obj 721 73 r 201_k3-\$1;
#X obj 574 88 / 100;
#X obj 574 64 r 201_k2-\$1;
#X obj 401 84 r 201_k1-\$1;
#X obj 302 621 s notesOut-\$1;
#X obj 408 621 s ctrlOut-\$1;
#X obj 129 597 outlet~ outR-\$1;
#X obj 102 624 outlet~ outL-\$1;
#X connect 0 0 21 0;
#X connect 1 0 0 0;
#X connect 1 1 0 1;
#X connect 1 2 0 2;
#X connect 2 0 8 0;
#X connect 3 0 15 0;
#X connect 4 0 3 0;
#X connect 5 0 6 0;
#X connect 5 1 6 1;
#X connect 6 0 16 0;
#X connect 7 0 5 0;
#X connect 8 0 6 0;
#X connect 9 0 10 0;
#X connect 9 1 10 1;
#X connect 10 0 11 0;
#X connect 11 0 4 0;
#X connect 11 1 7 0;
#X connect 12 0 31 0;
#X connect 12 0 30 0;
#X connect 19 0 1 0;
#X connect 21 0 12 0;
#X connect 22 0 14 0;
#X connect 23 0 9 0;
#X connect 24 0 22 0;
#X connect 25 0 13 0;
#X connect 26 0 25 0;
#X connect 27 0 23 0;
