#N canvas 797 187 408 421 10;
#X obj 131 109 poly 4 1, f 16;
#X obj 131 150 - 1;
#X obj 131 171 pack 0 0 0, f 15;
#X obj 152 285 *~ 0.1;
#X obj 124 40 r \$1-notes;
#X obj 155 229 clone voice 4 \$1;
#X obj 146 350 s~ \$1-out;
#X connect 0 0 1 0;
#X connect 0 1 2 1;
#X connect 0 2 2 2;
#X connect 1 0 2 0;
#X connect 2 0 5 0;
#X connect 3 0 6 0;
#X connect 4 0 0 0;
#X connect 5 0 3 0;
