#N canvas 426 145 972 583 10;
#X msg 287 177 freq \$1;
#X obj 305 54 unpack;
#X obj 302 89 mtof;
#X obj 484 119 > 0;
#X obj 298 3 inlet;
#X msg 613 388 Q \$1;
#X msg 688 387 freq \$1;
#X floatatom 741 252 5 0 0 0 - - - 0;
#X floatatom 670 241 5 0 0 0 - - - 0;
#X obj 681 532 outlet~, f 13;
#X obj 684 171 * 10;
#X msg 31 195 freq \$1;
#X obj 97 236 basic~, f 28;
#X obj 320 236 basic~, f 28;
#X obj 155 149 * 1.01;
#X obj 642 470 korgfilterfx~;
#X obj 507 295 line~, f 8;
#X msg 562 243 0 \$1;
#X obj 480 356 *~;
#X obj 561 214 f;
#X obj 594 133 * 1000;
#X msg 518 245 0.4 2;
#X msg 374 175 gain 1;
#X msg 441 185 gate 1;
#X obj 368 111 loadbang;
#X obj 341 372 *~;
#X obj 508 148 sel 1 0;
#X obj 593 107 r \$2-knob1;
#X obj 684 150 r \$2-knob2;
#X obj 770 186 r \$2-knob3;
#X connect 0 0 13 0;
#X connect 1 0 2 0;
#X connect 1 1 3 0;
#X connect 2 0 0 0;
#X connect 2 0 14 0;
#X connect 3 0 26 0;
#X connect 4 0 1 0;
#X connect 5 0 15 0;
#X connect 6 0 15 0;
#X connect 7 0 6 0;
#X connect 8 0 5 0;
#X connect 10 0 8 0;
#X connect 11 0 12 0;
#X connect 12 1 25 0;
#X connect 12 2 25 0;
#X connect 13 1 25 0;
#X connect 13 2 25 0;
#X connect 14 0 11 0;
#X connect 15 1 9 0;
#X connect 15 2 9 0;
#X connect 16 0 18 0;
#X connect 16 0 18 1;
#X connect 17 0 16 0;
#X connect 18 0 25 1;
#X connect 19 0 17 0;
#X connect 20 0 19 1;
#X connect 21 0 16 0;
#X connect 22 0 13 0;
#X connect 22 0 12 0;
#X connect 23 0 12 0;
#X connect 23 0 13 0;
#X connect 24 0 22 0;
#X connect 24 0 23 0;
#X connect 25 0 15 1;
#X connect 26 0 21 0;
#X connect 26 1 19 0;
#X connect 27 0 20 0;
#X connect 28 0 10 0;
#X connect 29 0 7 0;
