#N canvas 446 139 872 641 12;
#X obj 441 398 t a b;
#X obj 186 253 sel 0, f 19;
#X obj 438 280 t a a;
#X obj 316 281 t b;
#X obj 147 167 t a a, f 42;
#X obj 441 354 list store;
#X obj 186 320 list store;
#X obj 147 212 unpack;
#X obj 186 406 route -1;
#X obj 186 344 unpack 0 0;
#X obj 147 105 inlet;
#X text 189 102 note pairs;
#X obj 636 285 text define \$1;
#X obj 239 450 text delete \$1;
#X obj 186 382 text search \$1;
#X text 436 41 Arg1: Name of Text Buffer;
#X obj 488 434 i 1e+09;
#X obj 441 469 text insert \$1;
#X connect 0 0 17 0;
#X connect 0 1 16 0;
#X connect 1 0 6 0;
#X connect 1 1 3 0;
#X connect 2 0 6 1;
#X connect 2 1 5 1;
#X connect 3 0 5 0;
#X connect 4 0 7 0;
#X connect 4 1 2 0;
#X connect 5 0 0 0;
#X connect 6 0 9 0;
#X connect 7 1 1 0;
#X connect 8 1 13 0;
#X connect 9 0 14 0;
#X connect 10 0 4 0;
#X connect 14 0 8 0;
#X connect 16 0 17 1;
