#N canvas 506 72 934 723 12;
#X obj 26 34 inlet~ inL-\$1;
#X obj 136 34 inlet~ inR-\$1;
#X obj 253 31 r notesIn-\$1;
#X obj 383 31 r ctrlIn-\$1;
#X obj 644 20 r auxIn-\$1;
#X obj 643 43 r expIn-\$1;
#X obj 643 68 r fsIn-\$1;
#X obj 621 641 s notesOut-\$1;
#X obj 727 641 s ctrlOut-\$1;
#X obj 280 547 outlet~ outR-\$1;
#X obj 253 574 outlet~ outL-\$1;
#X obj 550 468 max 0.01;
#X obj 550 521 list prepend rel;
#N canvas 284 171 450 478 mono-notes 0;
#X obj 110 104 cg-note-tracker \$1-notes;
#X obj 64 45 inlet;
#X obj 87 141 text size \$1-notes;
#X obj 64 72 t a b a;
#X obj 87 195 > 0;
#X obj 87 219 sel 0 1;
#X obj 87 165 t a a, f 15;
#X obj 110 248 i;
#X obj 110 272 - 1;
#X obj 110 302 text get \$1-notes;
#X obj 93 382 f;
#X obj 93 406 pack 0 0;
#X obj 132 341 unpack;
#X obj 61 326 t b a;
#X obj 61 299 i 0;
#X obj 93 430 outlet;
#X connect 1 0 3 0;
#X connect 2 0 6 0;
#X connect 3 1 2 0;
#X connect 3 2 0 0;
#X connect 4 0 5 0;
#X connect 5 0 14 0;
#X connect 5 1 7 0;
#X connect 6 0 4 0;
#X connect 6 1 7 1;
#X connect 7 0 8 0;
#X connect 8 0 9 0;
#X connect 9 0 12 0;
#X connect 10 0 11 0;
#X connect 11 0 15 0;
#X connect 12 0 10 0;
#X connect 12 1 11 1;
#X connect 13 0 10 0;
#X connect 13 1 11 1;
#X connect 14 0 13 0;
#X restore 253 122 pd mono-notes;
#X obj 253 163 unpack 0 0;
#X obj 253 218 pack 0 0;
#X obj 734 154 r loadbang-\$1;
#X msg 805 219 dec 1;
#X msg 734 222 att 0.03;
#X obj 254 481 *~ 1.2;
#X obj 254 515 hip~ 5;
#X obj 546 207 list prepend fFreq;
#X obj 253 431 voice~ 1 \$1, f 16;
#X msg 804 252 fRez 14;
#X obj 302 333 list prepend port;
#N canvas 63 88 849 566 math 0;
#X obj 37 37 inlet;
#X obj 181 113 hsl 162 19 0 127 0 0 empty empty empty -2 -10 0 12 #fcfcfc
#000000 #000000 0 1;
#X obj 188 162 / 127;
#X obj 49 287 swap 1;
#X obj 49 311 -;
#X obj 255 466 outlet;
#X floatatom 122 351 5 0 0 0 - - - 0;
#X obj 49 359 * 20;
#X obj 49 335 pow 2;
#X obj 48 392 + 0.5;
#X obj 204 270 + 0.4999;
#X obj 204 294 i;
#X obj 204 318 sel 0 1 2 3 4 5, f 30;
#X obj 204 246 * 5;
#X floatatom 239 296 5 0 0 0 - - - 0;
#X msg 203 368 2000;
#X msg 245 368 20;
#X msg 285 368 5;
#X msg 321 366 1;
#X msg 365 381 0.5;
#X msg 405 373 0.2;
#X connect 0 0 13 0;
#X connect 1 0 2 0;
#X connect 2 0 13 0;
#X connect 3 0 4 0;
#X connect 3 1 4 1;
#X connect 4 0 8 0;
#X connect 7 0 9 0;
#X connect 8 0 7 0;
#X connect 9 0 6 0;
#X connect 10 0 11 0;
#X connect 11 0 12 0;
#X connect 11 0 14 0;
#X connect 12 0 15 0;
#X connect 12 1 16 0;
#X connect 12 2 17 0;
#X connect 12 3 18 0;
#X connect 12 4 19 0;
#X connect 12 5 20 0;
#X connect 13 0 10 0;
#X connect 15 0 5 0;
#X connect 16 0 5 0;
#X connect 17 0 5 0;
#X connect 18 0 5 0;
#X connect 19 0 5 0;
#X connect 20 0 5 0;
#X restore 302 271 pd math;
#X obj 550 444 * 12;
#X obj 546 162 r knob2-\$1;
#X obj 302 247 r knob3-\$1;
#X obj 550 404 r knob1-\$1;
#X connect 2 0 13 0;
#X connect 11 0 12 0;
#X connect 12 0 22 1;
#X connect 13 0 14 0;
#X connect 14 0 15 0;
#X connect 14 1 15 1;
#X connect 15 0 22 0;
#X connect 16 0 18 0;
#X connect 16 0 17 0;
#X connect 16 0 23 0;
#X connect 17 0 22 1;
#X connect 18 0 22 1;
#X connect 19 0 20 0;
#X connect 20 0 9 0;
#X connect 20 0 10 0;
#X connect 21 0 22 1;
#X connect 22 0 19 0;
#X connect 23 0 22 1;
#X connect 24 0 22 1;
#X connect 25 0 24 0;
#X connect 26 0 11 0;
#X connect 27 0 21 0;
#X connect 28 0 25 0;
#X connect 29 0 26 0;
