#N canvas 283 50 930 689 12;
#X obj 56 19 inlet;
#X text 101 18 note;
#X obj 239 184 list prepend gain;
#X obj 316 154 list prepend gate;
#X obj 30 435 list trim;
#X obj 239 155 / 127;
#X obj 231 652 outlet~;
#X obj 316 127 > 0;
#X obj 30 333 r \$0-mess;
#X obj 56 42 unpack 0 0, f 22;
#X obj 207 70 t a a, f 16;
#X obj 207 92 sel 0;
#X obj 316 258 s \$0-mess;
#X obj 553 273 inlet;
#X obj 133 565 mono_add~;
#X obj 56 121 mtof;
#X obj 56 155 list prepend freq;
#X connect 0 0 9 0;
#X connect 2 0 12 0;
#X connect 3 0 12 0;
#X connect 4 0 14 0;
#X connect 5 0 2 0;
#X connect 7 0 3 0;
#X connect 8 0 4 0;
#X connect 9 0 15 0;
#X connect 9 1 10 0;
#X connect 10 0 11 0;
#X connect 10 1 7 0;
#X connect 11 1 5 0;
#X connect 13 0 4 0;
#X connect 14 1 6 0;
#X connect 15 0 16 0;
#X connect 16 0 12 0;
