#N canvas 4 164 929 791 12;
#X obj 464 217 pow 2;
#X obj 464 241 * 20;
#X obj 587 222 pow 2;
#X obj 323 284 i;
#X obj 464 545 *~;
#X obj 323 254 + 0.4999;
#X obj 464 448 lop~ 10;
#X obj 103 379 pack 0 0 0;
#X obj 464 477 osc~ 0;
#X obj 587 246 * 24;
#X obj 587 495 lop~ 10;
#X obj 103 335 poly 4 1, f 10;
#X obj 313 592 clone -s 1 voice~ 4 \$1;
#X obj 16 34 inlet~ inL-\$1;
#X obj 126 34 inlet~ inR-\$1;
#X obj 243 31 r notesIn-\$1;
#X obj 634 20 r auxIn-\$1;
#X obj 633 43 r expIn-\$1;
#X obj 633 68 r fsIn-\$1;
#X obj 344 36 r ctrlIn-\$1;
#X obj 465 742 s notesOut-\$1;
#X obj 571 742 s ctrlOut-\$1;
#X obj 313 744 outlet~ outL-\$1;
#X obj 335 715 outlet~ outR-\$1;
#X obj 299 148 r 201_k1-\$1;
#X obj 460 145 r 201_k2-\$1;
#X obj 582 141 r 201_k3-\$1;
#N canvas 4 50 450 300 controls 0;
#X obj 899 283 hsl 128 15 0 127 0 0 empty empty empty -2 -8 0 10 -262144
-1 -1 0 1;
#X obj 896 303 / 127;
#X obj 896 327 s oscGain1;
#X obj 994 351 hsl 128 15 0 127 0 0 empty empty empty -2 -8 0 10 -262144
-1 -1 0 1;
#X obj 991 371 / 127;
#X obj 991 396 s oscGain2;
#X obj 1087 261 hsl 128 15 0 127 0 0 empty empty empty -2 -8 0 10 -262144
-1 -1 0 1;
#X obj 1084 281 / 127;
#X obj 1182 299 hsl 128 15 0 127 0 0 empty empty empty -2 -8 0 10 -262144
-1 -1 0 1;
#X obj 1179 319 / 127;
#X obj 1084 305 s oscGain3;
#X obj 1179 343 s oscGain4;
#X obj 895 474 hsl 128 15 0 127 0 0 empty empty empty -2 -8 0 10 -262144
-1 -1 0 1;
#X obj 892 494 / 127;
#X obj 990 512 hsl 128 15 0 127 0 0 empty empty empty -2 -8 0 10 -262144
-1 -1 0 1;
#X obj 987 532 / 127;
#X obj 1083 452 hsl 128 15 0 127 0 0 empty empty empty -2 -8 0 10 -262144
-1 -1 0 1;
#X obj 1080 472 / 127;
#X obj 1178 490 hsl 128 15 0 127 0 0 empty empty empty -2 -8 0 10 -262144
-1 -1 0 1;
#X obj 1175 510 / 127;
#X obj 892 518 s att;
#X obj 987 557 s dec;
#X obj 1080 496 s sus;
#X obj 1175 534 s rel;
#X connect 0 0 1 0;
#X connect 1 0 2 0;
#X connect 3 0 4 0;
#X connect 4 0 5 0;
#X connect 6 0 7 0;
#X connect 7 0 10 0;
#X connect 8 0 9 0;
#X connect 9 0 11 0;
#X connect 12 0 13 0;
#X connect 13 0 20 0;
#X connect 14 0 15 0;
#X connect 15 0 21 0;
#X connect 16 0 17 0;
#X connect 17 0 22 0;
#X connect 18 0 19 0;
#X connect 19 0 23 0;
#X restore 726 435 pd controls;
#X obj 313 676 *~ 0.8;
#X obj 460 169 / 100;
#X obj 582 165 / 100;
#X obj 295 488 list prepend all;
#X obj 295 512 list trim;
#X connect 0 0 1 0;
#X connect 1 0 6 0;
#X connect 2 0 9 0;
#X connect 3 0 31 0;
#X connect 4 0 12 1;
#X connect 5 0 3 0;
#X connect 6 0 8 0;
#X connect 7 0 12 0;
#X connect 8 0 4 0;
#X connect 9 0 10 0;
#X connect 10 0 4 1;
#X connect 11 0 7 0;
#X connect 11 1 7 1;
#X connect 11 2 7 2;
#X connect 12 0 28 0;
#X connect 15 0 11 0;
#X connect 24 0 5 0;
#X connect 25 0 29 0;
#X connect 26 0 30 0;
#X connect 28 0 22 0;
#X connect 28 0 23 0;
#X connect 29 0 0 0;
#X connect 30 0 2 0;
#X connect 31 0 32 0;
#X connect 32 0 12 2;
