#N canvas 4 25 929 777 12;
#X obj 464 217 pow 2;
#X obj 464 241 * 20;
#X obj 587 222 pow 2;
#X obj 323 284 i;
#X obj 464 545 *~;
#X obj 323 254 + 0.4999;
#X obj 464 448 lop~ 10;
#X obj 103 379 pack 0 0 0;
#X obj 464 477 osc~ 0;
#X obj 587 246 * 24;
#X obj 587 495 lop~ 10;
#X obj 103 335 poly 4 1, f 10;
#X obj 313 592 clone -s 1 voice~ 4 \$1;
#X obj 16 34 inlet~ inL-\$1;
#X obj 126 34 inlet~ inR-\$1;
#X obj 243 31 r notesIn-\$1;
#X obj 634 20 r auxIn-\$1;
#X obj 633 43 r expIn-\$1;
#X obj 633 68 r fsIn-\$1;
#X obj 344 36 r ctrlIn-\$1;
#X obj 465 742 s notesOut-\$1;
#X obj 571 742 s ctrlOut-\$1;
#X obj 313 744 outlet~ outL-\$1;
#X obj 335 715 outlet~ outR-\$1;
#X obj 313 676 *~ 0.8;
#X obj 295 488 list prepend all;
#X obj 295 512 list trim;
#X obj 299 148 r shape-\$1;
#X obj 460 145 r tone-\$1;
#X obj 582 141 r surprise-\$1;
#X connect 0 0 1 0;
#X connect 1 0 6 0;
#X connect 2 0 9 0;
#X connect 3 0 25 0;
#X connect 4 0 12 1;
#X connect 5 0 3 0;
#X connect 6 0 8 0;
#X connect 7 0 12 0;
#X connect 8 0 4 0;
#X connect 9 0 10 0;
#X connect 10 0 4 1;
#X connect 11 0 7 0;
#X connect 11 1 7 1;
#X connect 11 2 7 2;
#X connect 12 0 24 0;
#X connect 15 0 11 0;
#X connect 24 0 22 0;
#X connect 24 0 23 0;
#X connect 25 0 26 0;
#X connect 26 0 12 2;
#X connect 27 0 5 0;
#X connect 28 0 0 0;
#X connect 29 0 2 0;
