#N canvas 363 94 1077 488 12;
#X obj 56 19 inlet;
#X text 101 18 note;
#X obj 183 182 list prepend gain;
#X obj 240 135 list prepend gate;
#X obj 103 347 list trim;
#X obj 183 151 / 127;
#X obj 480 83 inlet~;
#X obj 163 445 outlet~;
#X obj 606 126 list prepend selector;
#X obj 410 257 r oscGain1;
#X obj 410 281 list prepend osc1;
#X obj 559 315 r oscGain4;
#X obj 410 314 r oscGain2;
#X obj 410 338 list prepend osc2;
#X obj 559 339 list prepend osc4;
#X obj 554 256 r oscGain3;
#X obj 554 280 list prepend osc3;
#X obj 56 42 unpack 0 0, f 14;
#X obj 151 73 t a a, f 11;
#X obj 426 389 s \$0-mess-2;
#X obj 103 312 r \$0-mess-2;
#X obj 606 161 s \$0-mess-2;
#X obj 183 220 s \$0-mess-2;
#X obj 240 105 > 0;
#X obj 151 110 sel 0;
#X obj 199 292 sig~;
#X obj 199 332 +~;
#X obj 757 389 s \$0-mess-2;
#X obj 885 256 r dec;
#X obj 741 257 r att;
#X obj 741 314 r sus;
#X obj 890 315 r rel;
#X obj 741 281 list prepend att;
#X obj 885 280 list prepend dec;
#X obj 741 336 list prepend sus;
#X obj 890 339 list prepend rel;
#X obj 199 361 clip~ 1 127;
#X obj 103 376 R_mode_BL~;
#X obj 606 80 inlet;
#X connect 0 0 17 0;
#X connect 2 0 22 0;
#X connect 3 0 22 0;
#X connect 4 0 37 0;
#X connect 5 0 2 0;
#X connect 6 0 26 1;
#X connect 8 0 21 0;
#X connect 9 0 10 0;
#X connect 10 0 19 0;
#X connect 11 0 14 0;
#X connect 12 0 13 0;
#X connect 13 0 19 0;
#X connect 14 0 19 0;
#X connect 15 0 16 0;
#X connect 16 0 19 0;
#X connect 17 0 25 0;
#X connect 17 1 18 0;
#X connect 18 0 24 0;
#X connect 18 1 23 0;
#X connect 20 0 4 0;
#X connect 23 0 3 0;
#X connect 24 1 5 0;
#X connect 25 0 26 0;
#X connect 26 0 36 0;
#X connect 28 0 33 0;
#X connect 29 0 32 0;
#X connect 30 0 34 0;
#X connect 31 0 35 0;
#X connect 32 0 27 0;
#X connect 33 0 27 0;
#X connect 34 0 27 0;
#X connect 35 0 27 0;
#X connect 36 0 37 1;
#X connect 37 1 7 0;
#X connect 38 0 8 0;
