#N canvas 104 25 1336 770 12;
#X obj 489 142 t a a;
#X obj 78 602 hip~ 20;
#X obj 685 107 t a a;
#X obj 45 120 poly 4 0;
#X obj 685 39 * 5;
#X obj 489 89 * 5000;
#X obj 489 113 + 20;
#X obj 518 175 i;
#X obj 78 571 clone -s 1 voice~ 4;
#X obj 208 531 list trim;
#X obj 208 507 list prepend all;
#X obj 685 63 + 1;
#X obj 46 255 pack 0 0 0;
#X obj 714 136 / 6;
#X obj 714 159 * 100;
#X obj 718 186 i;
#X obj 868 391 r knob3;
#X floatatom 88 341 5 0 0 0 - - - 0;
#X obj 867 519 t a a;
#X obj 896 572 i;
#X obj 899 650 s screenLine3;
#X obj 867 676 list prepend width;
#X msg 899 624 3: PWidth: \$1%;
#X obj 898 549 * 100;
#X obj 867 432 pow 2;
#X obj 867 456 * 0.5;
#X obj 88 377 list prepend detune;
#X obj 886 246 lop~ 5;
#X obj 867 480 max 0.001;
#X obj 600 385 s qLop;
#X obj 669 377 s qHip;
#X obj 684 268 t a a;
#X obj 489 39 pow 2;
#X obj 607 399 hsl 128 15 0 127 0 0 empty empty empty -2 -8 0 10 #fcfcfc
#000000 #000000 0 1;
#X obj 604 419 / 127;
#X obj 604 483 t b a;
#X obj 567 515 * 1;
#X obj 605 634 s freqLop;
#X obj 499 680 s freqHip;
#X obj 538 319 / 4;
#X obj 604 443 * 8;
#X obj 477 634 max 20;
#X obj 567 539 t a a;
#X obj 469 264 t a a;
#X obj 477 583 -;
#X obj 492 544 t b a;
#X obj 271 191 list prepend attack;
#X obj 300 227 list prepend release;
#X msg 303 577;
#X msg 717 212 4: Q: \$1%;
#X obj 716 237 s screenLine4;
#X msg 521 231 3: Filter Freq: \$1hz;
#X obj 521 256 s screenLine3;
#X obj 195 318 loadbang;
#X obj 195 342 f 0.1;
#X obj 1140 137 r aux;
#X obj 1101 168 spigot;
#X obj 1051 56 stripnote;
#X obj 1051 80 sel 81 83;
#X obj 1051 104 i -1;
#X obj 1092 104 i 1;
#X msg 1109 377 5: Transpose: \$1;
#X obj 1109 403 s screenLine5;
#X obj 1106 218 t b a;
#X obj 1100 252 f;
#X obj 1137 255 + 1;
#X obj 1137 279 clip -36 24;
#X obj 286 75 t a a;
#X obj 318 108 i;
#X obj 286 22 * 1990;
#X obj 286 46 + 10;
#X obj 318 159 s screenLine2;
#X msg 319 135 2: Env: \$1ms;
#X obj 237 144 / 4;
#X obj 978 214 i 0;
#X obj 978 190 loadbang;
#X obj 286 -2 r \$1-knob1;
#X obj 489 15 r \$1-knob2;
#X obj 685 11 r \$1-knob3;
#X obj 1051 32 r \$1-notes;
#X obj 45 52 r \$1-notes;
#X obj 78 696 s~ \$1-out;
#X obj 79 630 *~ 2;
#X connect 0 0 43 0;
#X connect 0 1 7 0;
#X connect 1 0 82 0;
#X connect 2 0 31 0;
#X connect 2 1 13 0;
#X connect 3 0 12 0;
#X connect 3 1 12 1;
#X connect 3 2 12 2;
#X connect 4 0 11 0;
#X connect 5 0 6 0;
#X connect 6 0 0 0;
#X connect 7 0 51 0;
#X connect 8 0 1 0;
#X connect 9 0 8 2;
#X connect 10 0 9 0;
#X connect 11 0 2 0;
#X connect 12 0 8 0;
#X connect 13 0 14 0;
#X connect 14 0 15 0;
#X connect 15 0 49 0;
#X connect 17 0 26 0;
#X connect 18 0 21 0;
#X connect 18 1 23 0;
#X connect 19 0 22 0;
#X connect 21 0 10 0;
#X connect 22 0 20 0;
#X connect 23 0 19 0;
#X connect 24 0 25 0;
#X connect 25 0 28 0;
#X connect 26 0 10 0;
#X connect 27 0 8 1;
#X connect 28 0 18 0;
#X connect 31 0 29 0;
#X connect 31 1 30 0;
#X connect 32 0 5 0;
#X connect 33 0 34 0;
#X connect 34 0 40 0;
#X connect 35 0 36 0;
#X connect 35 1 36 1;
#X connect 36 0 42 0;
#X connect 39 0 36 0;
#X connect 40 0 35 0;
#X connect 41 0 38 0;
#X connect 42 0 45 0;
#X connect 42 1 37 0;
#X connect 43 0 44 0;
#X connect 43 1 39 0;
#X connect 44 0 41 0;
#X connect 45 0 44 0;
#X connect 45 1 44 1;
#X connect 46 0 10 0;
#X connect 47 0 10 0;
#X connect 49 0 50 0;
#X connect 51 0 52 0;
#X connect 53 0 54 0;
#X connect 54 0 26 0;
#X connect 55 0 56 1;
#X connect 56 0 63 0;
#X connect 57 0 58 0;
#X connect 58 0 59 0;
#X connect 58 1 60 0;
#X connect 59 0 56 0;
#X connect 60 0 56 0;
#X connect 61 0 62 0;
#X connect 63 0 64 0;
#X connect 63 1 65 1;
#X connect 64 0 65 0;
#X connect 64 0 27 0;
#X connect 64 0 61 0;
#X connect 65 0 66 0;
#X connect 66 0 64 1;
#X connect 67 0 47 0;
#X connect 67 0 73 0;
#X connect 67 1 68 0;
#X connect 68 0 72 0;
#X connect 69 0 70 0;
#X connect 70 0 67 0;
#X connect 72 0 71 0;
#X connect 73 0 46 0;
#X connect 74 0 64 0;
#X connect 75 0 74 0;
#X connect 76 0 69 0;
#X connect 77 0 32 0;
#X connect 78 0 4 0;
#X connect 79 0 57 0;
#X connect 80 0 3 0;
#X connect 82 0 81 0;
