#N canvas 0 25 1440 772 12;
#X obj 56 19 inlet;
#X text 101 18 note;
#X obj 148 84 / 127;
#X obj 189 568 outlet~;
#X obj 743 23 inlet;
#X obj 53 53 unpack 0 0, f 14;
#X obj 180 245 vline~;
#X obj 180 269 *~;
#X obj 188 507 *~, f 25;
#X obj 148 108 sel 0;
#X obj 743 71 list prepend width;
#X obj 743 119 s \$0-2-osc;
#X obj 106 311 r \$0-2-osc;
#X obj 79 350 list trim;
#X obj 78 390 pulse_width_osc~;
#X obj 362 42 inlet~;
#X obj 33 237 sig~;
#X obj 33 261 +~;
#X obj 847 108 list prepend detune;
#X obj 100 468 resonHip2Lop~;
#X obj 382 332 r \$0-2-filter;
#X obj 382 356 list trim;
#X obj 592 388 list prepend freqLop;
#X obj 592 412 s \$0-2-filter;
#X obj 762 432 s \$0-2-filter;
#X obj 762 407 list prepend freqHip;
#X obj 751 236 s \$0-2-filter;
#X obj 751 210 list prepend qHip;
#X obj 584 221 s \$0-2-filter;
#X obj 584 195 list prepend qLop;
#X obj 576 137 r qLop;
#X obj 759 149 r qHip;
#X obj 591 333 r freqLop;
#X obj 760 355 r freqHip;
#X obj 743 47 route width detune attack release;
#X obj 180 177 pack 0 0;
#X msg 180 211 \$1 \$2 \, 0.75 1000 \$2;
#X obj 338 127;
#X obj 902 80 s \$0-a;
#X obj 965 80 s \$0-r;
#X obj 246 134 r \$0-a;
#X obj 86 169 pack 0 0;
#X obj 135 145 r \$0-r;
#X connect 0 0 5 0;
#X connect 2 0 9 0;
#X connect 4 0 34 0;
#X connect 5 0 16 0;
#X connect 5 1 2 0;
#X connect 6 0 7 0;
#X connect 6 0 7 1;
#X connect 7 0 8 1;
#X connect 8 0 3 0;
#X connect 9 0 41 0;
#X connect 9 1 35 0;
#X connect 10 0 11 0;
#X connect 12 0 13 0;
#X connect 13 0 14 0;
#X connect 14 1 19 1;
#X connect 15 0 17 1;
#X connect 16 0 17 0;
#X connect 17 0 14 1;
#X connect 18 0 11 0;
#X connect 19 1 8 0;
#X connect 20 0 21 0;
#X connect 21 0 19 0;
#X connect 22 0 23 0;
#X connect 25 0 24 0;
#X connect 27 0 26 0;
#X connect 29 0 28 0;
#X connect 30 0 29 0;
#X connect 31 0 27 0;
#X connect 32 0 22 0;
#X connect 33 0 25 0;
#X connect 34 0 10 0;
#X connect 34 1 18 0;
#X connect 34 2 38 0;
#X connect 34 3 39 0;
#X connect 35 0 36 0;
#X connect 36 0 6 0;
#X connect 40 0 35 1;
#X connect 41 0 6 0;
#X connect 42 0 41 1;
