#N canvas 4 50 450 300 10;
#X obj 10 150 inlet;
#X obj 130 150 inlet;
#X obj 190 150 r \$0-read;
#X obj 130 180 r \$0-all;
#X obj 190 180 faust-control \$0;
#X obj 190 210 s \$0-write;
#X obj 130 210 r \$0-in;
#X obj 130 480 s \$0-out;
#X obj 10 240 faust-gate 1;
#X obj 130 240 clari_nutter_m8~;
#X obj 10 270 faust-gate 2;
#X obj 130 270 clari_nutter_m8~;
#X obj 10 300 faust-gate 3;
#X obj 130 300 clari_nutter_m8~;
#X obj 10 330 faust-gate 4;
#X obj 130 330 clari_nutter_m8~;
#X obj 10 360 faust-gate 5;
#X obj 130 360 clari_nutter_m8~;
#X obj 10 390 faust-gate 6;
#X obj 130 390 clari_nutter_m8~;
#X obj 10 420 faust-gate 7;
#X obj 130 420 clari_nutter_m8~;
#X obj 10 450 faust-gate 8;
#X obj 130 450 clari_nutter_m8~;
#X obj 130 510 outlet~;
#X obj 190 510 outlet~;
#X obj 10 510 outlet;
#X obj 10 30 hsl 128 15 -2 2 0 0 \$0-clarinet/midi/bend \$0-clarinet/midi/bend
bend -2 -6 0 10 -262144 -1 -1 5800 1;
#X obj 160 30 nbx 5 14 -2 2 0 0 \$0-clarinet/midi/bend \$0-clarinet/midi/bend
empty 0 -6 0 10 -262144 -1 -1 -0.173228 256;
#X obj 235 30 hsl 128 15 0 30 0 0 \$0-clarinet/midi/envAttack \$0-clarinet/midi/envAttack
envAttack -2 -6 0 10 -262144 -1 -1 127 1;
#X obj 385 30 nbx 5 14 0 30 0 0 \$0-clarinet/midi/envAttack \$0-clarinet/midi/envAttack
empty 0 -6 0 10 -262144 -1 -1 0.3 256;
#X obj 460 30 hsl 128 15 0 1 0 0 \$0-clarinet/midi/sustain \$0-clarinet/midi/sustain
sustain -2 -6 0 10 -262144 -1 -1 0 1;
#X obj 610 30 nbx 5 14 0 1 0 0 \$0-clarinet/midi/sustain \$0-clarinet/midi/sustain
empty 0 -6 0 10 -262144 -1 -1 0 256;
#X obj 10 60 hsl 128 15 0 1 0 0 \$0-clarinet/otherParams/reedStiffness
\$0-clarinet/otherParams/reedStiffness reedStiffness -2 -6 0 10 -262144
-1 -1 12400 1;
#X obj 160 60 nbx 5 14 0 1 0 0 \$0-clarinet/otherParams/reedStiffness
\$0-clarinet/otherParams/reedStiffness empty 0 -6 0 10 -262144 -1 -1
0.976378 256;
#X obj 235 60 hsl 128 15 0 1 0 0 \$0-clarinet/otherParams/bellOpening
\$0-clarinet/otherParams/bellOpening bellOpening -2 -6 0 10 -262144
-1 -1 5400 1;
#X obj 385 60 nbx 5 14 0 1 0 0 \$0-clarinet/otherParams/bellOpening
\$0-clarinet/otherParams/bellOpening empty 0 -6 0 10 -262144 -1 -1
0.425197 256;
#X obj 460 60 hsl 128 15 1 10 0 0 \$0-clarinet/otherParams/vibratoFreq
\$0-clarinet/otherParams/vibratoFreq vibratoFreq -2 -6 0 10 -262144
-1 -1 3600 1;
#X obj 610 60 nbx 5 14 1 10 0 0 \$0-clarinet/otherParams/vibratoFreq
\$0-clarinet/otherParams/vibratoFreq empty 0 -6 0 10 -262144 -1 -1
3.55118 256;
#X obj 685 60 hsl 128 15 0 1 0 0 \$0-clarinet/otherParams/vibratoGain
\$0-clarinet/otherParams/vibratoGain vibratoGain -2 -6 0 10 -262144
-1 -1 10000 1;
#X obj 835 60 nbx 5 14 0 1 0 0 \$0-clarinet/otherParams/vibratoGain
\$0-clarinet/otherParams/vibratoGain empty 0 -6 0 10 -262144 -1 -1
0.787402 256;
#X obj 910 60 hsl 128 15 0 1 0 0 \$0-clarinet/otherParams/outGain \$0-clarinet/otherParams/outGain
outGain -2 -6 0 10 -262144 -1 -1 6350 1;
#X obj 1060 60 nbx 5 14 0 1 0 0 \$0-clarinet/otherParams/outGain \$0-clarinet/otherParams/outGain
empty 0 -6 0 10 -262144 -1 -1 0.5 256;
#X obj 1097 3 bng 15 250 50 1 \$0-init \$0-ignore empty 0 -6 0 10 -262144
-1 -1;
#X obj 1117 3 tgl 15 1 \$0-active \$0-active empty 0 -6 0 10 -262144
-1 -1 1 1;
#X obj 1165 10 r \$0-init;
#X obj 1501 10 s \$0-all;
#X obj 1669 10 s \$0-read;
#X obj 1837 10 r \$0-write;
#X msg 1165 30 1;
#X obj 1165 50 s \$0-active;
#X obj 1501 30 r \$0-active;
#X msg 1501 50 active \$1;
#X obj 1837 30 route active;
#X obj 1837 50 s \$0-active;
#X msg 1165 70 0;
#X obj 1165 90 s \$0-clarinet/midi/bend;
#X obj 1501 70 r \$0-clarinet/midi/bend;
#X msg 1501 90 /clarinet/midi/bend \$1;
#X obj 1837 70 route /clarinet/midi/bend;
#X obj 1837 90 s \$0-clarinet/midi/bend;
#X msg 1165 110 1;
#X obj 1165 130 s \$0-clarinet/midi/envAttack;
#X obj 1501 110 r \$0-clarinet/midi/envAttack;
#X msg 1501 130 /clarinet/midi/envAttack \$1;
#X obj 1837 110 route /clarinet/midi/envAttack;
#X obj 1837 130 s \$0-clarinet/midi/envAttack;
#X msg 1165 150 0;
#X obj 1165 170 s \$0-clarinet/midi/sustain;
#X obj 1501 150 r \$0-clarinet/midi/sustain;
#X msg 1501 170 /clarinet/midi/sustain \$1;
#X obj 1837 150 route /clarinet/midi/sustain;
#X obj 1837 170 s \$0-clarinet/midi/sustain;
#X msg 1165 190 0.5;
#X obj 1165 210 s \$0-clarinet/otherParams/reedStiffness;
#X obj 1501 190 r \$0-clarinet/otherParams/reedStiffness;
#X msg 1501 210 /clarinet/otherParams/reedStiffness \$1;
#X obj 1837 190 route /clarinet/otherParams/reedStiffness;
#X obj 1837 210 s \$0-clarinet/otherParams/reedStiffness;
#X msg 1165 230 0.5;
#X obj 1165 250 s \$0-clarinet/otherParams/bellOpening;
#X obj 1501 230 r \$0-clarinet/otherParams/bellOpening;
#X msg 1501 250 /clarinet/otherParams/bellOpening \$1;
#X obj 1837 230 route /clarinet/otherParams/bellOpening;
#X obj 1837 250 s \$0-clarinet/otherParams/bellOpening;
#X msg 1165 270 5;
#X obj 1165 290 s \$0-clarinet/otherParams/vibratoFreq;
#X obj 1501 270 r \$0-clarinet/otherParams/vibratoFreq;
#X msg 1501 290 /clarinet/otherParams/vibratoFreq \$1;
#X obj 1837 270 route /clarinet/otherParams/vibratoFreq;
#X obj 1837 290 s \$0-clarinet/otherParams/vibratoFreq;
#X msg 1165 310 0.25;
#X obj 1165 330 s \$0-clarinet/otherParams/vibratoGain;
#X obj 1501 310 r \$0-clarinet/otherParams/vibratoGain;
#X msg 1501 330 /clarinet/otherParams/vibratoGain \$1;
#X obj 1837 310 route /clarinet/otherParams/vibratoGain;
#X obj 1837 330 s \$0-clarinet/otherParams/vibratoGain;
#X msg 1165 350 0.5;
#X obj 1165 370 s \$0-clarinet/otherParams/outGain;
#X obj 1501 350 r \$0-clarinet/otherParams/outGain;
#X msg 1501 370 /clarinet/otherParams/outGain \$1;
#X obj 1837 350 route /clarinet/otherParams/outGain;
#X obj 1837 370 s \$0-clarinet/otherParams/outGain;
#X text 0 100 Generated Wed Nov 2 16:12:01 2022 by faust2pd v2.16.
See http://faust.grame.fr and http://purelang.bitbucket.org.;
#X connect 0 0 8 0;
#X connect 0 0 10 0;
#X connect 0 0 12 0;
#X connect 0 0 14 0;
#X connect 0 0 16 0;
#X connect 0 0 18 0;
#X connect 0 0 20 0;
#X connect 0 0 22 0;
#X connect 1 0 4 0;
#X connect 1 0 26 0;
#X connect 2 0 4 0;
#X connect 3 0 9 0;
#X connect 3 0 11 0;
#X connect 3 0 13 0;
#X connect 3 0 15 0;
#X connect 3 0 17 0;
#X connect 3 0 19 0;
#X connect 3 0 21 0;
#X connect 3 0 23 0;
#X connect 4 0 5 0;
#X connect 6 0 9 0;
#X connect 8 0 9 0;
#X connect 9 0 7 0;
#X connect 9 1 24 0;
#X connect 9 2 25 0;
#X connect 10 0 11 0;
#X connect 11 1 24 0;
#X connect 11 2 25 0;
#X connect 12 0 13 0;
#X connect 13 1 24 0;
#X connect 13 2 25 0;
#X connect 14 0 15 0;
#X connect 15 1 24 0;
#X connect 15 2 25 0;
#X connect 16 0 17 0;
#X connect 17 1 24 0;
#X connect 17 2 25 0;
#X connect 18 0 19 0;
#X connect 19 1 24 0;
#X connect 19 2 25 0;
#X connect 20 0 21 0;
#X connect 21 1 24 0;
#X connect 21 2 25 0;
#X connect 22 0 23 0;
#X connect 23 1 24 0;
#X connect 23 2 25 0;
#X connect 45 0 55 0;
#X connect 45 0 61 0;
#X connect 45 0 67 0;
#X connect 45 0 73 0;
#X connect 45 0 79 0;
#X connect 45 0 85 0;
#X connect 45 0 91 0;
#X connect 45 0 97 0;
#X connect 48 0 53 0;
#X connect 49 0 50 0;
#X connect 51 0 52 0;
#X connect 52 0 46 0;
#X connect 53 0 54 0;
#X connect 53 1 59 0;
#X connect 55 0 56 0;
#X connect 57 0 58 0;
#X connect 58 0 46 0;
#X connect 59 0 60 0;
#X connect 59 1 65 0;
#X connect 61 0 62 0;
#X connect 63 0 64 0;
#X connect 64 0 46 0;
#X connect 65 0 66 0;
#X connect 65 1 71 0;
#X connect 67 0 68 0;
#X connect 69 0 70 0;
#X connect 70 0 46 0;
#X connect 71 0 72 0;
#X connect 71 1 77 0;
#X connect 73 0 74 0;
#X connect 75 0 76 0;
#X connect 76 0 46 0;
#X connect 77 0 78 0;
#X connect 77 1 83 0;
#X connect 79 0 80 0;
#X connect 81 0 82 0;
#X connect 82 0 46 0;
#X connect 83 0 84 0;
#X connect 83 1 89 0;
#X connect 85 0 86 0;
#X connect 87 0 88 0;
#X connect 88 0 46 0;
#X connect 89 0 90 0;
#X connect 89 1 95 0;
#X connect 91 0 92 0;
#X connect 93 0 94 0;
#X connect 94 0 46 0;
#X connect 95 0 96 0;
#X connect 95 1 101 0;
#X connect 97 0 98 0;
#X connect 99 0 100 0;
#X connect 100 0 46 0;
#X connect 101 0 102 0;
#X coords 0 -1 1 1 1143 88 1 0 0;
