#N canvas 104 25 1336 770 12;
#X obj 46 255 pack 0 0 0 0;
#X obj 100 188 t a a;
#X obj 145 220 > 0;
#X obj 795 437 hsl 128 15 0 127 0 0 empty empty empty -2 -8 0 10 #fcfcfc
#000000 #000000 0 1;
#X obj 792 457 / 127;
#X obj 906 462 hsl 128 15 0 127 0 0 empty empty empty -2 -8 0 10 #fcfcfc
#000000 #000000 0 1;
#X obj 903 482 / 127;
#X obj 1067 461 hsl 128 15 0 127 0 0 empty empty empty -2 -8 0 10 #fcfcfc
#000000 #000000 0 1;
#X obj 1064 481 / 127;
#X obj 1162 499 hsl 128 15 0 127 0 0 empty empty empty -2 -8 0 10 #fcfcfc
#000000 #000000 0 1;
#X obj 1159 519 / 127;
#X obj 334 617 hip~ 20;
#X obj 335 645 hip~ 20;
#X obj 853 678 hsl 128 15 0 127 0 0 empty empty empty -2 -8 0 10 #fcfcfc
#000000 #000000 0 1;
#X obj 850 698 / 127;
#X obj 997 602 hsl 128 15 0 127 0 0 empty empty empty -2 -8 0 10 #fcfcfc
#000000 #000000 0 1;
#X obj 994 622 / 127;
#X obj 1092 640 hsl 128 15 0 127 0 0 empty empty empty -2 -8 0 10 #fcfcfc
#000000 #000000 0 1;
#X obj 1089 660 / 127;
#X obj 688 707 s a2;
#X obj 850 723 s d2;
#X obj 992 646 s s2;
#X obj 689 582 hsl 128 15 0 127 0 0 empty empty empty -2 -8 0 10 #fcfcfc
#000000 #000000 0 1;
#X obj 686 602 / 127;
#X floatatom 686 650 5 0 0 0 - - - 0;
#X obj 686 626 * 2;
#X obj 795 505 s at1;
#X obj 1101 686 * 1000;
#X obj 1159 543 * 1000;
#X obj 1194 594 s r1;
#X obj 1134 741 s r2;
#X obj 1064 505 s s1;
#X obj 903 506 s d1;
#X floatatom 572 499 5 0 0 0 - - - 0;
#X obj 560 546 list prepend all;
#X obj 560 570 list trim;
#X msg 558 522 /FM-PP5/a1 \$1;
#X obj 100 212 / 127;
#X obj 350 196 list trim;
#X obj 45 120 poly 4 0;
#X obj 2 328 clari_nutter_m8;
#X obj 45 52 r \$1-notes;
#X obj 255 7 r \$1-knob1;
#X obj 451 3 r \$1-knob2;
#X obj 847 51 r \$1-knob3;
#X obj 334 711 s~ \$1-out;
#X obj 577 187 list trim;
#X obj 354 124 list prepend sustain;
#X obj 576 152 list prepend bellOpening;
#X obj 861 150 list trim;
#X obj 860 115 list prepend reedStiffness;
#X connect 0 0 40 0;
#X connect 1 0 37 0;
#X connect 1 1 2 0;
#X connect 2 0 0 3;
#X connect 3 0 4 0;
#X connect 4 0 26 0;
#X connect 5 0 6 0;
#X connect 6 0 32 0;
#X connect 7 0 8 0;
#X connect 8 0 31 0;
#X connect 9 0 10 0;
#X connect 10 0 28 0;
#X connect 11 0 12 0;
#X connect 12 0 45 0;
#X connect 13 0 14 0;
#X connect 14 0 20 0;
#X connect 15 0 16 0;
#X connect 16 0 21 0;
#X connect 17 0 18 0;
#X connect 18 0 27 0;
#X connect 22 0 23 0;
#X connect 23 0 25 0;
#X connect 24 0 19 0;
#X connect 25 0 24 0;
#X connect 27 0 30 0;
#X connect 28 0 29 0;
#X connect 33 0 36 0;
#X connect 34 0 35 0;
#X connect 36 0 34 0;
#X connect 37 0 0 2;
#X connect 38 0 40 1;
#X connect 39 0 0 0;
#X connect 39 1 0 1;
#X connect 39 2 1 0;
#X connect 40 2 11 0;
#X connect 41 0 39 0;
#X connect 42 0 47 0;
#X connect 43 0 48 0;
#X connect 44 0 50 0;
#X connect 46 0 40 1;
#X connect 47 0 38 0;
#X connect 48 0 46 0;
#X connect 49 0 40 1;
#X connect 50 0 49 0;
