#N canvas 81 25 1336 770 12;
#X obj 489 142 t a a;
#X obj 685 197 t a a;
#X obj 521 175 i;
#X obj 714 249 * 100;
#X obj 715 276 i;
#X obj 489 39 pow 2;
#X obj 717 327 s screenLine4;
#X obj 521 226 s screenLine3;
#X obj 1140 137 r aux;
#X obj 1101 168 spigot;
#X obj 1051 56 stripnote;
#X obj 1051 80 sel 81 83;
#X obj 1051 104 i -1;
#X obj 1092 104 i 1;
#X msg 1019 395 5: Transpose: \$1;
#X obj 1019 421 s screenLine5;
#X obj 1106 218 t b a;
#X obj 1100 252 f;
#X obj 1137 255 + 1;
#X obj 321 101 t a a;
#X obj 353 134 i;
#X obj 321 72 + 10;
#X obj 353 190 s screenLine2;
#X msg 353 161 2: Env: \$1ms;
#X obj 978 214 i 0;
#X obj 978 190 loadbang;
#X obj 321 47 * 990;
#X obj 685 366 list prepend delFb;
#X msg 717 302 4: FB: \$1%;
#X msg 521 201 3: Time: \$1ms;
#X obj 489 114 + 1;
#X obj 489 89 * 10;
#X obj 685 74 * 0.99;
#X obj 1019 335 * 12;
#X obj 1137 278 clip -3 3;
#X obj 685 39 sqrt;
#X obj 152 651 hip~ 5;
#N canvas 4 50 1099 841 kick 0;
#X obj 217 398 list prepend gain;
#X obj 85 463 list trim;
#X obj 85 397 list prepend gate;
#N canvas 4 50 450 300 gate 0;
#X obj 4 13 inlet;
#X obj 4 37 t b b b;
#X msg 111 79 stop;
#X obj 64 147 i 0;
#X obj 4 142 i 1;
#X obj 22 237 outlet;
#X obj 64 123 del 5;
#X connect 0 0 1 0;
#X connect 1 0 4 0;
#X connect 1 1 6 0;
#X connect 1 2 2 0;
#X connect 2 0 6 0;
#X connect 3 0 5 0;
#X connect 4 0 5 0;
#X connect 6 0 3 0;
#X restore 85 357 pd gate;
#X obj 115 245 stripnote;
#X obj 115 274 t b a;
#X obj 199 284 / 127;
#X obj 64 316 bng 15 250 50 0 empty empty empty 17 7 0 10 #fcfcfc #000000
#000000;
#X obj 152 600 *~ 1;
#X obj 375 500 hsl 128 15 0 127 0 0 empty empty empty -2 -8 0 10 #fcfcfc
#000000 #000000 0 1;
#X obj 372 520 / 127;
#X obj 376 594 hsl 128 15 0 127 0 0 empty empty empty -2 -8 0 10 #fcfcfc
#000000 #000000 0 1;
#X obj 373 614 / 127;
#X obj 418 334 hsl 128 15 0 127 0 0 empty empty empty -2 -8 0 10 #fcfcfc
#000000 #000000 0 1;
#X obj 418 360 / 127;
#X obj 499 400 hsl 128 15 0 127 0 0 empty empty empty -2 -8 0 10 #fcfcfc
#000000 #000000 0 1;
#X obj 496 420 / 127;
#X obj 86 515 synth_kick~;
#X obj 152 624 outlet~;
#X obj 115 163 inlet;
#X obj 357 400 list prepend freq;
#X obj 359 319 mtof;
#X obj 305 248 - 24;
#X obj 496 444 list prepend ampAtt;
#X obj 373 544 list prepend ampDec;
#X obj 378 677 hsl 128 15 0 127 0 0 empty empty empty -2 -8 0 10 #fcfcfc
#000000 #000000 0 1;
#X obj 375 697 / 127;
#X obj 374 638 list prepend freqAtt;
#X obj 376 721 list prepend freqDec;
#X obj 568 479 hsl 128 15 0 127 0 0 empty empty empty -2 -8 0 10 #fcfcfc
#000000 #000000 0 1;
#X obj 565 499 / 127;
#X obj 565 523 list prepend tone;
#X connect 0 0 1 0;
#X connect 1 0 17 0;
#X connect 2 0 1 0;
#X connect 3 0 2 0;
#X connect 4 0 5 0;
#X connect 4 1 6 0;
#X connect 5 0 3 0;
#X connect 5 0 7 0;
#X connect 5 1 22 0;
#X connect 6 0 0 0;
#X connect 8 0 18 0;
#X connect 9 0 10 0;
#X connect 10 0 24 0;
#X connect 11 0 12 0;
#X connect 12 0 27 0;
#X connect 13 0 14 0;
#X connect 14 0 20 0;
#X connect 15 0 16 0;
#X connect 16 0 23 0;
#X connect 17 1 8 0;
#X connect 19 0 4 0;
#X connect 20 0 1 0;
#X connect 21 0 20 0;
#X connect 22 0 21 0;
#X connect 23 0 1 0;
#X connect 24 0 1 0;
#X connect 25 0 26 0;
#X connect 26 0 28 0;
#X connect 27 0 1 0;
#X connect 28 0 1 0;
#X connect 29 0 30 0;
#X connect 30 0 31 0;
#X connect 31 0 1 0;
#X restore 200 522 pd kick;
#N canvas 4 50 931 909 clap 0;
#X obj 217 398 list prepend gain;
#X obj 85 463 list trim;
#X obj 85 397 list prepend gate;
#X obj 357 400 list prepend tone;
#N canvas 4 50 450 300 gate 0;
#X obj 4 13 inlet;
#X obj 4 37 t b b b;
#X msg 111 79 stop;
#X obj 64 147 i 0;
#X obj 4 142 i 1;
#X obj 22 237 outlet;
#X obj 64 123 del 5;
#X connect 0 0 1 0;
#X connect 1 0 4 0;
#X connect 1 1 6 0;
#X connect 1 2 2 0;
#X connect 2 0 6 0;
#X connect 3 0 5 0;
#X connect 4 0 5 0;
#X connect 6 0 3 0;
#X restore 85 357 pd gate;
#X obj 115 245 stripnote;
#X obj 115 274 t b a;
#X obj 199 284 / 127;
#X obj 64 316 bng 15 250 50 0 empty empty empty 17 7 0 10 #fcfcfc #000000
#000000;
#X obj 152 600 *~ 1;
#X obj 85 514 synth_clap~;
#X obj 375 500 hsl 128 15 0 127 0 0 empty empty empty -2 -8 0 10 #fcfcfc
#000000 #000000 0 1;
#X obj 372 520 / 127;
#X obj 372 544 list prepend space;
#X obj 376 594 hsl 128 15 0 127 0 0 empty empty empty -2 -8 0 10 #fcfcfc
#000000 #000000 0 1;
#X obj 373 614 / 127;
#X obj 374 638 list prepend decay;
#X obj 427 320 hsl 128 15 0 127 0 0 empty empty empty -2 -8 0 10 #fcfcfc
#000000 #000000 0 1;
#X obj 418 360 / 127;
#X obj 353 303 / 24;
#X obj 348 272 - 60;
#X obj 499 400 hsl 128 15 0 127 0 0 empty empty empty -2 -8 0 10 #fcfcfc
#000000 #000000 0 1;
#X obj 496 420 / 127;
#X obj 496 444 list prepend end;
#X obj 119 158 inlet;
#X obj 152 624 outlet~;
#X connect 0 0 1 0;
#X connect 1 0 10 0;
#X connect 2 0 1 0;
#X connect 3 0 1 0;
#X connect 4 0 2 0;
#X connect 5 0 6 0;
#X connect 5 1 7 0;
#X connect 6 0 4 0;
#X connect 6 0 8 0;
#X connect 6 1 20 0;
#X connect 7 0 0 0;
#X connect 9 0 25 0;
#X connect 10 1 9 0;
#X connect 11 0 12 0;
#X connect 12 0 13 0;
#X connect 13 0 1 0;
#X connect 14 0 15 0;
#X connect 15 0 16 0;
#X connect 16 0 1 0;
#X connect 17 0 18 0;
#X connect 18 0 3 0;
#X connect 19 0 3 0;
#X connect 20 0 19 0;
#X connect 21 0 22 0;
#X connect 22 0 23 0;
#X connect 23 0 1 0;
#X connect 24 0 5 0;
#X restore 126 522 pd clap;
#X obj 33 406 list store;
#X obj 174 407 list store;
#X obj 59 223 unpack 0 0;
#X obj 59 283 t b;
#X obj 112 325 t b;
#N canvas 4 50 1099 841 djembe 0;
#X obj 217 398 list prepend gain;
#X obj 85 463 list trim;
#X obj 85 397 list prepend gate;
#N canvas 4 50 450 300 gate 0;
#X obj 4 13 inlet;
#X obj 4 37 t b b b;
#X msg 111 79 stop;
#X obj 64 147 i 0;
#X obj 4 142 i 1;
#X obj 22 237 outlet;
#X obj 64 123 del 5;
#X connect 0 0 1 0;
#X connect 1 0 4 0;
#X connect 1 1 6 0;
#X connect 1 2 2 0;
#X connect 2 0 6 0;
#X connect 3 0 5 0;
#X connect 4 0 5 0;
#X connect 6 0 3 0;
#X restore 85 357 pd gate;
#X obj 115 245 stripnote;
#X obj 115 274 t b a;
#X obj 199 284 / 127;
#X obj 64 316 bng 15 250 50 0 empty empty empty 17 7 0 10 #fcfcfc #000000
#000000;
#X obj 175 588 *~ 1;
#X obj 418 334 hsl 128 15 0 127 0 0 empty empty empty -2 -8 0 10 #fcfcfc
#000000 #000000 0 1;
#X obj 418 360 / 127;
#X obj 499 400 hsl 128 15 0 127 0 0 empty empty empty -2 -8 0 10 #fcfcfc
#000000 #000000 0 1;
#X obj 496 420 / 127;
#X obj 175 612 outlet~;
#X obj 115 163 inlet;
#X obj 357 400 list prepend freq;
#X obj 359 319 mtof;
#X obj 305 248 - 24;
#X obj 568 479 hsl 128 15 0 127 0 0 empty empty empty -2 -8 0 10 #fcfcfc
#000000 #000000 0 1;
#X obj 565 499 / 127;
#X obj 496 444 list prepend strikePos;
#X obj 565 523 list prepend strikeSharp;
#X obj 86 515 synth_djembe~;
#X obj 772 89 inlet;
#X obj 312 189 t b a;
#X connect 0 0 1 0;
#X connect 1 0 22 0;
#X connect 2 0 1 0;
#X connect 3 0 2 0;
#X connect 4 0 5 0;
#X connect 4 1 6 0;
#X connect 5 0 3 0;
#X connect 5 0 7 0;
#X connect 5 1 17 0;
#X connect 6 0 0 0;
#X connect 8 0 13 0;
#X connect 9 0 10 0;
#X connect 10 0 15 0;
#X connect 11 0 12 0;
#X connect 12 0 20 0;
#X connect 14 0 4 0;
#X connect 15 0 1 0;
#X connect 16 0 15 0;
#X connect 17 0 16 0;
#X connect 18 0 19 0;
#X connect 19 0 21 0;
#X connect 20 0 1 0;
#X connect 21 0 1 0;
#X connect 22 1 8 0;
#X connect 23 0 24 0;
#X connect 24 0 17 0;
#X connect 24 1 17 1;
#X restore 283 516 pd djembe;
#X obj 215 351 t b;
#X obj 285 404 list store;
#X obj 59 259 moses 65;
#X obj 200 546 *~ 0.6;
#X obj 111 291 moses 70, f 15;
#X obj 375 368 t b;
#X obj 375 400 list store;
#X obj 59 199 t a a a a a, f 25;
#N canvas 4 50 1099 841 hi-hat 0;
#X obj 217 398 list prepend gain;
#X obj 85 463 list trim;
#X obj 85 397 list prepend gate;
#N canvas 4 50 450 300 gate 0;
#X obj 4 13 inlet;
#X obj 4 37 t b b b;
#X msg 111 79 stop;
#X obj 64 147 i 0;
#X obj 4 142 i 1;
#X obj 22 237 outlet;
#X obj 64 124 del 30;
#X connect 0 0 1 0;
#X connect 1 0 4 0;
#X connect 1 1 6 0;
#X connect 1 2 2 0;
#X connect 2 0 6 0;
#X connect 3 0 5 0;
#X connect 4 0 5 0;
#X connect 6 0 3 0;
#X restore 85 357 pd gate;
#X obj 115 245 stripnote;
#X obj 115 274 t b a;
#X obj 199 284 / 127;
#X obj 172 616 *~ 1;
#X obj 375 500 hsl 128 15 0 127 0 0 empty empty empty -2 -8 0 10 #fcfcfc
#000000 #000000 0 1;
#X obj 372 520 / 127;
#X obj 376 594 hsl 128 15 0 127 0 0 empty empty empty -2 -8 0 10 #fcfcfc
#000000 #000000 0 1;
#X obj 373 614 / 127;
#X obj 353 234 hsl 128 15 0 127 0 0 empty empty empty -2 -8 0 10 #fcfcfc
#000000 #000000 0 1;
#X obj 499 400 hsl 128 15 0 127 0 0 empty empty empty -2 -8 0 10 #fcfcfc
#000000 #000000 0 1;
#X obj 496 420 / 127;
#X obj 172 640 outlet~;
#X obj 115 163 inlet;
#X obj 357 400 list prepend freq;
#X obj 359 319 mtof;
#X obj 496 444 list prepend ampAtt;
#X obj 373 544 list prepend ampDec;
#X obj 378 677 hsl 128 15 0 127 0 0 empty empty empty -2 -8 0 10 #fcfcfc
#000000 #000000 0 1;
#X obj 375 697 / 127;
#X obj 374 638 list prepend freqAtt;
#X obj 376 721 list prepend freqDec;
#X obj 87 516 synth_hiHat~;
#X obj 494 156 loadbang;
#X obj 494 180 110;
#X obj 565 601 hsl 128 15 0 127 0 0 empty empty empty -2 -8 0 10 #fcfcfc
#000000 #000000 0 1;
#X obj 562 621 / 127;
#X obj 563 645 list prepend freqDepth;
#X floatatom 554 249 5 0 0 0 - - - 0;
#X obj 552 271 - 78;
#X obj 567 341 / 5;
#X obj 673 403 max 0.001;
#X obj 567 365 * 1;
#X obj 674 496 * 1;
#X obj 674 520 max 0.1;
#X connect 0 0 1 0;
#X connect 1 0 25 0;
#X connect 2 0 1 0;
#X connect 3 0 2 0;
#X connect 4 0 5 0;
#X connect 4 1 6 0;
#X connect 5 0 3 0;
#X connect 5 1 31 0;
#X connect 6 0 0 0;
#X connect 7 0 15 0;
#X connect 8 0 9 0;
#X connect 9 0 20 0;
#X connect 10 0 11 0;
#X connect 11 0 23 0;
#X connect 12 0 18 0;
#X connect 13 0 14 0;
#X connect 14 0 19 0;
#X connect 16 0 4 0;
#X connect 17 0 1 0;
#X connect 18 0 17 0;
#X connect 19 0 1 0;
#X connect 20 0 1 0;
#X connect 21 0 22 0;
#X connect 22 0 24 0;
#X connect 23 0 1 0;
#X connect 24 0 1 0;
#X connect 25 1 7 0;
#X connect 26 0 27 0;
#X connect 27 0 12 0;
#X connect 28 0 29 0;
#X connect 29 0 30 0;
#X connect 30 0 1 0;
#X connect 31 0 32 0;
#X connect 32 0 33 0;
#X connect 33 0 35 0;
#X connect 33 0 36 0;
#X connect 34 0 19 0;
#X connect 35 0 34 0;
#X connect 36 0 37 0;
#X connect 37 0 20 0;
#X restore 425 512 pd hi-hat;
#X obj 214 317 moses 78, f 15;
#X obj 321 24 r \$1-knob1;
#X obj 489 15 r \$1-knob2;
#X obj 685 11 r \$1-knob3;
#X obj 151 717 s~ \$1-out;
#X obj 59 175 r \$1-notes;
#X obj 1051 32 r \$1-notes;
#X connect 0 1 2 0;
#X connect 1 0 27 0;
#X connect 1 1 3 0;
#X connect 2 0 29 0;
#X connect 3 0 4 0;
#X connect 4 0 28 0;
#X connect 5 0 31 0;
#X connect 8 0 9 1;
#X connect 9 0 16 0;
#X connect 10 0 11 0;
#X connect 11 0 12 0;
#X connect 11 1 13 0;
#X connect 12 0 9 0;
#X connect 13 0 9 0;
#X connect 14 0 15 0;
#X connect 16 0 17 0;
#X connect 16 1 18 1;
#X connect 17 0 18 0;
#X connect 18 0 34 0;
#X connect 19 1 20 0;
#X connect 20 0 23 0;
#X connect 21 0 19 0;
#X connect 23 0 22 0;
#X connect 24 0 17 0;
#X connect 25 0 24 0;
#X connect 26 0 21 0;
#X connect 28 0 6 0;
#X connect 29 0 7 0;
#X connect 30 0 0 0;
#X connect 31 0 30 0;
#X connect 32 0 1 0;
#X connect 33 0 14 0;
#X connect 33 0 44 1;
#X connect 34 0 17 1;
#X connect 34 0 33 0;
#X connect 35 0 32 0;
#X connect 36 0 58 0;
#X connect 37 0 48 0;
#X connect 38 0 36 0;
#X connect 39 0 38 0;
#X connect 40 0 37 0;
#X connect 41 0 47 0;
#X connect 42 0 40 0;
#X connect 43 0 46 0;
#X connect 44 0 36 0;
#X connect 45 0 39 0;
#X connect 46 0 44 0;
#X connect 47 0 42 0;
#X connect 47 1 49 0;
#X connect 48 0 36 0;
#X connect 49 0 43 0;
#X connect 49 1 54 0;
#X connect 50 0 51 0;
#X connect 51 0 53 0;
#X connect 52 0 41 0;
#X connect 52 1 39 1;
#X connect 52 2 40 1;
#X connect 52 3 46 1;
#X connect 52 4 51 1;
#X connect 53 0 36 0;
#X connect 54 0 45 0;
#X connect 54 1 50 0;
#X connect 55 0 26 0;
#X connect 56 0 5 0;
#X connect 57 0 35 0;
#X connect 59 0 52 0;
#X connect 60 0 10 0;
