#N canvas 537 58 788 720 12;
#X obj 228 615 output~;
#X obj 246 74 unpack;
#X obj 383 196 sel 0;
#X obj 415 243 / 127;
#X msg 415 267 gain \$1;
#X obj 415 291 s \$0-mess;
#X obj 140 513 r \$0-mess;
#X obj 383 159 t a a, f 14;
#X obj 478 192 > 0;
#X obj 478 244 s \$0-mess;
#X msg 478 220 gate \$1;
#X obj 246 98 makenote 69 1000;
#X text 249 562 signal output;
#N canvas 570 160 794 535 operator-1 1;
#X obj 96 259 s \$0-mess;
#X obj 55 26 hsl 162 19 0 127 0 0 empty empty empty -2 -10 0 12 #fcfcfc #000000 #000000 0 1;
#X obj 52 50 / 127;
#X obj 145 62 hsl 162 19 0 127 0 0 empty empty empty -2 -10 0 12 #fcfcfc #000000 #000000 0 1;
#X obj 142 86 / 127;
#X obj 217 107 hsl 162 19 0 127 0 0 empty empty empty -2 -10 0 12 #fcfcfc #000000 #000000 0 1;
#X obj 214 131 / 127;
#X obj 301 146 hsl 162 19 0 127 0 0 empty empty empty -2 -10 0 12 #fcfcfc #000000 #000000 0 1;
#X obj 298 170 / 127;
#X msg 52 82 a1 \$1;
#X msg 142 118 d1 \$1;
#X msg 214 163 s1 \$1;
#X msg 298 202 r1 \$1;
#X obj 371 201 hsl 162 19 0 127 0 0 empty empty empty -2 -10 0 12 #fcfcfc #000000 #000000 0 1;
#X obj 368 225 / 127;
#X msg 368 257 fb1 \$1;
#X text 242 21 attack;
#X text 317 59 decay;
#X text 393 109 sustain;
#X text 474 146 release;
#X text 548 206 operator feedback;
#X text 389 21 Operator 1 controls;
#X connect 1 0 2 0;
#X connect 2 0 9 0;
#X connect 3 0 4 0;
#X connect 4 0 10 0;
#X connect 5 0 6 0;
#X connect 6 0 11 0;
#X connect 7 0 8 0;
#X connect 8 0 12 0;
#X connect 9 0 0 0;
#X connect 10 0 0 0;
#X connect 11 0 0 0;
#X connect 12 0 0 0;
#X connect 13 0 14 0;
#X connect 14 0 15 0;
#X connect 15 0 0 0;
#X restore 28 433 pd operator-1;
#X obj 25 152 hsl 162 19 0 127 0 0 empty empty empty -2 -10 0 12 #fcfcfc #000000 #000000 0 1;
#X obj 24 176 / 127;
#X obj 246 152 mtof;
#X msg 246 186 freq \$1;
#X obj 246 210 s \$0-mess;
#X obj 24 226 s \$0-mess;
#X msg 24 202 modAmt \$1;
#X text 106 204 0-1 op2 -> op1;
#X obj 29 263 hsl 162 19 0 127 0 0 empty empty empty -2 -10 0 12 #fcfcfc #000000 #000000 0 1;
#X obj 26 287 / 127;
#X obj 26 387 s \$0-mess;
#X msg 26 363 modIndex \$1;
#X text 120 362 Index of op2;
#X obj 26 311 * 16;
#X floatatom 26 335 5 0 0 0 - - - 0;
#N canvas 570 160 794 535 operator-2 1;
#X obj 96 259 s \$0-mess;
#X obj 55 26 hsl 162 19 0 127 0 0 empty empty empty -2 -10 0 12 #fcfcfc #000000 #000000 0 1;
#X obj 52 50 / 127;
#X obj 145 62 hsl 162 19 0 127 0 0 empty empty empty -2 -10 0 12 #fcfcfc #000000 #000000 0 1;
#X obj 142 86 / 127;
#X obj 217 107 hsl 162 19 0 127 0 0 empty empty empty -2 -10 0 12 #fcfcfc #000000 #000000 0 1;
#X obj 214 131 / 127;
#X obj 301 146 hsl 162 19 0 127 0 0 empty empty empty -2 -10 0 12 #fcfcfc #000000 #000000 0 1;
#X obj 298 170 / 127;
#X obj 371 201 hsl 162 19 0 127 0 0 empty empty empty -2 -10 0 12 #fcfcfc #000000 #000000 0 1;
#X obj 368 225 / 127;
#X text 242 21 attack;
#X text 317 59 decay;
#X text 393 109 sustain;
#X text 474 146 release;
#X text 548 206 operator feedback;
#X text 389 21 Operator 2 controls;
#X msg 52 82 a2 \$1;
#X msg 142 118 d2 \$1;
#X msg 214 163 s2 \$1;
#X msg 298 202 r2 \$1;
#X msg 368 257 fb2 \$1;
#X connect 1 0 2 0;
#X connect 2 0 17 0;
#X connect 3 0 4 0;
#X connect 4 0 18 0;
#X connect 5 0 6 0;
#X connect 6 0 19 0;
#X connect 7 0 8 0;
#X connect 8 0 20 0;
#X connect 9 0 10 0;
#X connect 10 0 21 0;
#X connect 17 0 0 0;
#X connect 18 0 0 0;
#X connect 19 0 0 0;
#X connect 20 0 0 0;
#X connect 21 0 0 0;
#X restore 29 466 pd operator-2;
#X msg 246 50 50 100;
#X text 12 9 Simple 2-Operator FM synth;
#X text 8 36 op2 modulates op1 in serial;
#X text 23 80 op2 -> op1 -> output;
#X obj 140 547 fm_synth_2OP~;
#X floatatom 355 62 5 0 0 0 - - - 0;
#X connect 1 0 11 0;
#X connect 1 1 11 1;
#X connect 2 1 3 0;
#X connect 3 0 4 0;
#X connect 4 0 5 0;
#X connect 6 0 34 0;
#X connect 7 0 2 0;
#X connect 7 1 8 0;
#X connect 8 0 10 0;
#X connect 10 0 9 0;
#X connect 11 0 16 0;
#X connect 11 1 7 0;
#X connect 14 0 15 0;
#X connect 15 0 20 0;
#X connect 16 0 17 0;
#X connect 17 0 18 0;
#X connect 20 0 19 0;
#X connect 22 0 23 0;
#X connect 23 0 27 0;
#X connect 25 0 24 0;
#X connect 27 0 28 0;
#X connect 28 0 25 0;
#X connect 30 0 1 0;
#X connect 34 1 0 0;
#X connect 34 1 0 1;
#X connect 35 0 11 2;
