#N canvas 494 232 1355 723 12;
#X obj 708 303 list prepend modIndex;
#X obj 708 219 i;
#X obj 708 267 / 6;
#X obj 708 195 * 6;
#X obj 708 171 * 12;
#X obj 708 243 max 1;
#X obj 848 523 list prepend a1;
#X obj 422 551 hip~ 5;
#X obj 348 218 pack 0 0 0;
#X obj 348 187 - 1;
#X obj 554 482 s \$1-global-mess;
#X obj 854 559 s \$1-global-mess;
#X obj 348 431 clone voice~ 4 \$1;
#X obj 348 163 poly 4 1, f 10;
#X obj 554 173 list prepend modAmt;
#X obj 1056 431 s \$1-global-mess;
#X obj 1056 395 list prepend r1;
#X obj 924 213 t a a, f 19;
#X obj 422 585 *~ 0.9;
#X obj 26 34 inlet~ inL-\$1;
#X obj 136 34 inlet~ inR-\$1;
#X obj 253 31 r notesIn-\$1;
#X obj 354 36 r ctrlIn-\$1;
#X obj 644 20 r auxIn-\$1;
#X obj 643 43 r expIn-\$1;
#X obj 643 68 r fsIn-\$1;
#X obj 621 641 s notesOut-\$1;
#X obj 727 641 s ctrlOut-\$1;
#X obj 448 617 outlet~ outR-\$1;
#X obj 421 644 outlet~ outL-\$1;
#X obj 1056 342 max 0.01;
#X obj 708 111 r suprise-\$1;
#X obj 924 179 r shape-\$1;
#X obj 554 110 r tone-\$1;
#X obj 813 46 r loadbang-\$1;
#X obj 924 237 clip 0.5 1;
#X obj 924 261 - 0.5;
#X obj 924 285 / 0.5;
#X obj 909 444 max 0.01;
#X obj 1056 318 * 4, f 4;
#X obj 1006 585 s \$1-global-mess;
#X obj 1003 557 list prepend a2;
#N canvas 4 50 450 300 up-down 0;
#X obj 54 23 inlet;
#X obj 54 57 moses 0.5, f 13;
#X obj 54 81 / 0.49999;
#X obj 144 79 - 0.5;
#X obj 144 103 / 0.5;
#X obj 144 127 swap 1;
#X obj 144 151 -;
#X obj 54 190 f;
#X obj 54 214 outlet;
#X connect 0 0 1 0;
#X connect 1 0 2 0;
#X connect 1 1 3 0;
#X connect 2 0 7 0;
#X connect 3 0 4 0;
#X connect 4 0 5 0;
#X connect 5 0 6 0;
#X connect 5 1 6 1;
#X connect 6 0 7 0;
#X connect 7 0 8 0;
#X restore 1054 245 pd up-down;
#X obj 924 409 t a a;
#X obj 979 446 max 0.001;
#X obj 1002 419 / 2;
#X obj 924 359 pow 2;
#X obj 924 309 * 0.5;
#X obj 786 222 s \$1-global-mess;
#X obj 786 186 list prepend s2;
#X obj 843 137 f 0.5;
#X obj 843 97 bng 15 250 50 0 empty empty empty 17 7 0 10 -262144 -1
-1;
#X connect 0 0 10 0;
#X connect 1 0 5 0;
#X connect 2 0 0 0;
#X connect 3 0 1 0;
#X connect 4 0 3 0;
#X connect 5 0 2 0;
#X connect 6 0 11 0;
#X connect 7 0 18 0;
#X connect 8 0 12 0;
#X connect 9 0 8 0;
#X connect 12 0 7 0;
#X connect 13 0 9 0;
#X connect 13 1 8 1;
#X connect 13 2 8 2;
#X connect 14 0 10 0;
#X connect 16 0 15 0;
#X connect 17 0 35 0;
#X connect 17 1 42 0;
#X connect 18 0 28 0;
#X connect 18 0 29 0;
#X connect 21 0 13 0;
#X connect 30 0 16 0;
#X connect 31 0 4 0;
#X connect 32 0 17 0;
#X connect 33 0 14 0;
#X connect 34 0 50 0;
#X connect 35 0 36 0;
#X connect 36 0 37 0;
#X connect 37 0 47 0;
#X connect 38 0 6 0;
#X connect 38 0 41 0;
#X connect 39 0 30 0;
#X connect 41 0 40 0;
#X connect 42 0 39 0;
#X connect 43 0 38 0;
#X connect 43 1 45 0;
#X connect 44 0 41 0;
#X connect 45 0 44 0;
#X connect 46 0 43 0;
#X connect 47 0 46 0;
#X connect 49 0 48 0;
#X connect 50 0 49 0;
#X connect 51 0 50 0;
