#N canvas 68 28 1372 769 12;
#X obj 142 232 pack 0 0 0;
#X obj 142 146 poly 4 1, f 10;
#X obj 142 170 - 1;
#X obj 142 90 r notes;
#X obj 140 415 throw~ outL;
#X obj 157 379 throw~ outR;
#X obj 142 298 clone voice~ 4 \$1;
#X obj 658 219 loadbang;
#X obj 342 158 + 0.1;
#X obj 342 134 * 0.6;
#X obj 684 345 t b a;
#X obj 658 385 + 0;
#X obj 512 140 * 0.03;
#X obj 658 254 f 0.1335;
#X obj 342 41 swap 1;
#X obj 342 66 -;
#X obj 342 90 t a a;
#X obj 141 340 *~ 0.5;
#X obj 342 4 r \$1-knob1;
#X obj 514 15 r \$1-knob2;
#X obj 648 30 r \$1-knob3;
#X obj 514 77 s \$1-pick-pos;
#X obj 342 189 s \$1-ring;
#X obj 658 425 s \$1-tune;
#X obj 648 74 s \$1-pick-tone;
#X connect 0 0 6 0;
#X connect 1 0 2 0;
#X connect 1 1 0 1;
#X connect 1 2 0 2;
#X connect 2 0 0 0;
#X connect 3 0 1 0;
#X connect 6 0 17 0;
#X connect 7 0 13 0;
#X connect 8 0 22 0;
#X connect 9 0 8 0;
#X connect 10 0 11 0;
#X connect 10 1 11 1;
#X connect 11 0 23 0;
#X connect 12 0 10 0;
#X connect 13 0 11 0;
#X connect 14 0 15 0;
#X connect 14 1 15 1;
#X connect 15 0 16 0;
#X connect 16 0 9 0;
#X connect 16 1 12 0;
#X connect 17 0 5 0;
#X connect 17 0 4 0;
#X connect 18 0 14 0;
#X connect 19 0 21 0;
#X connect 20 0 24 0;
