#N canvas 103 93 982 644 12;
#X obj 142 182 pack 0 0 0;
#X obj 142 96 poly 4 1;
#X obj 142 120 - 1;
#X obj 610 152 hsl 128 15 0 127 0 0 empty empty empty -2 -8 0 10 #fcfcfc
#000000 #000000 0 1;
#X obj 607 172 / 127;
#X obj 607 196 * 5;
#X obj 607 220 + 1;
#X obj 498 301 r aux;
#X obj 459 332 spigot;
#X obj 421 226 r notes;
#X obj 421 250 stripnote;
#X obj 421 274 sel 81 83;
#X obj 421 298 i -1;
#X obj 462 298 i 1;
#X msg 440 519 5: Transpose: \$1;
#X obj 366 584 s screenLine5;
#X obj 464 382 t b a;
#X obj 458 416 f;
#X obj 495 419 + 1;
#X obj 373 361 i 0;
#X obj 351 325 loadbang;
#X obj 478 476 * 12;
#X obj 495 442 clip -3 3;
#X obj 205 141 +;
#X obj 786 303 s wave-sel;
#X obj 789 169 hsl 128 15 0 127 0 0 empty empty empty -2 -8 0 10 #fcfcfc
#000000 #000000 0 1;
#X obj 786 189 / 127;
#X obj 786 213 * 4;
#X obj 786 237 i;
#X obj 515 72 s~ filter-freq;
#X obj 609 299 s~ filter-q;
#X obj 514 40 lop~ 5;
#X obj 629 40 lop~ 5;
#X obj 629 70 s~ filt-mix;
#X obj 142 247 clone voice~ 4;
#X obj 356 193 s analog2-att;
#X obj 356 140 + 2;
#X obj 414 138 + 2;
#X obj 414 114 * 2000;
#X obj 355 56 t a a;
#X obj 414 169 s analog2-dec;
#X obj 714 183 loadbang;
#X obj 714 207 i 3;
#X obj 693 208 bng 15 250 50 0 empty empty empty 17 7 0 10 #fcfcfc
#000000 #000000;
#X obj 692 358 hsl 128 15 0 127 0 0 empty empty empty -2 -8 0 10 #fcfcfc
#000000 #000000 0 1;
#X obj 687 391 / 127;
#X obj 763 396 lop~ 5;
#X obj 720 439 s~ sub-osc;
#X floatatom 680 427 5 0 0 0 - - - 0;
#X obj 356 116 * 1000;
#X obj 355 80 pow 4;
#X obj 608 262 sig~ 2;
#X obj 356 8 r \$1-knob1;
#X obj 514 14 r \$1-knob2;
#X obj 629 0 r \$1-knob3;
#X obj 132 50 r \$1-notes;
#X obj 103 574 s~ \$1-out;
#X obj 143 336 *~ 1.5;
#X connect 0 0 34 0;
#X connect 1 0 2 0;
#X connect 1 1 23 0;
#X connect 1 2 0 2;
#X connect 2 0 0 0;
#X connect 3 0 4 0;
#X connect 4 0 5 0;
#X connect 5 0 6 0;
#X connect 6 0 51 0;
#X connect 7 0 8 1;
#X connect 8 0 16 0;
#X connect 9 0 10 0;
#X connect 10 0 11 0;
#X connect 11 0 12 0;
#X connect 11 1 13 0;
#X connect 12 0 8 0;
#X connect 13 0 8 0;
#X connect 16 0 17 0;
#X connect 16 1 18 1;
#X connect 17 0 18 0;
#X connect 18 0 22 0;
#X connect 19 0 17 0;
#X connect 20 0 19 0;
#X connect 21 0 14 0;
#X connect 21 0 23 1;
#X connect 22 0 17 1;
#X connect 22 0 21 0;
#X connect 23 0 0 1;
#X connect 25 0 26 0;
#X connect 26 0 27 0;
#X connect 27 0 28 0;
#X connect 28 0 24 0;
#X connect 31 0 29 0;
#X connect 32 0 33 0;
#X connect 34 0 57 0;
#X connect 36 0 35 0;
#X connect 37 0 40 0;
#X connect 38 0 37 0;
#X connect 39 0 50 0;
#X connect 39 1 38 0;
#X connect 41 0 42 0;
#X connect 42 0 24 0;
#X connect 43 0 42 0;
#X connect 44 0 45 0;
#X connect 45 0 46 0;
#X connect 45 0 48 0;
#X connect 46 0 47 0;
#X connect 49 0 36 0;
#X connect 50 0 49 0;
#X connect 51 0 30 0;
#X connect 52 0 39 0;
#X connect 53 0 31 0;
#X connect 54 0 32 0;
#X connect 55 0 1 0;
#X connect 57 0 56 0;
