#N canvas 1061 188 855 757 12;
#X obj 87 4 inlet;
#X obj 571 214 list prepend gate;
#X obj 343 126 / 127;
#X obj 87 28 unpack 0 0, f 37;
#X obj 571 183 > 0;
#X obj 267 644 outlet~;
#X obj 571 247 list trim;
#X obj 317 363 *~, f 18;
#N canvas 63 88 450 300 env 1;
#X obj 56 36 inlet;
#X obj 56 60 sel 0, f 15;
#X obj 56 124 pack 0 1000;
#X obj 56 208 vline~;
#X obj 56 232 *~;
#X obj 56 256 outlet~;
#X obj 186 74 sqrt;
#X obj 218 128 pack \$1 5;
#X obj 186 102 t b a;
#X obj 276 42 r analog2-att;
#X obj 276 66 t a a;
#X obj 66 94 r analog2-dec;
#X obj 185 158 pack 0.65 600 5;
#X connect 0 0 1 0;
#X connect 1 0 2 0;
#X connect 1 1 6 0;
#X connect 2 0 3 0;
#X connect 3 0 4 0;
#X connect 3 0 4 1;
#X connect 4 0 5 0;
#X connect 6 0 8 0;
#X connect 7 0 3 0;
#X connect 8 0 12 0;
#X connect 8 1 7 0;
#X connect 9 0 10 0;
#X connect 10 0 7 1;
#X connect 10 1 12 2;
#X connect 11 0 2 1;
#X connect 12 0 3 0;
#X restore 456 251 pd env;
#X obj 343 75 t a a, f 25;
#X obj 212 554 *~;
#X obj 259 485 *~;
#N canvas 4 50 834 550 waves 0;
#X obj 412 12 inlet;
#N canvas 4 50 702 443 triangle 0;
#X obj 124 28 inlet~;
#X obj 279 11 inlet;
#X obj 126 96 *~ 0.5;
#X obj 126 265 *~;
#X obj 126 289 outlet~;
#X obj 279 170 line~;
#X obj 279 145 pack 0 8;
#X obj 279 35 sel 0 1, f 34;
#X obj 279 119 i 0;
#X obj 286 257 del 8;
#X obj 286 281 i 0;
#X obj 279 78 t b b b;
#X msg 367 180 stop;
#X obj 396 83 t b b b;
#X obj 318 121 i 1;
#X obj 433 219 i 1;
#X obj 433 360 switch~;
#X obj 46 58 bl_triangle~;
#X connect 0 0 17 1;
#X connect 1 0 7 0;
#X connect 2 0 3 0;
#X connect 3 0 4 0;
#X connect 5 0 3 1;
#X connect 6 0 5 0;
#X connect 7 0 11 0;
#X connect 7 1 13 0;
#X connect 8 0 6 0;
#X connect 9 0 10 0;
#X connect 10 0 16 0;
#X connect 11 0 8 0;
#X connect 11 1 9 0;
#X connect 11 2 12 0;
#X connect 12 0 9 0;
#X connect 13 0 14 0;
#X connect 13 1 15 0;
#X connect 13 2 12 0;
#X connect 14 0 6 0;
#X connect 15 0 16 0;
#X connect 17 1 2 0;
#X restore 160 157 pd triangle;
#N canvas 4 50 702 443 square 0;
#X obj 120 11 inlet~;
#X obj 279 11 inlet;
#X obj 126 96 *~ 0.5;
#X obj 126 265 *~;
#X obj 126 289 outlet~;
#X obj 279 170 line~;
#X obj 279 145 pack 0 8;
#X obj 279 35 sel 0 1, f 34;
#X obj 279 119 i 0;
#X obj 286 257 del 8;
#X obj 286 281 i 0;
#X obj 279 78 t b b b;
#X msg 367 180 stop;
#X obj 396 83 t b b b;
#X obj 318 121 i 1;
#X obj 433 219 i 1;
#X obj 433 360 switch~;
#X obj 46 56 bl_square~;
#X connect 0 0 17 1;
#X connect 1 0 7 0;
#X connect 2 0 3 0;
#X connect 3 0 4 0;
#X connect 5 0 3 1;
#X connect 6 0 5 0;
#X connect 7 0 11 0;
#X connect 7 1 13 0;
#X connect 8 0 6 0;
#X connect 9 0 10 0;
#X connect 10 0 16 0;
#X connect 11 0 8 0;
#X connect 11 1 9 0;
#X connect 11 2 12 0;
#X connect 12 0 9 0;
#X connect 13 0 14 0;
#X connect 13 1 15 0;
#X connect 13 2 12 0;
#X connect 14 0 6 0;
#X connect 15 0 16 0;
#X connect 17 1 2 0;
#X restore 268 160 pd square;
#N canvas 4 50 702 443 saw 0;
#X obj 99 10 inlet~;
#X obj 279 11 inlet;
#X obj 126 96 *~ 0.5;
#X obj 126 265 *~;
#X obj 126 289 outlet~;
#X obj 279 170 line~;
#X obj 279 145 pack 0 8;
#X obj 279 35 sel 0 1, f 34;
#X obj 279 119 i 0;
#X obj 286 257 del 8;
#X obj 286 281 i 0;
#X obj 279 78 t b b b;
#X msg 367 180 stop;
#X obj 396 83 t b b b;
#X obj 318 121 i 1;
#X obj 433 219 i 1;
#X obj 433 360 switch~;
#X obj 46 56 bl_saw~;
#X connect 0 0 17 1;
#X connect 1 0 7 0;
#X connect 2 0 3 0;
#X connect 3 0 4 0;
#X connect 5 0 3 1;
#X connect 6 0 5 0;
#X connect 7 0 11 0;
#X connect 7 1 13 0;
#X connect 8 0 6 0;
#X connect 9 0 10 0;
#X connect 10 0 16 0;
#X connect 11 0 8 0;
#X connect 11 1 9 0;
#X connect 11 2 12 0;
#X connect 12 0 9 0;
#X connect 13 0 14 0;
#X connect 13 1 15 0;
#X connect 13 2 12 0;
#X connect 14 0 6 0;
#X connect 15 0 16 0;
#X connect 17 1 2 0;
#X restore 365 152 pd saw;
#X text 102 22 hz;
#X obj 150 402 outlet~;
#X obj 105 121 == 0, f 5;
#X obj 236 127 == 1, f 5;
#X obj 514 136 == 3, f 5;
#X obj 326 131 == 2, f 5;
#X obj 236 297 *~ 0.3;
#X obj 337 294 *~ 0.3;
#X obj 59 178 *~ 0.7;
#X obj 389 196 +~ 0.1;
#N canvas 4 50 702 443 saw 0;
#X obj 99 10 inlet~;
#X obj 279 11 inlet;
#X obj 126 96 *~ 0.5;
#X obj 126 265 *~;
#X obj 126 289 outlet~;
#X obj 279 170 line~;
#X obj 279 145 pack 0 8;
#X obj 279 35 sel 0 1, f 34;
#X obj 279 119 i 0;
#X obj 286 257 del 8;
#X obj 286 281 i 0;
#X obj 279 78 t b b b;
#X msg 367 180 stop;
#X obj 396 83 t b b b;
#X obj 318 121 i 1;
#X obj 433 219 i 1;
#X obj 433 360 switch~;
#X obj 46 56 bl_saw~;
#X connect 0 0 17 1;
#X connect 1 0 7 0;
#X connect 2 0 3 0;
#X connect 3 0 4 0;
#X connect 5 0 3 1;
#X connect 6 0 5 0;
#X connect 7 0 11 0;
#X connect 7 1 13 0;
#X connect 8 0 6 0;
#X connect 9 0 10 0;
#X connect 10 0 16 0;
#X connect 11 0 8 0;
#X connect 11 1 9 0;
#X connect 11 2 12 0;
#X connect 12 0 9 0;
#X connect 13 0 14 0;
#X connect 13 1 15 0;
#X connect 13 2 12 0;
#X connect 14 0 6 0;
#X connect 15 0 16 0;
#X connect 17 1 2 0;
#X restore 389 225 pd saw;
#X f 11;
#N canvas 4 50 702 443 noise 0;
#X obj 46 23 inlet~;
#X obj 279 11 inlet;
#X obj 119 115 *~ 0.5;
#X obj 46 245 *~;
#X obj 46 269 outlet~;
#X obj 279 170 line~;
#X obj 279 145 pack 0 8;
#X obj 279 35 sel 0 1, f 34;
#X obj 279 119 i 0;
#X obj 286 257 del 8;
#X obj 286 281 i 0;
#X obj 279 78 t b b b;
#X msg 367 180 stop;
#X obj 396 83 t b b b;
#X obj 318 121 i 1;
#X obj 433 219 i 1;
#X obj 433 360 switch~;
#X obj 46 47 pink_noise~;
#X connect 0 0 17 0;
#X connect 1 0 7 0;
#X connect 2 0 3 0;
#X connect 3 0 4 0;
#X connect 5 0 3 1;
#X connect 6 0 5 0;
#X connect 7 0 11 0;
#X connect 7 1 13 0;
#X connect 8 0 6 0;
#X connect 9 0 10 0;
#X connect 10 0 16 0;
#X connect 11 0 8 0;
#X connect 11 1 9 0;
#X connect 11 2 12 0;
#X connect 12 0 9 0;
#X connect 13 0 14 0;
#X connect 13 1 15 0;
#X connect 13 2 12 0;
#X connect 14 0 6 0;
#X connect 15 0 16 0;
#X connect 17 1 2 0;
#X restore 59 154 pd noise;
#N canvas 4 50 702 443 noise 0;
#X obj 279 11 inlet;
#X obj 119 115 *~ 0.5;
#X obj 46 245 *~;
#X obj 46 269 outlet~;
#X obj 279 170 line~;
#X obj 279 145 pack 0 8;
#X obj 279 35 sel 0 1, f 34;
#X obj 279 119 i 0;
#X obj 286 257 del 8;
#X obj 286 281 i 0;
#X obj 279 78 t b b b;
#X msg 367 180 stop;
#X obj 396 83 t b b b;
#X obj 318 121 i 1;
#X obj 433 219 i 1;
#X obj 433 360 switch~;
#X obj 46 47 pink_noise~;
#X connect 0 0 6 0;
#X connect 1 0 2 0;
#X connect 2 0 3 0;
#X connect 4 0 2 1;
#X connect 5 0 4 0;
#X connect 6 0 10 0;
#X connect 6 1 12 0;
#X connect 7 0 5 0;
#X connect 8 0 9 0;
#X connect 9 0 15 0;
#X connect 10 0 7 0;
#X connect 10 1 8 0;
#X connect 10 2 11 0;
#X connect 11 0 8 0;
#X connect 12 0 13 0;
#X connect 12 1 14 0;
#X connect 12 2 11 0;
#X connect 13 0 5 0;
#X connect 14 0 15 0;
#X connect 16 1 1 0;
#X restore 472 269 pd noise;
#X obj 472 293 *~ 0.4;
#X obj 584 308 osc~;
#X obj 57 70 mtof~;
#X obj 57 8 inlet;
#X obj 57 32 t a a;
#X obj 150 34 - 12;
#X obj 150 58 mtof~;
#X obj 701 193 r~ sub-osc;
#X obj 583 332 *~ 0.25, f 8;
#X connect 0 0 8 0;
#X connect 0 0 6 0;
#X connect 0 0 9 0;
#X connect 0 0 7 0;
#X connect 1 0 5 0;
#X connect 2 0 10 0;
#X connect 3 0 11 0;
#X connect 6 0 15 1;
#X connect 7 0 1 1;
#X connect 8 0 3 1;
#X connect 8 0 14 1;
#X connect 8 0 16 0;
#X connect 9 0 2 1;
#X connect 10 0 5 0;
#X connect 11 0 5 0;
#X connect 12 0 5 0;
#X connect 13 0 14 0;
#X connect 14 0 11 0;
#X connect 15 0 12 0;
#X connect 16 0 17 0;
#X connect 17 0 11 0;
#X connect 18 0 25 0;
#X connect 19 0 15 0;
#X connect 19 0 3 0;
#X connect 19 0 2 0;
#X connect 19 0 1 0;
#X connect 19 0 13 0;
#X connect 20 0 21 0;
#X connect 21 0 19 0;
#X connect 21 1 22 0;
#X connect 22 0 23 0;
#X connect 23 0 18 0;
#X connect 25 0 11 0;
#X restore 318 286 pd waves;
#X obj 371 250 r wave-sel;
#X obj 166 204 r~ filter-freq;
#X obj 72 436 oberheim_filter4~, f 27;
#X obj 197 389 r~ filter-q;
#X obj 342 425 r~ filt-mix;
#X obj 465 525 sig~ 1;
#X obj 465 549 -~;
#X obj 465 573 sqrt~;
#X obj 342 499 sqrt~;
#X obj 133 356 clip~ 0 1;
#X obj 87 273 +~;
#X obj 87 73 t a a, f 21;
#X obj 87 97 / 127;
#X obj 87 145 t a a;
#X obj 119 178 swap 1;
#X obj 119 202 -;
#X obj 119 245 *~;
#X obj 42 221 sig~;
#X connect 0 0 3 0;
#X connect 1 0 6 0;
#X connect 2 0 8 0;
#X connect 3 0 24 0;
#X connect 3 1 9 0;
#X connect 4 0 1 0;
#X connect 6 0 15 0;
#X connect 7 0 15 3;
#X connect 8 0 7 1;
#X connect 9 0 2 0;
#X connect 9 1 4 0;
#X connect 10 0 5 0;
#X connect 11 0 5 0;
#X connect 12 0 7 0;
#X connect 13 0 12 1;
#X connect 14 0 29 1;
#X connect 15 3 10 0;
#X connect 15 4 11 0;
#X connect 16 0 15 2;
#X connect 17 0 19 1;
#X connect 17 0 21 0;
#X connect 18 0 19 0;
#X connect 19 0 20 0;
#X connect 20 0 11 1;
#X connect 21 0 10 1;
#X connect 22 0 15 1;
#X connect 23 0 22 0;
#X connect 24 0 25 0;
#X connect 24 1 12 0;
#X connect 25 0 26 0;
#X connect 26 0 30 0;
#X connect 26 1 27 0;
#X connect 27 0 28 0;
#X connect 27 1 28 1;
#X connect 28 0 29 0;
#X connect 29 0 23 1;
#X connect 30 0 23 0;
