#N canvas 197 25 1336 777 12;
#X obj 329 620 hip~ 5;
#N canvas 4 50 1099 841 kick 0;
#X obj 217 398 list prepend gain;
#X obj 85 463 list trim;
#X obj 85 397 list prepend gate;
#N canvas 4 50 450 300 gate 0;
#X obj 4 13 inlet;
#X obj 4 37 t b b b;
#X msg 111 79 stop;
#X obj 64 147 i 0;
#X obj 4 142 i 1;
#X obj 22 237 outlet;
#X obj 64 123 del 5;
#X connect 0 0 1 0;
#X connect 1 0 4 0;
#X connect 1 1 6 0;
#X connect 1 2 2 0;
#X connect 2 0 6 0;
#X connect 3 0 5 0;
#X connect 4 0 5 0;
#X connect 6 0 3 0;
#X restore 85 357 pd gate;
#X obj 115 245 stripnote;
#X obj 115 274 t b a;
#X obj 199 284 / 127;
#X obj 64 316 bng 15 250 50 0 empty empty empty 17 7 0 10 #fcfcfc #000000
#000000;
#X obj 152 600 *~ 1;
#X obj 375 500 hsl 128 15 0 127 0 0 empty empty empty -2 -8 0 10 #fcfcfc
#000000 #000000 0 1;
#X obj 372 520 / 127;
#X obj 376 594 hsl 128 15 0 127 0 0 empty empty empty -2 -8 0 10 #fcfcfc
#000000 #000000 0 1;
#X obj 373 614 / 127;
#X obj 418 334 hsl 128 15 0 127 0 0 empty empty empty -2 -8 0 10 #fcfcfc
#000000 #000000 0 1;
#X obj 418 360 / 127;
#X obj 499 400 hsl 128 15 0 127 0 0 empty empty empty -2 -8 0 10 #fcfcfc
#000000 #000000 0 1;
#X obj 496 420 / 127;
#X obj 86 515 synth_kick~;
#X obj 152 624 outlet~;
#X obj 115 163 inlet;
#X obj 357 400 list prepend freq;
#X obj 359 319 mtof;
#X obj 305 248 - 24;
#X obj 496 444 list prepend ampAtt;
#X obj 373 544 list prepend ampDec;
#X obj 378 677 hsl 128 15 0 127 0 0 empty empty empty -2 -8 0 10 #fcfcfc
#000000 #000000 0 1;
#X obj 375 697 / 127;
#X obj 374 638 list prepend freqAtt;
#X obj 376 721 list prepend freqDec;
#X obj 568 479 hsl 128 15 0 127 0 0 empty empty empty -2 -8 0 10 #fcfcfc
#000000 #000000 0 1;
#X obj 565 499 / 127;
#X obj 565 523 list prepend tone;
#X obj 602 626 r \$1-env;
#X obj 731 444 r \$1-tone;
#X obj 590 737 r \$1-tone2;
#X obj 602 650 * 0.99;
#X obj 731 492 + 0.01;
#X obj 730 468 * 0.25;
#X obj 602 674 + 0.01;
#X obj 590 761 * 0.99;
#X obj 590 785 + 0.01;
#X connect 0 0 1 0;
#X connect 1 0 17 0;
#X connect 2 0 1 0;
#X connect 3 0 2 0;
#X connect 4 0 5 0;
#X connect 4 1 6 0;
#X connect 5 0 3 0;
#X connect 5 0 7 0;
#X connect 5 1 22 0;
#X connect 6 0 0 0;
#X connect 8 0 18 0;
#X connect 9 0 10 0;
#X connect 10 0 24 0;
#X connect 11 0 12 0;
#X connect 12 0 27 0;
#X connect 13 0 14 0;
#X connect 14 0 20 0;
#X connect 15 0 16 0;
#X connect 16 0 23 0;
#X connect 17 1 8 0;
#X connect 19 0 4 0;
#X connect 20 0 1 0;
#X connect 21 0 20 0;
#X connect 22 0 21 0;
#X connect 23 0 1 0;
#X connect 24 0 1 0;
#X connect 25 0 26 0;
#X connect 26 0 28 0;
#X connect 27 0 1 0;
#X connect 28 0 1 0;
#X connect 29 0 30 0;
#X connect 30 0 31 0;
#X connect 31 0 1 0;
#X connect 32 0 35 0;
#X connect 33 0 37 0;
#X connect 34 0 39 0;
#X connect 35 0 38 0;
#X connect 36 0 31 0;
#X connect 37 0 36 0;
#X connect 38 0 24 0;
#X connect 39 0 40 0;
#X connect 40 0 28 0;
#X restore 143 468 pd kick;
#N canvas 4 50 931 909 clap 0;
#X obj 217 398 list prepend gain;
#X obj 85 463 list trim;
#X obj 85 397 list prepend gate;
#X obj 357 400 list prepend tone;
#N canvas 4 50 450 300 gate 0;
#X obj 4 13 inlet;
#X obj 4 37 t b b b;
#X msg 111 79 stop;
#X obj 64 147 i 0;
#X obj 4 142 i 1;
#X obj 22 237 outlet;
#X obj 64 124 del 3;
#X connect 0 0 1 0;
#X connect 1 0 4 0;
#X connect 1 1 6 0;
#X connect 1 2 2 0;
#X connect 2 0 6 0;
#X connect 3 0 5 0;
#X connect 4 0 5 0;
#X connect 6 0 3 0;
#X restore 85 357 pd gate;
#X obj 115 245 stripnote;
#X obj 115 274 t b a;
#X obj 199 284 / 127;
#X obj 152 600 *~ 1;
#X obj 85 514 synth_clap~;
#X obj 375 500 hsl 128 15 0 127 0 0 empty empty empty -2 -8 0 10 #fcfcfc
#000000 #000000 0 1;
#X obj 372 520 / 127;
#X obj 372 544 list prepend space;
#X obj 376 594 hsl 128 15 0 127 0 0 empty empty empty -2 -8 0 10 #fcfcfc
#000000 #000000 0 1;
#X obj 373 614 / 127;
#X obj 374 638 list prepend decay;
#X obj 427 320 hsl 128 15 0 127 0 0 empty empty empty -2 -8 0 10 #fcfcfc
#000000 #000000 0 1;
#X obj 418 360 / 127;
#X obj 499 400 hsl 128 15 0 127 0 0 empty empty empty -2 -8 0 10 #fcfcfc
#000000 #000000 0 1;
#X obj 496 420 / 127;
#X obj 496 444 list prepend end;
#X obj 119 158 inlet;
#X obj 152 624 outlet~;
#X obj 719 340 r \$1-env;
#X obj 453 224 r \$1-tone;
#X obj 453 272 + 0.5;
#X obj 451 248 * 1.5;
#X obj 629 662 f 0.05;
#X obj 618 569 f 0.25;
#X obj 568 487 r \$1-tone2;
#X obj 700 512 r loadbang=\$1;
#X connect 0 0 1 0;
#X connect 1 0 9 0;
#X connect 2 0 1 0;
#X connect 3 0 1 0;
#X connect 4 0 2 0;
#X connect 5 0 6 0;
#X connect 5 1 7 0;
#X connect 6 0 4 0;
#X connect 7 0 0 0;
#X connect 8 0 22 0;
#X connect 9 1 8 0;
#X connect 10 0 11 0;
#X connect 11 0 12 0;
#X connect 12 0 1 0;
#X connect 13 0 14 0;
#X connect 14 0 15 0;
#X connect 15 0 1 0;
#X connect 16 0 17 0;
#X connect 17 0 3 0;
#X connect 18 0 19 0;
#X connect 19 0 20 0;
#X connect 20 0 1 0;
#X connect 21 0 5 0;
#X connect 23 0 20 0;
#X connect 24 0 26 0;
#X connect 25 0 3 0;
#X connect 26 0 25 0;
#X connect 27 0 15 0;
#X connect 28 0 12 0;
#X connect 29 0 12 0;
#X connect 30 0 27 0;
#X connect 30 0 28 0;
#X restore 69 468 pd clap;
#X obj 100 394 list store;
#X obj 241 395 list store;
#X obj 125 141 unpack 0 0;
#X obj 126 271 t b;
#X obj 179 313 t b;
#N canvas 4 51 1097 840 djembe 0;
#X obj 217 398 list prepend gain;
#X obj 85 463 list trim;
#X obj 85 397 list prepend gate;
#N canvas 4 50 450 300 gate 0;
#X obj 4 13 inlet;
#X obj 4 37 t b b b;
#X msg 111 79 stop;
#X obj 64 147 i 0;
#X obj 4 142 i 1;
#X obj 22 237 outlet;
#X obj 64 123 del 5;
#X connect 0 0 1 0;
#X connect 1 0 4 0;
#X connect 1 1 6 0;
#X connect 1 2 2 0;
#X connect 2 0 6 0;
#X connect 3 0 5 0;
#X connect 4 0 5 0;
#X connect 6 0 3 0;
#X restore 85 357 pd gate;
#X obj 115 245 stripnote;
#X obj 115 274 t b a;
#X obj 199 284 / 127;
#X obj 64 316 bng 15 250 50 0 empty empty empty 17 7 0 10 #fcfcfc #000000
#000000;
#X obj 175 588 *~ 1;
#X obj 418 334 hsl 128 15 0 127 0 0 empty empty empty -2 -8 0 10 #fcfcfc
#000000 #000000 0 1;
#X obj 418 360 / 127;
#X obj 499 400 hsl 128 15 0 127 0 0 empty empty empty -2 -8 0 10 #fcfcfc
#000000 #000000 0 1;
#X obj 496 420 / 127;
#X obj 175 612 outlet~;
#X obj 115 163 inlet;
#X obj 357 400 list prepend freq;
#X obj 359 319 mtof;
#X obj 568 479 hsl 128 15 0 127 0 0 empty empty empty -2 -8 0 10 #fcfcfc
#000000 #000000 0 1;
#X obj 565 499 / 127;
#X obj 496 444 list prepend strikePos;
#X obj 565 523 list prepend strikeSharp;
#X obj 86 515 synth_djembe~;
#X obj 236 353 - 12;
#X obj 591 353 r \$1-env;
#X obj 699 412 r \$1-tone;
#X obj 291 191 r \$1-tone2;
#X obj 291 263 t b a;
#X obj 291 215 * 24;
#X obj 291 239 - 12;
#X connect 0 0 1 0;
#X connect 1 0 21 0;
#X connect 2 0 1 0;
#X connect 3 0 2 0;
#X connect 4 0 5 0;
#X connect 4 1 6 0;
#X connect 5 0 3 0;
#X connect 5 0 7 0;
#X connect 5 1 22 0;
#X connect 6 0 0 0;
#X connect 8 0 13 0;
#X connect 9 0 10 0;
#X connect 10 0 15 0;
#X connect 11 0 12 0;
#X connect 12 0 19 0;
#X connect 14 0 4 0;
#X connect 15 0 1 0;
#X connect 16 0 15 0;
#X connect 17 0 18 0;
#X connect 18 0 20 0;
#X connect 19 0 1 0;
#X connect 20 0 1 0;
#X connect 21 1 8 0;
#X connect 22 0 16 0;
#X connect 23 0 19 0;
#X connect 24 0 20 0;
#X connect 25 0 27 0;
#X connect 26 0 22 0;
#X connect 26 1 22 1;
#X connect 27 0 28 0;
#X connect 28 0 26 0;
#X restore 226 462 pd djembe;
#X obj 282 339 t b;
#X obj 352 392 list store;
#X obj 143 492 *~ 0.6;
#X obj 442 356 t b;
#X obj 442 388 list store;
#X obj 125 117 t a a a a a, f 32;
#N canvas 4 50 1099 841 hi-hat 0;
#X obj 217 398 list prepend gain;
#X obj 85 463 list trim;
#X obj 85 397 list prepend gate;
#N canvas 4 50 450 300 gate 0;
#X obj 4 13 inlet;
#X obj 4 37 t b b b;
#X msg 111 79 stop;
#X obj 64 147 i 0;
#X obj 4 142 i 1;
#X obj 22 237 outlet;
#X obj 64 124 del 30;
#X connect 0 0 1 0;
#X connect 1 0 4 0;
#X connect 1 1 6 0;
#X connect 1 2 2 0;
#X connect 2 0 6 0;
#X connect 3 0 5 0;
#X connect 4 0 5 0;
#X connect 6 0 3 0;
#X restore 85 357 pd gate;
#X obj 115 245 stripnote;
#X obj 115 274 t b a;
#X obj 199 284 / 127;
#X obj 172 616 *~ 1;
#X obj 375 500 hsl 128 15 0 127 0 0 empty empty empty -2 -8 0 10 #fcfcfc
#000000 #000000 0 1;
#X obj 372 520 / 127;
#X obj 376 594 hsl 128 15 0 127 0 0 empty empty empty -2 -8 0 10 #fcfcfc
#000000 #000000 0 1;
#X obj 373 614 / 127;
#X obj 353 234 hsl 128 15 0 127 0 0 empty empty empty -2 -8 0 10 #fcfcfc
#000000 #000000 0 1;
#X obj 499 400 hsl 128 15 0 127 0 0 empty empty empty -2 -8 0 10 #fcfcfc
#000000 #000000 0 1;
#X obj 496 420 / 127;
#X obj 172 640 outlet~;
#X obj 115 163 inlet;
#X obj 357 400 list prepend freq;
#X obj 359 319 mtof;
#X obj 496 444 list prepend ampAtt;
#X obj 373 544 list prepend ampDec;
#X obj 378 677 hsl 128 15 0 127 0 0 empty empty empty -2 -8 0 10 #fcfcfc
#000000 #000000 0 1;
#X obj 375 697 / 127;
#X obj 374 638 list prepend freqAtt;
#X obj 376 721 list prepend freqDec;
#X obj 87 516 synth_hiHat~;
#X obj 494 180 110;
#X obj 565 601 hsl 128 15 0 127 0 0 empty empty empty -2 -8 0 10 #fcfcfc
#000000 #000000 0 1;
#X obj 562 621 / 127;
#X obj 563 645 list prepend freqDepth;
#X floatatom 554 249 5 0 0 0 - - - 0;
#X obj 552 271 - 78;
#X obj 567 341 / 5;
#X obj 673 403 max 0.001;
#X obj 567 365 * 1;
#X obj 674 496 * 1;
#X obj 674 520 max 0.1;
#X obj 551 493 r \$1-env;
#X obj 330 116 r \$1-tone;
#X obj 728 580 r \$1-tone2;
#X floatatom 330 188 5 0 0 0 - - - 0;
#X obj 330 164 + 72;
#X obj 329 140 * 55;
#X obj 494 156 r loadbang-\$1;
#X connect 0 0 1 0;
#X connect 1 0 25 0;
#X connect 2 0 1 0;
#X connect 3 0 2 0;
#X connect 4 0 5 0;
#X connect 4 1 6 0;
#X connect 5 0 3 0;
#X connect 5 1 30 0;
#X connect 6 0 0 0;
#X connect 7 0 15 0;
#X connect 8 0 9 0;
#X connect 9 0 20 0;
#X connect 10 0 11 0;
#X connect 11 0 23 0;
#X connect 12 0 18 0;
#X connect 13 0 14 0;
#X connect 14 0 19 0;
#X connect 16 0 4 0;
#X connect 17 0 1 0;
#X connect 18 0 17 0;
#X connect 19 0 1 0;
#X connect 20 0 1 0;
#X connect 21 0 22 0;
#X connect 22 0 24 0;
#X connect 23 0 1 0;
#X connect 24 0 1 0;
#X connect 25 1 7 0;
#X connect 26 0 12 0;
#X connect 27 0 28 0;
#X connect 28 0 29 0;
#X connect 29 0 1 0;
#X connect 30 0 31 0;
#X connect 31 0 32 0;
#X connect 32 0 34 0;
#X connect 32 0 35 0;
#X connect 33 0 19 0;
#X connect 34 0 33 0;
#X connect 35 0 36 0;
#X connect 37 0 20 0;
#X connect 38 0 42 0;
#X connect 39 0 24 0;
#X connect 41 0 18 0;
#X connect 41 0 40 0;
#X connect 42 0 41 0;
#X connect 43 0 26 0;
#X restore 368 458 pd hi-hat;
#X obj 125 173 - 12;
#X obj 125 197 % 24;
#X obj 125 247 moses 5;
#X obj 178 279 moses 10, f 15;
#X obj 281 305 moses 18, f 15;
#X obj 537 188 s \$1-env;
#X obj 645 199 s \$1-tone;
#X obj 747 238 s \$1-tone2;
#X obj 17 17 inlet~ inL-\$1;
#X obj 127 17 inlet~ inR-\$1;
#X obj 244 14 r notesIn-\$1;
#X obj 345 14 r ctrlIn-\$1;
#X obj 445 664 s notesOut-\$1;
#X obj 551 664 s ctrlOut-\$1;
#X obj 308 696 outlet~ outL-\$1;
#X obj 330 667 outlet~ outR-\$1;
#X obj 542 87 r shape-\$1;
#X obj 677 73 r tone-\$1;
#X obj 749 161 r surprise-\$1;
#X connect 0 0 30 0;
#X connect 0 0 31 0;
#X connect 1 0 11 0;
#X connect 2 0 0 0;
#X connect 3 0 2 0;
#X connect 4 0 1 0;
#X connect 5 0 16 0;
#X connect 6 0 4 0;
#X connect 7 0 10 0;
#X connect 8 0 0 0;
#X connect 9 0 3 0;
#X connect 10 0 8 0;
#X connect 11 0 0 0;
#X connect 12 0 13 0;
#X connect 13 0 15 0;
#X connect 14 0 5 0;
#X connect 14 1 3 1;
#X connect 14 2 4 1;
#X connect 14 3 10 1;
#X connect 14 4 13 1;
#X connect 15 0 0 0;
#X connect 16 0 17 0;
#X connect 17 0 18 0;
#X connect 18 0 6 0;
#X connect 18 1 19 0;
#X connect 19 0 7 0;
#X connect 19 1 20 0;
#X connect 20 0 9 0;
#X connect 20 1 12 0;
#X connect 26 0 14 0;
#X connect 32 0 21 0;
#X connect 33 0 22 0;
#X connect 34 0 23 0;
