#N canvas 225 25 929 770 10;
#X obj 16 34 inlet~ inL-\$1;
#X obj 126 34 inlet~ inR-\$1;
#X obj 243 31 r notesIn-\$1;
#X obj 676 8 r auxIn-\$1;
#X obj 675 31 r expIn-\$1;
#X obj 675 56 r fsIn-\$1;
#X obj 747 8 r ctrlIn-\$1;
#X obj 331 708 s notesOut-\$1;
#X obj 692 711 s ctrlOut-\$1;
#X obj 44 710 outlet~ outL-\$1;
#X obj 170 710 outlet~ outR-\$1;
#X obj 244 63 unpack 0 0;
#X obj 244 123 pack 0 0 0;
#X obj 243 182 unpack, f 54;
#N canvas 135 25 826 775 array-sort 0;
#X obj 263 111 until;
#X obj 263 153 f;
#X obj 296 154 + 1, f 4;
#X msg 321 91 0, f 2;
#X obj 312 267 f;
#X obj 264 232 t f b;
#X obj 262 182 t f f;
#X obj 249 452 f;
#X obj 306 399 sel 1;
#X obj 214 485 f;
#X obj 173 537 f;
#X obj 213 553 t b b;
#X obj 333 550 t b f;
#X obj 250 580 f;
#X obj 343 -90 until;
#X obj 344 -46 f;
#X obj 376 -47 + 1, f 4;
#X msg 401 -110 0, f 2;
#X obj 345 -139 t b b;
#X obj 329 -11 t b f;
#X obj 252 48 t b b b b;
#X msg 324 575 0, f 2;
#X msg 357 89 0;
#X obj 217 333 expr if ($f1 > $f2 \, $f1 \, $f2) \; if ($f1 > $f2 \,
1 \, 0);
#X msg 344 -115 8, f 2;
#X msg 263 83 8, f 2;
#X text 419 137 sort array a into b. a gets clobbered in the process
probably a much better way to do this ...;
#X obj 345 -174 r \$0-reorder;
#X obj 264 210 tabread \$0-notes-squashed;
#X obj 324 611 tabwrite \$0-notes-squashed;
#X obj 139 648 tabwrite \$0-notes-decreasing;
#X connect 0 0 1 0;
#X connect 1 0 2 0;
#X connect 1 0 6 0;
#X connect 2 0 1 1;
#X connect 3 0 1 1;
#X connect 4 0 23 1;
#X connect 5 0 23 0;
#X connect 5 1 4 0;
#X connect 6 0 28 0;
#X connect 6 1 7 1;
#X connect 7 0 9 1;
#X connect 8 0 7 0;
#X connect 9 0 11 0;
#X connect 9 0 12 0;
#X connect 10 0 30 0;
#X connect 11 0 10 0;
#X connect 11 1 13 0;
#X connect 12 0 21 0;
#X connect 12 1 29 1;
#X connect 13 0 30 1;
#X connect 14 0 15 0;
#X connect 15 0 16 0;
#X connect 15 0 19 0;
#X connect 16 0 15 1;
#X connect 17 0 15 1;
#X connect 18 0 24 0;
#X connect 18 1 17 0;
#X connect 19 0 20 0;
#X connect 19 1 13 1;
#X connect 20 0 9 0;
#X connect 20 1 25 0;
#X connect 20 2 3 0;
#X connect 20 3 22 0;
#X connect 21 0 29 0;
#X connect 22 0 4 1;
#X connect 23 0 4 1;
#X connect 23 0 10 1;
#X connect 23 1 8 0;
#X connect 24 0 14 0;
#X connect 25 0 0 0;
#X connect 27 0 18 0;
#X connect 28 0 5 0;
#X restore 134 419 pd array-sort;
#X text 442 376 array1 is raw data from poly (notes with 0 velocity
are given 0 pitch);
#X text 445 453 here are the notes sorted...;
#X floatatom 652 322 5 0 0 0 - - - 0;
#N canvas 168 50 726 731 increasing 0;
#X obj 156 260 until;
#X obj 157 304 f;
#X obj 189 303 + 1, f 4;
#X msg 214 240 0, f 2;
#X obj 155 236 f 0;
#X obj 156 357 - 0;
#X obj 157 408 abs;
#X obj 157 326 t f f;
#X obj 266 471 f;
#X obj 156 469 t f b;
#X obj 156 379 + 1;
#X obj 416 331 until;
#X obj 416 373 f;
#X obj 449 374 + 1, f 4;
#X msg 474 311 0, f 2;
#X obj 416 276 t b b;
#X obj 424 398 t b f;
#X msg 415 423 0, f 2;
#X msg 416 303 8, f 2;
#X obj 155 197 t b b b;
#X obj 321 197 r \$0-num-down;
#X obj 156 437 tabread \$0-notes-decreasing;
#X obj 152 508 tabwrite \$0-notes-increasing;
#X obj 413 448 tabwrite \$0-notes-increasing;
#X obj 185 100 r \$0-others;
#X connect 0 0 1 0;
#X connect 1 0 2 0;
#X connect 1 0 7 0;
#X connect 2 0 1 1;
#X connect 3 0 1 1;
#X connect 4 0 0 0;
#X connect 5 0 10 0;
#X connect 6 0 21 0;
#X connect 7 0 5 0;
#X connect 7 1 8 1;
#X connect 8 0 22 1;
#X connect 9 0 22 0;
#X connect 9 1 8 0;
#X connect 10 0 6 0;
#X connect 11 0 12 0;
#X connect 12 0 13 0;
#X connect 12 0 16 0;
#X connect 13 0 12 1;
#X connect 14 0 12 1;
#X connect 15 0 18 0;
#X connect 15 1 14 0;
#X connect 16 0 17 0;
#X connect 16 1 23 1;
#X connect 17 0 23 0;
#X connect 18 0 11 0;
#X connect 19 0 4 0;
#X connect 19 1 3 0;
#X connect 19 2 15 0;
#X connect 20 0 4 1;
#X connect 20 0 5 1;
#X connect 21 0 9 0;
#X connect 24 0 19 0;
#X restore 136 463 pd increasing;
#X obj 244 88 poly 8 1, f 10;
#N canvas 12 50 588 574 format_for_array 0;
#X obj 111 44 inlet;
#X obj 102 128 f;
#X obj 144 151 sel 0;
#X msg 121 188 0;
#X obj 167 181 t b b;
#X obj 137 126 f;
#X obj 79 268 t f b;
#X obj 75 336 pack 0 0;
#X obj 85 75 unpack 0 0 0;
#X obj 41 132 t b f;
#X obj 117 304 f;
#X obj 78 389 outlet;
#X obj 133 274 - 1;
#X text 169 280 array index starts at 0 \, poly index starts at 1;
#X text 223 150 if the velocity is > 0 \, outputs note number. If =
0 \, it outputs 0 for note number;
#X connect 0 0 8 0;
#X connect 1 0 6 0;
#X connect 2 0 3 0;
#X connect 2 1 4 0;
#X connect 3 0 6 0;
#X connect 4 0 1 0;
#X connect 5 0 2 0;
#X connect 6 0 7 0;
#X connect 6 1 10 0;
#X connect 7 0 11 0;
#X connect 8 0 9 0;
#X connect 8 1 1 1;
#X connect 8 2 5 1;
#X connect 9 0 5 0;
#X connect 9 1 12 0;
#X connect 10 0 7 1;
#X connect 12 0 10 1;
#X restore 244 152 pd format_for_array;
#N canvas 8 50 1000 647 array-copy 0;
#X obj 228 194 until;
#X obj 228 236 f;
#X obj 261 237 + 1, f 4;
#X msg 286 174 0, f 2;
#X obj 426 272 until;
#X obj 426 314 f;
#X obj 459 315 + 1, f 4;
#X msg 484 252 0, f 2;
#X obj 426 217 t b b;
#X obj 426 339 t b f;
#X msg 426 364 0, f 2;
#X obj 228 121 t b b b;
#X msg 228 166 8, f 2;
#X msg 426 244 8, f 2;
#X text 324 97 this removes 0 elements (or actually just moves the
following elements over 1 place);
#X text 528 296 first zero out the destination array;
#X obj 228 258 t f f;
#X obj 228 297 tabread \$0-notes-from-poly;
#X obj 426 385 tabwrite \$0-notes-squashed;
#X obj 228 410 tabwrite \$0-notes-squashed;
#X obj 228 97 b;
#X obj 228 75 r \$0-copy;
#X connect 0 0 1 0;
#X connect 1 0 2 0;
#X connect 1 0 16 0;
#X connect 2 0 1 1;
#X connect 3 0 1 1;
#X connect 4 0 5 0;
#X connect 5 0 6 0;
#X connect 5 0 9 0;
#X connect 6 0 5 1;
#X connect 7 0 5 1;
#X connect 8 0 13 0;
#X connect 8 1 7 0;
#X connect 9 0 10 0;
#X connect 9 1 18 1;
#X connect 10 0 18 0;
#X connect 11 0 12 0;
#X connect 11 1 3 0;
#X connect 11 2 8 0;
#X connect 12 0 0 0;
#X connect 13 0 4 0;
#X connect 16 0 17 0;
#X connect 16 1 19 1;
#X connect 17 0 19 0;
#X connect 20 0 11 0;
#X connect 21 0 20 0;
#X restore 133 382 pd array-copy;
#X text 446 483 then increasing;
#X text 228 600 then play them!;
#X text 444 412 array squash pulls out 0 notes. this array gets clobbered
by the sorting function so it always looks blank;
#N canvas 640 236 533 527 countnotes 0;
#X obj 104 289 > 0;
#X obj 104 316 sel 1;
#X obj 158 352 + 1, f 4;
#X obj 110 353 f 0;
#X obj 141 130 until;
#X obj 142 174 f;
#X obj 174 173 + 1, f 4;
#X msg 319 198 0, f 2;
#X msg 142 105 8, f 2;
#X obj 89 395 f 0;
#X obj 89 458 outlet;
#X obj 83 200 t f f;
#X obj 36 244 sel 7;
#X obj 143 81 t b b;
#X obj 143 35 r \$0-countem;
#X obj 106 234 tabread \$0-notes-from-poly;
#X connect 0 0 1 0;
#X connect 1 0 3 0;
#X connect 2 0 3 1;
#X connect 2 0 9 1;
#X connect 3 0 2 0;
#X connect 4 0 5 0;
#X connect 5 0 6 0;
#X connect 5 0 11 0;
#X connect 6 0 5 1;
#X connect 7 0 5 1;
#X connect 7 0 3 1;
#X connect 7 0 9 1;
#X connect 8 0 4 0;
#X connect 9 0 10 0;
#X connect 11 0 12 0;
#X connect 11 1 15 0;
#X connect 12 0 9 0;
#X connect 13 0 8 0;
#X connect 13 1 7 0;
#X connect 14 0 13 0;
#X connect 15 0 0 0;
#X restore 652 296 pd countnotes;
#X obj 214 336 s \$0-others;
#X obj 331 335 s \$0-reorder;
#X obj 423 338 s \$0-copy;
#X obj 517 337 s \$0-countem;
#X obj 556 258 tabwrite \$0-notes-from-poly;
#X obj 652 348 s \$0-num-down;
#X obj 239 383 table \$0-notes-from-poly 8;
#X obj 239 417 table \$0-notes-squashed 8;
#X obj 238 451 table \$0-notes-decreasing 8;
#X obj 238 484 table \$0-notes-increasing 8;
#X msg 242 247 1;
#X obj 172 274 spigot 0;
#X obj 172 302 t b b b b b, f 54;
#X msg 172 335 0;
#X text 229 280 only re-sort once before we generate a new note;
#X obj 238 220 t b f, f 54;
#X text 613 174 organize notes into arrays \, then play them;
#X obj 105 133 sel 1 94 181 274;
#X obj 106 107 r beat-clock;
#X obj 432 626 * 1000;
#X text 483 615 arp tick is /4 \, then we want /2 of that, f 19;
#X obj 432 602 / 8;
#X obj 333 679 pack 0 0, f 16;
#X obj 336 648 makenote 100 100;
#X obj 122 184 t b b;
#X obj 92 232 s \$0-tick;
#X obj 433 582 /;
#X obj 424 538 t b f;
#X obj 426 517 r global-bpm;
#X text 474 582 seconds / beat;
#X msg 421 560 60;
#X text 468 553 note lenght from bpm;
#N canvas 25 25 1242 772 double-randoms 1;
#X floatatom 451 564 5 0 0 0 - - - 0;
#X obj 247 642 + 0;
#X obj 451 583 * 12;
#X obj 255 324 spigot;
#X obj 247 678 - 12;
#X obj 420 330 sel 0;
#X obj 420 301 t f f;
#X msg 473 532 0;
#X obj 247 467 % 1;
#X floatatom 822 528 5 0 0 0 - - - 0;
#X obj 606 617 + 0;
#X obj 822 547 * 12;
#X obj 627 258 spigot;
#X obj 606 676 - 12;
#X obj 750 292 sel 0;
#X obj 721 246 t f f;
#X msg 844 496 0;
#X obj 606 441 % 1;
#X obj 487 756 outlet;
#X obj 451 495 random 3;
#X obj 255 394 random;
#X obj 606 470 tabread \$0-notes-increasing;
#X obj 247 496 tabread \$0-notes-increasing;
#X obj 410 225 r \$0-num-down;
#X obj 420 255 r \$0-num-down;
#X obj 721 220 r \$0-num-down;
#X obj 666 195 r \$0-num-down;
#X obj 451 452 b;
#X obj 255 351 b;
#X obj 627 280 b;
#X obj 708 388 b;
#X obj 822 465 counter-up 2 \$1;
#X obj 627 348 counter-up 0 \$1;
#X obj 255 88 r \$0-tick;
#X obj 627 97 r \$0-tick;
#X connect 0 0 2 0;
#X connect 1 0 4 0;
#X connect 2 0 1 1;
#X connect 3 0 28 0;
#X connect 4 0 18 0;
#X connect 5 0 7 0;
#X connect 6 0 5 0;
#X connect 6 0 8 1;
#X connect 7 0 0 0;
#X connect 8 0 22 0;
#X connect 9 0 11 0;
#X connect 10 0 13 0;
#X connect 11 0 10 1;
#X connect 12 0 29 0;
#X connect 13 0 18 0;
#X connect 14 0 16 0;
#X connect 14 0 31 1;
#X connect 14 0 32 1;
#X connect 15 0 14 0;
#X connect 15 0 17 1;
#X connect 15 1 32 2;
#X connect 16 0 9 0;
#X connect 17 0 21 0;
#X connect 19 0 0 0;
#X connect 20 0 8 0;
#X connect 21 0 10 0;
#X connect 22 0 1 0;
#X connect 23 0 3 1;
#X connect 24 0 20 1;
#X connect 24 0 6 0;
#X connect 25 0 15 0;
#X connect 26 0 12 1;
#X connect 27 0 19 0;
#X connect 28 0 27 0;
#X connect 28 0 20 0;
#X connect 29 0 32 0;
#X connect 30 0 31 0;
#X connect 31 0 9 0;
#X connect 32 0 17 0;
#X connect 32 1 30 0;
#X connect 33 0 3 0;
#X connect 34 0 12 0;
#X restore 293 617 pd double-randoms;
#X connect 2 0 11 0;
#X connect 11 0 19 0;
#X connect 11 1 19 1;
#X connect 12 0 20 0;
#X connect 13 0 41 0;
#X connect 13 1 30 1;
#X connect 17 0 31 0;
#X connect 19 0 12 0;
#X connect 19 1 12 1;
#X connect 19 2 12 2;
#X connect 20 0 13 0;
#X connect 25 0 17 0;
#X connect 36 0 37 1;
#X connect 37 0 38 0;
#X connect 38 0 39 0;
#X connect 38 1 26 0;
#X connect 38 2 27 0;
#X connect 38 3 28 0;
#X connect 38 4 29 0;
#X connect 39 0 37 1;
#X connect 41 0 36 0;
#X connect 41 1 30 0;
#X connect 43 0 50 0;
#X connect 43 1 50 0;
#X connect 43 2 50 0;
#X connect 43 3 50 0;
#X connect 44 0 43 0;
#X connect 45 0 49 2;
#X connect 47 0 45 0;
#X connect 48 0 7 0;
#X connect 49 0 48 0;
#X connect 49 1 48 1;
#X connect 50 0 51 0;
#X connect 50 1 37 0;
#X connect 52 0 47 0;
#X connect 53 0 56 0;
#X connect 53 1 52 1;
#X connect 54 0 53 0;
#X connect 56 0 52 0;
#X connect 58 0 49 0;
