#N canvas 0 25 1440 772 10;
#X obj 10 150 inlet;
#X obj 130 150 inlet;
#X obj 190 150 r \$0-read;
#X obj 130 180 r \$0-all;
#X obj 190 180 faust-control \$0;
#X obj 190 210 s \$0-write;
#X obj 130 210 r \$0-in;
#X obj 130 480 s \$0-out;
#X obj 10 240 faust-gate 1;
#X obj 130 240 exfaust22~;
#X obj 10 270 faust-gate 2;
#X obj 130 270 exfaust22~;
#X obj 370 584 outlet~;
#X obj 10 510 outlet;
#X obj 10 30 hsl 128 15 -2 2 0 0 \$0-vocal/midi/bend \$0-vocal/midi/bend
bend -2 -6 0 10 #fcfcfc #000000 #000000 0 1;
#X obj 160 30 nbx 5 14 -2 2 0 0 \$0-vocal/midi/bend \$0-vocal/midi/bend
empty 0 -6 0 10 #fcfcfc #000000 #000000 0 256;
#X obj 235 30 hsl 128 15 0 30 0 0 \$0-vocal/midi/envAttack \$0-vocal/midi/envAttack
envAttack -2 -6 0 10 #fcfcfc #000000 #000000 0 1;
#X obj 385 30 nbx 5 14 0 30 0 0 \$0-vocal/midi/envAttack \$0-vocal/midi/envAttack
empty 0 -6 0 10 #fcfcfc #000000 #000000 0 256;
#X obj 460 30 hsl 128 15 0 1 0 0 \$0-vocal/midi/sustain \$0-vocal/midi/sustain
sustain -2 -6 0 10 #fcfcfc #000000 #000000 0 1;
#X obj 610 30 nbx 5 14 0 1 0 0 \$0-vocal/midi/sustain \$0-vocal/midi/sustain
empty 0 -6 0 10 #fcfcfc #000000 #000000 0 256;
#X obj 10 60 hsl 128 15 0 4 0 0 \$0-vocal/otherParams/voiceType \$0-vocal/otherParams/voiceType
voiceType -2 -6 0 10 #fcfcfc #000000 #000000 0 1;
#X obj 160 60 nbx 5 14 0 4 0 0 \$0-vocal/otherParams/voiceType \$0-vocal/otherParams/voiceType
empty 0 -6 0 10 #fcfcfc #000000 #000000 0 256;
#X obj 235 60 hsl 128 15 0 4 0 0 \$0-vocal/otherParams/vowel \$0-vocal/otherParams/vowel
vowel -2 -6 0 10 #fcfcfc #000000 #000000 0 1;
#X obj 385 60 nbx 5 14 0 4 0 0 \$0-vocal/otherParams/vowel \$0-vocal/otherParams/vowel
empty 0 -6 0 10 #fcfcfc #000000 #000000 0 256;
#X obj 460 60 hsl 128 15 0 1 0 0 \$0-vocal/otherParams/fricative \$0-vocal/otherParams/fricative
fricative -2 -6 0 10 #fcfcfc #000000 #000000 0 1;
#X obj 610 60 nbx 5 14 0 1 0 0 \$0-vocal/otherParams/fricative \$0-vocal/otherParams/fricative
empty 0 -6 0 10 #fcfcfc #000000 #000000 0 256;
#X obj 685 60 hsl 128 15 1 10 0 0 \$0-vocal/otherParams/vibratoFreq
\$0-vocal/otherParams/vibratoFreq vibratoFreq -2 -6 0 10 #fcfcfc #000000
#000000 0 1;
#X obj 835 60 nbx 5 14 1 10 0 0 \$0-vocal/otherParams/vibratoFreq \$0-vocal/otherParams/vibratoFreq
empty 0 -6 0 10 #fcfcfc #000000 #000000 0 256;
#X obj 910 60 hsl 128 15 0 1 0 0 \$0-vocal/otherParams/vibratoGain
\$0-vocal/otherParams/vibratoGain vibratoGain -2 -6 0 10 #fcfcfc #000000
#000000 0 1;
#X obj 1060 60 nbx 5 14 0 1 0 0 \$0-vocal/otherParams/vibratoGain \$0-vocal/otherParams/vibratoGain
empty 0 -6 0 10 #fcfcfc #000000 #000000 0 256;
#X obj 1135 60 hsl 128 15 0 1 0 0 \$0-vocal/otherParams/outGain \$0-vocal/otherParams/outGain
outGain -2 -6 0 10 #fcfcfc #000000 #000000 0 1;
#X obj 1285 60 nbx 5 14 0 1 0 0 \$0-vocal/otherParams/outGain \$0-vocal/otherParams/outGain
empty 0 -6 0 10 #fcfcfc #000000 #000000 0 256;
#X obj 1322 3 bng 15 250 50 1 \$0-init \$0-ignore empty 0 -6 0 10 #fcfcfc
#000000 #000000;
#X obj 1342 3 tgl 15 1 \$0-active \$0-active empty 0 -6 0 10 #fcfcfc
#000000 #000000 1 1;
#X obj 1390 10 r \$0-init;
#X obj 1686 10 s \$0-all;
#X obj 1834 10 s \$0-read;
#X obj 1982 10 r \$0-write;
#X msg 1390 30 1;
#X obj 1390 50 s \$0-active;
#X obj 1686 30 r \$0-active;
#X msg 1686 50 active \$1;
#X obj 1982 30 route active;
#X obj 1982 50 s \$0-active;
#X msg 1390 70 0;
#X obj 1390 90 s \$0-vocal/midi/bend;
#X obj 1686 70 r \$0-vocal/midi/bend;
#X msg 1686 90 /vocal/midi/bend \$1;
#X obj 1982 70 route /vocal/midi/bend;
#X obj 1982 90 s \$0-vocal/midi/bend;
#X msg 1390 110 10;
#X obj 1390 130 s \$0-vocal/midi/envAttack;
#X obj 1686 110 r \$0-vocal/midi/envAttack;
#X msg 1686 130 /vocal/midi/envAttack \$1;
#X obj 1982 110 route /vocal/midi/envAttack;
#X obj 1982 130 s \$0-vocal/midi/envAttack;
#X msg 1390 150 0;
#X obj 1390 170 s \$0-vocal/midi/sustain;
#X obj 1686 150 r \$0-vocal/midi/sustain;
#X msg 1686 170 /vocal/midi/sustain \$1;
#X obj 1982 150 route /vocal/midi/sustain;
#X obj 1982 170 s \$0-vocal/midi/sustain;
#X msg 1390 190 0;
#X obj 1390 210 s \$0-vocal/otherParams/voiceType;
#X obj 1686 190 r \$0-vocal/otherParams/voiceType;
#X msg 1686 210 /vocal/otherParams/voiceType \$1;
#X obj 1982 190 route /vocal/otherParams/voiceType;
#X obj 1982 210 s \$0-vocal/otherParams/voiceType;
#X msg 1390 230 0;
#X obj 1390 250 s \$0-vocal/otherParams/vowel;
#X obj 1686 230 r \$0-vocal/otherParams/vowel;
#X msg 1686 250 /vocal/otherParams/vowel \$1;
#X obj 1982 230 route /vocal/otherParams/vowel;
#X obj 1982 250 s \$0-vocal/otherParams/vowel;
#X msg 1390 270 0;
#X obj 1390 290 s \$0-vocal/otherParams/fricative;
#X obj 1686 270 r \$0-vocal/otherParams/fricative;
#X msg 1686 290 /vocal/otherParams/fricative \$1;
#X obj 1982 270 route /vocal/otherParams/fricative;
#X obj 1982 290 s \$0-vocal/otherParams/fricative;
#X msg 1390 310 6;
#X obj 1390 330 s \$0-vocal/otherParams/vibratoFreq;
#X obj 1686 310 r \$0-vocal/otherParams/vibratoFreq;
#X msg 1686 330 /vocal/otherParams/vibratoFreq \$1;
#X obj 1982 310 route /vocal/otherParams/vibratoFreq;
#X obj 1982 330 s \$0-vocal/otherParams/vibratoFreq;
#X msg 1390 350 0.5;
#X obj 1390 370 s \$0-vocal/otherParams/vibratoGain;
#X obj 1686 350 r \$0-vocal/otherParams/vibratoGain;
#X msg 1686 370 /vocal/otherParams/vibratoGain \$1;
#X obj 1982 350 route /vocal/otherParams/vibratoGain;
#X obj 1982 370 s \$0-vocal/otherParams/vibratoGain;
#X msg 1390 390 0.5;
#X obj 1390 410 s \$0-vocal/otherParams/outGain;
#X obj 1686 390 r \$0-vocal/otherParams/outGain;
#X msg 1686 410 /vocal/otherParams/outGain \$1;
#X obj 1982 390 route /vocal/otherParams/outGain;
#X obj 1982 410 s \$0-vocal/otherParams/outGain;
#X text 0 100 Generated Wed Nov 2 23:09:30 2022 by faust2pd v2.16.
See http://faust.grame.fr and http://purelang.bitbucket.org.;
#X obj 507 295 line~, f 8;
#X msg 562 243 0 \$1;
#X obj 482 328 *~;
#X obj 561 214 f;
#X obj 594 133 * 1000;
#X msg 518 245 0.4 2;
#X obj 508 148 sel 1 0;
#X obj 319 359 *~;
#X obj 348 417 *~;
#X obj 664 344 line~, f 8;
#X msg 719 292 0 \$1;
#X obj 639 377 *~;
#X obj 718 263 f;
#X obj 751 182 * 1000;
#X msg 675 294 0.4 2;
#X obj 665 197 sel 1 0;
#X obj 682 103 inlet;
#X connect 0 0 8 0;
#X connect 0 0 10 0;
#X connect 1 0 4 0;
#X connect 1 0 13 0;
#X connect 2 0 4 0;
#X connect 3 0 9 0;
#X connect 3 0 11 0;
#X connect 4 0 5 0;
#X connect 6 0 9 0;
#X connect 8 0 9 0;
#X connect 8 1 105 0;
#X connect 9 0 7 0;
#X connect 9 1 106 0;
#X connect 10 0 11 0;
#X connect 10 1 114 0;
#X connect 11 1 107 0;
#X connect 34 0 44 0;
#X connect 34 0 50 0;
#X connect 34 0 56 0;
#X connect 34 0 62 0;
#X connect 34 0 68 0;
#X connect 34 0 74 0;
#X connect 34 0 80 0;
#X connect 34 0 86 0;
#X connect 34 0 92 0;
#X connect 37 0 42 0;
#X connect 38 0 39 0;
#X connect 40 0 41 0;
#X connect 41 0 35 0;
#X connect 42 0 43 0;
#X connect 42 1 48 0;
#X connect 44 0 45 0;
#X connect 46 0 47 0;
#X connect 47 0 35 0;
#X connect 48 0 49 0;
#X connect 48 1 54 0;
#X connect 50 0 51 0;
#X connect 52 0 53 0;
#X connect 53 0 35 0;
#X connect 54 0 55 0;
#X connect 54 1 60 0;
#X connect 56 0 57 0;
#X connect 58 0 59 0;
#X connect 59 0 35 0;
#X connect 60 0 61 0;
#X connect 60 1 66 0;
#X connect 62 0 63 0;
#X connect 64 0 65 0;
#X connect 65 0 35 0;
#X connect 66 0 67 0;
#X connect 66 1 72 0;
#X connect 68 0 69 0;
#X connect 70 0 71 0;
#X connect 71 0 35 0;
#X connect 72 0 73 0;
#X connect 72 1 78 0;
#X connect 74 0 75 0;
#X connect 76 0 77 0;
#X connect 77 0 35 0;
#X connect 78 0 79 0;
#X connect 78 1 84 0;
#X connect 80 0 81 0;
#X connect 82 0 83 0;
#X connect 83 0 35 0;
#X connect 84 0 85 0;
#X connect 84 1 90 0;
#X connect 86 0 87 0;
#X connect 88 0 89 0;
#X connect 89 0 35 0;
#X connect 90 0 91 0;
#X connect 90 1 96 0;
#X connect 92 0 93 0;
#X connect 94 0 95 0;
#X connect 95 0 35 0;
#X connect 96 0 97 0;
#X connect 99 0 101 0;
#X connect 99 0 101 1;
#X connect 100 0 99 0;
#X connect 101 0 106 1;
#X connect 102 0 100 0;
#X connect 103 0 102 1;
#X connect 104 0 99 0;
#X connect 105 0 104 0;
#X connect 105 1 102 0;
#X connect 106 0 12 0;
#X connect 107 0 12 0;
#X connect 108 0 110 0;
#X connect 108 0 110 1;
#X connect 109 0 108 0;
#X connect 110 0 107 1;
#X connect 111 0 109 0;
#X connect 112 0 111 1;
#X connect 113 0 108 0;
#X connect 114 0 113 0;
#X connect 114 1 111 0;
#X connect 115 0 103 0;
#X connect 115 0 112 0;
#X coords 0 -1 1 1 1360 80 1 0 0;
