#N canvas 0 25 1440 770 12;
#X obj 45 255 pack 0 0 0 0, f 22;
#X obj 146 189 t a a, f 8;
#X obj 199 221 > 0;
#X obj 255 34 t a a;
#X obj 904 96 t a a, f 13;
#X obj 992 231 s screenLine4;
#X obj 904 1 r knob4;
#X obj 992 147 i;
#X obj 992 123 * 10;
#X obj 992 181 * 0.1;
#X obj 68 194 - 12;
#X msg 992 207 4: Transpose: \$1;
#X obj 722 528 hip~ 20;
#X obj 287 148 s screenLine1;
#X obj 287 65 * 100;
#X obj 287 89 i;
#X obj 451 59 t a a;
#X obj 483 189 s screenLine2;
#X obj 146 220 / 127;
#X obj 904 237 s transpose;
#X obj 904 187 line 1 1;
#X obj 904 136 pack 0 10;
#X obj 537 287 list trim;
#X obj 904 59 - 24;
#X obj 904 35 * 48;
#X obj 45 322 exfaust22;
#X obj 453 216 list prepend vowel;
#X obj 451 27 * 4;
#X obj 255 180 list prepend voiceType;
#X msg 287 123 1: Voice Type: \$1%;
#X obj 598 46 t a a;
#X obj 630 180 s screenLine3;
#X obj 598 222 list prepend vibratoGain;
#X msg 630 151 3: Vibrat Gain: \$1%;
#X obj 483 86 / 4;
#X obj 483 110 * 100;
#X obj 483 134 i;
#X msg 484 164 2: Vowel: \$1%;
#X obj 630 76 * 100;
#X obj 630 100 i;
#X obj 1050 30 loadbang;
#X msg 1050 54 0.5;
#X obj 45 120 poly 2 0, f 15;
#X obj 255 7 r \$1-knob1;
#X obj 451 3 r \$1-knob2;
#X obj 598 8 r \$1-knob3;
#X obj 722 622 s~ \$1-out;
#X obj 45 52 r \$1-notes;
#X obj 225 117 * 4;
#X obj 266 226 list prepend sustain;
#X obj 719 583 *~ 0.7;
#X connect 0 0 25 0;
#X connect 1 0 18 0;
#X connect 1 1 2 0;
#X connect 2 0 0 3;
#X connect 3 0 48 0;
#X connect 3 0 49 0;
#X connect 3 1 14 0;
#X connect 4 0 21 0;
#X connect 4 1 8 0;
#X connect 7 0 9 0;
#X connect 8 0 7 0;
#X connect 9 0 11 0;
#X connect 11 0 5 0;
#X connect 12 0 50 0;
#X connect 14 0 15 0;
#X connect 15 0 29 0;
#X connect 16 0 26 0;
#X connect 16 1 34 0;
#X connect 18 0 0 2;
#X connect 20 0 19 0;
#X connect 21 0 20 0;
#X connect 22 0 25 1;
#X connect 23 0 4 0;
#X connect 24 0 23 0;
#X connect 25 1 12 0;
#X connect 26 0 22 0;
#X connect 27 0 16 0;
#X connect 29 0 13 0;
#X connect 30 0 32 0;
#X connect 30 1 38 0;
#X connect 32 0 22 0;
#X connect 33 0 31 0;
#X connect 34 0 35 0;
#X connect 35 0 36 0;
#X connect 36 0 37 0;
#X connect 37 0 17 0;
#X connect 38 0 39 0;
#X connect 39 0 33 0;
#X connect 40 0 41 0;
#X connect 41 0 24 0;
#X connect 42 0 0 0;
#X connect 42 1 10 0;
#X connect 42 1 0 1;
#X connect 42 2 1 0;
#X connect 43 0 3 0;
#X connect 43 0 25 2;
#X connect 44 0 27 0;
#X connect 45 0 30 0;
#X connect 47 0 42 0;
#X connect 48 0 28 0;
#X connect 50 0 46 0;
