#N canvas 283 96 1077 886 12;
#X obj 56 19 inlet;
#X text 101 18 note;
#X obj 132 128 list prepend gain;
#X obj 208 157 list prepend gate;
#X obj 133 637 list trim;
#X obj 56 72 unpack 0 0 0, f 22;
#X obj 131 100 / 127;
#X obj 177 819 outlet~;
#X obj 301 15 inlet;
#X obj 25 183 list prepend freq;
#X obj 302 88 route modAmp modIndex bits;
#X obj 301 123 list prepend modul8;
#X obj 383 181 list prepend modIndex;
#X obj 554 280 list prepend d1;
#X obj 711 317 r s2;
#X obj 712 341 list prepend s2;
#X obj 56 96 mtof;
#X obj 410 314 r a2;
#X obj 559 315 r d2;
#X obj 410 281 list prepend a1;
#X obj 410 256 r at1;
#X obj 554 256 r de1;
#X obj 711 260 r su1;
#X obj 712 284 list prepend s1;
#X obj 558 339 list prepend d2;
#X obj 410 338 list prepend a2;
#X obj 860 366 print jfc;
#X obj 856 259 r rel-1;
#X obj 862 317 r rel-2;
#X obj 856 283 list prepend rel1;
#X obj 860 342 list prepend rel2;
#X obj 133 706 FM_PP5~;
#X obj 630 24 inlet;
#X obj 365 705 print huh;
#X msg 350 616 /FM-PP5/a1 \$1;
#X floatatom 382 570 5 0 0 0 - - -;
#X connect 0 0 5 0;
#X connect 2 0 4 0;
#X connect 3 0 4 0;
#X connect 4 0 31 0;
#X connect 5 0 16 0;
#X connect 5 1 6 0;
#X connect 5 2 3 0;
#X connect 6 0 2 0;
#X connect 8 0 10 0;
#X connect 9 0 4 0;
#X connect 10 0 11 0;
#X connect 10 1 12 0;
#X connect 11 0 4 0;
#X connect 12 0 4 0;
#X connect 13 0 4 0;
#X connect 14 0 15 0;
#X connect 15 0 4 0;
#X connect 16 0 9 0;
#X connect 17 0 25 0;
#X connect 18 0 24 0;
#X connect 19 0 4 0;
#X connect 20 0 19 0;
#X connect 21 0 13 0;
#X connect 22 0 23 0;
#X connect 23 0 4 0;
#X connect 24 0 4 0;
#X connect 25 0 4 0;
#X connect 27 0 29 0;
#X connect 28 0 30 0;
#X connect 29 0 4 0;
#X connect 30 0 4 0;
#X connect 30 0 26 0;
#X connect 31 0 33 0;
#X connect 31 1 7 0;
#X connect 31 2 7 0;
#X connect 32 0 31 0;
#X connect 34 0 31 0;
#X connect 35 0 34 0;
