#N canvas 581 115 859 685 12;
#X obj 26 34 inlet~ inL-\$1;
#X obj 136 34 inlet~ inR-\$1;
#X obj 354 36 r ctrlIn-\$1;
#X obj 302 621 s notesOut-\$1;
#X obj 408 621 s ctrlOut-\$1;
#X obj 303 180 list prepend vowel;
#X obj 626 163 list prepend vibRate;
#X obj 458 168 list prepend vibGain;
#X obj 310 108 * 4;
#X obj 481 453 list prepend noise;
#X obj 481 413 f 0.1;
#X obj 254 31 r notesIn-\$1;
#X obj 129 597 outlet~ outR-\$1;
#X obj 105 624 outlet~ outL-\$1;
#X obj 481 389 r loadbang-\$1;
#X obj 528 16 r suprise-\$1;
#X obj 120 540 *~ 0.75;
#X obj 304 61 r tone-\$1;
#X obj 528 40 t a a;
#X obj 640 81 sqrt;
#X obj 566 232 r shape-\$1;
#X obj 564 307 list prepend rel;
#X obj 565 256 * 1;
#X obj 565 280 max 0.01;
#X obj 626 126 * 12;
#X obj 460 138 * 3;
#X obj 116 368 voice~;
#X obj 273 336 t a;
#X obj 273 309 list trim;
#X connect 5 0 28 0;
#X connect 6 0 28 0;
#X connect 7 0 28 0;
#X connect 8 0 5 0;
#X connect 9 0 28 0;
#X connect 10 0 9 0;
#X connect 11 0 26 0;
#X connect 14 0 10 0;
#X connect 15 0 18 0;
#X connect 16 0 12 0;
#X connect 16 0 13 0;
#X connect 17 0 8 0;
#X connect 18 0 25 0;
#X connect 18 1 19 0;
#X connect 19 0 24 0;
#X connect 20 0 22 0;
#X connect 21 0 28 0;
#X connect 22 0 23 0;
#X connect 23 0 21 0;
#X connect 24 0 6 0;
#X connect 25 0 7 0;
#X connect 26 0 16 0;
#X connect 27 0 26 1;
#X connect 28 0 27 0;
