#N canvas 734 301 1038 743 12;
#X obj 17 24 inlet;
#X obj 273 146 / 127;
#X obj 17 48 unpack 0 0, f 37;
#X obj 445 143 > 0;
#X obj 630 655 outlet~;
#X obj 445 466 list trim;
#X obj 273 95 t a a, f 25;
#X obj 17 93 t a a, f 21;
#X obj 17 387 list prepend freq;
#X obj 631 619 *~ 0.7;
#X obj 273 245 spigot 0;
#X obj 17 349 spigot 0;
#X obj 273 269 list prepend gain;
#X obj 17 124 mtof;
#X obj 445 214 list prepend gate;
#X obj 595 56 inlet;
#X obj 588 293 list prepend vowel;
#X obj 629 248 list prepend vibRate;
#X obj 698 210 list prepend vibGain;
#X obj 749 181 list prepend noise;
#X obj 444 590 sff_formant_model~, f 27;
#X obj 595 80 route vowel vibRate vibGain noise rel;
#X obj 445 178 t a a a a;
#X obj 704 511 spigot 0;
#X obj 717 429 t a a;
#X obj 717 453 sel 1;
#X obj 698 542 list prepend release;
#X obj 703 399 f 0.01;
#X connect 0 0 2 0;
#X connect 1 0 10 0;
#X connect 2 0 7 0;
#X connect 2 1 6 0;
#X connect 3 0 22 0;
#X connect 5 0 20 0;
#X connect 6 0 1 0;
#X connect 6 1 3 0;
#X connect 7 0 13 0;
#X connect 8 0 5 0;
#X connect 9 0 4 0;
#X connect 10 0 12 0;
#X connect 11 0 8 0;
#X connect 12 0 5 0;
#X connect 13 0 11 0;
#X connect 14 0 5 0;
#X connect 15 0 21 0;
#X connect 16 0 5 0;
#X connect 17 0 5 0;
#X connect 18 0 5 0;
#X connect 19 0 5 0;
#X connect 20 1 9 0;
#X connect 21 0 16 0;
#X connect 21 1 17 0;
#X connect 21 2 18 0;
#X connect 21 3 19 0;
#X connect 21 4 27 0;
#X connect 22 0 14 0;
#X connect 22 1 10 1;
#X connect 22 2 11 1;
#X connect 22 3 24 0;
#X connect 23 0 26 0;
#X connect 24 0 25 0;
#X connect 24 1 23 1;
#X connect 25 0 27 0;
#X connect 26 0 5 0;
#X connect 27 0 23 0;
