#N canvas 149 25 1253 737 12;
#X declare -path lib;
#X declare -lib hcs;
#X obj 223 728 s notes;
#X obj 1036 567 catch~ outL;
#X obj 1061 592 catch~ outR;
#X obj 1042 644 dac~;
#X obj 43 -23 declare -path lib;
#N canvas 4 50 1004 709 arpseq 1;
#X obj 169 100 unpack 0 0;
#X obj 169 160 pack 0 0 0;
#X obj 169 221 unpack, f 54;
#N canvas 135 25 826 775 array-sort 0;
#X obj 263 111 until;
#X obj 263 153 f;
#X obj 296 154 + 1, f 4;
#X msg 321 91 0, f 2;
#X obj 312 267 f;
#X obj 264 232 t f b;
#X obj 262 182 t f f;
#X obj 249 452 f;
#X obj 306 399 sel 1;
#X obj 214 485 f;
#X obj 173 537 f;
#X obj 213 553 t b b;
#X obj 333 550 t b f;
#X obj 250 580 f;
#X obj 343 -90 until;
#X obj 344 -46 f;
#X obj 376 -47 + 1, f 4;
#X msg 401 -110 0, f 2;
#X obj 345 -139 t b b;
#X obj 329 -11 t b f;
#X obj 252 48 t b b b b;
#X msg 324 575 0, f 2;
#X msg 357 89 0;
#X obj 217 333 expr if ($f1 > $f2 \, $f1 \, $f2) \; if ($f1 > $f2 \,
1 \, 0);
#X msg 344 -115 8, f 2;
#X msg 263 83 8, f 2;
#X text 419 137 sort array a into b. a gets clobbered in the process
probably a much better way to do this ...;
#X obj 345 -174 r \$0-reorder;
#X obj 264 210 tabread \$0-notes-squashed;
#X obj 324 611 tabwrite \$0-notes-squashed;
#X obj 139 648 tabwrite \$0-notes-decreasing;
#X connect 0 0 1 0;
#X connect 1 0 2 0;
#X connect 1 0 6 0;
#X connect 2 0 1 1;
#X connect 3 0 1 1;
#X connect 4 0 23 1;
#X connect 5 0 23 0;
#X connect 5 1 4 0;
#X connect 6 0 28 0;
#X connect 6 1 7 1;
#X connect 7 0 9 1;
#X connect 8 0 7 0;
#X connect 9 0 11 0;
#X connect 9 0 12 0;
#X connect 10 0 30 0;
#X connect 11 0 10 0;
#X connect 11 1 13 0;
#X connect 12 0 21 0;
#X connect 12 1 29 1;
#X connect 13 0 30 1;
#X connect 14 0 15 0;
#X connect 15 0 16 0;
#X connect 15 0 19 0;
#X connect 16 0 15 1;
#X connect 17 0 15 1;
#X connect 18 0 24 0;
#X connect 18 1 17 0;
#X connect 19 0 20 0;
#X connect 19 1 13 1;
#X connect 20 0 9 0;
#X connect 20 1 25 0;
#X connect 20 2 3 0;
#X connect 20 3 22 0;
#X connect 21 0 29 0;
#X connect 22 0 4 1;
#X connect 23 0 4 1;
#X connect 23 0 10 1;
#X connect 23 1 8 0;
#X connect 24 0 14 0;
#X connect 25 0 0 0;
#X connect 27 0 18 0;
#X connect 28 0 5 0;
#X restore 165 497 pd array-sort;
#X text 473 454 array1 is raw data from poly (notes with 0 velocity
are given 0 pitch);
#X text 476 531 here are the notes sorted...;
#X floatatom 624 386 5 0 0 0 - - - 0;
#N canvas 168 50 726 731 increasing 0;
#X obj 156 260 until;
#X obj 157 304 f;
#X obj 189 303 + 1, f 4;
#X msg 214 240 0, f 2;
#X obj 155 236 f 0;
#X obj 156 357 - 0;
#X obj 157 408 abs;
#X obj 157 326 t f f;
#X obj 266 471 f;
#X obj 156 469 t f b;
#X obj 156 379 + 1;
#X obj 416 331 until;
#X obj 416 373 f;
#X obj 449 374 + 1, f 4;
#X msg 474 311 0, f 2;
#X obj 416 276 t b b;
#X obj 424 398 t b f;
#X msg 415 423 0, f 2;
#X msg 416 303 8, f 2;
#X obj 155 197 t b b b;
#X obj 321 197 r \$0-num-down;
#X obj 156 437 tabread \$0-notes-decreasing;
#X obj 152 508 tabwrite \$0-notes-increasing;
#X obj 413 448 tabwrite \$0-notes-increasing;
#X obj 185 100 r \$0-others;
#X connect 0 0 1 0;
#X connect 1 0 2 0;
#X connect 1 0 7 0;
#X connect 2 0 1 1;
#X connect 3 0 1 1;
#X connect 4 0 0 0;
#X connect 5 0 10 0;
#X connect 6 0 21 0;
#X connect 7 0 5 0;
#X connect 7 1 8 1;
#X connect 8 0 22 1;
#X connect 9 0 22 0;
#X connect 9 1 8 0;
#X connect 10 0 6 0;
#X connect 11 0 12 0;
#X connect 12 0 13 0;
#X connect 12 0 16 0;
#X connect 13 0 12 1;
#X connect 14 0 12 1;
#X connect 15 0 18 0;
#X connect 15 1 14 0;
#X connect 16 0 17 0;
#X connect 16 1 23 1;
#X connect 17 0 23 0;
#X connect 18 0 11 0;
#X connect 19 0 4 0;
#X connect 19 1 3 0;
#X connect 19 2 15 0;
#X connect 20 0 4 1;
#X connect 20 0 5 1;
#X connect 21 0 9 0;
#X connect 24 0 19 0;
#X restore 167 541 pd increasing;
#X obj 169 125 poly 8 1, f 10;
#N canvas 12 50 588 574 format_for_array 0;
#X obj 111 44 inlet;
#X obj 102 128 f;
#X obj 144 151 sel 0;
#X msg 121 188 0;
#X obj 167 181 t b b;
#X obj 137 126 f;
#X obj 79 268 t f b;
#X obj 75 336 pack 0 0;
#X obj 85 75 unpack 0 0 0;
#X obj 41 132 t b f;
#X obj 117 304 f;
#X obj 78 389 outlet;
#X obj 133 274 - 1;
#X text 169 280 array index starts at 0 \, poly index starts at 1;
#X text 223 150 if the velocity is > 0 \, outputs note number. If =
0 \, it outputs 0 for note number;
#X connect 0 0 8 0;
#X connect 1 0 6 0;
#X connect 2 0 3 0;
#X connect 2 1 4 0;
#X connect 3 0 6 0;
#X connect 4 0 1 0;
#X connect 5 0 2 0;
#X connect 6 0 7 0;
#X connect 6 1 10 0;
#X connect 7 0 11 0;
#X connect 8 0 9 0;
#X connect 8 1 1 1;
#X connect 8 2 5 1;
#X connect 9 0 5 0;
#X connect 9 1 12 0;
#X connect 10 0 7 1;
#X connect 12 0 10 1;
#X restore 169 189 pd format_for_array;
#N canvas 8 50 1000 647 array-copy 0;
#X obj 228 194 until;
#X obj 228 236 f;
#X obj 261 237 + 1, f 4;
#X msg 286 174 0, f 2;
#X obj 426 272 until;
#X obj 426 314 f;
#X obj 459 315 + 1, f 4;
#X msg 484 252 0, f 2;
#X obj 426 217 t b b;
#X obj 426 339 t b f;
#X msg 426 364 0, f 2;
#X obj 228 121 t b b b;
#X msg 228 166 8, f 2;
#X msg 426 244 8, f 2;
#X text 324 97 this removes 0 elements (or actually just moves the
following elements over 1 place);
#X text 528 296 first zero out the destination array;
#X obj 228 258 t f f;
#X obj 228 297 tabread \$0-notes-from-poly;
#X obj 426 385 tabwrite \$0-notes-squashed;
#X obj 228 410 tabwrite \$0-notes-squashed;
#X obj 228 97 b;
#X obj 228 75 r \$0-copy;
#X connect 0 0 1 0;
#X connect 1 0 2 0;
#X connect 1 0 16 0;
#X connect 2 0 1 1;
#X connect 3 0 1 1;
#X connect 4 0 5 0;
#X connect 5 0 6 0;
#X connect 5 0 9 0;
#X connect 6 0 5 1;
#X connect 7 0 5 1;
#X connect 8 0 13 0;
#X connect 8 1 7 0;
#X connect 9 0 10 0;
#X connect 9 1 18 1;
#X connect 10 0 18 0;
#X connect 11 0 12 0;
#X connect 11 1 3 0;
#X connect 11 2 8 0;
#X connect 12 0 0 0;
#X connect 13 0 4 0;
#X connect 16 0 17 0;
#X connect 16 1 19 1;
#X connect 17 0 19 0;
#X connect 20 0 11 0;
#X connect 21 0 20 0;
#X restore 164 460 pd array-copy;
#X text 477 561 then increasing;
#X text 219 613 then play them!;
#N canvas 443 51 919 687 arp 0;
#N canvas 22 25 1242 775 double-double 0;
#X obj 307 345 bng 15 250 50 0 empty empty empty 17 7 0 10 #fcfcfc
#000000 #000000;
#X floatatom 422 282 5 0 0 0 - - - 0;
#X floatatom 484 494 5 0 0 0 - - - 0;
#X obj 306 623 + 0;
#X obj 485 513 * 12;
#X obj 298 304 spigot;
#X obj 306 659 - 12;
#X obj 378 338 sel 0;
#X obj 396 437 bng 15 250 50 0 empty empty empty 17 7 0 10 #fcfcfc
#000000 #000000;
#X obj 422 301 t f f;
#X msg 506 462 0;
#X obj 247 467 % 1;
#X obj 679 299 bng 15 250 50 0 empty empty empty 17 7 0 10 #fcfcfc
#000000 #000000;
#X floatatom 794 236 5 0 0 0 - - - 0;
#X floatatom 856 448 5 0 0 0 - - - 0;
#X obj 678 577 + 0;
#X obj 857 467 * 12;
#X obj 670 258 spigot;
#X obj 671 636 - 12;
#X obj 750 292 sel 0;
#X obj 768 391 bng 15 250 50 0 empty empty empty 17 7 0 10 #fcfcfc
#000000 #000000;
#X obj 794 255 t f f;
#X msg 878 416 0;
#X obj 619 421 % 1;
#X obj 487 756 outlet;
#X obj 327 176 spigot 0;
#X obj 592 158 spigot 0;
#X obj 459 91 inlet;
#X obj 410 225 r \$0-num-down;
#X obj 420 255 r \$0-num-down;
#X obj 234 516 tabread \$0-notes-increasing;
#X obj 606 470 tabread \$0-notes-increasing;
#X obj 792 209 r \$0-num-down;
#X obj 782 179 r \$0-num-down;
#X obj 852 385 counter-up 2 \$1;
#X obj 627 348 counter-up 0 \$1;
#X obj 255 394 counter-up 0 \$1;
#X obj 480 427 counter-up 2 \$1;
#X obj 268 79 r \$0-tick;
#X obj 624 67 r \$0-tick;
#X connect 0 0 36 0;
#X connect 1 0 9 0;
#X connect 2 0 4 0;
#X connect 3 0 6 0;
#X connect 4 0 3 1;
#X connect 5 0 0 0;
#X connect 6 0 24 0;
#X connect 7 0 10 0;
#X connect 7 0 36 1;
#X connect 7 0 37 1;
#X connect 8 0 37 0;
#X connect 9 0 7 0;
#X connect 9 0 11 1;
#X connect 9 1 36 2;
#X connect 10 0 2 0;
#X connect 11 0 30 0;
#X connect 12 0 35 0;
#X connect 13 0 21 0;
#X connect 14 0 16 0;
#X connect 15 0 18 0;
#X connect 16 0 15 1;
#X connect 17 0 12 0;
#X connect 18 0 24 0;
#X connect 19 0 22 0;
#X connect 19 0 34 1;
#X connect 19 0 35 1;
#X connect 20 0 34 0;
#X connect 21 0 19 0;
#X connect 21 0 23 1;
#X connect 21 1 35 2;
#X connect 22 0 14 0;
#X connect 23 0 31 0;
#X connect 25 0 5 0;
#X connect 26 0 17 0;
#X connect 27 0 25 1;
#X connect 27 0 26 1;
#X connect 28 0 5 1;
#X connect 29 0 1 0;
#X connect 30 0 3 0;
#X connect 31 0 15 0;
#X connect 32 0 13 0;
#X connect 33 0 17 1;
#X connect 34 0 14 0;
#X connect 35 0 23 0;
#X connect 35 1 20 0;
#X connect 36 0 11 0;
#X connect 36 1 8 0;
#X connect 37 0 2 0;
#X connect 38 0 25 0;
#X connect 39 0 26 0;
#X restore 654 437 pd double-double;
#X obj 283 276 sel 0 1 2 3 4 5 6 7, f 69;
#X obj 283 177 t f b;
#X msg 354 375 0;
#X msg 280 308 1;
#X msg 351 306 1;
#X msg 413 305 1;
#X msg 471 303 1;
#N canvas 25 25 1242 775 double-randoms 0;
#X floatatom 451 564 5 0 0 0 - - - 0;
#X obj 247 642 + 0;
#X obj 451 583 * 12;
#X obj 255 324 spigot;
#X obj 247 678 - 12;
#X obj 420 330 sel 0;
#X obj 420 301 t f f;
#X msg 473 532 0;
#X obj 247 467 % 1;
#X floatatom 822 528 5 0 0 0 - - - 0;
#X obj 606 617 + 0;
#X obj 822 547 * 12;
#X obj 627 258 spigot;
#X obj 606 676 - 12;
#X obj 750 292 sel 0;
#X obj 721 246 t f f;
#X msg 844 496 0;
#X obj 606 441 % 1;
#X obj 487 756 outlet;
#X obj 255 185 spigot 0;
#X obj 627 158 spigot 0;
#X obj 459 91 inlet;
#X obj 451 495 random 3;
#X obj 255 394 random;
#X obj 606 470 tabread \$0-notes-increasing;
#X obj 247 496 tabread \$0-notes-increasing;
#X obj 410 225 r \$0-num-down;
#X obj 420 255 r \$0-num-down;
#X obj 721 220 r \$0-num-down;
#X obj 666 195 r \$0-num-down;
#X obj 451 452 b;
#X obj 255 351 b;
#X obj 627 280 b;
#X obj 708 388 b;
#X obj 822 465 counter-up 2 \$1;
#X obj 627 348 counter-up 0 \$1;
#X obj 255 88 r \$0-tick;
#X obj 627 97 r \$0-tick;
#X connect 0 0 2 0;
#X connect 1 0 4 0;
#X connect 2 0 1 1;
#X connect 3 0 31 0;
#X connect 4 0 18 0;
#X connect 5 0 7 0;
#X connect 6 0 5 0;
#X connect 6 0 8 1;
#X connect 7 0 0 0;
#X connect 8 0 25 0;
#X connect 9 0 11 0;
#X connect 10 0 13 0;
#X connect 11 0 10 1;
#X connect 12 0 32 0;
#X connect 13 0 18 0;
#X connect 14 0 16 0;
#X connect 14 0 34 1;
#X connect 14 0 35 1;
#X connect 15 0 14 0;
#X connect 15 0 17 1;
#X connect 15 1 35 2;
#X connect 16 0 9 0;
#X connect 17 0 24 0;
#X connect 19 0 3 0;
#X connect 20 0 12 0;
#X connect 21 0 19 1;
#X connect 21 0 20 1;
#X connect 22 0 0 0;
#X connect 23 0 8 0;
#X connect 24 0 10 0;
#X connect 25 0 1 0;
#X connect 26 0 3 1;
#X connect 27 0 23 1;
#X connect 27 0 6 0;
#X connect 28 0 15 0;
#X connect 29 0 12 1;
#X connect 30 0 22 0;
#X connect 31 0 30 0;
#X connect 31 0 23 0;
#X connect 32 0 35 0;
#X connect 33 0 34 0;
#X connect 34 0 9 0;
#X connect 35 0 17 0;
#X connect 35 1 33 0;
#X connect 36 0 19 0;
#X connect 37 0 20 0;
#X restore 523 439 pd double-randoms;
#X obj 283 129 i;
#X msg 322 129 0;
#N canvas 22 25 1242 775 singleup4 0;
#X obj 307 345 bng 15 250 50 0 empty empty empty 17 7 0 10 #fcfcfc
#000000 #000000;
#X floatatom 422 282 5 0 0 0 - - - 0;
#X floatatom 484 494 5 0 0 0 - - - 0;
#X obj 306 623 + 0;
#X obj 485 519 * 12;
#X obj 298 304 spigot;
#X obj 378 338 sel 0;
#X obj 396 437 bng 15 250 50 0 empty empty empty 17 7 0 10 #fcfcfc
#000000 #000000;
#X obj 422 301 t f f;
#X msg 506 462 0;
#X obj 247 467 % 1;
#X obj 487 756 outlet;
#X obj 327 176 spigot 0;
#X obj 459 91 inlet;
#X obj 307 659 - 24;
#X obj 410 225 r \$0-num-down;
#X obj 420 255 r \$0-num-down;
#X obj 234 516 tabread \$0-notes-increasing;
#X obj 480 427 counter-up 4 \$1;
#X obj 255 394 counter-up 0 \$1;
#X obj 268 79 r \$0-tick;
#X connect 0 0 19 0;
#X connect 1 0 8 0;
#X connect 2 0 4 0;
#X connect 3 0 14 0;
#X connect 4 0 3 1;
#X connect 5 0 0 0;
#X connect 6 0 9 0;
#X connect 6 0 18 1;
#X connect 6 0 19 1;
#X connect 7 0 18 0;
#X connect 8 0 6 0;
#X connect 8 0 10 1;
#X connect 8 1 19 2;
#X connect 9 0 2 0;
#X connect 10 0 17 0;
#X connect 12 0 5 0;
#X connect 13 0 12 1;
#X connect 14 0 11 0;
#X connect 15 0 5 1;
#X connect 16 0 1 0;
#X connect 17 0 3 0;
#X connect 18 0 2 0;
#X connect 19 0 10 0;
#X connect 19 1 7 0;
#X connect 20 0 12 0;
#X restore 307 441 pd singleup4;
#N canvas 21 25 1242 775 singledown4 0;
#X floatatom 484 494 5 0 0 0 - - - 0;
#X obj 306 623 + 0;
#X obj 485 513 * 12;
#X obj 298 304 spigot;
#X obj 378 338 sel 0;
#X obj 422 301 t f f;
#X msg 506 462 0;
#X obj 247 467 % 1;
#X obj 487 756 outlet;
#X obj 327 176 spigot 0;
#X obj 459 91 inlet;
#X obj 307 659 - 24;
#X obj 234 516 tabread \$0-notes-increasing;
#X obj 420 255 r \$0-num-down;
#X obj 410 225 r \$0-num-down;
#X obj 298 326 b;
#X obj 350 423 b;
#X obj 480 427 counter-down 4 \$1;
#X obj 255 394 counter-down 0 \$1;
#X obj 268 79 r \$0-tick;
#X connect 0 0 2 0;
#X connect 1 0 11 0;
#X connect 2 0 1 1;
#X connect 3 0 15 0;
#X connect 4 0 6 0;
#X connect 4 0 17 1;
#X connect 4 0 18 1;
#X connect 5 0 4 0;
#X connect 5 0 7 1;
#X connect 5 1 18 2;
#X connect 6 0 0 0;
#X connect 7 0 12 0;
#X connect 9 0 3 0;
#X connect 10 0 9 1;
#X connect 11 0 8 0;
#X connect 12 0 1 0;
#X connect 13 0 5 0;
#X connect 14 0 3 1;
#X connect 15 0 18 0;
#X connect 16 0 17 0;
#X connect 17 0 0 0;
#X connect 18 0 7 0;
#X connect 18 1 16 0;
#X connect 19 0 9 0;
#X restore 410 439 pd singledown4;
#X msg 553 305 1;
#X msg 611 305 1;
#X msg 659 305 1;
#X msg 714 305 1;
#N canvas 28 25 1242 770 singleup2 0;
#X floatatom 484 494 5 0 0 0 - - - 0;
#X obj 306 623 + 0;
#X obj 480 528 * 12;
#X obj 298 304 spigot;
#X obj 378 338 sel 0;
#X obj 422 301 t f f;
#X msg 506 462 0;
#X obj 247 467 % 1;
#X obj 487 756 outlet;
#X obj 327 176 spigot 0;
#X obj 459 91 inlet;
#X obj 307 659 - 24;
#X obj 410 225 r \$0-num-down;
#X obj 420 255 r \$0-num-down;
#X obj 389 474 b;
#X obj 298 326 b;
#X obj 234 516 tabread \$0-notes-increasing;
#X obj 255 394 counter-up 0 \$1;
#X obj 480 427 counter-up 2 \$1;
#X obj 268 79 r \$0-tick;
#X connect 0 0 2 0;
#X connect 1 0 11 0;
#X connect 2 0 1 1;
#X connect 3 0 15 0;
#X connect 4 0 6 0;
#X connect 4 0 17 1;
#X connect 4 0 18 1;
#X connect 5 0 4 0;
#X connect 5 0 7 1;
#X connect 5 1 17 2;
#X connect 6 0 0 0;
#X connect 7 0 16 0;
#X connect 9 0 3 0;
#X connect 10 0 9 1;
#X connect 11 0 8 0;
#X connect 12 0 3 1;
#X connect 13 0 5 0;
#X connect 14 0 18 0;
#X connect 15 0 17 0;
#X connect 16 0 1 0;
#X connect 17 0 7 0;
#X connect 17 1 14 0;
#X connect 18 0 0 0;
#X connect 19 0 9 0;
#X restore 104 441 pd singleup2;
#N canvas 24 25 1242 775 singledown2 0;
#X obj 271 348 bng 15 250 50 0 empty empty empty 17 7 0 10 #fcfcfc
#000000 #000000;
#X floatatom 484 494 5 0 0 0 - - - 0;
#X obj 306 623 + 0;
#X obj 485 518 * 12;
#X obj 298 304 spigot;
#X obj 378 338 sel 0;
#X obj 422 301 t f f;
#X msg 506 462 0;
#X obj 247 467 % 1;
#X obj 487 756 outlet;
#X obj 327 176 spigot 0;
#X obj 459 91 inlet;
#X obj 307 659 - 24;
#X obj 410 225 r \$0-num-down;
#X obj 420 255 r \$0-num-down;
#X obj 234 516 tabread \$0-notes-increasing;
#X obj 369 480 b;
#X obj 480 427 counter-down 2 \$1;
#X obj 255 394 counter-down 0 \$1;
#X obj 268 79 r \$0-tick;
#X connect 0 0 18 0;
#X connect 1 0 3 0;
#X connect 2 0 12 0;
#X connect 3 0 2 1;
#X connect 4 0 0 0;
#X connect 5 0 7 0;
#X connect 5 0 17 1;
#X connect 5 0 18 1;
#X connect 6 0 5 0;
#X connect 6 0 8 1;
#X connect 6 1 18 2;
#X connect 7 0 1 0;
#X connect 8 0 15 0;
#X connect 10 0 4 0;
#X connect 11 0 10 1;
#X connect 12 0 9 0;
#X connect 13 0 4 1;
#X connect 14 0 6 0;
#X connect 15 0 2 0;
#X connect 16 0 17 0;
#X connect 17 0 1 0;
#X connect 18 0 8 0;
#X connect 18 1 16 0;
#X connect 19 0 10 0;
#X restore 199 442 pd singledown2;
#N canvas 31 50 1242 820 updown2 0;
#X obj 338 565 outlet;
#N canvas 36 50 1242 820 singleup2 0;
#X obj 307 345 bng 15 250 50 0 empty empty empty 17 7 0 10 #fcfcfc
#000000 #000000;
#X floatatom 484 494 5 0 0 0 - - - 0;
#X obj 306 623 + 0;
#X obj 485 513 * 12;
#X obj 298 304 spigot;
#X obj 378 338 sel 0;
#X obj 396 437 bng 15 250 50 0 empty empty empty 17 7 0 10 #fcfcfc
#000000 #000000;
#X obj 422 301 t f f;
#X msg 506 462 0;
#X obj 247 467 % 1;
#X obj 487 756 outlet;
#X obj 307 659 - 24;
#X obj 631 661 outlet;
#X obj 225 164 inlet;
#X obj 410 225 r \$0-num-down;
#X obj 420 255 r \$0-num-down;
#X obj 234 516 tabread \$0-notes-increasing;
#X obj 255 394 counter-up 0 \$1;
#X obj 480 427 counter-up 2 \$1;
#X connect 0 0 17 0;
#X connect 1 0 3 0;
#X connect 2 0 11 0;
#X connect 3 0 2 1;
#X connect 4 0 0 0;
#X connect 5 0 8 0;
#X connect 5 0 17 1;
#X connect 5 0 18 1;
#X connect 6 0 18 0;
#X connect 7 0 5 0;
#X connect 7 0 9 1;
#X connect 7 1 17 2;
#X connect 8 0 1 0;
#X connect 9 0 16 0;
#X connect 11 0 10 0;
#X connect 13 0 4 0;
#X connect 14 0 4 1;
#X connect 15 0 7 0;
#X connect 16 0 2 0;
#X connect 17 0 9 0;
#X connect 17 1 6 0;
#X connect 18 0 1 0;
#X connect 18 1 12 0;
#X restore 276 400 pd singleup2;
#X obj 301 151 spigot 0;
#X obj 433 66 inlet;
#N canvas 27 50 1242 820 singledown2 0;
#X obj 271 348 bng 15 250 50 0 empty empty empty 17 7 0 10 #fcfcfc
#000000 #000000;
#X floatatom 422 282 5 0 0 0 - - - 0;
#X floatatom 484 494 5 0 0 0 - - - 0;
#X obj 306 623 + 0;
#X obj 485 513 * 12;
#X obj 298 304 spigot;
#X obj 378 338 sel 0;
#X obj 396 437 bng 15 250 50 0 empty empty empty 17 7 0 10 #fcfcfc
#000000 #000000;
#X obj 422 301 t f f;
#X msg 506 462 0;
#X obj 247 467 % 1;
#X obj 487 756 outlet;
#X obj 307 659 - 24;
#X obj 678 572 outlet;
#X obj 327 176 inlet;
#X obj 410 225 r \$0-num-down;
#X obj 420 255 r \$0-num-down;
#X obj 234 517 tabread \$0-notes-increasing;
#X obj 255 394 counter-down 0 \$1;
#X obj 480 427 counter-down 2 \$1;
#X connect 0 0 18 0;
#X connect 1 0 8 0;
#X connect 2 0 4 0;
#X connect 3 0 12 0;
#X connect 4 0 3 1;
#X connect 5 0 0 0;
#X connect 6 0 9 0;
#X connect 6 0 18 1;
#X connect 6 0 19 1;
#X connect 7 0 19 0;
#X connect 8 0 6 0;
#X connect 8 0 10 1;
#X connect 8 1 18 2;
#X connect 9 0 2 0;
#X connect 10 0 17 0;
#X connect 12 0 11 0;
#X connect 14 0 5 0;
#X connect 15 0 5 1;
#X connect 16 0 1 0;
#X connect 17 0 3 0;
#X connect 18 0 10 0;
#X connect 18 1 7 0;
#X connect 19 0 2 0;
#X connect 19 1 13 0;
#X restore 411 403 pd singledown2;
#X obj 462 194 tgl 15 0 empty empty empty 17 7 0 10 #fcfcfc #000000
#000000 0 1;
#X obj 463 133 tgl 15 0 empty empty empty 17 7 0 10 #fcfcfc #000000
#000000 0 1;
#X obj 463 153 ==;
#X obj 314 243 spigot 0;
#X obj 230 240 spigot 1;
#X obj 544 93 sel 0;
#X msg 544 115 1;
#X obj 544 71 r \$0-num-down;
#X obj 242 54 r \$0-tick;
#X connect 1 0 0 0;
#X connect 1 1 6 0;
#X connect 2 0 9 0;
#X connect 2 0 8 0;
#X connect 3 0 2 1;
#X connect 4 0 0 0;
#X connect 4 1 6 0;
#X connect 5 0 8 1;
#X connect 6 0 7 0;
#X connect 6 0 9 1;
#X connect 7 0 5 0;
#X connect 8 0 4 0;
#X connect 9 0 1 0;
#X connect 10 0 11 0;
#X connect 11 0 6 0;
#X connect 12 0 10 0;
#X connect 13 0 2 0;
#X restore 779 437 pd updown2;
#X obj 324 566 pack 0 0, f 16;
#X obj 324 514 f;
#X obj 324 539 makenote 100 100;
#X obj 50 129 t b b;
#X obj 118 172 s resort-\$1;
#X text 7 249 send a re-sort first to check if there have been note
updates;
#X obj 52 49 inlet clock;
#X obj 251 15 inlet pattern;
#X obj 543 23 inlet length;
#X obj 324 597 outlet notes;
#X obj 44 170 s \$0-tick;
#X obj 322 107 loadbang;
#X connect 0 0 21 0;
#X connect 1 0 4 0;
#X connect 1 1 5 0;
#X connect 1 2 6 0;
#X connect 1 3 7 0;
#X connect 1 4 13 0;
#X connect 1 5 14 0;
#X connect 1 6 15 0;
#X connect 1 7 16 0;
#X connect 2 0 1 0;
#X connect 2 1 3 0;
#X connect 3 0 11 0;
#X connect 3 0 12 0;
#X connect 3 0 8 0;
#X connect 3 0 0 0;
#X connect 3 0 17 0;
#X connect 3 0 18 0;
#X connect 3 0 19 0;
#X connect 4 0 17 0;
#X connect 5 0 18 0;
#X connect 6 0 11 0;
#X connect 7 0 12 0;
#X connect 8 0 21 0;
#X connect 9 0 2 0;
#X connect 10 0 2 0;
#X connect 11 0 21 0;
#X connect 12 0 21 0;
#X connect 13 0 8 0;
#X connect 14 0 0 0;
#X connect 15 0 19 0;
#X connect 16 0 17 0;
#X connect 16 0 18 0;
#X connect 16 0 12 0;
#X connect 16 0 19 0;
#X connect 16 0 8 0;
#X connect 17 0 21 0;
#X connect 18 0 21 0;
#X connect 19 0 21 0;
#X connect 20 0 29 0;
#X connect 21 0 22 0;
#X connect 22 0 20 0;
#X connect 22 1 20 1;
#X connect 23 0 30 0;
#X connect 23 1 24 0;
#X connect 26 0 23 0;
#X connect 27 0 9 0;
#X connect 28 0 22 2;
#X connect 31 0 10 0;
#X restore 167 611 pd arp;
#X text 475 490 array squash pulls out 0 notes. this array gets clobbered
by the sorting function so it always looks blank;
#N canvas 640 236 533 527 countnotes 0;
#X obj 104 289 > 0;
#X obj 104 316 sel 1;
#X obj 158 352 + 1, f 4;
#X obj 110 353 f 0;
#X obj 141 130 until;
#X obj 142 174 f;
#X obj 174 173 + 1, f 4;
#X msg 319 198 0, f 2;
#X msg 142 105 8, f 2;
#X obj 89 395 f 0;
#X obj 89 458 outlet;
#X obj 83 200 t f f;
#X obj 36 244 sel 7;
#X obj 143 81 t b b;
#X obj 143 35 r \$0-countem;
#X obj 106 234 tabread \$0-notes-from-poly;
#X connect 0 0 1 0;
#X connect 1 0 3 0;
#X connect 2 0 3 1;
#X connect 2 0 9 1;
#X connect 3 0 2 0;
#X connect 4 0 5 0;
#X connect 5 0 6 0;
#X connect 5 0 11 0;
#X connect 6 0 5 1;
#X connect 7 0 5 1;
#X connect 7 0 3 1;
#X connect 7 0 9 1;
#X connect 8 0 4 0;
#X connect 9 0 10 0;
#X connect 11 0 12 0;
#X connect 11 1 15 0;
#X connect 12 0 9 0;
#X connect 13 0 8 0;
#X connect 13 1 7 0;
#X connect 14 0 13 0;
#X connect 15 0 0 0;
#X restore 624 360 pd countnotes;
#X obj 209 418 s \$0-others;
#X obj 326 417 s \$0-reorder;
#X obj 418 420 s \$0-copy;
#X obj 512 419 s \$0-countem;
#X obj 488 279 tabwrite \$0-notes-from-poly;
#X obj 624 412 s \$0-num-down;
#X obj 270 461 table \$0-notes-from-poly 8;
#X obj 270 495 table \$0-notes-squashed 8;
#X obj 269 529 table \$0-notes-decreasing 8;
#X obj 269 562 table \$0-notes-increasing 8;
#X obj 267 323 tgl 15 0 empty empty notes_changed 17 7 0 10 #fcfcfc
#000000 #000000 0 1;
#X msg 169 280 1;
#X obj 167 356 spigot 0;
#X obj 167 384 t b b b b b, f 54;
#X msg 167 417 0;
#X obj 167 327 r resort-\$1;
#X text 274 357 only re-sort once before we generate a new note;
#X obj 169 250 t b f, f 54;
#X obj 263 30 inlet notes;
#X obj 30 27 inlet clock;
#X obj 417 28 inlet pattern;
#X obj 656 34 inlet length;
#X obj 166 652 outlet;
#X text 504 28 select pattern 0-7;
#X text 739 34 note length;
#X text 633 199 organize notes into arrays \, then play them;
#X text 130 26 tick, f 10;
#X obj 758 425 print;
#X connect 0 0 8 0;
#X connect 0 1 8 1;
#X connect 1 0 9 0;
#X connect 2 0 33 0;
#X connect 2 1 20 1;
#X connect 6 0 21 0;
#X connect 8 0 1 0;
#X connect 8 1 1 1;
#X connect 8 2 1 2;
#X connect 9 0 2 0;
#X connect 13 0 38 0;
#X connect 15 0 6 0;
#X connect 26 0 28 1;
#X connect 27 0 26 0;
#X connect 28 0 29 0;
#X connect 29 0 30 0;
#X connect 29 1 16 0;
#X connect 29 2 17 0;
#X connect 29 3 18 0;
#X connect 29 4 19 0;
#X connect 30 0 26 0;
#X connect 31 0 28 0;
#X connect 33 0 27 0;
#X connect 33 1 20 0;
#X connect 34 0 0 0;
#X connect 35 0 13 0;
#X connect 36 0 13 1;
#X connect 37 0 13 2;
#X restore 315 669 pd arpseq;
#X obj 276 601 r arp-tick;
#X obj 506 573 r sec-per-beat;
#X obj 506 625 * 1000;
#X text 490 647 arp tick is /4 \, then we want /2 of that, f 19;
#X obj 506 601 / 8;
#X obj 381 357 r shift-keys;
#X msg 298 495 0;
#X msg 408 504 0;
#X msg 448 504 1;
#X msg 492 504 2;
#X msg 530 504 3;
#X msg 571 504 4;
#X msg 372 504 1;
#X obj 376 452 t b b;
#X obj 418 453 t b b;
#X obj 470 454 t b b;
#X obj 515 452 t b b;
#X obj 561 452 t b b;
#N canvas 162 265 502 347 flush-and-switch 0;
#X obj 226 121 ==;
#X obj 93 183 spigot 1;
#X obj 174 183 spigot 0;
#X obj 86 39 inlet;
#X obj 87 323 outlet;
#X obj 231 316 outlet;
#X obj 289 42 inlet;
#X obj 129 255 bag;
#X obj 222 252 bag;
#X msg 286 188 flush;
#X obj 248 91 t f f b;
#X obj 117 293 pack 0 0;
#X obj 231 282 pack 0 0;
#X obj 375 43 inlet;
#X connect 0 0 1 1;
#X connect 1 0 4 0;
#X connect 1 0 7 0;
#X connect 2 0 5 0;
#X connect 2 0 8 0;
#X connect 3 0 1 0;
#X connect 3 0 2 0;
#X connect 6 0 10 0;
#X connect 7 0 11 0;
#X connect 8 0 12 0;
#X connect 9 0 7 0;
#X connect 9 0 8 0;
#X connect 10 0 0 0;
#X connect 10 1 2 1;
#X connect 10 2 9 0;
#X connect 11 0 4 0;
#X connect 12 0 5 0;
#X connect 13 0 9 0;
#X restore 159 540 pd flush-and-switch;
#X obj 381 383 stripnote;
#N canvas 162 265 342 526 flush-and-transpose 0;
#X obj 86 39 inlet;
#X obj 71 459 outlet;
#X obj 151 155 bag;
#X obj 149 186 pack 0 0;
#X obj 168 42 r octave-transpose;
#X obj 98 220 unpack;
#X obj 87 272 + 0;
#X obj 146 88 t f b;
#X obj 58 345 pack 0 0;
#X msg 170 119 flush;
#X connect 0 0 5 0;
#X connect 0 0 2 0;
#X connect 2 0 3 0;
#X connect 3 0 5 0;
#X connect 4 0 7 0;
#X connect 5 0 6 0;
#X connect 5 1 8 1;
#X connect 6 0 8 0;
#X connect 7 0 6 1;
#X connect 7 1 9 0;
#X connect 8 0 1 0;
#X connect 9 0 2 0;
#X restore 223 699 pd flush-and-transpose;
#X msg 657 580 /led2 \$1;
#X obj 657 634 s oscOut;
#X obj 624 551 + 2;
#X msg 657 551 1;
#X obj 382 413 sel 0 2 4 5 7 9, f 20;
#N canvas 63 88 694 521 metronome 0;
#X obj 258 169 snapshot~;
#X obj 297 134 bang~;
#X obj 203 131 phasor~ 2;
#X obj 247 202 * 360;
#X obj 247 226 clockfix;
#X obj 292 289 s beat-clock;
#X obj 162 20 r tempo;
#X obj 162 44 * 200;
#X obj 162 68 + 50;
#X obj 162 92 / 60;
#X obj 93 227 /;
#X msg 78 191 1;
#X obj 83 159 t b f;
#X obj 93 254 s sec-per-beat;
#X obj 248 382 s arp-tick;
#X obj 231 331 sel 1 94 181 274;
#X obj 242 252 t a a;
#X obj 520 170 tgl 15 0 empty empty empty 17 7 0 10 #fcfcfc #000000
#000000 0 1;
#N canvas 162 161 1107 634 metro 0;
#X obj 212 537 outlet~;
#X obj 369 205 spigot 0;
#X obj 210 472 *~ 0.1;
#X obj 418 366 loadbang;
#X obj 475 40 inlet;
#X obj 291 33 inlet;
#X obj 203 415 tick metro1.wav \$1;
#X connect 1 0 6 0;
#X connect 2 0 0 0;
#X connect 3 0 6 1;
#X connect 4 0 1 1;
#X connect 5 0 1 0;
#X connect 6 0 2 0;
#X restore 496 266 pd metro;
#X obj 492 228 r qn;
#X obj 472 339 throw~ outL;
#X obj 559 342 throw~ outR;
#X obj 541 138 sel 18;
#X obj 540 112 stripnote;
#X obj 540 81 r shift-keys;
#X connect 0 0 3 0;
#X connect 1 0 0 0;
#X connect 2 0 0 0;
#X connect 3 0 4 0;
#X connect 4 0 16 0;
#X connect 6 0 7 0;
#X connect 7 0 8 0;
#X connect 8 0 9 0;
#X connect 9 0 2 0;
#X connect 9 0 12 0;
#X connect 10 0 13 0;
#X connect 11 0 10 0;
#X connect 12 0 11 0;
#X connect 12 1 10 1;
#X connect 15 0 14 0;
#X connect 15 1 14 0;
#X connect 15 2 14 0;
#X connect 15 3 14 0;
#X connect 16 0 15 0;
#X connect 16 1 5 0;
#X connect 17 0 18 1;
#X connect 18 0 20 0;
#X connect 18 0 21 0;
#X connect 19 0 18 0;
#X connect 22 0 17 0;
#X connect 23 0 22 0;
#X connect 24 0 23 0;
#X restore 196 30 pd metronome;
#N canvas 122 25 1239 777 sequecner 0;
#X msg 673 408 arm, f 4;
#X obj 217 400 seq-format-event note;
#N canvas 72 96 468 388 flush-stuck-notes 0;
#X obj 167 212 bag;
#X msg 203 161 flush;
#X msg 160 254 \$1 0;
#X obj 124 157 t a a;
#X obj 137 354 outlet;
#X obj 101 22 inlet;
#X obj 258 20 inlet;
#X obj 238 107 bang;
#X obj 114 102 route note;
#X obj 248 61 route end stop;
#X connect 0 0 2 0;
#X connect 1 0 0 0;
#X connect 2 0 4 0;
#X connect 3 0 4 0;
#X connect 3 1 0 0;
#X connect 5 0 8 0;
#X connect 6 0 9 0;
#X connect 7 0 1 0;
#X connect 8 0 3 0;
#X connect 9 0 7 0;
#X connect 9 1 7 0;
#X restore 186 565 pd flush-stuck-notes;
#X obj 22 237 r beat-clock;
#X obj 190 484 seq \$1, f 28;
#X obj 23 281 t f f;
#X obj 601 -139 r shift-keys;
#X obj 406 611 change -1;
#X msg 390 561 1;
#X msg 493 567 3;
#X msg 540 569 0;
#X msg 411 687 /led1 \$1;
#X obj 412 721 s oscOut;
#X obj 394 523 route rec arm play play-sync stop;
#X msg 445 556 6;
#X obj 71 -19 inlet;
#X obj 199 649 outlet;
#X obj 239 222 stripnote;
#X obj 217 362 spigot 0;
#N canvas 510 246 450 300 once 0;
#X obj 114 61 inlet;
#X obj 203 37 inlet;
#X obj 114 215 outlet;
#X obj 114 137 == 1;
#X obj 114 115 i 0;
#X obj 114 162 sel 1;
#X obj 114 184 t b b;
#X msg 206 152 0;
#X msg 203 62 1;
#X text 252 38 reset;
#X connect 0 0 4 0;
#X connect 1 0 8 0;
#X connect 3 0 5 0;
#X connect 4 0 3 0;
#X connect 5 0 6 0;
#X connect 6 0 2 0;
#X connect 6 1 7 0;
#X connect 7 0 4 1;
#X connect 8 0 4 1;
#X restore 239 279 pd once;
#X obj 239 249 t b;
#X msg 240 308 1;
#X obj 111 100 t a a;
#X text 205 149 only start with a note on;
#X obj 530 186 t b b b;
#X msg 321 303 0;
#X text 495 649 states are: 0 = stopped \, 3 = playing \, 6 = rec enabled
\, 1 = recording, f 70;
#X obj 400 256 v seq-state;
#X msg 447 409 play-sync;
#X msg 417 374 stop;
#X text 493 252 states are: 0 = stopped \, 3 = playing \, 6 = rec enabled
\, 1 = recording, f 12;
#X obj 498 372 t b b;
#X obj 535 408 s seq-before-play;
#X obj 683 106 f;
#X obj 683 -4 t f f;
#X obj 683 78 del 500;
#X obj 667 43 sel 1;
#X obj 682 132 sel 1;
#X obj 611 -104 route 3;
#X obj 747 -14 r shift;
#X msg 747 42 stop;
#X obj 747 16 sel 0;
#X text 818 28 press and hold arms it. shift release cancles this,
f 25;
#X obj 612 -77 > 0;
#X obj 396 323 sel 0 3 1;
#X obj 653 225 v seq-state;
#X obj 649 261 sel 6;
#X obj 654 166 r shift;
#X obj 654 196 sel 1;
#X text 735 189 pressing shift disamrs;
#X obj 618 -52 t f f f;
#X obj 533 4 i;
#X obj 498 -69 r shift;
#X obj 498 -39 sel 0;
#X obj 490 152 sel 0;
#X text 316 -81 play on button release;
#X text 278 -21 if shift button released \, treat it like releaseing
button if it was pressed, f 28;
#X text 684 -93 the seq control button;
#X obj 499 45 sel 1;
#X msg 475 73 0;
#X obj 467 100 t f f;
#X obj 402 650 s seq-state;
#X connect 0 0 4 3;
#X connect 1 0 4 2;
#X connect 2 0 16 0;
#X connect 3 0 5 0;
#X connect 4 0 2 0;
#X connect 4 1 2 1;
#X connect 4 1 13 0;
#X connect 5 0 4 0;
#X connect 5 1 4 1;
#X connect 6 0 38 0;
#X connect 7 0 61 0;
#X connect 8 0 7 0;
#X connect 9 0 7 0;
#X connect 10 0 7 0;
#X connect 11 0 12 0;
#X connect 13 0 8 0;
#X connect 13 1 14 0;
#X connect 13 2 9 0;
#X connect 13 3 9 0;
#X connect 13 4 10 0;
#X connect 14 0 7 0;
#X connect 15 0 22 0;
#X connect 17 0 20 0;
#X connect 18 0 1 0;
#X connect 19 0 21 0;
#X connect 20 0 19 0;
#X connect 21 0 18 1;
#X connect 22 0 18 0;
#X connect 22 1 17 0;
#X connect 24 0 25 0;
#X connect 24 1 19 1;
#X connect 24 2 0 0;
#X connect 25 0 18 1;
#X connect 27 0 44 0;
#X connect 28 0 4 3;
#X connect 29 0 4 3;
#X connect 31 0 28 0;
#X connect 31 1 32 0;
#X connect 33 0 37 0;
#X connect 34 0 36 0;
#X connect 34 1 33 1;
#X connect 35 0 33 0;
#X connect 36 0 35 0;
#X connect 37 0 24 0;
#X connect 38 0 43 0;
#X connect 39 0 41 0;
#X connect 40 0 35 0;
#X connect 41 0 40 0;
#X connect 43 0 50 0;
#X connect 44 0 31 0;
#X connect 44 1 29 0;
#X connect 44 2 31 0;
#X connect 45 0 46 0;
#X connect 46 0 29 0;
#X connect 47 0 48 0;
#X connect 48 0 45 0;
#X connect 50 0 51 1;
#X connect 50 1 54 0;
#X connect 50 2 34 0;
#X connect 51 0 58 0;
#X connect 52 0 53 0;
#X connect 53 0 51 0;
#X connect 54 0 27 0;
#X connect 58 0 59 0;
#X connect 59 0 60 0;
#X connect 60 0 54 0;
#X connect 60 1 51 1;
#X restore 181 394 pd sequecner;
#N canvas 82 143 450 300 init 0;
#X obj 41 32 r net-connected;
#X obj 52 197 s oscOut;
#X msg 32 125 /led1 0;
#X msg 42 149 /led2 1;
#X msg 52 172 /led3 1;
#X msg 164 120 \; pd dsp 1;
#X obj 164 90 loadbang;
#X connect 0 0 2 0;
#X connect 0 0 3 0;
#X connect 0 0 4 0;
#X connect 2 0 1 0;
#X connect 3 0 1 0;
#X connect 4 0 1 0;
#X connect 6 0 5 0;
#X restore 196 -46 pd init;
#X obj 144 324 cg-latch;
#X obj 273 186 r shift-keys;
#X obj 273 210 stripnote;
#X obj 213 287 tgl 15 0 empty empty empty 17 7 0 10 #fcfcfc #000000
#000000 0 1;
#X obj 197 157 r seq-before-play;
#X msg 197 201 0;
#X obj 273 234 sel 1;
#X obj 42 -48 declare -lib hcs;
#X msg 1033 -43 symbol synths/1*;
#X obj 1035 117 pack s s;
#X obj 1024 46 t a b;
#X msg 1113 83 symbol s1;
#N canvas 86 165 732 264 synth-modules 0;
#X restore 1065 212 pd synth-modules;
#X msg 1203 54 \; pd-synth-modules clear;
#X msg 1017 83 \$1/module;
#X obj 1043 -15 t a b, f 19;
#X obj 1038 16 folder_list;
#X obj 345 -43 v synth-num;
#X obj 345 -15 v pattern-num;
#X obj 345 17 v seq-state;
#X text 438 16 states are: 0 = stopped \, 3 = playing \, 6 = rec enabled
\, 1 = recording, f 69;
#X obj 345 47 v latch-state;
#N canvas 80 254 781 335 leds 0;
#X obj 284 256 s oscOut;
#X msg 285 201 /led1 \$1;
#X obj 226 59 sel 0;
#X obj 284 105 delay 20;
#X msg 244 111 7;
#X obj 219 24 r beat-clock;
#X text 327 21 tick the arps 1 tick late to ensure seq starts first
;
#X msg 624 137 /led1 \$1;
#X obj 624 169 s oscOut;
#X obj 284 160 v seq-state;
#X text 376 157 seq-state are led colors;
#X obj 624 107 r seq-state;
#X obj 45 164 s oscOut;
#X msg 45 139 /led3 \$1;
#X obj 46 111 r synth-num;
#X connect 1 0 0 0;
#X connect 2 0 4 0;
#X connect 2 0 3 0;
#X connect 3 0 9 0;
#X connect 4 0 1 0;
#X connect 5 0 2 0;
#X connect 7 0 8 0;
#X connect 9 0 1 0;
#X connect 11 0 7 0;
#X connect 13 0 12 0;
#X connect 14 0 13 0;
#X restore 197 5 pd leds;
#N canvas 328 174 667 525 synth-select 0;
#X obj 66 37 stripnote;
#X obj 66 13 r shift-keys;
#X obj 65 82 sel 11 12 14 16 17 19, f 26;
#X text 281 199 speed limit 20 ms to allow for fade out/in;
#X msg 79 125 1, f 2;
#X msg 115 124 2, f 2;
#X msg 156 126 3, f 2;
#X msg 199 125 4, f 2;
#X msg 233 124 5, f 2;
#X msg 280 125 6, f 2;
#N canvas 133 296 450 344 20ms-speed-limit 0;
#X msg 91 120 1;
#X obj 85 180 spigot 1;
#X msg 159 118 0;
#X obj 92 95 delay 20;
#X obj 45 27 inlet;
#X obj 139 55 t b b;
#X obj 71 242 t f b;
#X obj 62 277 outlet;
#X connect 0 0 1 1;
#X connect 1 0 6 0;
#X connect 2 0 1 1;
#X connect 3 0 0 0;
#X connect 4 0 1 0;
#X connect 5 0 3 0;
#X connect 5 1 2 0;
#X connect 6 0 7 0;
#X connect 6 1 5 0;
#X restore 129 198 pd 20ms-speed-limit;
#X obj 92 344 delay 10;
#X msg 111 438 1;
#X obj 115 380 f;
#X obj 147 315 t b f;
#X obj 111 465 s, f 10;
#X obj 141 404 t b f;
#X obj 192 296 s synth-num;
#X text 445 289 turn off with fadeout;
#X obj 301 290 s synth-disable-all;
#X text 177 345 enable after 10ms for fade out;
#X msg 191 427 symbol s\$1-enable;
#X obj 151 240 t f f b;
#X connect 0 0 2 0;
#X connect 1 0 0 0;
#X connect 2 0 4 0;
#X connect 2 1 5 0;
#X connect 2 2 6 0;
#X connect 2 3 7 0;
#X connect 2 4 8 0;
#X connect 2 5 9 0;
#X connect 4 0 10 0;
#X connect 5 0 10 0;
#X connect 6 0 10 0;
#X connect 7 0 10 0;
#X connect 8 0 10 0;
#X connect 9 0 10 0;
#X connect 10 0 22 0;
#X connect 11 0 13 0;
#X connect 12 0 15 0;
#X connect 13 0 16 0;
#X connect 14 0 11 0;
#X connect 14 1 13 1;
#X connect 16 0 12 0;
#X connect 16 1 21 0;
#X connect 21 0 15 1;
#X connect 22 0 14 0;
#X connect 22 1 17 0;
#X connect 22 2 19 0;
#X restore 196 56 pd synth-select;
#X msg 1037 148 \; pd-synth-modules obj 10 10 synth-loader \$1 \$2
;
#X obj 695 157 synth-loader s1 ../synths/1-basic-poly/module;
#X obj 697 184 synth-loader s2 ../synths/2-guitar/module;
#X obj 696 213 synth-loader s3 ../synths/3-synth-drums/module;
#X obj 698 239 synth-loader s4 ../synths/4-vocal/module;
#X obj 699 265 synth-loader s5 ../synths/5-sample/module;
#X obj 797 82 loadbang;
#X obj 797 106 delay 100;
#X obj 797 130 s loadbang-s5;
#X obj 63 119 r keys;
#N canvas 183 110 990 393 oscio 0;
#X obj 70 209 udpsend;
#X obj 95 174 packOSC;
#X obj 252 154 udpreceive;
#X obj 252 176 unpackOSC;
#X obj 181 30 loadbang, f 11;
#X obj 252 204 s oscIn;
#X obj 92 145 r oscOut;
#X msg 70 119 connect localhost 4001;
#X msg 252 124 port 4000;
#X msg 12 66 connect 192.168.1.129 4001;
#X msg 161 183 disconnect;
#X obj 61 235 sel 1;
#X obj 45 262 s net-connected;
#X obj 417 50 r oscIn;
#X obj 575 206 / 255;
#X obj 634 205 / 255;
#X obj 694 201 / 255;
#X obj 755 200 / 255;
#X obj 576 160 unpack 0 0 0 0, f 26;
#X obj 417 89 routeOSC /key /knobs /aux, f 68;
#X obj 733 124 s shift;
#X obj 575 235 s tempo;
#X obj 634 236 s knob1;
#X obj 694 233 s knob2;
#X obj 755 235 s knob3;
#X obj 417 132 s keys;
#X connect 0 0 11 0;
#X connect 1 0 0 0;
#X connect 2 0 3 0;
#X connect 3 0 5 0;
#X connect 4 0 7 0;
#X connect 4 0 8 0;
#X connect 6 0 1 0;
#X connect 7 0 0 0;
#X connect 8 0 2 0;
#X connect 9 0 0 0;
#X connect 10 0 0 0;
#X connect 11 0 12 0;
#X connect 13 0 19 0;
#X connect 14 0 21 0;
#X connect 15 0 22 0;
#X connect 16 0 23 0;
#X connect 17 0 24 0;
#X connect 18 0 14 0;
#X connect 18 1 15 0;
#X connect 18 2 16 0;
#X connect 18 3 17 0;
#X connect 19 0 25 0;
#X connect 19 1 18 0;
#X connect 19 2 20 0;
#X restore 197 -21 pd oscio;
#X obj 344 77 v click-state;
#X text 448 -43 the currently selected synth;
#X text 450 -15 the currently selected pattern gen;
#X text 454 49 1 = latch mode on \, 0 = off;
#X text 454 79 1 = metronome click on \, 0 = off;
#N canvas 45 199 615 422 shift-keys 0;
#X obj 187 52 r shift;
#X obj 202 204 s shift-keys;
#N canvas 72 279 450 300 switch 0;
#X obj 226 121 ==;
#X obj 93 183 spigot 1;
#X obj 164 182 spigot 0;
#X obj 248 91 t f f;
#X obj 86 39 inlet;
#X obj 87 235 outlet;
#X obj 174 224 outlet;
#X obj 289 42 inlet;
#X connect 0 0 1 1;
#X connect 1 0 5 0;
#X connect 2 0 6 0;
#X connect 3 0 0 0;
#X connect 3 1 2 1;
#X connect 4 0 1 0;
#X connect 4 0 2 0;
#X connect 7 0 3 0;
#X restore 117 115 pd switch;
#X obj 141 282 bag;
#X msg 219 121 flush;
#X obj 187 84 t f b;
#X obj 127 318 pack 0 0;
#X obj 128 15 inlet;
#X obj 126 385 outlet;
#X obj 110 146 t a a;
#X text 256 81 route keys depending on shift key;
#X text 193 282 cancel any keys playing upon shift;
#N canvas 92 117 450 300 transpose-keys 0;
#X obj 130 60 unpack 0 0;
#X obj 129 125 pack, f 9;
#X obj 197 91 * 100;
#X obj 128 93 + 48;
#X obj 144 23 inlet;
#X obj 131 168 outlet;
#X connect 0 0 3 0;
#X connect 0 1 2 0;
#X connect 1 0 5 0;
#X connect 2 0 1 1;
#X connect 3 0 1 0;
#X connect 4 0 0 0;
#X restore 126 350 pd transpose-keys;
#X text 262 348 internal keys are 0-19;
#X connect 0 0 5 0;
#X connect 2 0 9 0;
#X connect 2 1 1 0;
#X connect 3 0 6 0;
#X connect 4 0 3 0;
#X connect 5 0 2 1;
#X connect 5 1 4 0;
#X connect 6 0 12 0;
#X connect 7 0 2 0;
#X connect 9 0 6 0;
#X connect 9 1 3 0;
#X connect 12 0 8 0;
#X restore 63 152 pd shift-keys;
#X obj 343 107 v octave-transpose;
#X text 495 106 transpose for internal keyboard;
#N canvas 150 175 627 419 octave-transpose 0;
#X obj 142 44 r shift-keys;
#X obj 142 68 stripnote;
#X obj 142 92 sel 13 15;
#X obj 358 202 expr if($f1 < 24 \, $f1 + 12 \, $f1);
#X obj 92 157 v octave-transpose;
#X obj 345 163 v octave-transpose;
#X obj 163 327 s octave-transpose;
#X obj 77 197 expr if($f1 > -24 \, $f1 - 12 \, $f1);
#X connect 0 0 1 0;
#X connect 1 0 2 0;
#X connect 2 0 4 0;
#X connect 2 1 5 0;
#X connect 3 0 6 0;
#X connect 4 0 7 0;
#X connect 5 0 3 0;
#X connect 7 0 6 0;
#X restore 197 84 pd octave-transpose;
#N canvas 179 204 450 300 pattern-select 0;
#X obj 108 40 r shift-keys;
#X obj 108 66 stripnote;
#X obj 109 96 sel 0 2 4 5 7 9, f 20;
#X msg 112 131 0;
#X msg 146 131 1;
#X msg 180 131 2;
#X msg 215 131 3;
#X msg 249 131 4;
#X msg 287 131 5;
#X obj 192 177 s pattern-select;
#X connect 0 0 1 0;
#X connect 1 0 2 0;
#X connect 2 0 3 0;
#X connect 2 1 4 0;
#X connect 2 2 5 0;
#X connect 2 3 6 0;
#X connect 2 4 7 0;
#X connect 2 5 8 0;
#X connect 3 0 9 0;
#X connect 4 0 9 0;
#X connect 5 0 9 0;
#X connect 6 0 9 0;
#X connect 7 0 9 0;
#X connect 8 0 9 0;
#X restore 195 110 pd pattern-select;
#X connect 1 0 3 0;
#X connect 2 0 3 1;
#X connect 5 0 26 0;
#X connect 6 0 5 0;
#X connect 7 0 10 0;
#X connect 8 0 5 3;
#X connect 10 0 8 0;
#X connect 11 0 25 0;
#X connect 12 0 24 1;
#X connect 13 0 5 2;
#X connect 13 0 29 0;
#X connect 14 0 5 2;
#X connect 14 0 29 0;
#X connect 15 0 5 2;
#X connect 15 0 29 0;
#X connect 16 0 5 2;
#X connect 16 0 29 0;
#X connect 17 0 5 2;
#X connect 17 0 29 0;
#X connect 18 0 24 1;
#X connect 19 0 13 0;
#X connect 19 1 18 0;
#X connect 20 0 14 0;
#X connect 20 1 18 0;
#X connect 21 0 15 0;
#X connect 21 1 18 0;
#X connect 22 0 16 0;
#X connect 22 1 18 0;
#X connect 23 0 17 0;
#X connect 23 1 18 0;
#X connect 24 0 26 0;
#X connect 24 1 5 1;
#X connect 25 0 31 0;
#X connect 26 0 0 0;
#X connect 27 0 28 0;
#X connect 29 0 27 0;
#X connect 30 0 27 0;
#X connect 31 0 12 0;
#X connect 31 0 30 0;
#X connect 31 1 19 0;
#X connect 31 2 20 0;
#X connect 31 3 21 0;
#X connect 31 4 22 0;
#X connect 31 5 23 0;
#X connect 33 0 24 0;
#X connect 35 0 33 0;
#X connect 35 0 24 0;
#X connect 36 0 37 0;
#X connect 37 0 41 0;
#X connect 38 0 35 1;
#X connect 39 0 40 0;
#X connect 40 0 38 0;
#X connect 41 0 38 0;
#X connect 43 0 50 0;
#X connect 44 0 59 0;
#X connect 45 0 49 0;
#X connect 45 1 46 0;
#X connect 46 0 44 1;
#X connect 49 0 44 0;
#X connect 50 0 51 0;
#X connect 50 1 48 0;
#X connect 51 0 45 0;
#X connect 65 0 66 0;
#X connect 66 0 67 0;
#X connect 68 0 75 0;
#X connect 75 0 35 0;
