#N canvas 171 60 1253 737 10;
#X declare -path lib;
#X declare -lib hcs;
#X obj 150 645 catch~ outL;
#X obj 233 647 catch~ outR;
#X obj 151 698 dac~;
#X obj 56 74 declare -path lib;
#N canvas 71 120 694 521 metronome 0;
#X obj 258 169 snapshot~;
#X obj 297 134 bang~;
#X obj 203 131 phasor~ 2;
#X obj 247 202 * 360;
#X obj 247 226 clockfix;
#X obj 292 289 s beat-clock;
#X obj 162 44 * 200;
#X obj 162 68 + 50;
#X obj 162 92 / 60;
#X obj 248 382 s arp-tick;
#X obj 231 331 sel 1 94 181 274;
#X obj 242 252 t a a;
#X obj 520 170 tgl 15 0 empty empty empty 17 7 0 10 #fcfcfc #000000
#000000 0 1;
#N canvas 162 161 1107 634 metro 0;
#X obj 212 537 outlet~;
#X obj 369 205 spigot 0;
#X obj 418 366 loadbang;
#X obj 475 40 inlet;
#X obj 291 33 inlet;
#X obj 203 415 tick metro1.wav \$1;
#X obj 210 472 *~ 0.2;
#X connect 1 0 5 0;
#X connect 2 0 5 1;
#X connect 3 0 1 1;
#X connect 4 0 1 0;
#X connect 5 0 6 0;
#X connect 6 0 0 0;
#X restore 496 362 pd metro;
#X obj 492 324 r qn;
#X obj 472 435 throw~ outL;
#X obj 559 438 throw~ outR;
#X obj 541 138 sel 18;
#X obj 540 112 stripnote;
#X obj 540 81 r shift-keys;
#X obj 162 20 r tempo-knob;
#X obj 49 137 s global-bpm;
#X obj 433 295 sel 0;
#X connect 0 0 3 0;
#X connect 1 0 0 0;
#X connect 2 0 0 0;
#X connect 3 0 4 0;
#X connect 4 0 11 0;
#X connect 4 0 22 0;
#X connect 6 0 7 0;
#X connect 7 0 8 0;
#X connect 7 0 21 0;
#X connect 8 0 2 0;
#X connect 10 0 9 0;
#X connect 10 1 9 0;
#X connect 10 2 9 0;
#X connect 10 3 9 0;
#X connect 11 0 10 0;
#X connect 11 1 5 0;
#X connect 12 0 13 1;
#X connect 13 0 15 0;
#X connect 13 0 16 0;
#X connect 14 0 13 0;
#X connect 17 0 12 0;
#X connect 18 0 17 0;
#X connect 19 0 18 0;
#X connect 20 0 6 0;
#X connect 22 0 13 0;
#X restore 314 121 pd metronome;
#N canvas 122 25 1239 770 sequecner 1;
#X msg 673 408 arm, f 4;
#X obj 254 422 seq-format-event note;
#N canvas 72 96 468 388 flush-stuck-notes 0;
#X obj 167 212 bag;
#X msg 203 161 flush;
#X msg 160 254 \$1 0;
#X obj 124 157 t a a;
#X obj 137 354 outlet;
#X obj 101 22 inlet;
#X obj 258 20 inlet;
#X obj 238 107 bang;
#X obj 114 102 route note;
#X obj 248 61 route end stop;
#X connect 0 0 2 0;
#X connect 1 0 0 0;
#X connect 2 0 4 0;
#X connect 3 0 4 0;
#X connect 3 1 0 0;
#X connect 5 0 8 0;
#X connect 6 0 9 0;
#X connect 7 0 1 0;
#X connect 8 0 3 0;
#X connect 9 0 7 0;
#X connect 9 1 7 0;
#X restore 186 565 pd flush-stuck-notes;
#X obj 22 237 r beat-clock;
#X obj 190 484 seq \$1, f 28;
#X obj 23 281 t f f;
#X obj 601 -139 r shift-keys;
#X obj 406 611 change -1;
#X msg 390 561 1;
#X msg 493 567 3;
#X msg 540 569 0;
#X obj 394 523 route rec arm play play-sync stop;
#X msg 445 556 6;
#X obj 71 -19 inlet;
#X obj 199 649 outlet;
#X obj 241 224 stripnote;
#X obj 254 398 spigot 0;
#N canvas 510 246 450 300 once 0;
#X obj 114 61 inlet;
#X obj 203 37 inlet;
#X obj 114 215 outlet;
#X obj 114 137 == 1;
#X obj 114 115 i 0;
#X obj 114 162 sel 1;
#X obj 114 184 t b b;
#X msg 206 152 0;
#X msg 203 62 1;
#X text 252 38 reset;
#X connect 0 0 4 0;
#X connect 1 0 8 0;
#X connect 3 0 5 0;
#X connect 4 0 3 0;
#X connect 5 0 6 0;
#X connect 6 0 2 0;
#X connect 6 1 7 0;
#X connect 7 0 4 1;
#X connect 8 0 4 1;
#X restore 241 281 pd once;
#X obj 241 251 t b;
#X msg 242 310 1;
#X obj 111 100 t a a;
#X text 205 149 only start with a note on;
#X obj 680 161 t b b b;
#X msg 323 305 0;
#X text 495 649 states are: 0 = stopped \, 3 = playing \, 6 = rec enabled
\, 1 = recording, f 70;
#X obj 409 282 v seq-state;
#X msg 447 409 play-sync;
#X msg 417 374 stop;
#X text 493 252 states are: 0 = stopped \, 3 = playing \, 6 = rec enabled
\, 1 = recording, f 12;
#X obj 498 372 t b b;
#X obj 535 408 s seq-before-play;
#X obj 683 106 f;
#X obj 683 -4 t f f;
#X obj 683 78 del 500;
#X obj 667 43 sel 1;
#X obj 682 132 sel 1;
#X obj 747 -14 r shift;
#X msg 747 42 stop;
#X obj 747 16 sel 0;
#X text 818 28 press and hold arms it. shift release cancles this,
f 25;
#X obj 612 -77 > 0;
#X obj 928 211 v seq-state;
#X obj 924 247 sel 6;
#X obj 929 152 r shift;
#X obj 929 182 sel 1;
#X text 919 121 pressing shift disamrs;
#X obj 628 54 i;
#X obj 598 -5 r shift;
#X obj 598 25 sel 0;
#X obj 525 21 sel 0;
#X text 684 -93 the seq control button;
#X obj 613 80 sel 1;
#X msg 591 110 0;
#X obj 402 650 s seq-state;
#X obj 611 -104 route 1;
#X obj 385 35 r shift;
#X obj 385 58 sel 1;
#X obj 385 83 v seq-state;
#X obj 384 111 sel 1;
#X obj 396 323 sel 0 3;
#X text 294 7 shift pressed while recording;
#X obj 618 -52 t f f f;
#X text 567 48 if you release shift first.., f 11;
#X obj 590 140 t b f;
#X connect 0 0 4 3;
#X connect 1 0 4 2;
#X connect 2 0 14 0;
#X connect 3 0 5 0;
#X connect 4 0 2 0;
#X connect 4 1 2 1;
#X connect 4 1 11 0;
#X connect 5 0 4 0;
#X connect 5 1 4 1;
#X connect 6 0 54 0;
#X connect 7 0 53 0;
#X connect 8 0 7 0;
#X connect 9 0 7 0;
#X connect 10 0 7 0;
#X connect 11 0 8 0;
#X connect 11 1 12 0;
#X connect 11 2 9 0;
#X connect 11 3 9 0;
#X connect 11 4 10 0;
#X connect 12 0 7 0;
#X connect 13 0 20 0;
#X connect 15 0 18 0;
#X connect 16 0 1 0;
#X connect 17 0 19 0;
#X connect 18 0 17 0;
#X connect 19 0 16 1;
#X connect 20 0 16 0;
#X connect 20 1 15 0;
#X connect 22 0 23 0;
#X connect 22 1 17 1;
#X connect 22 2 0 0;
#X connect 23 0 16 1;
#X connect 25 0 59 0;
#X connect 26 0 4 3;
#X connect 27 0 4 3;
#X connect 29 0 26 0;
#X connect 29 1 30 0;
#X connect 31 0 35 0;
#X connect 32 0 34 0;
#X connect 32 1 31 1;
#X connect 33 0 31 0;
#X connect 34 0 33 0;
#X connect 35 0 22 0;
#X connect 36 0 38 0;
#X connect 37 0 33 0;
#X connect 38 0 37 0;
#X connect 40 0 61 0;
#X connect 41 0 42 0;
#X connect 42 0 27 0;
#X connect 43 0 44 0;
#X connect 44 0 41 0;
#X connect 46 0 51 0;
#X connect 47 0 48 0;
#X connect 48 0 46 0;
#X connect 49 0 25 0;
#X connect 51 0 52 0;
#X connect 52 0 63 0;
#X connect 54 0 40 0;
#X connect 55 0 56 0;
#X connect 56 0 57 0;
#X connect 57 0 58 0;
#X connect 58 0 29 0;
#X connect 59 0 29 0;
#X connect 59 1 27 0;
#X connect 61 0 49 0;
#X connect 61 1 46 1;
#X connect 61 2 32 0;
#X connect 63 0 25 0;
#X connect 63 1 46 1;
#X restore 199 440 pd sequecner;
#N canvas 82 143 810 356 init 0;
#X msg 164 120 \; pd dsp 1;
#X msg 242 152 1;
#X obj 212 228 s set-pattern-num;
#X obj 244 208 s set-synth-num;
#X obj 277 175 s latch-state;
#X msg 275 153 0;
#X obj 650 102 s osc-init;
#X obj 259 32 t b b b b b b;
#X obj 633 129 s load-synths;
#X obj 261 3 loadbang;
#X obj 518 165 s load-patterns;
#X connect 1 0 2 0;
#X connect 1 0 3 0;
#X connect 5 0 4 0;
#X connect 7 0 0 0;
#X connect 7 1 1 0;
#X connect 7 2 5 0;
#X connect 7 3 10 0;
#X connect 7 4 8 0;
#X connect 7 5 6 0;
#X connect 9 0 7 0;
#X restore 314 45 pd init;
#X obj 158 378 cg-latch;
#X obj 55 49 declare -lib hcs;
#X obj 591 47 v synth-num;
#X obj 591 69 v pattern-num;
#X obj 591 94 v seq-state;
#X obj 591 119 v latch-state;
#N canvas 29 334 1181 429 leds 0;
#X obj 686 58 array define led1 3;
#X obj 686 80 array define led2 3;
#X obj 686 103 array define led3 3;
#N canvas 128 142 991 503 test 0;
#X obj 376 314 s oscOut;
#X obj 385 161 random 255;
#X obj 454 161 random 255;
#X obj 522 161 random 255;
#X obj 400 184 random 255;
#X obj 469 184 random 255;
#X obj 537 184 random 255;
#X obj 425 207 random 255;
#X obj 494 207 random 255;
#X obj 562 207 random 255;
#X obj 368 43 metro 250;
#X obj 384 89 t b b b b b b b b b, f 53;
#X obj 385 254 pack 0 0 0 0 0 0 0 0 0;
#X msg 377 293 send /leds \$1 \$2 \$3 \$4 \$5 \$6 \$7 \$8 \$9, f 65
;
#X connect 1 0 12 0;
#X connect 2 0 12 3;
#X connect 3 0 12 6;
#X connect 4 0 12 1;
#X connect 5 0 12 4;
#X connect 6 0 12 7;
#X connect 7 0 12 2;
#X connect 8 0 12 5;
#X connect 9 0 12 8;
#X connect 11 0 1 0;
#X connect 11 1 4 0;
#X connect 11 2 7 0;
#X connect 11 3 2 0;
#X connect 11 4 5 0;
#X connect 11 5 8 0;
#X connect 11 6 3 0;
#X connect 11 7 6 0;
#X connect 11 8 9 0;
#X connect 12 0 13 0;
#X connect 13 0 0 0;
#X restore 831 99 pd test;
#X obj 818 131 r led-flip;
#X obj 661 215 array get led1;
#X obj 818 152 t b b b b b;
#X obj 759 216 array get led2;
#X obj 861 215 array get led3;
#X obj 660 242 unpack 0 0 0;
#X obj 759 242 unpack 0 0 0;
#X obj 861 241 unpack 0 0 0;
#X obj 662 327 s oscOut;
#N canvas 585 50 450 300 ledall 0;
#X obj 64 37 r ledall;
#X obj 64 65 t a a a a a, f 32;
#X obj 27 110 s led1-set;
#X obj 102 109 s led2-set;
#X obj 177 116 s led3-set;
#X obj 254 113 s led4-set;
#X obj 331 115 s led5-set;
#X connect 0 0 1 0;
#X connect 1 0 2 0;
#X connect 1 1 3 0;
#X connect 1 2 4 0;
#X connect 1 3 5 0;
#X connect 1 4 6 0;
#X restore 828 72 pd ledall;
#X obj 927 85 array set led1;
#X obj 927 62 r led1-set;
#X obj 928 104 r led2-set;
#X obj 928 127 array set led2;
#X obj 927 148 r led3-set;
#X obj 927 171 array set led3;
#X msg 658 298 send /leds \$1 \$2 \$3 \$4 \$5 \$6 \$7 \$8 \$9, f 65
;
#X obj 659 274 pack 0 0 0 0 0 0 0 0 0, f 43;
#N canvas 62 44 688 318 synth-leds 0;
#X obj 112 34 r synth-num;
#X obj 112 62 t b f;
#X obj 129 233 s led3-set;
#X obj 202 231 s led3-set;
#X obj 275 227 s led3-set;
#X obj 349 230 s led3-set;
#X obj 426 230 s led3-set;
#X obj 506 233 s led3-set;
#X msg 129 211 10 0 0;
#X msg 202 209 10 10 0;
#X msg 275 205 0 10 0;
#X msg 349 208 0 10 10;
#X msg 426 208 0 0 10;
#X msg 506 211 10 0 10;
#X obj 55 234 s led-flip;
#X obj 140 112 sel 1 2 3 4 5 6, f 44;
#X connect 0 0 1 0;
#X connect 1 0 14 0;
#X connect 1 1 15 0;
#X connect 8 0 2 0;
#X connect 9 0 3 0;
#X connect 10 0 4 0;
#X connect 11 0 5 0;
#X connect 12 0 6 0;
#X connect 13 0 7 0;
#X connect 15 0 8 0;
#X connect 15 1 9 0;
#X connect 15 2 10 0;
#X connect 15 3 11 0;
#X connect 15 4 12 0;
#X connect 15 5 13 0;
#X restore 106 49 pd synth-leds;
#N canvas 62 44 688 318 pattern-leds 0;
#X obj 112 62 t b f;
#X msg 129 211 10 0 0;
#X msg 202 209 10 10 0;
#X msg 275 205 0 10 0;
#X msg 349 208 0 10 10;
#X msg 426 208 0 0 10;
#X msg 506 211 10 0 10;
#X obj 55 234 s led-flip;
#X obj 140 112 sel 1 2 3 4 5 6, f 44;
#X obj 129 233 s led2-set;
#X obj 202 231 s led2-set;
#X obj 275 227 s led2-set;
#X obj 349 230 s led2-set;
#X obj 426 230 s led2-set;
#X obj 506 233 s led2-set;
#X obj 112 34 r pattern-num;
#X connect 0 0 7 0;
#X connect 0 1 8 0;
#X connect 1 0 9 0;
#X connect 2 0 10 0;
#X connect 3 0 11 0;
#X connect 4 0 12 0;
#X connect 5 0 13 0;
#X connect 6 0 14 0;
#X connect 8 0 1 0;
#X connect 8 1 2 0;
#X connect 8 2 3 0;
#X connect 8 3 4 0;
#X connect 8 4 5 0;
#X connect 8 5 6 0;
#X connect 15 0 0 0;
#X restore 106 77 pd pattern-leds;
#N canvas 108 101 688 318 seq-leds 0;
#X obj 112 62 t b f;
#X obj 55 234 s led-flip;
#X obj 112 34 r seq-state;
#X obj 140 112 sel 0 3 6 1, f 44;
#X obj 129 233 s led1-set;
#X obj 202 231 s led1-set;
#X obj 275 227 s led1-set;
#X obj 349 230 s led1-set;
#X msg 129 210 0 0 0;
#X msg 202 209 0 100 0;
#X msg 275 205 50 0 50;
#X msg 349 208 100 0 0;
#X obj 437 79 sel 0;
#X obj 430 44 r beat-clock;
#X text 538 41 tick the arps 1 tick late to ensure seq starts first
;
#X obj 495 180 v seq-state;
#X text 587 177 seq-state are led colors;
#X obj 495 125 delay 25;
#X obj 443 125 t b b;
#X obj 466 253 s led1-set;
#X msg 466 231 100 100 100;
#X obj 429 276 s led-flip;
#X connect 0 0 1 0;
#X connect 0 1 3 0;
#X connect 2 0 0 0;
#X connect 3 0 8 0;
#X connect 3 1 9 0;
#X connect 3 2 10 0;
#X connect 3 3 11 0;
#X connect 8 0 4 0;
#X connect 9 0 5 0;
#X connect 10 0 6 0;
#X connect 11 0 7 0;
#X connect 12 0 17 0;
#X connect 12 0 18 0;
#X connect 13 0 12 0;
#X connect 15 0 0 0;
#X connect 17 0 15 0;
#X connect 18 0 21 0;
#X connect 18 1 20 0;
#X connect 20 0 19 0;
#X restore 106 25 pd seq-leds;
#X connect 4 0 6 0;
#X connect 5 0 9 0;
#X connect 6 0 5 0;
#X connect 6 1 7 0;
#X connect 6 2 8 0;
#X connect 7 0 10 0;
#X connect 8 0 11 0;
#X connect 9 0 21 0;
#X connect 9 1 21 1;
#X connect 9 2 21 2;
#X connect 10 0 21 3;
#X connect 10 1 21 4;
#X connect 10 2 21 5;
#X connect 11 0 21 6;
#X connect 11 1 21 7;
#X connect 11 2 21 8;
#X connect 15 0 14 0;
#X connect 16 0 17 0;
#X connect 18 0 19 0;
#X connect 20 0 12 0;
#X connect 21 0 20 0;
#X restore 315 96 pd leds;
#N canvas 328 174 667 525 synth-select 0;
#X obj 66 37 stripnote;
#X obj 66 13 r shift-keys;
#X obj 65 82 sel 11 12 14 16 17 19, f 26;
#X text 281 199 speed limit 20 ms to allow for fade out/in;
#X msg 79 125 1, f 2;
#X msg 115 124 2, f 2;
#X msg 156 126 3, f 2;
#X msg 199 125 4, f 2;
#X msg 233 124 5, f 2;
#X msg 280 125 6, f 2;
#N canvas 133 296 450 344 20ms-speed-limit 0;
#X msg 91 120 1;
#X obj 85 180 spigot 1;
#X msg 159 118 0;
#X obj 92 95 delay 20;
#X obj 45 27 inlet;
#X obj 139 55 t b b;
#X obj 71 242 t f b;
#X obj 62 277 outlet;
#X connect 0 0 1 1;
#X connect 1 0 6 0;
#X connect 2 0 1 1;
#X connect 3 0 0 0;
#X connect 4 0 1 0;
#X connect 5 0 3 0;
#X connect 5 1 2 0;
#X connect 6 0 7 0;
#X connect 6 1 5 0;
#X restore 129 198 pd 20ms-speed-limit;
#X obj 92 344 delay 10;
#X msg 111 438 1;
#X obj 115 380 f;
#X obj 147 315 t b f;
#X obj 111 465 s, f 10;
#X obj 141 404 t b f;
#X obj 192 296 s synth-num;
#X text 445 289 turn off with fadeout;
#X obj 301 290 s synth-disable-all;
#X text 177 345 enable after 10ms for fade out;
#X msg 191 427 symbol s\$1-enable;
#X obj 151 240 t f f b;
#X obj 349 134 r set-synth-num;
#X connect 0 0 2 0;
#X connect 1 0 0 0;
#X connect 2 0 4 0;
#X connect 2 1 5 0;
#X connect 2 2 6 0;
#X connect 2 3 7 0;
#X connect 2 4 8 0;
#X connect 2 5 9 0;
#X connect 4 0 10 0;
#X connect 5 0 10 0;
#X connect 6 0 10 0;
#X connect 7 0 10 0;
#X connect 8 0 10 0;
#X connect 9 0 10 0;
#X connect 10 0 22 0;
#X connect 11 0 13 0;
#X connect 12 0 15 0;
#X connect 13 0 16 0;
#X connect 14 0 11 0;
#X connect 14 1 13 1;
#X connect 16 0 12 0;
#X connect 16 1 21 0;
#X connect 21 0 15 1;
#X connect 22 0 14 0;
#X connect 22 1 17 0;
#X connect 22 2 19 0;
#X connect 23 0 10 0;
#X restore 312 171 pd synth-select;
#X obj 129 296 r keys;
#N canvas 183 110 990 393 oscio 0;
#X obj 70 209 udpsend;
#X obj 95 174 packOSC;
#X obj 252 154 udpreceive;
#X obj 252 176 unpackOSC;
#X obj 252 204 s oscIn;
#X obj 92 145 r oscOut;
#X msg 70 119 connect localhost 4001;
#X msg 252 124 port 4000;
#X msg 12 66 connect 192.168.1.129 4001;
#X msg 161 183 disconnect;
#X obj 61 235 sel 1;
#X obj 45 262 s net-connected;
#X obj 417 50 r oscIn;
#X obj 575 206 / 255;
#X obj 634 205 / 255;
#X obj 694 201 / 255;
#X obj 755 200 / 255;
#X obj 576 160 unpack 0 0 0 0, f 26;
#X obj 733 124 s shift;
#X obj 634 236 s knob1;
#X obj 694 233 s knob2;
#X obj 755 235 s knob3;
#X obj 417 132 s keys;
#X obj 417 89 routeOSC /key /knobs /shift, f 68;
#X obj 548 235 s tempo-knob;
#X obj 181 30 r osc-init, f 11;
#X connect 0 0 10 0;
#X connect 1 0 0 0;
#X connect 2 0 3 0;
#X connect 3 0 4 0;
#X connect 5 0 1 0;
#X connect 6 0 0 0;
#X connect 7 0 2 0;
#X connect 8 0 0 0;
#X connect 9 0 0 0;
#X connect 10 0 11 0;
#X connect 12 0 23 0;
#X connect 13 0 24 0;
#X connect 14 0 19 0;
#X connect 15 0 20 0;
#X connect 16 0 21 0;
#X connect 17 0 13 0;
#X connect 17 1 14 0;
#X connect 17 2 15 0;
#X connect 17 3 16 0;
#X connect 23 0 22 0;
#X connect 23 1 17 0;
#X connect 23 2 18 0;
#X connect 25 0 6 0;
#X connect 25 0 7 0;
#X restore 315 70 pd oscio;
#X obj 590 143 v click-state;
#X text 694 47 the currently selected synth;
#X text 696 69 the currently selected pattern gen;
#X text 700 121 1 = latch mode on \, 0 = off;
#X text 700 145 1 = metronome click on \, 0 = off;
#N canvas 162 204 615 422 shift-keys 0;
#X obj 187 52 r shift;
#X obj 202 204 s shift-keys;
#N canvas 72 279 450 300 switch 0;
#X obj 226 121 ==;
#X obj 93 183 spigot 1;
#X obj 164 182 spigot 0;
#X obj 248 91 t f f;
#X obj 86 39 inlet;
#X obj 87 235 outlet;
#X obj 174 224 outlet;
#X obj 289 42 inlet;
#X connect 0 0 1 1;
#X connect 1 0 5 0;
#X connect 2 0 6 0;
#X connect 3 0 0 0;
#X connect 3 1 2 1;
#X connect 4 0 1 0;
#X connect 4 0 2 0;
#X connect 7 0 3 0;
#X restore 117 115 pd switch;
#X obj 141 282 bag;
#X msg 219 121 flush;
#X obj 187 84 t f b;
#X obj 141 310 pack 0 0;
#X obj 128 15 inlet;
#X obj 126 385 outlet;
#X obj 110 146 t a a;
#X text 256 81 route keys depending on shift key;
#X text 193 282 cancel any keys playing upon shift;
#N canvas 92 117 450 300 transpose-keys 0;
#X obj 130 60 unpack 0 0;
#X obj 129 125 pack, f 9;
#X obj 197 91 * 100;
#X obj 128 93 + 48;
#X obj 144 23 inlet;
#X obj 131 168 outlet;
#X connect 0 0 3 0;
#X connect 0 1 2 0;
#X connect 1 0 5 0;
#X connect 2 0 1 1;
#X connect 3 0 1 0;
#X connect 4 0 0 0;
#X restore 126 350 pd transpose-keys;
#X text 262 348 internal keys are 0-19;
#X msg 40 56 1 1;
#X connect 0 0 5 0;
#X connect 2 0 9 0;
#X connect 2 1 1 0;
#X connect 3 0 6 0;
#X connect 4 0 3 0;
#X connect 5 0 2 1;
#X connect 5 1 4 0;
#X connect 6 0 12 0;
#X connect 7 0 2 0;
#X connect 9 0 12 0;
#X connect 9 1 3 0;
#X connect 12 0 8 0;
#X connect 14 0 2 0;
#X restore 129 321 pd shift-keys;
#X obj 589 168 v octave-transpose;
#X text 721 169 transpose for internal keyboard;
#N canvas 150 175 627 419 octave-transpose 0;
#X obj 142 44 r shift-keys;
#X obj 142 68 stripnote;
#X obj 142 92 sel 13 15;
#X obj 358 202 expr if($f1 < 24 \, $f1 + 12 \, $f1);
#X obj 92 157 v octave-transpose;
#X obj 345 163 v octave-transpose;
#X obj 163 327 s octave-transpose;
#X obj 77 197 expr if($f1 > -24 \, $f1 - 12 \, $f1);
#X connect 0 0 1 0;
#X connect 1 0 2 0;
#X connect 2 0 4 0;
#X connect 2 1 5 0;
#X connect 3 0 6 0;
#X connect 4 0 7 0;
#X connect 5 0 3 0;
#X connect 7 0 6 0;
#X restore 313 198 pd octave-transpose;
#X text 706 91 0 = stopped \, 3 = playing \, 6 = rec enabled \, 1 =
recording, f 79;
#N canvas 328 174 667 525 pattern-select 0;
#X obj 66 37 stripnote;
#X obj 66 13 r shift-keys;
#X msg 79 125 1, f 2;
#X msg 115 124 2, f 2;
#X msg 156 126 3, f 2;
#X msg 199 125 4, f 2;
#X msg 233 124 5, f 2;
#X msg 280 125 6, f 2;
#X msg 111 438 1;
#X obj 111 465 s, f 10;
#X obj 141 404 t b f;
#X text 445 289 turn off with fadeout;
#X obj 148 244 t f f b;
#X obj 65 82 sel 0 2 4 5 7 9, f 26;
#X obj 301 290 s pattern-disable-all;
#X obj 192 296 s pattern-num;
#X msg 191 427 symbol p\$1-enable;
#X obj 364 109 r set-pattern-num;
#X connect 0 0 13 0;
#X connect 1 0 0 0;
#X connect 2 0 12 0;
#X connect 3 0 12 0;
#X connect 4 0 12 0;
#X connect 5 0 12 0;
#X connect 6 0 12 0;
#X connect 7 0 12 0;
#X connect 8 0 9 0;
#X connect 10 0 8 0;
#X connect 10 1 16 0;
#X connect 12 0 10 0;
#X connect 12 1 15 0;
#X connect 12 2 14 0;
#X connect 13 0 2 0;
#X connect 13 1 3 0;
#X connect 13 2 4 0;
#X connect 13 3 5 0;
#X connect 13 4 6 0;
#X connect 13 5 7 0;
#X connect 16 0 9 1;
#X connect 17 0 12 0;
#X restore 313 145 pd pattern-select;
#X obj 152 484 s notes-to-pattern;
#X obj 149 527 r notes-from-pattern;
#X obj 149 598 s notes-to-synth;
#X obj 223 324 r latch-state;
#N canvas 162 265 342 526 octave-transpose 0;
#X obj 86 39 inlet;
#X obj 71 459 outlet;
#X obj 151 155 bag;
#X obj 149 186 pack 0 0;
#X obj 168 42 r octave-transpose;
#X obj 98 220 unpack;
#X obj 87 272 + 0;
#X obj 146 88 t f b;
#X obj 58 345 pack 0 0;
#X msg 170 119 flush;
#X connect 0 0 5 0;
#X connect 0 0 2 0;
#X connect 2 0 3 0;
#X connect 3 0 5 0;
#X connect 4 0 7 0;
#X connect 5 0 6 0;
#X connect 5 1 8 1;
#X connect 6 0 8 0;
#X connect 7 0 6 1;
#X connect 7 1 9 0;
#X connect 8 0 1 0;
#X connect 9 0 2 0;
#X restore 161 407 pd octave-transpose;
#N canvas 290 25 702 698 auto-load-synths 0;
#X obj 219 438 spigot 1;
#X obj 292 470 i 0;
#X obj 401 369 i 1;
#X obj 286 586 symbol s1;
#X msg 322 155 \; pd-load-synths-here clear;
#X obj 219 183 t a b;
#X obj 219 213 max 1;
#X obj 219 237 until;
#X obj 219 157 i 6;
#X obj 219 261 i;
#X obj 277 261 + 1;
#X obj 219 302 t a a b, f 26;
#X obj 346 554 makefilename s%d;
#X obj 358 490 t a a;
#X obj 281 223 i 1;
#X obj 219 522 t a b b;
#X obj 252 560 * 50;
#X obj 219 613 pack s 0 s;
#X obj 219 332 makefilename synths/%d*;
#X obj 219 91 t b b;
#X obj 184 15 bng 15 250 50 0 empty empty empty 17 7 0 10 #fcfcfc #000000
#000000;
#X obj 218 17 r load-synths;
#X obj 107 577 print loading;
#X obj 219 364 folder_list;
#X obj 184 58 t b b;
#X obj 61 100 t b b b b b b;
#X obj 105 270 s loadbang-s1;
#X obj 73 220 s loadbang-s3;
#X obj 53 198 s loadbang-s4;
#X obj 37 172 s loadbang-s5;
#X obj 23 149 s loadbang-s6;
#X obj 88 245 s loadbang-s2;
#X msg 219 647 \; pd-load-synths-here obj 10 \$2 synth-slot \$3 \$1/module
;
#X connect 0 0 15 0;
#X connect 1 0 0 1;
#X connect 2 0 0 1;
#X connect 3 0 17 2;
#X connect 5 0 6 0;
#X connect 5 1 14 0;
#X connect 6 0 7 0;
#X connect 7 0 9 0;
#X connect 8 0 5 0;
#X connect 9 0 10 0;
#X connect 9 0 11 0;
#X connect 10 0 9 1;
#X connect 11 0 18 0;
#X connect 11 1 13 0;
#X connect 11 2 2 0;
#X connect 12 0 3 1;
#X connect 13 0 16 0;
#X connect 13 1 12 0;
#X connect 14 0 9 1;
#X connect 15 0 17 0;
#X connect 15 0 22 0;
#X connect 15 1 3 0;
#X connect 15 2 1 0;
#X connect 16 0 17 1;
#X connect 17 0 32 0;
#X connect 18 0 23 0;
#X connect 19 0 8 0;
#X connect 19 1 4 0;
#X connect 20 0 24 0;
#X connect 21 0 24 0;
#X connect 23 0 0 0;
#X connect 24 0 25 0;
#X connect 24 1 19 0;
#X connect 25 0 30 0;
#X connect 25 1 29 0;
#X connect 25 2 28 0;
#X connect 25 3 27 0;
#X connect 25 4 31 0;
#X connect 25 5 26 0;
#X restore 58 105 pd auto-load-synths;
#N canvas 150 175 450 300 load-synths-here 0;
#X restore 57 130 pd load-synths-here;
#N canvas 290 25 733 686 auto-load-patterns 0;
#X obj 280 426 spigot 1;
#X obj 353 458 i 0;
#X obj 462 357 i 1;
#X obj 347 574 symbol s1;
#X obj 280 171 t a b;
#X obj 280 201 max 1;
#X obj 280 225 until;
#X obj 280 145 i 6;
#X obj 280 249 i;
#X obj 338 249 + 1;
#X obj 280 290 t a a b, f 26;
#X obj 419 478 t a a;
#X obj 342 211 i 1;
#X obj 280 510 t a b b;
#X obj 313 548 * 50;
#X obj 280 601 pack s 0 s;
#X obj 280 79 t b b;
#X obj 280 352 folder_list;
#X obj 407 542 makefilename p%d;
#X obj 280 320 makefilename patterns/%d*;
#X msg 383 143 \; pd-load-patterns-here clear;
#X obj 192 575 print loading;
#X obj 194 9 r load-patterns;
#X obj 194 33 t b b;
#X obj 71 75 t b b b b b b;
#X obj 33 124 s loadbang-p6;
#X obj 47 147 s loadbang-p5;
#X obj 115 245 s loadbang-p1;
#X obj 98 220 s loadbang-p2;
#X obj 83 195 s loadbang-p3;
#X obj 63 173 s loadbang-p4;
#X msg 280 635 \; pd-load-patterns-here obj 10 \$2 pattern-slot \$3
\$1/module;
#X connect 0 0 13 0;
#X connect 1 0 0 1;
#X connect 2 0 0 1;
#X connect 3 0 15 2;
#X connect 4 0 5 0;
#X connect 4 1 12 0;
#X connect 5 0 6 0;
#X connect 6 0 8 0;
#X connect 7 0 4 0;
#X connect 8 0 9 0;
#X connect 8 0 10 0;
#X connect 9 0 8 1;
#X connect 10 0 19 0;
#X connect 10 1 11 0;
#X connect 10 2 2 0;
#X connect 11 0 14 0;
#X connect 11 1 18 0;
#X connect 12 0 8 1;
#X connect 13 0 15 0;
#X connect 13 0 21 0;
#X connect 13 1 3 0;
#X connect 13 2 1 0;
#X connect 14 0 15 1;
#X connect 15 0 31 0;
#X connect 16 0 7 0;
#X connect 16 1 20 0;
#X connect 17 0 0 0;
#X connect 18 0 3 1;
#X connect 19 0 17 0;
#X connect 22 0 23 0;
#X connect 23 0 24 0;
#X connect 23 1 16 0;
#X connect 24 0 25 0;
#X connect 24 1 26 0;
#X connect 24 2 30 0;
#X connect 24 3 29 0;
#X connect 24 4 28 0;
#X connect 24 5 27 0;
#X restore 59 159 pd auto-load-patterns;
#N canvas 150 175 450 300 load-patterns-here 0;
#X restore 58 184 pd load-patterns-here;
#N canvas 63 88 642 303 latch-control 0;
#X obj 121 37 r shift-keys;
#X obj 121 61 stripnote;
#X obj 214 137 r seq-before-play;
#X msg 222 166 0;
#X obj 121 85 sel 3;
#X obj 121 110 v latch-state;
#X obj 129 137 sel 0 1;
#X msg 125 162 1;
#X msg 159 164 0;
#X obj 126 195 s latch-state;
#X text 273 158 disable latch when playing seq;
#X connect 0 0 1 0;
#X connect 1 0 4 0;
#X connect 2 0 3 0;
#X connect 3 0 9 0;
#X connect 4 0 5 0;
#X connect 5 0 6 0;
#X connect 6 0 7 0;
#X connect 6 1 8 0;
#X connect 7 0 9 0;
#X connect 8 0 9 0;
#X restore 314 224 pd latch-control;
#X text 620 15 globals;
#X text 156 503 pattern gen modules \, notes in notes out;
#X text 146 623 synth modules \, notes in sound out;
#X connect 0 0 2 0;
#X connect 1 0 2 1;
#X connect 5 0 28 0;
#X connect 7 0 32 0;
#X connect 15 0 22 0;
#X connect 22 0 7 0;
#X connect 29 0 30 0;
#X connect 31 0 7 1;
#X connect 32 0 5 0;
#X connect 32 0 28 0;
