#N canvas 242 25 1131 748 10;
#X declare -path lib;
#X declare -lib hcs;
#X obj 150 645 catch~ outL;
#X obj 233 647 catch~ outR;
#X obj 151 698 dac~;
#X obj 56 74 declare -path lib;
#N canvas 71 120 1317 630 metronome 0;
#X obj 314 248 snapshot~;
#X obj 353 213 bang~;
#X obj 259 210 phasor~ 2;
#X obj 218 123 * 200;
#X obj 218 147 + 50;
#X obj 218 171 / 60;
#X obj 218 99 r tempo-knob;
#X obj 82 345 s global-bpm;
#X obj 312 362 * 360;
#X obj 312 384 i;
#N canvas 303 750 292 294 mstobpm 0;
#X obj 46 14 inlet;
#X obj 47 248 outlet;
#X obj 46 108 t b b;
#X obj 46 79 sel 0;
#X text 87 47 time 16th notes;
#X obj 46 145 timer;
#X obj 46 46 % 12;
#X obj 46 182 expr 30000 / $f1;
#X connect 0 0 6 0;
#X connect 2 0 5 0;
#X connect 2 1 5 1;
#X connect 3 0 2 0;
#X connect 5 0 7 0;
#X connect 6 0 3 0;
#X connect 7 0 1 0;
#X restore 658 576 pd mstobpm;
#X obj 704 628 r midi-clock-present;
#X obj 658 656 spigot 0;
#N canvas 465 190 616 494 average-bpm 0;
#X obj 98 20 inlet;
#X obj 360 226 + 1;
#X obj 251 189 t a b;
#X obj 330 224 f 0;
#X obj 48 185 array sum \$0-bpm-mean;
#X obj 98 42 t b a;
#X obj 48 229 + 0.499999;
#X obj 48 251 i;
#X obj 48 273 outlet;
#X obj 284 11 loadbang;
#X msg 284 33 const 120;
#X obj 251 280 array set \$0-bpm-mean 5;
#X obj 48 207 / 5;
#X obj 330 246 % 5;
#X obj 284 58 array define -k \$0-bpm-mean 5;
#A 0 120 120 120 120 120;
#X connect 0 0 5 0;
#X connect 1 0 3 1;
#X connect 2 0 11 0;
#X connect 2 1 3 0;
#X connect 3 0 1 0;
#X connect 3 0 13 0;
#X connect 4 0 12 0;
#X connect 5 0 4 0;
#X connect 5 1 2 0;
#X connect 6 0 7 0;
#X connect 7 0 8 0;
#X connect 9 0 10 0;
#X connect 10 0 14 0;
#X connect 12 0 6 0;
#X connect 13 0 11 1;
#X restore 658 599 pd average-bpm;
#X obj 995 175 delay 1000;
#X msg 922 194 1;
#X obj 836 120 t b b b b, f 25;
#X msg 995 150 stop;
#X msg 982 201 0;
#X obj 1008 295 s midi-clock-present;
#X obj 828 297 spigot 0;
#X obj 831 515 spigot 0;
#X obj 393 303 ==;
#X obj 394 277 r midi-clock-present;
#X obj 312 328 spigot 1, f 12;
#X obj 656 682 change -1;
#X obj 827 405 t f f;
#X obj 317 582 t f f;
#X obj 349 605 % 15;
#X obj 349 627 sel 0;
#X msg 895 317 0;
#X obj 858 459 midiclocker;
#X text 936 459 24 ppq in \, 360 ppq out;
#N canvas 0 23 450 300 count24 0;
#X obj 163 87 i;
#X obj 266 210 + 1;
#X obj 159 132 t f f;
#X obj 246 173 sel 23;
#X msg 207 210 0;
#X obj 131 244 outlet;
#X obj 125 40 inlet;
#X obj 251 34 inlet;
#X connect 0 0 2 0;
#X connect 1 0 0 1;
#X connect 2 0 5 0;
#X connect 2 1 3 0;
#X connect 3 0 4 0;
#X connect 3 1 1 0;
#X connect 4 0 0 1;
#X connect 6 0 0 0;
#X connect 7 0 0 1;
#X restore 828 346 pd count24;
#X obj 938 248 t a a;
#X obj 895 295 r midi-start-in;
#X obj 837 88 r midi-clock-in;
#X obj 317 682 s beat-clock;
#X obj 894 493 r midi-clock-present;
#X obj 349 649 s midi-clock-out;
#X obj 659 707 s global-bpm;
#X obj 165 281 ==;
#X obj 166 255 r midi-clock-present;
#X obj 84 306 spigot 1, f 12;
#X text 207 55 internal clock;
#X text 844 65 midi clock;
#X obj 311 427 clockfill;
#X obj 519 359 print CLOCKSTATUS;
#X obj 500 324 change;
#X connect 0 0 24 0;
#X connect 1 0 0 0;
#X connect 2 0 0 0;
#X connect 3 0 4 0;
#X connect 4 0 5 0;
#X connect 4 0 43 0;
#X connect 5 0 2 0;
#X connect 6 0 3 0;
#X connect 8 0 9 0;
#X connect 9 0 46 0;
#X connect 10 0 13 0;
#X connect 11 0 12 1;
#X connect 12 0 25 0;
#X connect 13 0 12 0;
#X connect 14 0 18 0;
#X connect 15 0 34 0;
#X connect 16 0 20 0;
#X connect 16 1 14 0;
#X connect 16 2 15 0;
#X connect 16 3 17 0;
#X connect 17 0 14 0;
#X connect 18 0 34 0;
#X connect 20 0 33 0;
#X connect 21 0 27 0;
#X connect 22 0 24 1;
#X connect 23 0 22 0;
#X connect 23 0 48 0;
#X connect 24 0 8 0;
#X connect 25 0 40 0;
#X connect 26 0 10 0;
#X connect 26 1 31 0;
#X connect 27 0 37 0;
#X connect 27 1 28 0;
#X connect 28 0 29 0;
#X connect 29 0 39 0;
#X connect 30 0 33 1;
#X connect 31 0 21 0;
#X connect 33 0 26 0;
#X connect 34 0 20 1;
#X connect 34 1 19 0;
#X connect 35 0 30 0;
#X connect 36 0 16 0;
#X connect 38 0 21 1;
#X connect 41 0 43 1;
#X connect 42 0 41 0;
#X connect 43 0 7 0;
#X connect 46 0 27 0;
#X connect 48 0 47 0;
#X restore 314 121 pd metronome;
#N canvas 201 25 980 762 sequecner 0;
#X obj 295 417 seq-format-event note;
#N canvas 72 96 468 388 flush-stuck-notes 0;
#X obj 167 212 bag;
#X msg 203 161 flush;
#X msg 160 254 \$1 0;
#X obj 124 157 t a a;
#X obj 137 354 outlet;
#X obj 101 22 inlet;
#X obj 258 20 inlet;
#X obj 238 107 bang;
#X obj 114 102 route note;
#X obj 248 61 route end stop;
#X connect 0 0 2 0;
#X connect 1 0 0 0;
#X connect 2 0 4 0;
#X connect 3 0 4 0;
#X connect 3 1 0 0;
#X connect 5 0 8 0;
#X connect 6 0 9 0;
#X connect 7 0 1 0;
#X connect 8 0 3 0;
#X connect 9 0 7 0;
#X connect 9 1 7 0;
#X restore 190 552 pd flush-stuck-notes;
#X obj 147 330 r beat-clock;
#X obj 160 366 t f f;
#X obj 397 639 change -1;
#X msg 381 589 1;
#X msg 484 595 3;
#X msg 531 597 0;
#X msg 436 584 6;
#X obj 293 95 inlet;
#X obj 197 669 outlet;
#X obj 374 189 stripnote;
#X obj 311 383 spigot 0;
#N canvas 510 246 450 300 once 0;
#X obj 114 61 inlet;
#X obj 203 37 inlet;
#X obj 114 215 outlet;
#X obj 114 137 == 1;
#X obj 114 115 i 0;
#X obj 114 162 sel 1;
#X obj 114 184 t b b;
#X msg 206 152 0;
#X msg 203 62 1;
#X text 252 38 reset;
#X connect 0 0 4 0;
#X connect 1 0 8 0;
#X connect 3 0 5 0;
#X connect 4 0 3 0;
#X connect 5 0 6 0;
#X connect 6 0 2 0;
#X connect 6 1 7 0;
#X connect 7 0 4 1;
#X connect 8 0 4 1;
#X restore 379 269 pd once;
#X obj 379 239 t b;
#X msg 380 298 1;
#X obj 297 132 t a a;
#X text 376 147 only start with a note on;
#X msg 461 293 0;
#X text 486 677 states are: 0 = stopped \, 3 = playing \, 6 = rec enabled
\, 1 = recording, f 70;
#X obj 393 678 s seq-state;
#X obj 165 493 seq seq1, f 28;
#X obj 385 551 route rec arm start start-sync stop;
#X text 343 95 notes in;
#X obj 347 451 r seq-control;
#X obj 456 186 r seq-state;
#X obj 458 212 sel 6;
#X obj 452 238 t b b;
#X text 507 233 set it up upon entering armed state;
#X text 602 595 set seq state from the status spit out from seq;
#X connect 0 0 21 2;
#X connect 1 0 10 0;
#X connect 2 0 3 0;
#X connect 3 0 21 0;
#X connect 3 1 21 1;
#X connect 4 0 20 0;
#X connect 5 0 4 0;
#X connect 6 0 4 0;
#X connect 7 0 4 0;
#X connect 8 0 4 0;
#X connect 9 0 16 0;
#X connect 11 0 14 0;
#X connect 12 0 0 0;
#X connect 13 0 15 0;
#X connect 14 0 13 0;
#X connect 15 0 12 1;
#X connect 16 0 12 0;
#X connect 16 1 11 0;
#X connect 18 0 12 1;
#X connect 21 0 1 0;
#X connect 21 1 1 1;
#X connect 21 1 22 0;
#X connect 22 0 5 0;
#X connect 22 1 8 0;
#X connect 22 2 6 0;
#X connect 22 3 6 0;
#X connect 22 4 7 0;
#X connect 24 0 21 3;
#X connect 25 0 26 0;
#X connect 26 0 27 0;
#X connect 27 0 13 1;
#X connect 27 1 18 0;
#X restore 184 563 pd sequecner;
#N canvas 117 114 810 356 init 0;
#X msg 145 167 \; pd dsp 1;
#X msg 223 199 1;
#X obj 193 275 s set-pattern-num;
#X obj 235 232 s set-synth-num;
#X obj 319 199 s latch-state;
#X msg 317 177 0;
#X obj 648 147 s osc-init;
#X obj 590 174 s load-synths;
#X obj 238 42 loadbang;
#X obj 548 212 s load-patterns;
#X obj 444 257 s load-songs;
#X obj 240 79 t b b b b b b b b, f 55;
#X obj 490 233 s load-midi-config;
#X connect 1 0 2 0;
#X connect 1 0 3 0;
#X connect 5 0 4 0;
#X connect 8 0 11 0;
#X connect 11 0 0 0;
#X connect 11 1 1 0;
#X connect 11 2 5 0;
#X connect 11 3 10 0;
#X connect 11 4 12 0;
#X connect 11 5 9 0;
#X connect 11 6 7 0;
#X connect 11 7 6 0;
#X restore 314 45 pd init;
#X obj 55 49 declare -lib hcs;
#X obj 591 47 v synth-num;
#X obj 591 69 v pattern-num;
#X obj 591 94 v seq-state;
#X obj 591 119 v latch-state;
#N canvas 127 296 838 425 leds 0;
#X obj 351 33 array define led1 3;
#X obj 351 55 array define led2 3;
#X obj 351 78 array define led3 3;
#N canvas 128 142 991 503 test 0;
#X obj 376 314 s oscOut;
#X obj 385 161 random 255;
#X obj 454 161 random 255;
#X obj 522 161 random 255;
#X obj 400 184 random 255;
#X obj 469 184 random 255;
#X obj 537 184 random 255;
#X obj 425 207 random 255;
#X obj 494 207 random 255;
#X obj 562 207 random 255;
#X obj 368 43 metro 250;
#X obj 384 89 t b b b b b b b b b, f 53;
#X obj 385 254 pack 0 0 0 0 0 0 0 0 0;
#X msg 377 293 send /leds \$1 \$2 \$3 \$4 \$5 \$6 \$7 \$8 \$9, f 65
;
#X connect 1 0 12 0;
#X connect 2 0 12 3;
#X connect 3 0 12 6;
#X connect 4 0 12 1;
#X connect 5 0 12 4;
#X connect 6 0 12 7;
#X connect 7 0 12 2;
#X connect 8 0 12 5;
#X connect 9 0 12 8;
#X connect 11 0 1 0;
#X connect 11 1 4 0;
#X connect 11 2 7 0;
#X connect 11 3 2 0;
#X connect 11 4 5 0;
#X connect 11 5 8 0;
#X connect 11 6 3 0;
#X connect 11 7 6 0;
#X connect 11 8 9 0;
#X connect 12 0 13 0;
#X connect 13 0 0 0;
#X restore 496 74 pd test;
#X obj 483 106 r led-flip;
#X obj 326 190 array get led1;
#X obj 483 127 t b b b b b;
#X obj 424 191 array get led2;
#X obj 526 190 array get led3;
#X obj 325 217 unpack 0 0 0;
#X obj 424 217 unpack 0 0 0;
#X obj 526 216 unpack 0 0 0;
#X obj 327 302 s oscOut;
#N canvas 585 50 450 300 ledall 0;
#X obj 64 37 r ledall;
#X obj 64 65 t a a a a a, f 32;
#X obj 27 110 s led1-set;
#X obj 102 109 s led2-set;
#X obj 177 116 s led3-set;
#X obj 254 113 s led4-set;
#X obj 331 115 s led5-set;
#X connect 0 0 1 0;
#X connect 1 0 2 0;
#X connect 1 1 3 0;
#X connect 1 2 4 0;
#X connect 1 3 5 0;
#X connect 1 4 6 0;
#X restore 493 47 pd ledall;
#X obj 592 60 array set led1;
#X obj 592 37 r led1-set;
#X obj 593 79 r led2-set;
#X obj 593 102 array set led2;
#X obj 592 123 r led3-set;
#X obj 592 146 array set led3;
#X msg 323 273 send /leds \$1 \$2 \$3 \$4 \$5 \$6 \$7 \$8 \$9, f 65
;
#X obj 324 249 pack 0 0 0 0 0 0 0 0 0, f 43;
#N canvas 62 44 653 457 synth-leds 0;
#X obj 112 34 r synth-num;
#X obj 112 62 t b f;
#X obj 135 286 s led3-set;
#X obj 208 284 s led3-set;
#X obj 281 280 s led3-set;
#X obj 355 283 s led3-set;
#X obj 432 283 s led3-set;
#X obj 512 286 s led3-set;
#X obj 31 241 s led-flip;
#X obj 133 115 sel 1 2 3 4 5 6, f 44;
#X msg 157 189 54 6 127;
#X msg 308 195 0 8 85;
#X msg 372 196 0 69 9;
#X msg 520 215 71 1 1;
#X msg 447 204 71 16 1;
#X msg 224 193 127 0 72;
#X connect 0 0 1 0;
#X connect 1 0 8 0;
#X connect 1 1 9 0;
#X connect 9 0 10 0;
#X connect 9 1 15 0;
#X connect 9 2 11 0;
#X connect 9 3 12 0;
#X connect 9 4 14 0;
#X connect 9 5 13 0;
#X connect 10 0 2 0;
#X connect 11 0 4 0;
#X connect 12 0 5 0;
#X connect 13 0 7 0;
#X connect 14 0 6 0;
#X connect 15 0 3 0;
#X restore 106 49 pd synth-leds;
#N canvas 62 44 688 318 pattern-leds 0;
#X obj 112 62 t b f;
#X obj 55 234 s led-flip;
#X obj 140 112 sel 1 2 3 4 5 6, f 44;
#X obj 129 233 s led2-set;
#X obj 202 231 s led2-set;
#X obj 275 227 s led2-set;
#X obj 349 230 s led2-set;
#X obj 426 230 s led2-set;
#X obj 506 233 s led2-set;
#X obj 112 34 r pattern-num;
#X msg 133 168 54 6 127;
#X msg 284 174 0 8 85;
#X msg 348 175 0 69 9;
#X msg 496 194 71 1 1;
#X msg 423 183 71 16 1;
#X msg 200 172 127 0 72;
#X connect 0 0 1 0;
#X connect 0 1 2 0;
#X connect 2 0 10 0;
#X connect 2 1 15 0;
#X connect 2 2 11 0;
#X connect 2 3 12 0;
#X connect 2 4 14 0;
#X connect 2 5 13 0;
#X connect 9 0 0 0;
#X connect 10 0 3 0;
#X connect 11 0 5 0;
#X connect 12 0 6 0;
#X connect 13 0 8 0;
#X connect 14 0 7 0;
#X connect 15 0 4 0;
#X restore 106 77 pd pattern-leds;
#N canvas 108 101 936 371 seq-leds 0;
#X obj 112 62 t b f;
#X obj 55 234 s led-flip;
#X obj 112 34 r seq-state;
#X obj 140 112 sel 0 3 6 1, f 44;
#X obj 129 233 s led1-set;
#X obj 202 231 s led1-set;
#X obj 275 227 s led1-set;
#X obj 349 230 s led1-set;
#X msg 129 210 0 0 0;
#X msg 202 209 0 100 0;
#X msg 275 205 50 0 50;
#X msg 349 208 100 0 0;
#X obj 437 79 sel 0;
#X obj 430 44 r beat-clock;
#X text 538 41 tick the arps 1 tick late to ensure seq starts first
;
#X obj 495 180 v seq-state;
#X obj 495 125 delay 25;
#X obj 443 125 t b b;
#X obj 466 253 s led1-set;
#X msg 466 231 100 100 100;
#X obj 429 276 s led-flip;
#X text 86 6 led colors for seq state;
#X connect 0 0 1 0;
#X connect 0 1 3 0;
#X connect 2 0 0 0;
#X connect 3 0 8 0;
#X connect 3 1 9 0;
#X connect 3 2 10 0;
#X connect 3 3 11 0;
#X connect 8 0 4 0;
#X connect 9 0 5 0;
#X connect 10 0 6 0;
#X connect 11 0 7 0;
#X connect 12 0 16 0;
#X connect 12 0 17 0;
#X connect 13 0 12 0;
#X connect 15 0 0 0;
#X connect 16 0 15 0;
#X connect 17 0 20 0;
#X connect 17 1 19 0;
#X connect 19 0 18 0;
#X restore 106 25 pd seq-leds;
#X connect 4 0 6 0;
#X connect 5 0 9 0;
#X connect 6 0 5 0;
#X connect 6 1 7 0;
#X connect 6 2 8 0;
#X connect 7 0 10 0;
#X connect 8 0 11 0;
#X connect 9 0 21 0;
#X connect 9 1 21 1;
#X connect 9 2 21 2;
#X connect 10 0 21 3;
#X connect 10 1 21 4;
#X connect 10 2 21 5;
#X connect 11 0 21 6;
#X connect 11 1 21 7;
#X connect 11 2 21 8;
#X connect 15 0 14 0;
#X connect 16 0 17 0;
#X connect 18 0 19 0;
#X connect 20 0 12 0;
#X connect 21 0 20 0;
#X restore 315 96 pd leds;
#N canvas 328 174 667 525 synth-select 0;
#X obj 66 37 stripnote;
#X obj 66 13 r shift-keys;
#X obj 65 82 sel 11 12 14 16 17 19, f 26;
#X text 281 199 speed limit 20 ms to allow for fade out/in;
#X msg 79 125 1, f 2;
#X msg 115 124 2, f 2;
#X msg 156 126 3, f 2;
#X msg 199 125 4, f 2;
#X msg 233 124 5, f 2;
#X msg 280 125 6, f 2;
#N canvas 133 296 450 344 20ms-speed-limit 0;
#X msg 91 120 1;
#X obj 85 180 spigot 1;
#X msg 159 118 0;
#X obj 92 95 delay 20;
#X obj 45 27 inlet;
#X obj 139 55 t b b;
#X obj 71 242 t f b;
#X obj 62 277 outlet;
#X connect 0 0 1 1;
#X connect 1 0 6 0;
#X connect 2 0 1 1;
#X connect 3 0 0 0;
#X connect 4 0 1 0;
#X connect 5 0 3 0;
#X connect 5 1 2 0;
#X connect 6 0 7 0;
#X connect 6 1 5 0;
#X restore 129 198 pd 20ms-speed-limit;
#X obj 92 344 delay 10;
#X msg 111 438 1;
#X obj 115 380 f;
#X obj 147 315 t b f;
#X obj 111 465 s, f 10;
#X obj 141 404 t b f;
#X obj 192 296 s synth-num;
#X text 445 289 turn off with fadeout;
#X obj 301 290 s synth-disable-all;
#X text 177 345 enable after 10ms for fade out;
#X msg 191 427 symbol s\$1-enable;
#X obj 151 240 t f f b;
#X obj 349 134 r set-synth-num;
#X connect 0 0 2 0;
#X connect 1 0 0 0;
#X connect 2 0 4 0;
#X connect 2 1 5 0;
#X connect 2 2 6 0;
#X connect 2 3 7 0;
#X connect 2 4 8 0;
#X connect 2 5 9 0;
#X connect 4 0 10 0;
#X connect 5 0 10 0;
#X connect 6 0 10 0;
#X connect 7 0 10 0;
#X connect 8 0 10 0;
#X connect 9 0 10 0;
#X connect 10 0 22 0;
#X connect 11 0 13 0;
#X connect 12 0 15 0;
#X connect 13 0 16 0;
#X connect 14 0 11 0;
#X connect 14 1 13 1;
#X connect 16 0 12 0;
#X connect 16 1 21 0;
#X connect 21 0 15 1;
#X connect 22 0 14 0;
#X connect 22 1 17 0;
#X connect 22 2 19 0;
#X connect 23 0 10 0;
#X restore 312 171 pd synth-select;
#X obj 136 293 r keys;
#N canvas 183 110 1098 410 oscio 0;
#X obj 70 209 udpsend;
#X obj 95 174 packOSC;
#X obj 252 154 udpreceive;
#X obj 252 176 unpackOSC;
#X obj 252 204 s oscIn;
#X obj 92 145 r oscOut;
#X msg 70 119 connect localhost 4001;
#X msg 252 124 port 4000;
#X msg 12 66 connect 192.168.1.129 4001;
#X msg 161 183 disconnect;
#X obj 61 235 sel 1;
#X obj 45 262 s net-connected;
#X obj 417 50 r oscIn;
#X obj 569 314 / 255;
#X obj 628 313 / 255;
#X obj 688 309 / 255;
#X obj 749 308 / 255;
#X obj 576 160 unpack 0 0 0 0, f 26;
#X obj 733 124 s shift;
#X obj 634 350 s knob1;
#X obj 698 347 s knob2;
#X obj 759 349 s knob3;
#X obj 417 132 s keys;
#X obj 417 89 routeOSC /key /knobs /shift, f 68;
#X obj 552 349 s tempo-knob;
#X obj 181 30 r osc-init, f 11;
#X obj 508 238 override 10;
#X obj 624 238 override 10;
#X obj 751 234 override 10;
#X obj 835 234 override 10;
#X obj 813 144 r knobs-override-all;
#X obj 813 165 t b b b b;
#X obj 686 203 r knob1-override;
#X obj 812 201 r knob2-override;
#X obj 925 203 r knob3-override;
#X connect 0 0 10 0;
#X connect 1 0 0 0;
#X connect 2 0 3 0;
#X connect 3 0 4 0;
#X connect 5 0 1 0;
#X connect 6 0 0 0;
#X connect 7 0 2 0;
#X connect 8 0 0 0;
#X connect 9 0 0 0;
#X connect 10 0 11 0;
#X connect 12 0 23 0;
#X connect 13 0 24 0;
#X connect 14 0 19 0;
#X connect 15 0 20 0;
#X connect 16 0 21 0;
#X connect 17 0 26 0;
#X connect 17 1 27 0;
#X connect 17 2 28 0;
#X connect 17 3 29 0;
#X connect 23 0 22 0;
#X connect 23 1 17 0;
#X connect 23 2 18 0;
#X connect 25 0 6 0;
#X connect 25 0 7 0;
#X connect 26 0 13 0;
#X connect 27 0 14 0;
#X connect 28 0 15 0;
#X connect 29 0 16 0;
#X connect 30 0 31 0;
#X connect 31 0 26 1;
#X connect 31 1 27 1;
#X connect 31 2 28 1;
#X connect 31 3 29 1;
#X connect 32 0 27 1;
#X connect 33 0 28 1;
#X connect 34 0 29 1;
#X restore 315 70 pd oscio;
#X obj 590 143 v click-state;
#X text 694 47 the currently selected synth;
#X text 696 69 the currently selected pattern gen;
#X text 700 121 1 = latch mode on \, 0 = off;
#X text 700 145 1 = metronome click on \, 0 = off;
#N canvas 162 204 615 422 shift-keys 0;
#X obj 187 52 r shift;
#X obj 202 204 s shift-keys;
#N canvas 72 279 450 300 switch 0;
#X obj 226 121 ==;
#X obj 93 183 spigot 1;
#X obj 164 182 spigot 0;
#X obj 248 91 t f f;
#X obj 86 39 inlet;
#X obj 87 235 outlet;
#X obj 174 224 outlet;
#X obj 289 42 inlet;
#X connect 0 0 1 1;
#X connect 1 0 5 0;
#X connect 2 0 6 0;
#X connect 3 0 0 0;
#X connect 3 1 2 1;
#X connect 4 0 1 0;
#X connect 4 0 2 0;
#X connect 7 0 3 0;
#X restore 117 115 pd switch;
#X obj 141 282 bag;
#X msg 219 121 flush;
#X obj 187 84 t f b;
#X obj 141 310 pack 0 0;
#X obj 128 15 inlet;
#X obj 126 385 outlet;
#X obj 110 146 t a a;
#X text 256 81 route keys depending on shift key;
#X text 193 282 cancel any keys playing upon shift;
#N canvas 92 117 450 300 transpose-keys 0;
#X obj 130 60 unpack 0 0;
#X obj 129 125 pack, f 9;
#X obj 197 91 * 100;
#X obj 128 93 + 48;
#X obj 144 23 inlet;
#X obj 131 168 outlet;
#X connect 0 0 3 0;
#X connect 0 1 2 0;
#X connect 1 0 5 0;
#X connect 2 0 1 1;
#X connect 3 0 1 0;
#X connect 4 0 0 0;
#X restore 126 350 pd transpose-keys;
#X text 262 348 internal keys are 0-19;
#X connect 0 0 5 0;
#X connect 2 0 9 0;
#X connect 2 1 1 0;
#X connect 3 0 6 0;
#X connect 4 0 3 0;
#X connect 5 0 2 1;
#X connect 5 1 4 0;
#X connect 6 0 12 0;
#X connect 7 0 2 0;
#X connect 9 0 12 0;
#X connect 9 1 3 0;
#X connect 12 0 8 0;
#X restore 137 323 pd shift-keys;
#X obj 589 168 v octave-transpose;
#X text 721 169 transpose for internal keyboard;
#N canvas 150 175 627 419 octave-transpose 0;
#X obj 142 44 r shift-keys;
#X obj 142 68 stripnote;
#X obj 142 92 sel 13 15;
#X obj 358 202 expr if($f1 < 24 \, $f1 + 12 \, $f1);
#X obj 92 157 v octave-transpose;
#X obj 345 163 v octave-transpose;
#X obj 163 327 s octave-transpose;
#X obj 77 197 expr if($f1 > -24 \, $f1 - 12 \, $f1);
#X connect 0 0 1 0;
#X connect 1 0 2 0;
#X connect 2 0 4 0;
#X connect 2 1 5 0;
#X connect 3 0 6 0;
#X connect 4 0 7 0;
#X connect 5 0 3 0;
#X connect 7 0 6 0;
#X restore 313 198 pd octave-transpose;
#X text 706 91 0 = stopped \, 3 = playing \, 6 = rec enabled \, 1 =
recording, f 79;
#N canvas 328 174 667 525 pattern-select 0;
#X obj 66 37 stripnote;
#X obj 66 13 r shift-keys;
#X msg 79 125 1, f 2;
#X msg 115 124 2, f 2;
#X msg 156 126 3, f 2;
#X msg 199 125 4, f 2;
#X msg 233 124 5, f 2;
#X msg 280 125 6, f 2;
#X msg 111 438 1;
#X obj 111 465 s, f 10;
#X obj 141 404 t b f;
#X text 445 289 turn off with fadeout;
#X obj 148 244 t f f b;
#X obj 65 82 sel 0 2 4 5 7 9, f 26;
#X obj 301 290 s pattern-disable-all;
#X obj 192 296 s pattern-num;
#X msg 191 427 symbol p\$1-enable;
#X obj 364 109 r set-pattern-num;
#X connect 0 0 13 0;
#X connect 1 0 0 0;
#X connect 2 0 12 0;
#X connect 3 0 12 0;
#X connect 4 0 12 0;
#X connect 5 0 12 0;
#X connect 6 0 12 0;
#X connect 7 0 12 0;
#X connect 8 0 9 0;
#X connect 10 0 8 0;
#X connect 10 1 16 0;
#X connect 12 0 10 0;
#X connect 12 1 15 0;
#X connect 12 2 14 0;
#X connect 13 0 2 0;
#X connect 13 1 3 0;
#X connect 13 2 4 0;
#X connect 13 3 5 0;
#X connect 13 4 6 0;
#X connect 13 5 7 0;
#X connect 16 0 9 1;
#X connect 17 0 12 0;
#X restore 313 145 pd pattern-select;
#X obj 152 484 s notes-to-pattern;
#X obj 151 524 r notes-from-pattern;
#X obj 149 598 s notes-to-synth;
#N canvas 162 265 342 526 octave-transpose 0;
#X obj 86 39 inlet;
#X obj 71 459 outlet;
#X obj 151 155 bag;
#X obj 149 186 pack 0 0;
#X obj 168 42 r octave-transpose;
#X obj 98 220 unpack;
#X obj 87 272 + 0;
#X obj 146 88 t f b;
#X obj 58 345 pack 0 0;
#X msg 170 119 flush;
#X connect 0 0 5 0;
#X connect 0 0 2 0;
#X connect 2 0 3 0;
#X connect 3 0 5 0;
#X connect 4 0 7 0;
#X connect 5 0 6 0;
#X connect 5 1 8 1;
#X connect 6 0 8 0;
#X connect 7 0 6 1;
#X connect 7 1 9 0;
#X connect 8 0 1 0;
#X connect 9 0 2 0;
#X restore 161 407 pd octave-transpose;
#N canvas 290 25 702 698 auto-load-synths 0;
#X obj 219 438 spigot 1;
#X obj 292 470 i 0;
#X obj 401 369 i 1;
#X obj 286 586 symbol s1;
#X msg 322 155 \; pd-load-synths-here clear;
#X obj 219 183 t a b;
#X obj 219 213 max 1;
#X obj 219 237 until;
#X obj 219 157 i 6;
#X obj 219 261 i;
#X obj 277 261 + 1;
#X obj 219 302 t a a b, f 26;
#X obj 346 554 makefilename s%d;
#X obj 358 490 t a a;
#X obj 281 223 i 1;
#X obj 219 522 t a b b;
#X obj 252 560 * 50;
#X obj 219 613 pack s 0 s;
#X obj 219 332 makefilename synths/%d*;
#X obj 219 91 t b b;
#X obj 184 15 bng 15 250 50 0 empty empty empty 17 7 0 10 #fcfcfc #000000
#000000;
#X obj 218 17 r load-synths;
#X obj 107 577 print loading;
#X obj 219 364 folder_list;
#X obj 184 58 t b b;
#X obj 61 100 t b b b b b b;
#X obj 105 270 s loadbang-s1;
#X obj 73 220 s loadbang-s3;
#X obj 53 198 s loadbang-s4;
#X obj 37 172 s loadbang-s5;
#X obj 23 149 s loadbang-s6;
#X obj 88 245 s loadbang-s2;
#X msg 219 647 \; pd-load-synths-here obj 10 \$2 synth-slot \$3 \$1/module
;
#X connect 0 0 15 0;
#X connect 1 0 0 1;
#X connect 2 0 0 1;
#X connect 3 0 17 2;
#X connect 5 0 6 0;
#X connect 5 1 14 0;
#X connect 6 0 7 0;
#X connect 7 0 9 0;
#X connect 8 0 5 0;
#X connect 9 0 10 0;
#X connect 9 0 11 0;
#X connect 10 0 9 1;
#X connect 11 0 18 0;
#X connect 11 1 13 0;
#X connect 11 2 2 0;
#X connect 12 0 3 1;
#X connect 13 0 16 0;
#X connect 13 1 12 0;
#X connect 14 0 9 1;
#X connect 15 0 17 0;
#X connect 15 0 22 0;
#X connect 15 1 3 0;
#X connect 15 2 1 0;
#X connect 16 0 17 1;
#X connect 17 0 32 0;
#X connect 18 0 23 0;
#X connect 19 0 8 0;
#X connect 19 1 4 0;
#X connect 20 0 24 0;
#X connect 21 0 24 0;
#X connect 23 0 0 0;
#X connect 24 0 25 0;
#X connect 24 1 19 0;
#X connect 25 0 30 0;
#X connect 25 1 29 0;
#X connect 25 2 28 0;
#X connect 25 3 27 0;
#X connect 25 4 31 0;
#X connect 25 5 26 0;
#X restore 58 105 pd auto-load-synths;
#N canvas 150 175 450 300 load-synths-here 0;
#X restore 57 130 pd load-synths-here;
#N canvas 290 25 733 686 auto-load-patterns 0;
#X obj 280 426 spigot 1;
#X obj 353 458 i 0;
#X obj 462 357 i 1;
#X obj 347 574 symbol s1;
#X obj 280 171 t a b;
#X obj 280 201 max 1;
#X obj 280 225 until;
#X obj 280 145 i 6;
#X obj 280 249 i;
#X obj 338 249 + 1;
#X obj 280 290 t a a b, f 26;
#X obj 419 478 t a a;
#X obj 342 211 i 1;
#X obj 280 510 t a b b;
#X obj 313 548 * 50;
#X obj 280 601 pack s 0 s;
#X obj 280 79 t b b;
#X obj 280 352 folder_list;
#X obj 407 542 makefilename p%d;
#X obj 280 320 makefilename patterns/%d*;
#X msg 383 143 \; pd-load-patterns-here clear;
#X obj 192 575 print loading;
#X obj 194 9 r load-patterns;
#X obj 194 33 t b b;
#X obj 71 75 t b b b b b b;
#X obj 33 124 s loadbang-p6;
#X obj 47 147 s loadbang-p5;
#X obj 115 245 s loadbang-p1;
#X obj 98 220 s loadbang-p2;
#X obj 83 195 s loadbang-p3;
#X obj 63 173 s loadbang-p4;
#X msg 280 635 \; pd-load-patterns-here obj 10 \$2 pattern-slot \$3
\$1/module;
#X connect 0 0 13 0;
#X connect 1 0 0 1;
#X connect 2 0 0 1;
#X connect 3 0 15 2;
#X connect 4 0 5 0;
#X connect 4 1 12 0;
#X connect 5 0 6 0;
#X connect 6 0 8 0;
#X connect 7 0 4 0;
#X connect 8 0 9 0;
#X connect 8 0 10 0;
#X connect 9 0 8 1;
#X connect 10 0 19 0;
#X connect 10 1 11 0;
#X connect 10 2 2 0;
#X connect 11 0 14 0;
#X connect 11 1 18 0;
#X connect 12 0 8 1;
#X connect 13 0 15 0;
#X connect 13 0 21 0;
#X connect 13 1 3 0;
#X connect 13 2 1 0;
#X connect 14 0 15 1;
#X connect 15 0 31 0;
#X connect 16 0 7 0;
#X connect 16 1 20 0;
#X connect 17 0 0 0;
#X connect 18 0 3 1;
#X connect 19 0 17 0;
#X connect 22 0 23 0;
#X connect 23 0 24 0;
#X connect 23 1 16 0;
#X connect 24 0 25 0;
#X connect 24 1 26 0;
#X connect 24 2 30 0;
#X connect 24 3 29 0;
#X connect 24 4 28 0;
#X connect 24 5 27 0;
#X restore 59 159 pd auto-load-patterns;
#N canvas 150 175 450 300 load-patterns-here 0;
#X restore 58 184 pd load-patterns-here;
#N canvas 63 88 642 303 latch-control 0;
#X obj 121 37 r shift-keys;
#X obj 121 61 stripnote;
#X obj 214 137 r seq-before-play;
#X msg 222 166 0;
#X obj 121 85 sel 3;
#X obj 121 110 v latch-state;
#X obj 129 137 sel 0 1;
#X msg 125 162 1;
#X msg 159 164 0;
#X obj 144 227 s latch-state;
#X text 273 158 disable latch when playing seq;
#X connect 0 0 1 0;
#X connect 1 0 4 0;
#X connect 2 0 3 0;
#X connect 3 0 9 0;
#X connect 4 0 5 0;
#X connect 5 0 6 0;
#X connect 6 0 7 0;
#X connect 6 1 8 0;
#X connect 7 0 9 0;
#X connect 8 0 9 0;
#X restore 314 224 pd latch-control;
#X text 620 15 globals;
#X text 156 503 pattern gen modules \, notes in notes out;
#X text 146 623 synth modules \, notes in sound out;
#N canvas 133 113 1136 616 song-save-recall-new 0;
#N canvas 6 50 450 300 countsongs 0;
#X obj 111 119 folder_list;
#X obj 111 173 f 0;
#X obj 111 146 t b;
#X obj 146 172 + 1;
#X obj 111 199 t f f;
#X obj 93 51 t b b b;
#X obj 93 225 f;
#X msg 153 146 1;
#X obj 91 253 outlet;
#X obj 90 15 inlet;
#X obj 19 184 print f;
#X msg 111 80 symbol /sdcard/songs/*;
#X connect 0 0 2 0;
#X connect 0 0 10 0;
#X connect 1 0 4 0;
#X connect 2 0 1 0;
#X connect 3 0 1 1;
#X connect 4 0 6 1;
#X connect 4 1 3 0;
#X connect 5 0 6 0;
#X connect 5 1 11 0;
#X connect 5 2 7 0;
#X connect 6 0 8 0;
#X connect 7 0 1 1;
#X connect 9 0 5 0;
#X connect 11 0 0 0;
#X restore 905 102 pd countsongs;
#X obj 992 145 print numer-songs;
#X obj 903 145 s totalsongs;
#X obj 961 343 + 1;
#X obj 168 309 - 1;
#X obj 959 367 expr if($f1 > $f2 \, 1 \, $f1);
#X obj 170 334 expr if($f1 < 1 \, $f2 \, $f1);
#X obj 168 283 v cursong;
#X obj 269 284 v totalsongs;
#X obj 1038 320 v totalsongs;
#X obj 961 321 v cursong;
#X obj 961 398 s cursong;
#X obj 174 360 s cursong;
#X obj 475 248 + 1;
#X obj 632 441 i;
#X obj 475 226 v totalsongs;
#X obj 634 494 s cursong;
#X obj 634 466 t f f;
#X obj 469 380 shell;
#X obj 697 494 s totalsongs;
#X obj 563 309 s mute-dac;
#X obj 393 478 s unmute-dac;
#X obj 479 321 i;
#X obj 478 271 t b f f b;
#X obj 443 297 delay 10;
#X obj 868 41 r load-songs;
#X obj 869 175 s cursong;
#X msg 870 149 1;
#X obj 478 188 t b;
#X obj 453 39 r shift-keys;
#X obj 453 63 stripnote;
#X obj 450 92 sel 6 8 10;
#X text 352 270 during mkdir;
#X text 358 228 make new dir;
#N canvas 14 182 1118 546 save-state 0;
#X obj 575 476 textfile;
#X obj 281 275 v knob1;
#X obj 369 278 v knob2;
#X obj 463 275 v knob3;
#X obj 552 276 v pattern-num;
#X obj 681 276 v synth-num;
#X msg 280 304 add knob1 \$1;
#X msg 551 302 add pattern-num \$1;
#X msg 678 302 add synth-num \$1;
#X msg 983 297 clear;
#X obj 204 89 t b b;
#X obj 156 170 v cursong;
#X msg 368 304 add knob2 \$1;
#X msg 456 305 add knob3 \$1;
#X obj 198 58 r save-state;
#X obj 500 164 t b b b b b b b, f 39;
#X obj 809 278 v octave-transpose;
#X msg 803 304 add octave-transpose \$1;
#X msg 44 272 write /sdcard/songs/\$1/state.txt;
#X connect 1 0 6 0;
#X connect 2 0 12 0;
#X connect 3 0 13 0;
#X connect 4 0 7 0;
#X connect 5 0 8 0;
#X connect 6 0 0 0;
#X connect 7 0 0 0;
#X connect 8 0 0 0;
#X connect 9 0 0 0;
#X connect 10 0 11 0;
#X connect 10 1 15 0;
#X connect 11 0 18 0;
#X connect 12 0 0 0;
#X connect 13 0 0 0;
#X connect 14 0 10 0;
#X connect 15 0 1 0;
#X connect 15 1 2 0;
#X connect 15 2 3 0;
#X connect 15 3 4 0;
#X connect 15 4 5 0;
#X connect 15 5 16 0;
#X connect 15 6 9 0;
#X connect 16 0 17 0;
#X connect 17 0 0 0;
#X connect 18 0 0 0;
#X restore 684 43 pd save-state;
#N canvas 51 61 827 484 recall-state 0;
#X obj 299 165 v cursong;
#X obj 222 253 textfile;
#X obj 188 191 until;
#X obj 300 133 t b b b;
#X msg 384 163 clear;
#X msg 249 165 rewind;
#X obj 607 282 s knobs-override-all;
#X obj 556 253 t b b b b;
#X obj 401 384 s knob1;
#X obj 454 383 s knob2;
#X obj 510 382 s knob3;
#X obj 404 358 f 0.5;
#X obj 452 358 f 0.5;
#X obj 512 357 f 0.5;
#X obj 224 74 t b b b;
#X obj 549 173 delay 15;
#X text 575 198 allow old synth to fade out and new one load before
sending knobs, f 33;
#X obj 214 382 s set-synth-num;
#X obj 97 378 s set-pattern-num;
#X obj 221 41 r recall-state;
#X obj 178 295 route pattern-num synth-num octave-transpose knob1 knob2
knob3, f 66;
#X obj 321 411 s octave-transpose;
#X obj 84 313 print;
#X msg 320 215 read /sdcard/songs/\$1/state.txt;
#X connect 0 0 23 0;
#X connect 1 0 20 0;
#X connect 1 0 22 0;
#X connect 1 1 2 1;
#X connect 2 0 1 0;
#X connect 3 0 5 0;
#X connect 3 1 0 0;
#X connect 3 2 4 0;
#X connect 4 0 1 0;
#X connect 5 0 1 0;
#X connect 7 0 11 0;
#X connect 7 1 12 0;
#X connect 7 2 13 0;
#X connect 7 3 6 0;
#X connect 11 0 8 0;
#X connect 12 0 9 0;
#X connect 13 0 10 0;
#X connect 14 0 2 0;
#X connect 14 1 3 0;
#X connect 14 2 15 0;
#X connect 15 0 7 0;
#X connect 19 0 14 0;
#X connect 20 0 18 0;
#X connect 20 1 17 0;
#X connect 20 2 21 0;
#X connect 20 3 11 1;
#X connect 20 4 12 1;
#X connect 20 5 13 1;
#X connect 23 0 1 0;
#X restore 683 68 pd recall-state;
#X obj 515 409 t b b b b;
#X obj 537 467 s save-state;
#X obj 825 239 t b b b b;
#X text 250 40 prev song \, new song \, next song;
#X text 340 253 try to mute audio;
#X obj 889 295 s recall-state;
#X obj 117 221 t b b b b;
#X obj 69 280 s recall-state;
#X obj 31 306 v cursong;
#X obj 492 498 v cursong;
#X obj 486 582 s save-seq;
#X obj 58 433 s recall-seq;
#X obj 770 281 v cursong;
#X obj 775 405 s recall-seq;
#X obj 1003 99 shell;
#X obj 865 69 t b b b;
#X obj 354 122 v totalsongs;
#X obj 354 145 > 0;
#X obj 351 166 sel 1;
#X obj 565 133 v totalsongs;
#X obj 570 156 > 0;
#X obj 567 177 sel 1;
#X text 168 146 only recall if there is one;
#X msg 51 394 read /sdcard/songs/\$1/seq.txt;
#X msg 466 354 mkdir /sdcard/songs/\$1;
#X msg 768 366 read /sdcard/songs/\$1/seq.txt;
#X msg 499 527 write /sdcard/songs/\$1/seq.txt;
#X msg 1002 73 mkdir /sdcard/songs;
#X connect 0 0 2 0;
#X connect 0 0 1 0;
#X connect 3 0 5 0;
#X connect 4 0 6 0;
#X connect 5 0 11 0;
#X connect 6 0 12 0;
#X connect 7 0 4 0;
#X connect 8 0 6 1;
#X connect 9 0 5 1;
#X connect 10 0 3 0;
#X connect 13 0 23 0;
#X connect 14 0 17 0;
#X connect 15 0 13 0;
#X connect 17 0 16 0;
#X connect 17 1 19 0;
#X connect 18 1 36 0;
#X connect 22 0 60 0;
#X connect 23 0 24 0;
#X connect 23 1 22 1;
#X connect 23 2 14 1;
#X connect 23 3 20 0;
#X connect 24 0 22 0;
#X connect 25 0 51 0;
#X connect 27 0 26 0;
#X connect 28 0 15 0;
#X connect 29 0 30 0;
#X connect 30 0 31 0;
#X connect 31 0 52 0;
#X connect 31 1 28 0;
#X connect 31 2 55 0;
#X connect 36 0 21 0;
#X connect 36 1 45 0;
#X connect 36 2 37 0;
#X connect 36 3 14 0;
#X connect 38 0 48 0;
#X connect 38 1 41 0;
#X connect 38 2 10 0;
#X connect 38 3 9 0;
#X connect 42 0 44 0;
#X connect 42 1 43 0;
#X connect 42 2 7 0;
#X connect 42 3 8 0;
#X connect 44 0 59 0;
#X connect 45 0 62 0;
#X connect 48 0 61 0;
#X connect 51 0 27 0;
#X connect 51 1 0 0;
#X connect 51 2 63 0;
#X connect 52 0 53 0;
#X connect 53 0 54 0;
#X connect 54 0 42 0;
#X connect 55 0 56 0;
#X connect 56 0 57 0;
#X connect 57 0 38 0;
#X connect 59 0 47 0;
#X connect 60 0 18 0;
#X connect 61 0 49 0;
#X connect 62 0 46 0;
#X connect 63 0 50 0;
#X restore 314 249 pd song-save-recall-new;
#X obj 589 270 v knob1;
#X obj 589 293 v knob2;
#X obj 590 317 v knob3;
#X obj 588 193 v cursong;
#X obj 588 216 v totalsongs;
#X obj 589 241 v global-bmp;
#X text 701 293 these get stored in scenes;
#X text 705 193 songs are more like scenes: a numbered folder that
contains state.txt and seq.txt (if recorded), f 45;
#N canvas 200 25 1150 591 midi 1;
#X obj 404 41 r load-midi-config;
#N canvas 283 91 554 401 set-defaults 0;
#X msg 192 84 1;
#X msg 192 106 1;
#X msg 194 228 1;
#X msg 194 250 1;
#X msg 194 272 1;
#X msg 194 295 1;
#X obj 69 31 t b;
#X obj 227 84 s midi-in-channel;
#X obj 228 107 s midi-out-channel;
#X obj 228 227 s midi-clock-in-enable;
#X obj 228 249 s midi-clock-out-enable;
#X obj 227 271 s midi-transport-in-enable;
#X obj 227 294 s midi-transport-out-enable;
#X obj 230 135 s midi-cc-knob1;
#X obj 230 157 s midi-cc-knob2;
#X obj 230 183 s midi-cc-knob3;
#X msg 194 134 20;
#X msg 194 156 21;
#X msg 194 182 22;
#X obj 62 8 inlet;
#X connect 0 0 7 0;
#X connect 1 0 8 0;
#X connect 2 0 9 0;
#X connect 3 0 10 0;
#X connect 4 0 11 0;
#X connect 5 0 12 0;
#X connect 6 0 0 0;
#X connect 6 0 5 0;
#X connect 6 0 4 0;
#X connect 6 0 3 0;
#X connect 6 0 2 0;
#X connect 6 0 1 0;
#X connect 6 0 16 0;
#X connect 6 0 17 0;
#X connect 6 0 18 0;
#X connect 16 0 13 0;
#X connect 17 0 14 0;
#X connect 18 0 15 0;
#X connect 19 0 6 0;
#X restore 728 148 pd set-defaults;
#X obj 13 144 v midi-out-channel;
#X obj 14 121 v midi-in-channel;
#X obj 12 250 v midi-clock-in-enable;
#X obj 12 272 v midi-clock-out-enable;
#X obj 11 294 v midi-transport-in-enable;
#X obj 11 317 v midi-transport-out-enable;
#X obj 13 167 v midi-cc-knob1;
#X obj 12 193 v midi-cc-knob2;
#X obj 12 216 v midi-cc-knob3;
#N canvas 852 326 450 300 parse-midi-config 0;
#X obj 120 143 textfile;
#X msg 303 98 clear;
#X msg 176 98 read ./midi.txt;
#X obj 73 45 t b b b b;
#X msg 116 93 rewind;
#X obj 67 106 until;
#X obj 103 186 route cc-in-enable cc-in-channel cc-knob1-in;
#X msg 296 120 write ./midi.txt;
#X obj 73 11 inlet;
#X connect 0 0 6 0;
#X connect 0 1 5 1;
#X connect 1 0 0 0;
#X connect 2 0 0 0;
#X connect 3 0 5 0;
#X connect 3 1 4 0;
#X connect 3 2 2 0;
#X connect 3 3 1 0;
#X connect 4 0 0 0;
#X connect 5 0 0 0;
#X connect 7 0 0 0;
#X connect 8 0 3 0;
#X restore 473 147 pd parse-midi-config;
#N canvas 759 213 450 300 create-midi-obj 0;
#X obj 38 192 pack 0 0 0 0 0;
#X obj 55 42 t b b b b b b;
#X obj 71 133 v midi-out-channel;
#X obj 51 156 v midi-in-channel;
#X obj 88 113 v midi-cc-knob1;
#X obj 101 92 v midi-cc-knob2;
#X obj 114 71 v midi-cc-knob3;
#X obj 44 16 inlet;
#X msg 15 233 \; pd-load-midi-obj-here obj 10 10 midiio \$1 \$2 \$3
\$4 \$5;
#X msg 233 70 \; pd-load-midi-obj-here clear;
#X connect 0 0 8 0;
#X connect 1 0 3 0;
#X connect 1 1 2 0;
#X connect 1 2 4 0;
#X connect 1 3 5 0;
#X connect 1 4 6 0;
#X connect 1 5 9 0;
#X connect 2 0 0 1;
#X connect 3 0 0 0;
#X connect 4 0 0 2;
#X connect 5 0 0 3;
#X connect 6 0 0 4;
#X connect 7 0 1 0;
#X restore 245 148 pd create-midi-obj;
#N canvas 486 453 450 300 load-midi-obj-here 0;
#X obj 10 10 midiio 1 1 20 21 22;
#X restore 244 181 pd load-midi-obj-here;
#X text 504 123 get values from file;
#X text 266 118 create midi object using values, f 23;
#X text 540 31 note \, cc \, and pgm are created dynamically with values
from config, f 34;
#X text 831 134 set defualt values in case there is problem with file
, f 23;
#X text 16 93 configuration values;
#X obj 385 73 t b b b;
#X obj 260 369 midirealtimein;
#X text 541 400 MIDI 248 = clock \; 250 = start \; 251 = continue.
252 = stop;
#X obj 262 403 sel 248 250 251 252 254, f 38;
#X obj 861 506 midiout;
#X msg 810 462 248;
#X msg 807 382 250;
#X msg 938 384 252;
#X text 836 333 clock through and out;
#X obj 253 448 s midi-clock-in;
#X obj 314 483 s midi-start-in;
#X obj 389 444 s midi-stop-in;
#X obj 807 360 r midi-start-out;
#X obj 807 412 r midi-clock-out;
#X obj 938 362 r midi-stop-out;
#X connect 0 0 19 0;
#X connect 19 0 12 0;
#X connect 19 1 11 0;
#X connect 19 2 1 0;
#X connect 20 0 22 0;
#X connect 22 0 28 0;
#X connect 22 1 29 0;
#X connect 22 3 30 0;
#X connect 24 0 23 0;
#X connect 31 0 25 0;
#X connect 32 0 24 0;
#X connect 33 0 26 0;
#X restore 314 274 pd midi;
#N canvas 8 50 513 685 latch-notes 0;
#N canvas 623 59 817 631 latcher 0;
#X obj 169 378 bag;
#X msg 317 311 flush;
#X obj 169 81 t a a, f 17;
#X obj 285 257 t a b;
#X obj 169 44 inlet;
#X obj 285 475 outlet;
#X obj 443 58 inlet;
#X obj 285 126 stripnote;
#X obj 285 228 pack, f 9;
#X obj 443 142 t b;
#X obj 169 123 unpack;
#X obj 169 156 swap, f 6;
#X obj 169 188 pack, f 6;
#X obj 169 225 route 0;
#X obj 169 400 pack 1 0;
#X obj 169 261 pack 0 100;
#X connect 0 0 14 0;
#X connect 1 0 0 0;
#X connect 2 0 10 0;
#X connect 2 1 7 0;
#X connect 3 0 5 0;
#X connect 3 1 1 0;
#X connect 4 0 2 0;
#X connect 6 0 9 0;
#X connect 7 0 8 0;
#X connect 7 1 8 1;
#X connect 8 0 3 0;
#X connect 9 0 1 0;
#X connect 10 0 11 0;
#X connect 10 1 11 1;
#X connect 11 0 12 0;
#X connect 11 1 12 1;
#X connect 12 0 13 0;
#X connect 13 0 15 0;
#X connect 14 0 5 0;
#X connect 15 0 0 0;
#X restore 43 413 pd latcher;
#X obj 173 298 spigot 1;
#X obj 43 298 spigot 0;
#X obj 226 272 == 0;
#X obj 43 626 outlet;
#X obj 43 106 inlet;
#X text 296 115 bang enable / disables latch;
#X text 44 53 incoming notes get sent through latch if enabled \, or
directly to output if disabled;
#X obj 309 298 b;
#X obj 193 159 t f f b, f 17;
#X obj 202 116 r latch-state;
#X connect 0 0 4 0;
#X connect 1 0 4 0;
#X connect 2 0 0 0;
#X connect 3 0 1 1;
#X connect 5 0 2 0;
#X connect 5 0 1 0;
#X connect 8 0 0 1;
#X connect 9 0 2 1;
#X connect 9 1 3 0;
#X connect 9 2 8 0;
#X connect 10 0 9 0;
#X restore 154 367 pd latch-notes;
#N canvas 41 43 1322 729 seq-control 0;
#X msg 232 385 arm, f 4;
#X obj 172 65 r shift-keys;
#X obj 114 447 v seq-state;
#X msg 137 509 stop;
#X obj 92 510 t b b;
#X obj 102 560 s seq-before-play;
#X obj 244 299 f;
#X obj 244 189 t f f;
#X obj 233 222 sel 1;
#X obj 243 325 sel 1;
#X obj 308 179 r shift;
#X msg 308 235 stop;
#X obj 308 209 sel 0;
#X obj 173 116 > 0;
#X obj 760 207 v seq-state;
#X obj 756 243 sel 6;
#X obj 761 148 r shift;
#X obj 761 178 sel 1;
#X obj 178 254 i;
#X obj 148 195 r shift;
#X obj 148 225 sel 0;
#X obj 86 214 sel 0;
#X obj 163 280 sel 1;
#X msg 141 310 0;
#X obj 172 89 route 1;
#X obj 115 480 sel 0 3;
#X obj 179 141 t f f f;
#X obj 140 340 t b f;
#X obj 1108 159 r save-seq;
#X obj 1108 194 t a b;
#X obj 1144 233 v seq-state;
#X obj 1137 260 sel 6 1;
#X msg 1124 290 stop;
#X text 1204 259 if for some reason it was recording or rec en \, stop
first, f 15;
#X obj 1107 392 r recall-seq;
#X obj 1108 422 t b a b;
#X msg 62 585 start-sync;
#X msg 280 386 clear;
#X obj 1075 339 s seq-control;
#X msg 757 273 stop;
#X obj 756 302 s seq-control;
#X msg 1161 463 stop;
#X obj 1125 588 s seq-control;
#X obj 1065 475 t b b;
#X obj 1096 524 s seq-before-play;
#X msg 1056 553 start-sync;
#X obj 251 419 s seq-control;
#X obj 241 354 t b b;
#X obj 744 495 t b b;
#X obj 781 531 s seq-before-play;
#X msg 745 562 start-sync;
#X obj 745 387 r shift;
#X obj 745 410 sel 1;
#X obj 745 435 v seq-state;
#X obj 744 463 sel 1;
#X obj 742 597 s seq-control;
#X text 274 66 press and hold to arm.;
#X obj 129 628 s seq-control;
#X text 1097 116 save and recall;
#X text 58 9 seq-state is: 0 = stopped \, 3 = playing \, 6 = rec enabled
\, 1 = recording, f 80;
#X text 751 117 pressing shift while armed always disamrs;
#X text 735 362 shift pressed while recording stops and plays;
#X text 364 210 releasing shift stops delay;
#X obj 244 271 del 400;
#X text 248 91 seq is played / stopped on key up;
#X text 245 115 handle cases where either shift key or key 1;
#X text 244 131 is released first.;
#N canvas 92 117 704 378 midi-transport 0;
#X obj 89 53 r midi-start-in;
#X obj 87 81 v seq-state;
#X obj 87 102 sel 0;
#X obj 90 127 t b b;
#X obj 99 163 s seq-before-play;
#X msg 91 194 start-sync;
#X obj 89 220 s seq-control;
#X text 88 31 midi start;
#X obj 287 86 v seq-state;
#X obj 287 165 s seq-control;
#X obj 285 56 r midi-stop-in;
#X obj 287 107 sel 3;
#X msg 290 139 stop;
#X text 284 34 midi stop;
#X connect 0 0 1 0;
#X connect 1 0 2 0;
#X connect 2 0 3 0;
#X connect 3 0 5 0;
#X connect 3 1 4 0;
#X connect 5 0 6 0;
#X connect 8 0 11 0;
#X connect 10 0 8 0;
#X connect 11 0 12 0;
#X connect 12 0 9 0;
#X restore 712 57 pd midi-transport;
#X connect 0 0 46 0;
#X connect 1 0 24 0;
#X connect 2 0 25 0;
#X connect 3 0 57 0;
#X connect 4 0 36 0;
#X connect 4 1 5 0;
#X connect 6 0 9 0;
#X connect 7 0 8 0;
#X connect 7 1 6 1;
#X connect 8 0 63 0;
#X connect 9 0 47 0;
#X connect 10 0 12 0;
#X connect 11 0 63 0;
#X connect 12 0 11 0;
#X connect 13 0 26 0;
#X connect 14 0 15 0;
#X connect 15 0 39 0;
#X connect 16 0 17 0;
#X connect 17 0 14 0;
#X connect 18 0 22 0;
#X connect 19 0 20 0;
#X connect 20 0 18 0;
#X connect 21 0 2 0;
#X connect 22 0 23 0;
#X connect 23 0 27 0;
#X connect 24 0 13 0;
#X connect 25 0 4 0;
#X connect 25 1 3 0;
#X connect 26 0 21 0;
#X connect 26 1 18 1;
#X connect 26 2 7 0;
#X connect 27 0 2 0;
#X connect 27 1 18 1;
#X connect 28 0 29 0;
#X connect 29 0 38 0;
#X connect 29 1 30 0;
#X connect 30 0 31 0;
#X connect 31 0 32 0;
#X connect 31 1 32 0;
#X connect 32 0 38 0;
#X connect 34 0 35 0;
#X connect 35 0 43 0;
#X connect 35 1 42 0;
#X connect 35 2 41 0;
#X connect 36 0 57 0;
#X connect 37 0 46 0;
#X connect 39 0 40 0;
#X connect 41 0 42 0;
#X connect 43 0 45 0;
#X connect 43 1 44 0;
#X connect 45 0 42 0;
#X connect 47 0 0 0;
#X connect 47 1 37 0;
#X connect 48 0 50 0;
#X connect 48 1 49 0;
#X connect 50 0 55 0;
#X connect 51 0 52 0;
#X connect 52 0 53 0;
#X connect 53 0 54 0;
#X connect 54 0 48 0;
#X connect 63 0 6 0;
#X restore 313 298 pd seq-control;
#X obj 35 319 r midi-note-in;
#X obj 38 594 s midi-note-out;
#N canvas 150 175 450 300 click 0;
#X obj 223 125 tgl 15 0 empty empty empty 17 7 0 10 #fcfcfc #000000
#000000 0 1;
#N canvas 162 161 1107 634 metro 0;
#X obj 212 537 outlet~;
#X obj 369 205 spigot 0;
#X obj 418 366 loadbang;
#X obj 475 40 inlet;
#X obj 291 33 inlet;
#X obj 203 415 tick metro1.wav \$1;
#X obj 210 472 *~ 0.2;
#X connect 1 0 5 0;
#X connect 2 0 5 1;
#X connect 3 0 1 1;
#X connect 4 0 1 0;
#X connect 5 0 6 0;
#X connect 6 0 0 0;
#X restore 178 166 pd metro;
#X obj 154 239 throw~ outL;
#X obj 241 242 throw~ outR;
#X obj 223 83 sel 18;
#X obj 222 57 stripnote;
#X obj 222 26 r shift-keys;
#X obj 115 99 sel 0;
#X obj 113 62 r beat-clock;
#X connect 0 0 1 1;
#X connect 1 0 2 0;
#X connect 1 0 3 0;
#X connect 4 0 0 0;
#X connect 5 0 4 0;
#X connect 6 0 5 0;
#X connect 7 0 1 0;
#X connect 8 0 7 0;
#X restore 315 320 pd click;
#X connect 0 0 2 0;
#X connect 1 0 2 1;
#X connect 5 0 29 0;
#X connect 5 0 52 0;
#X connect 14 0 21 0;
#X connect 21 0 49 0;
#X connect 28 0 29 0;
#X connect 28 0 5 0;
#X connect 28 0 52 0;
#X connect 30 0 27 0;
#X connect 49 0 30 0;
#X connect 51 0 49 0;
