#N canvas 6 25 1202 847 12;
#X obj 88 11 inlet;
#X obj 184 817 outlet~;
#X obj 57 620 *~;
#X obj 153 537 vline~;
#X obj 153 561 *~;
#X obj 88 285 route 0 1, f 20;
#X obj 169 199 i;
#X obj 204 198 + 1;
#X obj 204 222 == 1;
#X obj 88 237 list prepend;
#X obj 88 261 list trim;
#X obj 153 502 pack 0 5;
#X obj 153 475 == 0;
#X obj 153 411 t a a;
#X obj 88 309 t a b;
#X obj 120 335 i 0;
#X obj 249 621 *~;
#X obj 345 538 vline~;
#X obj 345 562 *~;
#X obj 345 503 pack 0 5;
#X obj 157 311 t a b;
#X obj 189 337 i 1;
#X obj 248 445 201_sample-voice-duck~ \$2;
#X obj 56 444 201_sample-voice-duck~ \$2;
#X obj 88 93 t a a;
#X obj 169 148 stripnote;
#X obj 169 172 t b;
#X obj 165 694 *~;
#X obj 88 35 list split 2, f 31;
#X obj 589 538 vline~;
#X obj 589 562 *~;
#X obj 589 503 pack 0 5;
#X connect 0 0 28 0;
#X connect 2 0 27 0;
#X connect 3 0 4 0;
#X connect 3 0 4 1;
#X connect 4 0 2 1;
#X connect 5 0 14 0;
#X connect 5 1 20 0;
#X connect 6 0 7 0;
#X connect 6 0 9 1;
#X connect 7 0 8 0;
#X connect 8 0 6 1;
#X connect 9 0 10 0;
#X connect 10 0 5 0;
#X connect 11 0 3 0;
#X connect 12 0 11 0;
#X connect 13 0 12 0;
#X connect 13 1 19 0;
#X connect 14 0 23 0;
#X connect 14 1 15 0;
#X connect 15 0 13 0;
#X connect 16 0 27 0;
#X connect 17 0 18 0;
#X connect 17 0 18 1;
#X connect 18 0 16 1;
#X connect 19 0 17 0;
#X connect 20 0 22 0;
#X connect 20 1 21 0;
#X connect 21 0 13 0;
#X connect 22 0 16 0;
#X connect 23 0 2 0;
#X connect 24 0 9 0;
#X connect 24 1 25 0;
#X connect 25 0 26 0;
#X connect 26 0 6 0;
#X connect 27 0 1 0;
#X connect 28 0 24 0;
#X connect 28 1 31 0;
#X connect 29 0 30 0;
#X connect 29 0 30 1;
#X connect 30 0 27 1;
#X connect 31 0 29 0;
