#N canvas 0 25 1308 789 12;
#X obj 243 373 hip~ 5;
#X obj 17 17 inlet~ inL-\$1;
#X obj 127 17 inlet~ inR-\$1;
#X obj 244 14 r notesIn-\$1;
#X obj 345 14 r ctrlIn-\$1;
#X obj 359 417 s notesOut-\$1;
#X obj 465 417 s ctrlOut-\$1;
#X obj 222 449 outlet~ outL-\$1;
#X obj 244 420 outlet~ outR-\$1;
#X obj 494 153 s \$1-samp-dec;
#X obj 683 379 s \$1-samp-pitch;
#X obj 695 181 t b;
#X obj 620 120 moses 0.45;
#X obj 695 157 moses 0.55;
#X obj 620 152 / 0.45;
#X obj 755 190 - 0.55;
#X obj 755 214 / 0.45;
#X obj 683 345 f;
#X obj 755 238 / 2;
#X obj 244 208 poly 8 1, f 10;
#N canvas 586 25 854 847 cycler 0;
#X obj 48 -37 inlet;
#X obj 87 944 outlet;
#X obj 117 305 tabread \$0-cycler;
#X obj 103 360 t a a;
#X obj 135 461 tabwrite \$0-cycler;
#X obj 48 137 t a a;
#X obj 128 521 expr if($f1 <= 0 \, -1 \, $f1);
#X obj 360 747 spigot;
#X obj 128 625 i 0;
#X obj 49 664 t a a, f 36;
#X obj 103 495 clip 0 1;
#X obj 378 775 unpack 0 0;
#X obj 378 857 pack, f 10;
#X obj 128 570 sel -1 -2, f 66;
#X obj 49 732 spigot;
#X obj 91 701 i 0;
#X obj 244 725 i 1;
#X obj 128 595 t b b b, f 17;
#X obj 587 607 t b a b, f 34;
#X obj 451 697 i 1;
#X obj 153 369 r \$1-inc;
#X obj 135 397 + 0;
#X obj 80 159 unpack;
#X obj 46 846 list append;
#X obj 373 890 list append;
#X obj 48 -13 stripnote;
#X obj 48 111 pack 0 0;
#X obj 175 37 r \$1-inc;
#X obj 175 61 > 0;
#X obj 81 207 i, f 10;
#X obj 80 231 sel 0 1;
#X obj 67 271 i 0;
#X obj 80 183 t b a a, f 24;
#X obj 103 272 i, f 11;
#X obj 561 833 * 6.28319;
#X obj 561 861 sin;
#X obj 561 724 t a a, f 16;
#X obj 670 816 * 6.28319;
#X obj 670 844 sin;
#X obj 670 768 / 2;
#X obj 561 748 + 0.5;
#X obj 561 772 wrap;
#X obj 561 799 / 2;
#X obj 135 423 expr if ($f1 >= 1 \, 0 \, $f1);
#X obj 128 547 expr if($f1 == 0.5 \, -2 \, $f1);
#X obj 481 790 i 1;
#X obj 354 603 t b b b;
#X obj 186 798 i 1;
#X obj 378 803 + 12;
#X obj 379 322 array define \$0-cycler 68;
#X obj 378 827 % 68;
#X obj 48 49 % 68;
#X obj 48 73 + 1;
#X obj 48 21 + 44;
#X connect 0 0 25 0;
#X connect 2 0 3 0;
#X connect 3 0 10 0;
#X connect 3 1 21 0;
#X connect 5 0 9 0;
#X connect 5 1 22 0;
#X connect 6 0 44 0;
#X connect 7 0 11 0;
#X connect 8 0 7 1;
#X connect 9 0 14 0;
#X connect 9 1 7 0;
#X connect 10 0 6 0;
#X connect 11 0 48 0;
#X connect 11 1 12 1;
#X connect 12 0 24 0;
#X connect 13 0 17 0;
#X connect 13 1 46 0;
#X connect 13 2 18 0;
#X connect 14 0 23 0;
#X connect 15 0 14 1;
#X connect 16 0 14 1;
#X connect 17 0 8 0;
#X connect 17 1 47 0;
#X connect 17 2 16 0;
#X connect 18 0 19 0;
#X connect 18 1 36 0;
#X connect 18 2 16 0;
#X connect 19 0 7 1;
#X connect 20 0 21 1;
#X connect 21 0 43 0;
#X connect 22 0 32 0;
#X connect 23 0 1 0;
#X connect 24 0 1 0;
#X connect 25 0 53 0;
#X connect 25 1 26 1;
#X connect 26 0 5 0;
#X connect 27 0 28 0;
#X connect 28 0 29 1;
#X connect 29 0 30 0;
#X connect 30 0 31 0;
#X connect 30 1 33 0;
#X connect 31 0 3 0;
#X connect 32 0 29 0;
#X connect 32 1 33 1;
#X connect 32 2 4 1;
#X connect 33 0 2 0;
#X connect 34 0 35 0;
#X connect 35 0 23 1;
#X connect 36 0 40 0;
#X connect 36 1 39 0;
#X connect 37 0 38 0;
#X connect 38 0 24 1;
#X connect 39 0 37 0;
#X connect 40 0 41 0;
#X connect 41 0 42 0;
#X connect 42 0 34 0;
#X connect 43 0 4 0;
#X connect 44 0 13 0;
#X connect 45 0 24 1;
#X connect 46 0 19 0;
#X connect 46 1 15 0;
#X connect 46 2 45 0;
#X connect 47 0 23 1;
#X connect 48 0 50 0;
#X connect 50 0 12 0;
#X connect 51 0 52 0;
#X connect 52 0 26 0;
#X connect 53 0 51 0;
#X restore 244 99 pd cycler;
#X obj 812 144 s \$1-inc;
#X obj 244 236 pack 0 0 0 0, f 16;
#X obj 244 285 clone -s 1 201_sample-voice~ 8 \$1;
#X obj 244 162 list split 2, f 23;
#X obj 494 64 r knob1-\$1;
#X obj 620 65 r knob2-\$1;
#X obj 695 205 1;
#X obj 748 297 + 1;
#X obj 755 262 * 2;
#X obj 620 200 + 0.2;
#X obj 620 176 * 0.79999;
#X obj 890 444 i;
#X obj 932 447 + 1;
#X obj 890 364 t a b;
#X obj 939 396 i 1;
#X obj 890 393 max 1;
#X obj 890 417 until;
#X obj 891 547 list prepend;
#X obj 890 468 t a a;
#X obj 890 518 list prepend read;
#X obj 891 572 list trim;
#X obj 890 241 r loadbang-\$1;
#X obj 890 495 makefilename samples/%d.wav;
#X obj 812 81 / 2;
#X obj 812 57 r knob3-\$1;
#X obj 890 324 i 68;
#X obj 891 608 clone -s 1 201_sample-load 68 bank1-\$1;
#X obj 924 276 bng 15 250 50 0 empty empty empty 17 7 0 10 #fcfcfc #000000 #000000;
#X msg 1070 559 vis 2 1;
#X text 382 98 24 - 91;
#X connect 0 0 7 0;
#X connect 0 0 8 0;
#X connect 3 0 20 0;
#X connect 11 0 27 0;
#X connect 12 0 14 0;
#X connect 12 1 13 0;
#X connect 13 0 11 0;
#X connect 13 1 15 0;
#X connect 14 0 31 0;
#X connect 15 0 16 0;
#X connect 16 0 18 0;
#X connect 17 0 10 0;
#X connect 18 0 29 0;
#X connect 19 0 22 0;
#X connect 19 1 22 1;
#X connect 19 2 22 2;
#X connect 20 0 24 0;
#X connect 22 0 23 0;
#X connect 23 0 0 0;
#X connect 24 0 19 0;
#X connect 24 1 22 3;
#X connect 25 0 9 0;
#X connect 26 0 12 0;
#X connect 27 0 17 0;
#X connect 28 0 17 0;
#X connect 29 0 28 0;
#X connect 30 0 17 0;
#X connect 31 0 30 0;
#X connect 32 0 33 0;
#X connect 32 0 39 0;
#X connect 33 0 32 1;
#X connect 34 0 36 0;
#X connect 34 1 35 0;
#X connect 35 0 32 1;
#X connect 36 0 37 0;
#X connect 37 0 32 0;
#X connect 38 0 41 0;
#X connect 39 0 43 0;
#X connect 39 1 38 1;
#X connect 40 0 38 0;
#X connect 41 0 47 0;
#X connect 42 0 46 0;
#X connect 43 0 40 0;
#X connect 44 0 21 0;
#X connect 45 0 44 0;
#X connect 46 0 34 0;
#X connect 48 0 46 0;
#X connect 49 0 47 0;
