#N canvas 172 25 1253 772 12;
#X obj 456 256 i;
#X obj 456 226 + 0.4999;
#X obj 103 379 pack 0 0 0;
#X obj 103 335 poly 4 1, f 10;
#X obj 313 592 clone -s 1 voice~ 4 \$1;
#X obj 16 34 inlet~ inL-\$1;
#X obj 126 34 inlet~ inR-\$1;
#X obj 243 31 r notesIn-\$1;
#X obj 634 20 r auxIn-\$1;
#X obj 633 43 r expIn-\$1;
#X obj 633 68 r fsIn-\$1;
#X obj 344 36 r ctrlIn-\$1;
#X obj 465 742 s notesOut-\$1;
#X obj 571 742 s ctrlOut-\$1;
#X obj 313 744 outlet~ outL-\$1;
#X obj 335 715 outlet~ outR-\$1;
#X obj 295 488 list prepend all;
#X obj 295 512 list trim;
#X obj 460 187 * 3;
#N canvas 4 50 1060 653 controls 0;
#X obj 178 154 r \$1-loadbang;
#X obj 152 501 outlet;
#X msg 122 293 gain2 0.8;
#X msg 456 296 att 0.01;
#X msg 542 355 sus 0.8;
#X msg 501 323 dec 0.1;
#X msg 561 376 rel 0.01;
#X msg 73 266 gain1 1;
#X msg 163 332 gain3 0.1;
#X msg 184 361 gain4 0.1;
#X connect 0 0 7 0;
#X connect 0 0 2 0;
#X connect 0 0 8 0;
#X connect 0 0 9 0;
#X connect 0 0 3 0;
#X connect 0 0 6 0;
#X connect 0 0 5 0;
#X connect 0 0 4 0;
#X connect 2 0 1 0;
#X connect 3 0 1 0;
#X connect 4 0 1 0;
#X connect 5 0 1 0;
#X connect 6 0 1 0;
#X connect 7 0 1 0;
#X connect 8 0 1 0;
#X connect 9 0 1 0;
#X restore 381 393 pd controls;
#X obj 304 339 list prepend sel;
#X obj 252 252 list prepend rel;
#X obj 255 187 * 2;
#X obj 255 211 + 0.01;
#X obj 313 676 hip~ 5;
#X obj 464 545 *~;
#X obj 808 256 sqrt;
#X obj 808 293 * 12;
#X obj 966 216 pow 2;
#X obj 966 305 lop~ 10;
#X obj 464 477 osc~ 0;
#X obj 969 256 * 5;
#X obj 255 163 r knob1-\$1;
#X obj 460 145 r knob2-\$1;
#X obj 981 48 r knob3-\$1;
#X connect 0 0 20 0;
#X connect 1 0 0 0;
#X connect 2 0 4 0;
#X connect 3 0 2 0;
#X connect 3 1 2 1;
#X connect 3 2 2 2;
#X connect 4 0 24 0;
#X connect 7 0 3 0;
#X connect 7 0 12 0;
#X connect 16 0 17 0;
#X connect 17 0 4 2;
#X connect 18 0 1 0;
#X connect 19 0 16 0;
#X connect 20 0 16 0;
#X connect 21 0 16 0;
#X connect 22 0 23 0;
#X connect 23 0 21 0;
#X connect 24 0 14 0;
#X connect 24 0 15 0;
#X connect 25 0 4 1;
#X connect 26 0 27 0;
#X connect 27 0 30 0;
#X connect 28 0 31 0;
#X connect 29 0 25 1;
#X connect 30 0 25 0;
#X connect 31 0 29 0;
#X connect 32 0 22 0;
#X connect 33 0 18 0;
#X connect 34 0 28 0;
#X connect 34 0 26 0;
