#N canvas 122 117 788 720 12;
#X text 267 576 sginal output;
#X obj 246 629 output~;
#X text 7 17 signal controlled 4-wave simple synth \, based on the Critter and Guitari Pocket Piano.;
#X obj 246 497 lop~ 100;
#X text 252 542 frequency in midi note number as signal input;
#X msg 246 50 60 100;
#X obj 246 74 unpack;
#N canvas 63 88 450 300 adsr 0;
#X text 178 185 0-1 float;
#X text 139 145 seconds (float);
#X text 127 122 seconds (float);
#X text 209 211 seconds (float);
#X obj 96 259 s \$0-mess;
#X obj 162 27 loadbang;
#X msg 66 119 att 0.01;
#X msg 96 147 dec 1;
#X msg 125 181 sus 0.8;
#X msg 147 211 rel 0.01;
#X connect 5 0 6 0;
#X connect 5 0 7 0;
#X connect 5 0 8 0;
#X connect 5 0 9 0;
#X connect 6 0 4 0;
#X connect 7 0 4 0;
#X connect 8 0 4 0;
#X connect 9 0 4 0;
#X restore 43 166 pd adsr;
#X obj 383 196 sel 0;
#X obj 415 243 / 127;
#X msg 415 267 gain \$1;
#X obj 415 291 s \$0-mess;
#X obj 172 497 r \$0-mess;
#X obj 383 159 t a a, f 14;
#X obj 478 192 > 0;
#X obj 478 244 s \$0-mess;
#X msg 478 220 gate \$1;
#N canvas 570 160 450 300 oscillator-gains 0;
#X obj 96 259 s \$0-mess;
#X obj 55 26 hsl 162 19 0 127 0 0 empty empty empty -2 -10 0 12 #fcfcfc #000000 #000000 0 1;
#X obj 52 50 / 127;
#X msg 52 82 oscG \$1;
#X obj 145 62 hsl 162 19 0 127 0 0 empty empty empty -2 -10 0 12 #fcfcfc #000000 #000000 0 1;
#X obj 142 86 / 127;
#X msg 142 118 triG \$1;
#X obj 217 107 hsl 162 19 0 127 0 0 empty empty empty -2 -10 0 12 #fcfcfc #000000 #000000 0 1;
#X obj 214 131 / 127;
#X obj 301 146 hsl 162 19 0 127 0 0 empty empty empty -2 -10 0 12 #fcfcfc #000000 #000000 0 1;
#X obj 298 170 / 127;
#X msg 298 202 sawG \$1;
#X msg 214 163 sqrG \$1;
#X connect 1 0 2 0;
#X connect 2 0 3 0;
#X connect 3 0 0 0;
#X connect 4 0 5 0;
#X connect 5 0 6 0;
#X connect 6 0 0 0;
#X connect 7 0 8 0;
#X connect 8 0 12 0;
#X connect 9 0 10 0;
#X connect 10 0 11 0;
#X connect 11 0 0 0;
#X connect 12 0 0 0;
#X restore 42 211 pd oscillator-gains;
#X obj 34 303 hsl 162 19 0 127 0 0 empty empty empty -2 -10 0 12 #fcfcfc #000000 #000000 0 1;
#X obj 31 327 / 127;
#X obj 31 351 * 48;
#X obj 31 375 - 24;
#X msg 31 439 shift \$1;
#X obj 31 463 s \$0-mess;
#X text 48 278 transpose w/ midi number;
#X obj 516 321 hsl 162 19 0 127 0 0 empty empty empty -2 -10 0 12 #fcfcfc #000000 #000000 0 1;
#X obj 513 345 / 127;
#X text 530 296 choose oscillator;
#X obj 513 423 i;
#X floatatom 513 447 5 0 0 0 - - - 0;
#X msg 513 470 selector \$1;
#X obj 513 494 s \$0-mess;
#X obj 246 98 makenote 69 1000;
#X obj 513 369 * 3;
#X obj 513 393 + 0.499;
#X floatatom 31 399 5 0 0 0 - - - 0;
#X obj 186 561 R_mode_BL~;
#X connect 3 0 36 1;
#X connect 5 0 6 0;
#X connect 6 0 32 0;
#X connect 6 1 32 1;
#X connect 8 1 9 0;
#X connect 9 0 10 0;
#X connect 10 0 11 0;
#X connect 12 0 36 0;
#X connect 13 0 8 0;
#X connect 13 1 14 0;
#X connect 14 0 16 0;
#X connect 16 0 15 0;
#X connect 18 0 19 0;
#X connect 19 0 20 0;
#X connect 20 0 21 0;
#X connect 21 0 35 0;
#X connect 22 0 23 0;
#X connect 25 0 26 0;
#X connect 26 0 33 0;
#X connect 28 0 29 0;
#X connect 29 0 30 0;
#X connect 30 0 31 0;
#X connect 32 0 3 0;
#X connect 32 1 13 0;
#X connect 33 0 34 0;
#X connect 34 0 28 0;
#X connect 35 0 22 0;
#X connect 36 1 1 0;
#X connect 36 1 1 1;
