#N canvas 334 25 1106 847 12;
#X obj 50 23 inlet;
#X text 102 26 trigger;
#X msg 537 101 clear;
#X obj 258 303 f;
#X obj 300 304 + 1;
#X obj 258 208 t a b, f 10;
#X obj 258 236 max 1;
#X obj 258 260 until;
#X obj 537 130 text define \$1;
#X text 334 4 Arg1: text buff name;
#X text 332 30 Arg1: text buff to read;
#X obj 212 124 text size \$2;
#X obj 258 338 text get \$2;
#X obj 257 439 sel _, f 17;
#X obj 212 182 moses 0;
#X obj 373 467 t b;
#X obj 257 406 list split 1;
#X obj 374 176 s \$0-restart;
#X text 702 43 -int +int = note on and transpose by that amount;
#X text 711 70 a-j is velocity change a = 100% j = 1%;
#X text 710 105 int is length of note 8 = 8th 16th;
#X obj 50 627 t a b;
#X obj 97 661 i 0;
#X obj 50 571 list prepend 0 length;
#X obj 50 595 list trim;
#X obj 50 689 text insert \$1;
#X text 293 360 rest or transpose?;
#X obj 505 212 r \$0-restart;
#X obj 505 236 i 0;
#X obj 505 260 v \$0-count;
#X obj 258 382 t a a a, f 16;
#X obj 50 67 t b b b b, f 70;
#X obj 50 500 v \$0-count;
#X obj 50 524 * 360;
#X obj 182 43 bng 15 250 50 0 empty empty empty 17 7 0 10 #fcfcfc #000000 #000000;
#X obj 325 243 i 0;
#N canvas 672 63 768 809 new-compound-list-version 0;
#X obj 106 56 inlet;
#X obj 292 151 list length;
#X obj 106 209 list split, f 27;
#X obj 292 175 - 1;
#X obj 106 115 t a a;
#X obj 106 88 list;
#X obj 545 361 swap 4;
#X obj 545 385 /, f 6;
#X obj 577 438 v \$0-count;
#X obj 545 413 t a b;
#X obj 545 467 +;
#X obj 545 531 v \$0-count;
#X obj 545 277 t a b;
#X obj 577 304 v \$0-count;
#N canvas 4 50 450 300 vel-symbols 0;
#X obj 24 13 inlet;
#X obj 25 65 list fromsymbol;
#X obj 24 41 symbol;
#X obj 25 89 - 97;
#X obj 25 113 / 10;
#X obj 25 137 swap 1;
#X obj 25 161 -;
#X obj 25 185 outlet;
#X connect 0 0 2 0;
#X connect 1 0 3 0;
#X connect 2 0 1 0;
#X connect 3 0 4 0;
#X connect 4 0 5 0;
#X connect 5 0 6 0;
#X connect 5 1 6 1;
#X connect 6 0 7 0;
#X restore 310 478 pd vel-symbols;
#X obj 138 535 pack 0 0 0, f 25;
#X obj 138 489 * 360;
#X obj 138 451 f;
#X obj 138 317 unpack 0 s, f 11;
#X obj 189 636 f;
#X obj 231 637 + 1;
#X obj 207 578 r \$0-restart;
#X obj 138 699 text set \$1;
#X obj 138 613 t a b;
#X obj 207 602 i 0;
#X obj 420 209 r \$0-add-count;
#X obj 106 246 list split 2, f 20;
#X obj 171 280 list store;
#X obj 106 270 t b a;
#X obj 138 356 t b a;
#X connect 0 0 5 0;
#X connect 1 0 3 0;
#X connect 2 0 26 0;
#X connect 2 1 12 0;
#X connect 3 0 2 1;
#X connect 4 0 2 0;
#X connect 4 1 1 0;
#X connect 5 0 4 0;
#X connect 6 0 7 0;
#X connect 6 1 7 1;
#X connect 7 0 9 0;
#X connect 8 0 10 1;
#X connect 9 0 10 0;
#X connect 9 1 8 0;
#X connect 10 0 11 0;
#X connect 12 0 6 0;
#X connect 12 1 13 0;
#X connect 13 0 17 1;
#X connect 14 0 15 2;
#X connect 15 0 23 0;
#X connect 16 0 15 0;
#X connect 17 0 16 0;
#X connect 18 0 29 0;
#X connect 18 1 14 0;
#X connect 19 0 20 0;
#X connect 19 0 22 1;
#X connect 20 0 19 1;
#X connect 21 0 24 0;
#X connect 23 0 22 0;
#X connect 23 1 19 0;
#X connect 24 0 19 1;
#X connect 25 0 6 0;
#X connect 26 0 28 0;
#X connect 26 1 27 1;
#X connect 27 0 26 0;
#X connect 28 0 27 0;
#X connect 28 1 18 0;
#X connect 29 0 17 0;
#X connect 29 1 15 1;
#X restore 373 546 pd new-compound-list-version;
#N canvas 4 50 970 779 old-way 0;
#X obj 292 592 f;
#X obj 334 593 + 1;
#X obj 310 534 r \$0-restart;
#X obj 241 655 text set \$1;
#X obj 241 569 t a b;
#X obj 241 142 unpack 0 s 0, f 24;
#N canvas 4 50 450 300 vel-symbols 0;
#X obj 24 13 inlet;
#X obj 25 65 list fromsymbol;
#X obj 24 41 symbol;
#X obj 25 89 - 97;
#X obj 25 113 / 10;
#X obj 25 137 swap 1;
#X obj 25 161 -;
#X obj 25 185 outlet;
#X connect 0 0 2 0;
#X connect 1 0 3 0;
#X connect 2 0 1 0;
#X connect 3 0 4 0;
#X connect 4 0 5 0;
#X connect 5 0 6 0;
#X connect 5 1 6 1;
#X connect 6 0 7 0;
#X restore 280 240 pd vel-symbols;
#X text 333 117 count note lengths;
#X obj 406 225 swap 4;
#X obj 406 249 /, f 6;
#X obj 438 302 v \$0-count;
#X obj 406 277 t a b;
#X obj 406 331 +;
#X obj 406 395 v \$0-count;
#X obj 489 104 r \$0-add-count;
#X obj 241 460 pack 0 0 0, f 25;
#X obj 241 291 t b a;
#X obj 241 424 * 360;
#X obj 310 558 i 0;
#X obj 241 387 f;
#X obj 406 171 t a b;
#X obj 438 199 v \$0-count;
#X obj 243 58 inlet;
#X connect 0 0 1 0;
#X connect 0 0 3 1;
#X connect 1 0 0 1;
#X connect 2 0 18 0;
#X connect 4 0 3 0;
#X connect 4 1 0 0;
#X connect 5 0 16 0;
#X connect 5 1 6 0;
#X connect 5 2 20 0;
#X connect 6 0 15 2;
#X connect 8 0 9 0;
#X connect 8 1 9 1;
#X connect 9 0 11 0;
#X connect 10 0 12 1;
#X connect 11 0 12 0;
#X connect 11 1 10 0;
#X connect 12 0 13 0;
#X connect 14 0 8 0;
#X connect 15 0 4 0;
#X connect 16 0 19 0;
#X connect 16 1 15 1;
#X connect 17 0 15 0;
#X connect 18 0 0 1;
#X connect 19 0 17 0;
#X connect 20 0 8 0;
#X connect 20 1 21 0;
#X connect 21 0 19 1;
#X connect 22 0 5 0;
#X restore 500 505 pd old-way;
#X obj 257 535 list store;
#X obj 373 492 list store;
#X obj 257 559 unpack s 0;
#X obj 324 588 swap 4;
#X obj 324 612 /, f 6;
#X obj 356 665 v \$0-count;
#X obj 324 640 t a b;
#X obj 324 694 +;
#X obj 324 728 v \$0-count;
#X connect 0 0 31 0;
#X connect 2 0 8 0;
#X connect 3 0 4 0;
#X connect 3 0 12 0;
#X connect 4 0 3 1;
#X connect 5 0 6 0;
#X connect 5 1 35 0;
#X connect 6 0 7 0;
#X connect 7 0 3 0;
#X connect 11 0 14 0;
#X connect 12 0 30 0;
#X connect 13 0 38 0;
#X connect 13 1 15 0;
#X connect 14 1 5 0;
#X connect 15 0 39 0;
#X connect 16 0 13 0;
#X connect 21 0 25 0;
#X connect 21 1 22 0;
#X connect 22 0 25 1;
#X connect 23 0 24 0;
#X connect 24 0 21 0;
#X connect 27 0 28 0;
#X connect 28 0 29 0;
#X connect 30 0 16 0;
#X connect 30 1 38 1;
#X connect 30 2 39 1;
#X connect 31 0 32 0;
#X connect 31 1 11 0;
#X connect 31 2 17 0;
#X connect 31 3 2 0;
#X connect 32 0 33 0;
#X connect 33 0 23 0;
#X connect 34 0 31 0;
#X connect 35 0 3 1;
#X connect 38 0 40 0;
#X connect 39 0 36 0;
#X connect 40 1 41 0;
#X connect 41 0 42 0;
#X connect 41 1 42 1;
#X connect 42 0 44 0;
#X connect 43 0 45 1;
#X connect 44 0 45 0;
#X connect 44 1 43 0;
#X connect 45 0 46 0;
