#N canvas 431 25 1009 847 12;
#X obj 123 307 r beat-clock;
#X obj 123 487 unpack 0 0, f 34;
#X msg 201 259 stop;
#X obj 123 540 sel 0;
#X obj 123 516 +;
#X obj 123 451 list store;
#X obj 81 13 inlet;
#X text 134 12 note;
#X obj 81 97 unpack 0 0;
#X obj 148 133 sel 0;
#X obj 81 48 t a a, f 30;
#X obj 382 236 stripnote;
#X obj 382 260 pack 0 0, f 9;
#X obj 383 680 list trim;
#X obj 155 597 pack, f 29;
#X obj 358 536 i;
#X obj 358 560 clip 1 127;
#N canvas 638 215 770 490 keep-notes-inbound 0;
#X obj 49 47 inlet;
#X obj 223 185 f;
#X text 255 187 store;
#X obj 49 119 sel 1 0, f 9;
#X obj 49 71 t a a a, f 27;
#X obj 138 181 f;
#X obj 138 207 t f f;
#X obj 170 286 / 12;
#X obj 170 310 i;
#X obj 327 455 outlet;
#X obj 138 395 -;
#X obj 170 358 * 12;
#X obj 224 264 sel 1 0, f 9;
#X obj 224 240 < 12;
#X obj 223 209 t f f;
#X obj 271 301 f;
#X obj 170 334 + 2;
#X obj 488 200 t f f;
#X obj 520 279 / 12;
#X obj 520 303 i;
#X obj 520 351 * 12;
#X obj 520 327 + 2;
#X obj 520 225 - 12;
#X obj 520 249 abs;
#X obj 488 388 +;
#X obj 48 95 > 115;
#X obj 170 262 - 115;
#X connect 0 0 4 0;
#X connect 1 0 14 0;
#X connect 3 0 5 0;
#X connect 3 1 1 0;
#X connect 4 0 25 0;
#X connect 4 1 5 1;
#X connect 4 2 1 1;
#X connect 5 0 6 0;
#X connect 6 0 10 0;
#X connect 6 1 26 0;
#X connect 7 0 8 0;
#X connect 8 0 16 0;
#X connect 10 0 9 0;
#X connect 11 0 10 1;
#X connect 12 0 17 0;
#X connect 12 1 15 0;
#X connect 13 0 12 0;
#X connect 14 0 13 0;
#X connect 14 1 15 1;
#X connect 15 0 9 0;
#X connect 16 0 11 0;
#X connect 17 0 24 0;
#X connect 17 1 22 0;
#X connect 18 0 19 0;
#X connect 19 0 21 0;
#X connect 20 0 24 1;
#X connect 21 0 20 0;
#X connect 22 0 23 0;
#X connect 23 0 18 0;
#X connect 24 0 9 0;
#X connect 25 0 3 0;
#X connect 26 0 7 0;
#X restore 754 646 pd keep-notes-inbound;
#X obj 155 570 clip 1 127;
#X obj 358 512 * 1;
#X obj 752 462 text define \$0-text;
#X msg 246 287 start-sync;
#X obj 123 376 t b a;
#X obj 246 245 t b;
#X obj 123 352 seq-player-4-arp \$0-text;
#X text 617 330 get comp length;
#X obj 458 596 text fromlist \$0-text;
#X obj 288 380 t b;
#X obj 382 284 t a b b b, f 24;
#X obj 236 455 unpack 0 0, f 20;
#X obj 155 643 poly 4 1, f 10;
#X obj 155 691 pack 0 0 0;
#X obj 155 756 list split 1;
#X obj 195 793 outlet;
#X obj 155 723 clone -s 1 4 makenote-voice 0.125;
#X obj 383 646 list prepend all;
#X obj 510 692 swap 60000;
#X obj 510 716 /;
#X obj 510 739 / 4;
#X obj 453 531 max 0;
#X text 611 388 counter/looper;
#X obj 405 393 i;
#X obj 453 395 + 1;
#X obj 453 419 moses, f 9;
#X obj 513 444 t b;
#X obj 453 502 i;
#X obj 513 468 i 0;
#X obj 473 334 i 0;
#X obj 510 668 r global-bpm;
#X obj 590 358 text size main-txt-\$2;
#X obj 458 567 text get main-txt-\$2;
#X connect 0 0 24 0;
#X connect 1 0 4 0;
#X connect 1 1 19 0;
#X connect 2 0 24 1;
#X connect 3 1 18 0;
#X connect 4 0 3 0;
#X connect 5 0 1 0;
#X connect 6 0 10 0;
#X connect 8 1 9 0;
#X connect 9 0 2 0;
#X connect 9 1 23 0;
#X connect 10 0 8 0;
#X connect 10 1 11 0;
#X connect 11 0 12 0;
#X connect 11 1 12 1;
#X connect 12 0 28 0;
#X connect 13 0 34 1;
#X connect 14 0 30 0;
#X connect 15 0 16 0;
#X connect 16 0 14 1;
#X connect 18 0 14 0;
#X connect 19 0 15 0;
#X connect 21 0 24 1;
#X connect 22 0 5 0;
#X connect 22 1 29 0;
#X connect 23 0 21 0;
#X connect 24 0 22 0;
#X connect 24 1 27 0;
#X connect 27 0 41 0;
#X connect 28 0 5 1;
#X connect 28 1 41 0;
#X connect 28 2 47 0;
#X connect 28 3 49 0;
#X connect 29 0 4 1;
#X connect 29 1 19 1;
#X connect 30 0 31 0;
#X connect 30 1 31 1;
#X connect 30 2 31 2;
#X connect 31 0 34 0;
#X connect 32 1 33 0;
#X connect 34 0 32 0;
#X connect 35 0 13 0;
#X connect 36 0 37 0;
#X connect 36 1 37 1;
#X connect 37 0 38 0;
#X connect 38 0 35 0;
#X connect 39 0 50 0;
#X connect 41 0 42 0;
#X connect 42 0 43 0;
#X connect 43 0 45 0;
#X connect 43 1 44 0;
#X connect 44 0 46 0;
#X connect 45 0 41 1;
#X connect 45 0 39 0;
#X connect 46 0 45 0;
#X connect 47 0 41 1;
#X connect 48 0 36 0;
#X connect 49 0 43 1;
#X connect 50 0 26 0;
