#N canvas 4 50 752 300 12;
#X obj 57 169 makenote, f 26;
#X obj 57 21 inlet;
#X obj 57 85 unpack 0 0;
#X obj 57 233 pack 0 0;
#X obj 57 257 outlet;
#X obj 299 23 inlet;
#X obj 57 45 t a b, f 18;
#X connect 0 0 3 0;
#X connect 0 1 3 1;
#X connect 1 0 6 0;
#X connect 2 0 0 0;
#X connect 2 1 0 1;
#X connect 3 0 4 0;
#X connect 5 0 0 2;
#X connect 6 0 2 0;
