#N canvas 0 155 1440 717 12;
#X obj 266 219 pack 0 0 0;
#X obj 266 308 list split 1;
#X msg 416 139 clear;
#X obj 612 470 t a b;
#X obj 646 503 i 0;
#X text 928 29 -int +int = note on and transpose by that amount;
#X text 937 56 a-j is velocity change a = 100% j = 1%;
#X text 936 91 int is length of note 8 = 8th 16th;
#X obj 266 130 poly 8 0, f 10;
#X text 1188 548 <-- click here to edit text;
#X obj 779 329 t b b;
#X obj 315 17 r notesIn-\$1;
#X obj 36 17 inlet~ inL-\$1;
#X obj 146 17 inlet~ inR-\$1;
#X obj 485 16 r auxIn-\$1;
#X obj 584 16 r expIn-\$1;
#X obj 584 41 r fsIn-\$1;
#X obj 702 16 r ctrlIn-\$1;
#X obj 702 42 s ctrlOut-\$1;
#X obj 778 186 r loadbang-\$1;
#X obj 367 644 s notesOut-\$1;
#X obj 45 644 outlet~ outL-\$1;
#X obj 184 644 outlet~ outR-\$1;
#X text 359 231 max 8-voices;
#X msg 1026 486 read pattern.txt;
#X text 845 335 local .txt file in folder;
#X obj 793 249 bng 19 250 50 0 empty empty empty 0 -10 0 12 #fcfcfc #000000 #000000;
#X msg 1046 519 write pattern.txt;
#X obj 1034 546 text define simple-\$1;
#X obj 612 446 text tolist my-buff-\$1;
#X obj 792 490 decode-text my-buff-\$1 simple-\$1;
#X obj 416 178 text define main-txt-\$1;
#X obj 267 252 clone -s 1 8 gen-patt-voice \$1;
#X obj 730 375 t b b;
#X obj 612 543 text set main-txt-\$1;
#X connect 0 0 32 0;
#X connect 1 1 20 0;
#X connect 2 0 31 0;
#X connect 3 0 34 0;
#X connect 3 1 4 0;
#X connect 4 0 34 1;
#X connect 8 0 0 0;
#X connect 8 1 0 1;
#X connect 8 2 0 2;
#X connect 10 0 33 0;
#X connect 10 1 24 0;
#X connect 11 0 8 0;
#X connect 19 0 10 0;
#X connect 24 0 28 0;
#X connect 26 0 10 0;
#X connect 27 0 28 0;
#X connect 29 0 3 0;
#X connect 32 0 1 0;
#X connect 33 0 29 0;
#X connect 33 1 30 0;
