#N canvas 592 50 1129 862 12;
#X obj 316 556 spigot;
#X text 517 269 rewind;
#X obj 604 776 outlet;
#X obj 419 555 spigot;
#X text 613 488 if a valid entry \, let it through \, otherwise block
;
#X obj 475 317 t b b b, f 8;
#N canvas 5 50 449 248 check-line 0;
#X msg 150 91 0;
#X obj 158 63 sel 2 0;
#X msg 192 93 1;
#X obj 164 33 inlet;
#X obj 136 160 outlet;
#X connect 0 0 4 0;
#X connect 1 0 0 0;
#X connect 1 1 2 0;
#X connect 2 0 4 0;
#X connect 3 0 1 0;
#X restore 514 487 pd check-line;
#X obj 523 630 route length;
#X text 540 314 zero out the last stored seq clock time \, reset line
counter \, get first line;
#X obj 523 724 s \$0len;
#X text 652 775 events;
#X obj 475 271 sel 0;
#X obj 48 57 r \$0len;
#X obj 156 27 inlet;
#X obj 295 27 inlet;
#X text 337 26 controls;
#X text 197 27 beat clock;
#X obj 202 279 r \$0len;
#X obj 156 372 sel 1;
#X obj 156 403 s \$0end;
#X obj 765 696 r \$0end;
#X obj 765 777 outlet;
#X obj 202 309 - 1;
#X text 813 773 bang at end;
#X obj 156 227 t f f f, f 46;
#X obj 295 128 s \$0quantize-length;
#N canvas 218 112 500 306 line-count 0;
#X obj 224 144 + 1;
#X msg 230 99 0;
#X obj 125 47 inlet;
#X obj 163 194 outlet;
#X obj 303 37 inlet;
#X text 348 38 reset;
#X text 211 196 count;
#X text 171 44 inc;
#X obj 168 144 f 0;
#X obj 167 169 t f f;
#X connect 0 0 8 1;
#X connect 1 0 8 1;
#X connect 2 0 8 0;
#X connect 4 0 1 0;
#X connect 8 0 9 0;
#X connect 9 0 3 0;
#X connect 9 1 0 0;
#X restore 419 382 pd line-count;
#X obj 359 286 r \$0get-next;
#X obj 316 635 s \$0get-next;
#N canvas 10 50 600 521 compare-times 0;
#X obj 220 142 list split 1;
#X obj 256 349 list, f 5;
#X obj 254 380 list trim;
#X obj 201 285 sel 1;
#X obj 201 312 t b b;
#X text 297 218 wait until sequcned clock advances then send out event
and get next., f 26;
#X obj 197 175 t b f;
#X obj 126 77 inlet;
#X text 101 42 seq clock;
#X obj 237 77 inlet;
#X text 255 49 event;
#X obj 376 81 inlet;
#X obj 376 103 bang;
#X msg 376 125 0;
#X text 372 57 zero it out;
#X obj 257 417 outlet;
#X obj 153 424 outlet;
#X obj 184 250 >=;
#X obj 169 221 i;
#X obj 214 222 i;
#X connect 0 0 6 0;
#X connect 0 1 1 1;
#X connect 1 0 2 0;
#X connect 2 0 15 0;
#X connect 3 0 4 0;
#X connect 4 0 16 0;
#X connect 4 1 1 0;
#X connect 6 0 18 0;
#X connect 6 1 19 0;
#X connect 7 0 18 0;
#X connect 9 0 0 0;
#X connect 11 0 12 0;
#X connect 12 0 13 0;
#X connect 13 0 18 1;
#X connect 17 0 3 0;
#X connect 18 0 17 0;
#X connect 19 0 17 1;
#X restore 316 596 pd compare-times - - - - - - -;
#X obj 156 336 >=, f 7;
#X obj 295 68 route quantize-length point, f 49;
#X obj 630 262 symbol;
#X obj 630 289 t a b a, f 13;
#X msg 674 349 0;
#X obj 674 408 route 0;
#X obj 120 547 s \$0len;
#X msg 48 86 length \$1;
#X msg 120 520 360;
#X obj 120 493 loadbang;
#X text 488 27 Arg1: text define to read from;
#X obj 674 376 text get \$1 -1;
#X obj 419 437 text get \$1 -1;
#X obj 156 197 cg-tick-counter 90;
#X obj 635 117 route stop;
#X obj 635 141 t b;
#X connect 0 0 29 0;
#X connect 3 0 29 1;
#X connect 5 0 26 0;
#X connect 5 1 26 1;
#X connect 5 2 29 2;
#X connect 6 0 0 1;
#X connect 6 0 3 1;
#X connect 7 0 9 0;
#X connect 7 1 2 0;
#X connect 11 0 5 0;
#X connect 12 0 37 0;
#X connect 13 0 43 0;
#X connect 14 0 31 0;
#X connect 17 0 22 0;
#X connect 18 0 19 0;
#X connect 20 0 21 0;
#X connect 22 0 30 1;
#X connect 24 0 30 0;
#X connect 24 1 0 0;
#X connect 24 2 11 0;
#X connect 26 0 42 0;
#X connect 27 0 26 0;
#X connect 29 0 28 0;
#X connect 29 1 7 0;
#X connect 30 0 18 0;
#X connect 31 0 25 0;
#X connect 31 1 32 0;
#X connect 31 2 43 1;
#X connect 31 2 44 0;
#X connect 32 0 33 0;
#X connect 33 0 42 3;
#X connect 33 1 34 0;
#X connect 33 2 41 3;
#X connect 34 0 41 0;
#X connect 35 0 7 0;
#X connect 37 0 43 1;
#X connect 38 0 36 0;
#X connect 39 0 38 0;
#X connect 41 0 35 0;
#X connect 42 0 3 0;
#X connect 42 1 6 0;
#X connect 43 0 24 0;
#X connect 44 0 45 0;
#X connect 45 0 29 2;
