#N canvas 207 122 1233 673 12;
#X obj 183 419 pack 0 0 0 0;
#X obj 237 352 t a a;
#X obj 269 377 > 0;
#X obj 182 324 poly 4 1;
#X obj 334 543 clone -s 1 voice~ 4;
#X obj 464 197 t a a;
#X obj 464 147 pow 2;
#X obj 464 171 * 20;
#X obj 656 264 t a a;
#X obj 656 214 pow 2;
#X obj 587 405 lop~ 5;
#X obj 255 114 t a a;
#X obj 255 34 * 3;
#X obj 255 88 i;
#X obj 373 486 list trim;
#N canvas 63 88 450 300 knob1-stuff 0;
#X obj 26 153 list prepend 1: Wave:;
#X obj 26 177 list trim;
#X obj 26 207 s screenLine1;
#X obj 26 71 sel 0 1 2 3, f 27;
#X msg 26 115 Sine;
#X msg 65 115 Triangle;
#X msg 135 113 Square;
#X msg 196 113 Saw;
#X obj 27 9 inlet;
#X connect 0 0 1 0;
#X connect 1 0 2 0;
#X connect 3 0 4 0;
#X connect 3 1 5 0;
#X connect 3 2 6 0;
#X connect 3 3 7 0;
#X connect 4 0 0 0;
#X connect 5 0 0 0;
#X connect 6 0 0 0;
#X connect 7 0 0 0;
#X connect 8 0 3 0;
#X restore 287 148 pd knob1-stuff;
#X obj 464 475 *~;
#X obj 496 225 i;
#X obj 688 300 i;
#X obj 255 180 list prepend all select;
#X obj 255 58 + 0.4999;
#X obj 872 167 t a a;
#X obj 872 398 list prepend all tpose;
#X obj 909 272 i;
#X obj 909 248 * 10;
#X obj 909 296 * 0.1;
#X obj 208 368 - 12;
#X obj 872 130 - 12;
#X obj 464 411 *~ 0.5;
#X obj 464 435 +~ 0.5;
#X obj 872 106 * 36;
#X obj 386 243 moses 0.01;
#X obj 386 267 t b b;
#X obj 477 331 i 0;
#X obj 408 327 f 0.5;
#X obj 915 26 loadbang;
#X msg 915 50 1;
#X obj 334 567 *~ 2;
#X obj 182 256 r \$1-notes;
#X obj 334 631 s~ \$1-out;
#X obj 255 10 r \$1-knob2;
#X obj 159 11 r \$1-knob1;
#X obj 161 112 s rcool;
#X obj 656 238 * 200;
#X obj 686 114 r \$1-knob3;
#X obj 464 387 osc~ 5;
#X connect 0 0 4 0;
#X connect 1 0 0 2;
#X connect 1 1 2 0;
#X connect 2 0 0 3;
#X connect 3 0 0 0;
#X connect 3 1 26 0;
#X connect 3 2 1 0;
#X connect 4 0 37 0;
#X connect 5 0 31 0;
#X connect 5 1 17 0;
#X connect 6 0 7 0;
#X connect 7 0 5 0;
#X connect 8 0 10 0;
#X connect 8 1 18 0;
#X connect 9 0 43 0;
#X connect 10 0 16 1;
#X connect 11 0 19 0;
#X connect 11 1 15 0;
#X connect 12 0 20 0;
#X connect 13 0 11 0;
#X connect 14 0 4 1;
#X connect 16 0 4 2;
#X connect 19 0 14 0;
#X connect 20 0 13 0;
#X connect 21 0 22 0;
#X connect 21 1 24 0;
#X connect 22 0 14 0;
#X connect 23 0 25 0;
#X connect 24 0 23 0;
#X connect 26 0 0 1;
#X connect 27 0 21 0;
#X connect 28 0 29 0;
#X connect 29 0 16 0;
#X connect 30 0 27 0;
#X connect 31 0 32 0;
#X connect 32 0 34 0;
#X connect 32 1 33 0;
#X connect 35 0 36 0;
#X connect 36 0 30 0;
#X connect 37 0 39 0;
#X connect 38 0 3 0;
#X connect 40 0 12 0;
#X connect 41 0 42 0;
#X connect 43 0 8 0;
#X connect 44 0 9 0;
#X connect 45 0 28 0;
