#N canvas 717 261 682 467 12;
#X obj 56 19 inlet;
#X text 101 18 note;
#X obj 132 128 list prepend gain;
#X obj 208 157 list prepend gate;
#X obj 133 237 list trim;
#X obj 56 72 unpack 0 0 0, f 22;
#X obj 131 100 / 127;
#X obj 516 15 inlet~;
#X obj 301 15 inlet;
#X obj 301 123 list prepend selector;
#X obj 301 89 route select tpose;
#X obj 383 181 list prepend shift;
#X obj 25 183 list prepend freq;
#X obj 133 306 R_Mode_Ext_LFO~;
#X obj 242 386 *~;
#X obj 294 463 outlet~;
#X msg 504 138 gain 1;
#X msg 572 139 gate 1;
#X obj 498 74 loadbang;
#X obj 486 247 > 0;
#X obj 509 423 line~, f 8;
#X msg 564 371 0 \$1;
#X obj 482 484 *~;
#X obj 563 342 f;
#X obj 595 256 * 1000;
#X obj 510 276 sel 1 0;
#X msg 520 373 1 2;
#X obj 594 41 r rcool;
#X connect 0 0 5 0;
#X connect 4 0 13 0;
#X connect 5 0 12 0;
#X connect 5 1 6 0;
#X connect 5 1 19 0;
#X connect 5 2 3 0;
#X connect 6 0 2 0;
#X connect 7 0 13 1;
#X connect 8 0 10 0;
#X connect 9 0 4 0;
#X connect 10 0 9 0;
#X connect 10 1 11 0;
#X connect 11 0 4 0;
#X connect 12 0 4 0;
#X connect 13 1 14 0;
#X connect 14 0 15 0;
#X connect 16 0 13 0;
#X connect 17 0 13 0;
#X connect 18 0 16 0;
#X connect 18 0 17 0;
#X connect 19 0 25 0;
#X connect 20 0 22 0;
#X connect 20 0 22 1;
#X connect 21 0 20 0;
#X connect 22 0 14 1;
#X connect 23 0 21 0;
#X connect 24 0 23 1;
#X connect 25 0 26 0;
#X connect 25 1 23 0;
#X connect 26 0 20 0;
#X connect 27 0 24 0;
