#N canvas 225 50 978 828 12;
#X obj 122 302 pack 0 0 0;
#X obj 122 216 poly 4 1;
#X obj 122 240 - 1;
#X obj 119 615 throw~ outL;
#X obj 136 579 throw~ outR;
#X obj 167 268 +;
#X obj 122 368 clone voice~ 4 \$1;
#X obj 638 289 loadbang;
#X obj 322 228 + 0.1;
#X obj 322 204 * 0.6;
#X obj 664 415 t b a;
#X obj 638 455 + 0;
#X obj 492 210 * 0.03;
#X obj 638 324 f 0.1335;
#X obj 322 111 swap 1;
#X obj 322 136 -;
#X obj 322 160 t a a;
#X obj 120 540 *~ 0.5;
#X obj 122 513 *~ 1;
#X obj 323 74 r \$1-knob1;
#X obj 494 85 r \$1-knob2;
#X obj 632 102 r \$1-knob3;
#X obj 494 147 s \$1-pick-pos;
#X obj 632 154 s \$1-pick-tone;
#X obj 322 259 s \$1-ring;
#X obj 638 495 s \$1-tune;
#X obj 122 160 r \$1-notes;
#X connect 0 0 6 0;
#X connect 1 0 2 0;
#X connect 1 1 5 0;
#X connect 1 2 0 2;
#X connect 2 0 0 0;
#X connect 5 0 0 1;
#X connect 6 0 18 0;
#X connect 7 0 13 0;
#X connect 8 0 24 0;
#X connect 9 0 8 0;
#X connect 10 0 11 0;
#X connect 10 1 11 1;
#X connect 11 0 25 0;
#X connect 12 0 10 0;
#X connect 13 0 11 0;
#X connect 14 0 15 0;
#X connect 14 1 15 1;
#X connect 15 0 16 0;
#X connect 16 0 9 0;
#X connect 16 1 12 0;
#X connect 17 0 4 0;
#X connect 17 0 3 0;
#X connect 18 0 17 0;
#X connect 19 0 14 0;
#X connect 20 0 22 0;
#X connect 21 0 23 0;
#X connect 26 0 1 0;
