#N canvas 512 115 855 757 12;
#X obj 17 24 inlet;
#X obj 273 146 / 127;
#X obj 17 48 unpack 0 0, f 37;
#X obj 445 143 > 0;
#X obj 630 655 outlet~;
#X obj 445 466 list trim;
#X obj 273 95 t a a, f 25;
#X obj 17 93 t a a, f 21;
#X obj 499 310 list prepend pos;
#X obj 17 387 list prepend freq;
#X obj 631 619 *~ 0.7;
#X obj 273 245 spigot 0;
#X obj 445 178 t a a a;
#X obj 17 349 spigot 0;
#X obj 273 269 list prepend gain;
#X obj 17 124 mtof;
#X obj 550 369 list prepend pDecay;
#X obj 615 419 list prepend tone;
#X obj 445 214 list prepend gate;
#X obj 679 518 list prepend tuneMe;
#X obj 645 470 list prepend ring;
#X obj 445 587 guitar_modTune~, f 27;
#X obj 498 286 r \$2-pick-pos;
#X obj 550 345 r \$2-pick-decay;
#X obj 613 395 r \$2-pick-tone;
#X obj 645 446 r \$2-ring;
#X obj 679 494 r \$2-tune;
#X connect 0 0 2 0;
#X connect 1 0 11 0;
#X connect 2 0 7 0;
#X connect 2 1 6 0;
#X connect 3 0 12 0;
#X connect 5 0 21 0;
#X connect 6 0 1 0;
#X connect 6 1 3 0;
#X connect 7 0 15 0;
#X connect 8 0 5 0;
#X connect 9 0 5 0;
#X connect 10 0 4 0;
#X connect 11 0 14 0;
#X connect 12 0 18 0;
#X connect 12 1 11 1;
#X connect 12 2 13 1;
#X connect 13 0 9 0;
#X connect 14 0 5 0;
#X connect 15 0 13 0;
#X connect 16 0 5 0;
#X connect 17 0 5 0;
#X connect 18 0 5 0;
#X connect 19 0 5 0;
#X connect 20 0 5 0;
#X connect 21 1 10 0;
#X connect 22 0 8 0;
#X connect 23 0 16 0;
#X connect 24 0 17 0;
#X connect 25 0 20 0;
#X connect 26 0 19 0;
