#N canvas 0 25 1440 770 10;
#X obj 29 87 bng 15 250 50 0 empty empty empty 17 7 0 10 #fcfcfc #000000
#000000;
#X obj 429 87 bng 15 250 50 0 empty empty empty 17 7 0 10 #fcfcfc #000000
#000000;
#X obj 226 86 bng 15 250 50 0 empty empty empty 17 7 0 10 #fcfcfc #000000
#000000;
#X obj 621 89 bng 15 250 50 0 empty empty empty 17 7 0 10 #fcfcfc #000000
#000000;
#X obj 819 88 bng 15 250 50 0 empty empty empty 17 7 0 10 #fcfcfc #000000
#000000;
#X obj 1005 85 bng 15 250 50 0 empty empty empty 17 7 0 10 #fcfcfc
#000000 #000000;
#X obj 428 137 bng 15 250 50 0 empty empty empty 17 7 0 10 #fcfcfc
#000000 #000000;
#X obj 225 135 bng 15 250 50 0 empty empty empty 17 7 0 10 #fcfcfc
#000000 #000000;
#X obj 621 137 bng 15 250 50 0 empty empty empty 17 7 0 10 #fcfcfc
#000000 #000000;
#X obj 817 134 bng 15 250 50 0 empty empty empty 17 7 0 10 #fcfcfc
#000000 #000000;
#X obj 1007 133 bng 15 250 50 0 empty empty empty 17 7 0 10 #fcfcfc
#000000 #000000;
#X obj 430 185 bng 15 250 50 0 empty empty empty 17 7 0 10 #fcfcfc
#000000 #000000;
#X obj 225 188 bng 15 250 50 0 empty empty empty 17 7 0 10 #fcfcfc
#000000 #000000;
#X obj 621 186 bng 15 250 50 0 empty empty empty 17 7 0 10 #fcfcfc
#000000 #000000;
#X obj 817 187 bng 15 250 50 0 empty empty empty 17 7 0 10 #fcfcfc
#000000 #000000;
#X obj 1010 185 bng 15 250 50 0 empty empty empty 17 7 0 10 #fcfcfc
#000000 #000000;
#X obj 29 135 bng 15 250 50 0 empty empty empty 17 7 0 10 #fcfcfc #000000
#000000;
#X obj 29 185 bng 15 250 50 0 empty empty empty 17 7 0 10 #fcfcfc #000000
#000000;
#X obj 431 235 bng 15 250 50 0 empty empty empty 17 7 0 10 #fcfcfc
#000000 #000000;
#X obj 226 236 bng 15 250 50 0 empty empty empty 17 7 0 10 #fcfcfc
#000000 #000000;
#X obj 622 237 bng 15 250 50 0 empty empty empty 17 7 0 10 #fcfcfc
#000000 #000000;
#X obj 820 236 bng 15 250 50 0 empty empty empty 17 7 0 10 #fcfcfc
#000000 #000000;
#X obj 1010 239 bng 15 250 50 0 empty empty empty 17 7 0 10 #fcfcfc
#000000 #000000;
#X obj 29 234 bng 15 250 50 0 empty empty empty 17 7 0 10 #fcfcfc #000000
#000000;
#X text 29 41 Sampler Manager;
#X text 292 10 -Each subpatch represents a key on the organelle. -Pass
the sound file name as an argument to sampler-voice \, this replaces
\$1 inside sampler-voice. -The sound files must be in the folder with
this patch.;
#X obj 179 546 catch~ samp_voice_out;
#X obj 157 653 s~ \$1-out;
#X obj 241 303 r \$1-knob3;
#X obj 360 309 r \$1-knob2;
#X obj 538 311 r \$1-knob1;
#X obj 29 110 sampler-voice 1.wav 0 \$1;
#X obj 29 158 sampler-voice 7.wav 6 \$1;
#X obj 29 208 sampler-voice 13.wav 12 \$1;
#X obj 29 260 sampler-voice 19.wav 18 \$1;
#X obj 226 110 sampler-voice 2.wav 1 \$1;
#X obj 225 157 sampler-voice 8.wav 7 \$1;
#X obj 225 209 sampler-voice 14.wav 13 \$1;
#X obj 226 259 sampler-voice 20.wav 19 \$1;
#X obj 429 110 sampler-voice 3.wav 2 \$1;
#X obj 428 159 sampler-voice 9.wav 8 \$1;
#X obj 430 208 sampler-voice 15.wav 14 \$1;
#X obj 431 262 sampler-voice 21.wav 20 \$1;
#X obj 621 109 sampler-voice 4.wav 3 \$1;
#X obj 621 160 sampler-voice 10.wav 9 \$1;
#X obj 621 209 sampler-voice 16.wav 15 \$1;
#X obj 622 260 sampler-voice 22.wav 21 \$1;
#X obj 819 109 sampler-voice 5.wav 4 \$1;
#X obj 817 158 sampler-voice 11.wav 10 \$1;
#X obj 817 210 sampler-voice 17.wav 16 \$1;
#X obj 820 260 sampler-voice 23.wav 22 \$1;
#X obj 1005 108 sampler-voice 6.wav 5 \$1;
#X obj 1007 157 sampler-voice 12.wav 11 \$1;
#X obj 1010 211 sampler-voice 18.wav 17 \$1;
#X obj 1010 262 sampler-voice 24.wav 23 \$1;
#X obj 538 332 s \$1-decay;
#X obj 359 413 s \$1-speed;
#X obj 163 586 *~ 0.5;
#X obj 361 361 * 2;
#X connect 0 0 31 0;
#X connect 1 0 39 0;
#X connect 2 0 35 0;
#X connect 3 0 43 0;
#X connect 4 0 47 0;
#X connect 5 0 51 0;
#X connect 6 0 40 0;
#X connect 7 0 36 0;
#X connect 8 0 44 0;
#X connect 9 0 48 0;
#X connect 10 0 52 0;
#X connect 11 0 41 0;
#X connect 12 0 37 0;
#X connect 13 0 45 0;
#X connect 14 0 49 0;
#X connect 15 0 53 0;
#X connect 16 0 32 0;
#X connect 17 0 33 0;
#X connect 18 0 42 0;
#X connect 19 0 38 0;
#X connect 20 0 46 0;
#X connect 21 0 50 0;
#X connect 22 0 54 0;
#X connect 23 0 34 0;
#X connect 26 0 57 0;
#X connect 29 0 58 0;
#X connect 30 0 55 0;
#X connect 57 0 27 0;
#X connect 58 0 56 0;
