#N canvas 225 25 929 770 10;
#X obj 16 34 inlet~ inL-\$1;
#X obj 126 34 inlet~ inR-\$1;
#X obj 243 31 r notesIn-\$1;
#X obj 676 8 r auxIn-\$1;
#X obj 675 31 r expIn-\$1;
#X obj 675 56 r fsIn-\$1;
#X obj 747 8 r ctrlIn-\$1;
#X obj 331 708 s notesOut-\$1;
#X obj 692 711 s ctrlOut-\$1;
#X obj 44 710 outlet~ outL-\$1;
#X obj 170 710 outlet~ outR-\$1;
#X obj 105 133 sel 1 94 181 274;
#X obj 106 107 r beat-clock;
#X obj 550 551 * 1000;
#X text 601 540 arp tick is /4 \, then we want /2 of that, f 19;
#X obj 550 527 / 8;
#X obj 333 679 pack 0 0, f 16;
#X obj 336 648 makenote 100 100;
#X obj 551 507 /;
#X obj 542 463 t b f;
#X obj 544 442 r global-bpm;
#X text 592 507 seconds / beat;
#X msg 539 485 60;
#X text 586 478 note lenght from bpm;
#X obj 349 355 pparp, f 19;
#X obj 401 243 unpack;
#X obj 122 184 t b;
#X obj 184 282 delay;
#X obj 147 214 t b b;
#X text 244 216 a tiny bit of jitter so notes not all pounding away
at the same time, f 17;
#X obj 181 241 random 5;
#X connect 2 0 25 0;
#X connect 11 0 26 0;
#X connect 11 1 26 0;
#X connect 11 2 26 0;
#X connect 11 3 26 0;
#X connect 12 0 11 0;
#X connect 13 0 17 2;
#X connect 15 0 13 0;
#X connect 16 0 7 0;
#X connect 17 0 16 0;
#X connect 17 1 16 1;
#X connect 18 0 15 0;
#X connect 19 0 22 0;
#X connect 19 1 18 1;
#X connect 20 0 19 0;
#X connect 22 0 18 0;
#X connect 24 0 17 0;
#X connect 25 0 24 1;
#X connect 25 1 24 2;
#X connect 26 0 28 0;
#X connect 27 0 24 0;
#X connect 28 0 27 0;
#X connect 28 1 30 0;
#X connect 30 0 27 1;
