#N canvas 4 50 450 300 10;
#X obj 10 180 inlet;
#X obj 130 180 inlet;
#X obj 190 180 r \$0-read;
#X obj 130 210 r \$0-all;
#X obj 190 210 faust-control \$0;
#X obj 190 240 s \$0-write;
#X obj 130 240 r \$0-in;
#X obj 130 510 s \$0-out;
#X obj 10 270 faust-gate 1;
#X obj 130 270 guitarMIDI~;
#X obj 10 300 faust-gate 2;
#X obj 130 300 guitarMIDI~;
#X obj 10 330 faust-gate 3;
#X obj 130 330 guitarMIDI~;
#X obj 10 360 faust-gate 4;
#X obj 130 360 guitarMIDI~;
#X obj 10 390 faust-gate 5;
#X obj 130 390 guitarMIDI~;
#X obj 10 420 faust-gate 6;
#X obj 130 420 guitarMIDI~;
#X obj 10 450 faust-gate 7;
#X obj 130 450 guitarMIDI~;
#X obj 10 480 faust-gate 8;
#X obj 130 480 guitarMIDI~;
#X obj 130 540 outlet~;
#X obj 190 540 outlet~;
#X obj 10 540 outlet;
#X obj 10 30 hsl 128 15 -2 2 0 0 \$0-guitar/midi/bend \$0-guitar/midi/bend
bend -2 -6 0 10 -262144 -1 -1 6300 1;
#X obj 160 30 nbx 5 14 -2 2 0 0 \$0-guitar/midi/bend \$0-guitar/midi/bend
empty 0 -6 0 10 -262144 -1 -1 -0.015748 256;
#X obj 235 30 hsl 128 15 0 1 0 0 \$0-guitar/midi/sustain \$0-guitar/midi/sustain
sustain -2 -6 0 10 -262144 -1 -1 0 1;
#X obj 385 30 nbx 5 14 0 1 0 0 \$0-guitar/midi/sustain \$0-guitar/midi/sustain
empty 0 -6 0 10 -262144 -1 -1 0 256;
#X obj 10 60 hsl 128 15 0 1 0 0 \$0-guitar/outGain \$0-guitar/outGain
outGain -2 -6 0 10 -262144 -1 -1 6350 1;
#X obj 160 60 nbx 5 14 0 1 0 0 \$0-guitar/outGain \$0-guitar/outGain
empty 0 -6 0 10 -262144 -1 -1 0.5 256;
#X obj 10 90 hsl 128 15 0 1 0 0 \$0-guitar/pluckPosition \$0-guitar/pluckPosition
pluckPosition -2 -6 0 10 -262144 -1 -1 0 1;
#X obj 160 90 nbx 5 14 0 1 0 0 \$0-guitar/pluckPosition \$0-guitar/pluckPosition
empty 0 -6 0 10 -262144 -1 -1 0 256;
#X obj 422 3 bng 15 250 50 1 \$0-init \$0-ignore empty 0 -6 0 10 -262144
-1 -1;
#X obj 442 3 tgl 15 1 \$0-active \$0-active empty 0 -6 0 10 -262144
-1 -1 1 1;
#X obj 490 10 r \$0-init;
#X obj 714 10 s \$0-all;
#X obj 826 10 s \$0-read;
#X obj 938 10 r \$0-write;
#X msg 490 30 1;
#X obj 490 50 s \$0-active;
#X obj 714 30 r \$0-active;
#X msg 714 50 active \$1;
#X obj 938 30 route active;
#X obj 938 50 s \$0-active;
#X msg 490 70 0;
#X obj 490 90 s \$0-guitar/midi/bend;
#X obj 714 70 r \$0-guitar/midi/bend;
#X msg 714 90 /guitar/midi/bend \$1;
#X obj 938 70 route /guitar/midi/bend;
#X obj 938 90 s \$0-guitar/midi/bend;
#X msg 490 110 0;
#X obj 490 130 s \$0-guitar/midi/sustain;
#X obj 714 110 r \$0-guitar/midi/sustain;
#X msg 714 130 /guitar/midi/sustain \$1;
#X obj 938 110 route /guitar/midi/sustain;
#X obj 938 130 s \$0-guitar/midi/sustain;
#X msg 490 150 0.5;
#X obj 490 170 s \$0-guitar/outGain;
#X obj 714 150 r \$0-guitar/outGain;
#X msg 714 170 /guitar/outGain \$1;
#X obj 938 150 route /guitar/outGain;
#X obj 938 170 s \$0-guitar/outGain;
#X msg 490 190 0.8;
#X obj 490 210 s \$0-guitar/pluckPosition;
#X obj 714 190 r \$0-guitar/pluckPosition;
#X msg 714 210 /guitar/pluckPosition \$1;
#X obj 938 190 route /guitar/pluckPosition;
#X obj 938 210 s \$0-guitar/pluckPosition;
#X text 0 130 Generated Tue Nov 1 20:43:27 2022 by faust2pd v2.16.
See http://faust.grame.fr and http://purelang.bitbucket.org.;
#X connect 0 0 8 0;
#X connect 0 0 10 0;
#X connect 0 0 12 0;
#X connect 0 0 14 0;
#X connect 0 0 16 0;
#X connect 0 0 18 0;
#X connect 0 0 20 0;
#X connect 0 0 22 0;
#X connect 1 0 4 0;
#X connect 1 0 26 0;
#X connect 2 0 4 0;
#X connect 3 0 9 0;
#X connect 3 0 11 0;
#X connect 3 0 13 0;
#X connect 3 0 15 0;
#X connect 3 0 17 0;
#X connect 3 0 19 0;
#X connect 3 0 21 0;
#X connect 3 0 23 0;
#X connect 4 0 5 0;
#X connect 6 0 9 0;
#X connect 8 0 9 0;
#X connect 9 0 7 0;
#X connect 9 1 24 0;
#X connect 9 2 25 0;
#X connect 10 0 11 0;
#X connect 11 1 24 0;
#X connect 11 2 25 0;
#X connect 12 0 13 0;
#X connect 13 1 24 0;
#X connect 13 2 25 0;
#X connect 14 0 15 0;
#X connect 15 1 24 0;
#X connect 15 2 25 0;
#X connect 16 0 17 0;
#X connect 17 1 24 0;
#X connect 17 2 25 0;
#X connect 18 0 19 0;
#X connect 19 1 24 0;
#X connect 19 2 25 0;
#X connect 20 0 21 0;
#X connect 21 1 24 0;
#X connect 21 2 25 0;
#X connect 22 0 23 0;
#X connect 23 1 24 0;
#X connect 23 2 25 0;
#X connect 37 0 47 0;
#X connect 37 0 53 0;
#X connect 37 0 59 0;
#X connect 37 0 65 0;
#X connect 40 0 45 0;
#X connect 41 0 42 0;
#X connect 43 0 44 0;
#X connect 44 0 38 0;
#X connect 45 0 46 0;
#X connect 45 1 51 0;
#X connect 47 0 48 0;
#X connect 49 0 50 0;
#X connect 50 0 38 0;
#X connect 51 0 52 0;
#X connect 51 1 57 0;
#X connect 53 0 54 0;
#X connect 55 0 56 0;
#X connect 56 0 38 0;
#X connect 57 0 58 0;
#X connect 57 1 63 0;
#X connect 59 0 60 0;
#X connect 61 0 62 0;
#X connect 62 0 38 0;
#X connect 63 0 64 0;
#X connect 63 1 69 0;
#X connect 65 0 66 0;
#X connect 67 0 68 0;
#X connect 68 0 38 0;
#X connect 69 0 70 0;
#X coords 0 -1 1 1 460 110 1 0 0;
