#N canvas 101 25 1214 746 12;
#X obj 46 255 pack 0 0 0 0;
#X obj 100 188 t a a;
#X obj 145 220 > 0;
#X obj 45 120 poly 4 1;
#X obj 795 437 hsl 128 15 0 127 0 0 empty empty empty -2 -8 0 10 #fcfcfc
#000000 #000000 0 1;
#X obj 792 457 / 127;
#X obj 906 462 hsl 128 15 0 127 0 0 empty empty empty -2 -8 0 10 #fcfcfc
#000000 #000000 0 1;
#X obj 903 482 / 127;
#X obj 1067 461 hsl 128 15 0 127 0 0 empty empty empty -2 -8 0 10 #fcfcfc
#000000 #000000 0 1;
#X obj 1064 481 / 127;
#X obj 1162 499 hsl 128 15 0 127 0 0 empty empty empty -2 -8 0 10 #fcfcfc
#000000 #000000 0 1;
#X obj 1159 519 / 127;
#X obj 504 473 hip~ 20;
#X obj 853 678 hsl 128 15 0 127 0 0 empty empty empty -2 -8 0 10 #fcfcfc
#000000 #000000 0 1;
#X obj 850 698 / 127;
#X obj 997 602 hsl 128 15 0 127 0 0 empty empty empty -2 -8 0 10 #fcfcfc
#000000 #000000 0 1;
#X obj 994 622 / 127;
#X obj 1092 640 hsl 128 15 0 127 0 0 empty empty empty -2 -8 0 10 #fcfcfc
#000000 #000000 0 1;
#X obj 1089 660 / 127;
#X obj 688 707 s a2;
#X obj 850 723 s d2;
#X obj 992 646 s s2;
#X obj 353 15 * 100;
#X obj 353 39 i;
#X obj 689 582 hsl 128 15 0 127 0 0 empty empty empty -2 -8 0 10 #fcfcfc
#000000 #000000 0 1;
#X obj 686 602 / 127;
#X floatatom 686 650 5 0 0 0 - - - 0;
#X obj 686 626 * 2;
#X obj 795 505 s at1;
#X obj 1101 686 * 1000;
#X obj 1159 543 * 1000;
#X obj 1194 594 s r1;
#X obj 1134 741 s r2;
#X obj 1064 505 s s1;
#X obj 903 506 s d1;
#X obj 100 212 / 127;
#X obj 47 293 guitarMIDI;
#X obj 251 7 r \$1-knob1;
#X obj 502 101 r \$1-knob2;
#X obj 872 82 r \$1-knob3;
#X obj 45 52 r \$1-notes;
#X obj 459 578 s~ \$1-out;
#X obj 303 196 list prepend sustain;
#X obj 386 252 list trim;
#X connect 0 0 36 0;
#X connect 1 0 35 0;
#X connect 1 1 2 0;
#X connect 2 0 0 3;
#X connect 3 0 0 0;
#X connect 3 1 0 1;
#X connect 3 2 1 0;
#X connect 4 0 5 0;
#X connect 5 0 28 0;
#X connect 6 0 7 0;
#X connect 7 0 34 0;
#X connect 8 0 9 0;
#X connect 9 0 33 0;
#X connect 10 0 11 0;
#X connect 11 0 30 0;
#X connect 12 0 41 0;
#X connect 13 0 14 0;
#X connect 14 0 20 0;
#X connect 15 0 16 0;
#X connect 16 0 21 0;
#X connect 17 0 18 0;
#X connect 18 0 29 0;
#X connect 22 0 23 0;
#X connect 24 0 25 0;
#X connect 25 0 27 0;
#X connect 26 0 19 0;
#X connect 27 0 26 0;
#X connect 29 0 32 0;
#X connect 30 0 31 0;
#X connect 35 0 0 2;
#X connect 36 2 12 0;
#X connect 37 0 42 0;
#X connect 40 0 3 0;
#X connect 42 0 43 0;
