#N canvas 194 224 799 422 12;
#X floatatom 288 143 5 0 0 0 - - - 0;
#X obj 288 166 mtof;
#X obj 291 111 hsl 162 19 0 127 0 0 empty empty empty -2 -10 0 12 #fcfcfc #000000 #000000 0 1;
#X text 294 231 frequency in hz as puredata signal input;
#X text 309 265 sginal output;
#X obj 288 318 output~;
#X obj 288 203 lop~ 100;
#X obj 288 51 loadbang;
#X obj 288 75 i 60;
#X obj 207 250 bl_triangle~;
#X text 7 17 signal controlled bandlimited triangle wave;
#X connect 0 0 1 0;
#X connect 1 0 6 0;
#X connect 2 0 0 0;
#X connect 6 0 9 1;
#X connect 7 0 8 0;
#X connect 8 0 2 0;
#X connect 9 1 5 0;
#X connect 9 1 5 1;
