#N canvas 684 25 756 790 12;
#X obj 60 24 inlet;
#X text 105 27 note;
#X obj 75 607 *~;
#X obj 60 71 mtof;
#X obj 60 95 lop~ 1000;
#X obj 109 241 osc~;
#X obj 111 268 *~;
#N canvas 150 175 450 450 env2 0;
#X obj 188 254 outlet~;
#X obj 188 178 vline~;
#X obj 188 212 *~;
#X obj 187 128 pack 0 0;
#X obj 54 135 pack 0 0 0;
#X obj 237 43 r \$0-att;
#X obj 69 20 inlet;
#X obj 49 91 i 0;
#X obj 96 77 r \$0-dec;
#X obj 69 44 t b a;
#X obj 96 101 / 1;
#X obj 237 67 / 1;
#X connect 1 0 2 0;
#X connect 1 0 2 1;
#X connect 2 0 0 0;
#X connect 3 0 1 0;
#X connect 4 0 1 0;
#X connect 5 0 11 0;
#X connect 6 0 9 0;
#X connect 7 0 4 0;
#X connect 8 0 10 0;
#X connect 9 0 7 0;
#X connect 9 1 3 0;
#X connect 10 0 4 1;
#X connect 11 0 3 1;
#X connect 11 0 4 2;
#X restore 171 251 pd env2;
#N canvas 150 175 450 450 env1 0;
#X obj 188 254 outlet~;
#X obj 188 178 vline~;
#X obj 188 212 *~;
#X obj 187 128 pack 0 0;
#X obj 54 135 pack 0 0 0;
#X obj 237 43 r \$0-att;
#X obj 69 20 inlet;
#X obj 49 91 i 0;
#X obj 96 77 r \$0-dec;
#X obj 96 101 / 1;
#X obj 69 44 t b a;
#X obj 237 67 / 0.9;
#X connect 1 0 2 0;
#X connect 1 0 2 1;
#X connect 2 0 0 0;
#X connect 3 0 1 0;
#X connect 4 0 1 0;
#X connect 5 0 11 0;
#X connect 6 0 10 0;
#X connect 7 0 4 0;
#X connect 8 0 9 0;
#X connect 9 0 4 1;
#X connect 10 0 7 0;
#X connect 10 1 3 0;
#X connect 11 0 3 1;
#X connect 11 0 4 2;
#X restore 93 568 pd env1;
#X obj 60 331 +~;
#X obj 60 48 unpack 0 0;
#X obj 139 75 sel 0;
#X obj 186 151 s \$0-trig;
#X obj 186 219 r \$0-trig;
#X obj 93 539 r \$0-trig;
#X obj 220 76 s \$0-dec;
#X obj 442 77 s \$0-att;
#X obj 176 101 / 127;
#X obj 176 125 sqrt;
#X obj 54 148 *~ 1;
#X obj 364 312 osc~;
#X obj 366 339 *~;
#X obj 441 290 r \$0-trig;
#N canvas 150 175 450 450 env3 0;
#X obj 188 254 outlet~;
#X obj 188 178 vline~;
#X obj 188 212 *~;
#X obj 187 128 pack 0 0;
#X obj 54 135 pack 0 0 0;
#X obj 237 43 r \$0-att;
#X obj 69 20 inlet;
#X obj 49 91 i 0;
#X obj 96 77 r \$0-dec;
#X obj 69 44 t b a;
#X obj 237 67 / 1.1;
#X obj 96 101 / 1.1;
#X connect 1 0 2 0;
#X connect 1 0 2 1;
#X connect 2 0 0 0;
#X connect 3 0 1 0;
#X connect 4 0 1 0;
#X connect 5 0 10 0;
#X connect 6 0 9 0;
#X connect 7 0 4 0;
#X connect 8 0 11 0;
#X connect 9 0 7 0;
#X connect 9 1 3 0;
#X connect 10 0 3 1;
#X connect 10 0 4 2;
#X connect 11 0 4 1;
#X restore 426 322 pd env3;
#X obj 110 183 +~;
#X obj 366 363 *~ 1000;
#X obj 65 510 *~ 0.5;
#X obj 79 305 *~ 100;
#X obj 75 658 outlet~;
#X obj 219 33 inlet;
#X obj 75 631 hip~ 30;
#X obj 323 114 t a a, f 12;
#X obj 323 178 wrap;
#X obj 323 202 + 2;
#X obj 407 202 + 0.765;
#X obj 321 38 inlet;
#X obj 405 144 * 3;
#X obj 405 168 + 2;
#X obj 411 243 lop~ 5;
#X obj 323 226 lop~ 5;
#X obj 364 288 *~;
#X obj 109 217 *~;
#X obj 437 43 inlet;
#X obj 127 467 *~ 0.25;
#X obj 545 47 inlet;
#X obj 552 159 s \$0-strike;
#X obj 545 71 clip 0 1;
#X obj 402 490 *~;
#X obj 530 441 r \$0-trig;
#X obj 400 463 osc~ 3100;
#N canvas 150 175 450 450 env4 0;
#X obj 188 254 outlet~;
#X obj 188 178 vline~;
#X obj 188 212 *~;
#X obj 187 128 pack 0 0;
#X obj 54 135 pack 0 0 0;
#X obj 237 43 r \$0-att;
#X obj 69 20 inlet;
#X obj 49 91 i 0;
#X obj 96 77 r \$0-dec;
#X obj 69 44 t b a;
#X obj 237 67 / 1.2;
#X obj 96 101 / 2;
#X connect 1 0 2 0;
#X connect 1 0 2 1;
#X connect 2 0 0 0;
#X connect 3 0 1 0;
#X connect 4 0 1 0;
#X connect 5 0 10 0;
#X connect 6 0 9 0;
#X connect 7 0 4 0;
#X connect 8 0 11 0;
#X connect 9 0 7 0;
#X connect 9 1 3 0;
#X connect 10 0 3 1;
#X connect 10 0 4 2;
#X connect 11 0 4 1;
#X restore 515 473 pd env4;
#X obj 481 558 r \$0-strike;
#X obj 481 582 * 1000;
#X obj 481 606 lop~ 5;
#X obj 402 514 *~;
#X obj 398 425 *~ 7.1;
#X obj 56 450 osc~;
#X connect 0 0 10 0;
#X connect 2 0 30 0;
#X connect 3 0 4 0;
#X connect 4 0 19 0;
#X connect 4 0 24 0;
#X connect 4 0 40 0;
#X connect 4 0 55 0;
#X connect 5 0 6 0;
#X connect 6 0 27 0;
#X connect 6 0 43 0;
#X connect 7 0 6 1;
#X connect 8 0 2 1;
#X connect 9 0 56 0;
#X connect 10 0 3 0;
#X connect 10 1 11 0;
#X connect 11 1 17 0;
#X connect 13 0 7 0;
#X connect 14 0 8 0;
#X connect 17 0 18 0;
#X connect 18 0 12 0;
#X connect 19 0 9 0;
#X connect 20 0 21 0;
#X connect 21 0 25 0;
#X connect 22 0 23 0;
#X connect 23 0 21 1;
#X connect 24 0 41 0;
#X connect 25 0 24 1;
#X connect 26 0 2 0;
#X connect 27 0 9 1;
#X connect 29 0 15 0;
#X connect 30 0 28 0;
#X connect 31 0 32 0;
#X connect 31 1 36 0;
#X connect 32 0 33 0;
#X connect 33 0 39 0;
#X connect 34 0 38 0;
#X connect 35 0 31 0;
#X connect 36 0 37 0;
#X connect 37 0 34 0;
#X connect 38 0 40 1;
#X connect 39 0 41 1;
#X connect 40 0 20 0;
#X connect 41 0 5 0;
#X connect 42 0 16 0;
#X connect 43 0 26 0;
#X connect 44 0 46 0;
#X connect 46 0 45 0;
#X connect 47 0 54 0;
#X connect 48 0 50 0;
#X connect 49 0 47 0;
#X connect 50 0 47 1;
#X connect 51 0 52 0;
#X connect 52 0 53 0;
#X connect 53 0 54 1;
#X connect 54 0 9 1;
#X connect 55 0 49 0;
#X connect 56 0 26 0;
