#N canvas 15 25 1336 780 12;
#X obj 329 620 hip~ 5;
#N canvas 341 31 1099 841 kick 0;
#X obj 87 432 list trim;
#X obj 160 580 outlet~;
#X obj 57 35 inlet;
#X obj 94 331 list prepend gain;
#X obj 249 344 list prepend gate;
#X obj 94 302 / 127;
#X obj 57 250 list prepend freq;
#X obj 57 224 mtof;
#X obj 259 245 > 0;
#X obj 57 190 unpack 0 0, f 22;
#X obj 207 218 t a a, f 11;
#X obj 208 242 sel 0;
#N canvas 4 50 450 300 gate 0;
#X obj 4 13 inlet;
#X obj 4 37 t b b b;
#X msg 111 79 stop;
#X obj 64 147 i 0;
#X obj 4 142 i 1;
#X obj 22 237 outlet;
#X obj 64 123 del 5;
#X connect 0 0 1 0;
#X connect 1 0 4 0;
#X connect 1 1 6 0;
#X connect 1 2 2 0;
#X connect 2 0 6 0;
#X connect 3 0 5 0;
#X connect 4 0 5 0;
#X connect 6 0 3 0;
#X restore 260 301 pd gate;
#X obj 259 269 sel 1;
#X obj 57 159 pack 0 0;
#X obj 57 62 t b a, f 10;
#X obj 386 105 + 0.2;
#X obj 584 173 list prepend freqDepth;
#N canvas 92 117 450 300 init 0;
#X obj 135 249 outlet;
#X obj 77 11 r loadbang-\$1;
#X msg 174 67 freqAtt 0.001;
#X msg 184 184 osc1Amp 1;
#X msg 209 227 osc3Amp 0;
#X msg 189 205 osc2Amp 0;
#X obj 77 35 t b b;
#X obj 203 148 t b b b;
#X connect 1 0 6 0;
#X connect 2 0 0 0;
#X connect 3 0 0 0;
#X connect 4 0 0 0;
#X connect 5 0 0 0;
#X connect 6 0 7 0;
#X connect 6 1 2 0;
#X connect 7 0 3 0;
#X connect 7 1 5 0;
#X connect 7 2 4 0;
#X restore 137 469 pd init;
#X obj 57 98 v \$0-og-midi;
#N canvas 121 146 450 300 scale-kick-freq 0;
#X obj 57 17 inlet;
#X obj 56 54 / 2;
#X obj 55 174 outlet;
#X obj 56 102 + 20;
#X obj 56 126 clip 27 60;
#X connect 0 0 1 0;
#X connect 1 0 3 0;
#X connect 3 0 4 0;
#X connect 4 0 2 0;
#X restore 56 127 pd scale-kick-freq;
#X obj 578 352 list prepend freqDec;
#X obj 575 298 * 0.5;
#X obj 575 322 max 0.001;
#X obj 386 140 list prepend osc1D;
#X obj 386 81 * 3;
#X obj 86 515 add_drum_3~;
#X obj 576 44 * 48;
#X obj 576 68 - 24;
#X obj 386 57 r knob1-\$1;
#X obj 576 20 r knob2-\$1;
#X obj 575 274 r knob3-\$1;
#X connect 0 0 26 0;
#X connect 2 0 15 0;
#X connect 3 0 0 0;
#X connect 4 0 0 0;
#X connect 5 0 3 0;
#X connect 6 0 0 0;
#X connect 7 0 6 0;
#X connect 8 0 13 0;
#X connect 9 0 7 0;
#X connect 9 1 10 0;
#X connect 10 0 11 0;
#X connect 10 1 8 0;
#X connect 11 1 5 0;
#X connect 12 0 4 0;
#X connect 13 0 12 0;
#X connect 14 0 9 0;
#X connect 15 0 19 0;
#X connect 15 1 14 1;
#X connect 16 0 24 0;
#X connect 17 0 0 0;
#X connect 18 0 26 0;
#X connect 19 0 20 0;
#X connect 20 0 14 0;
#X connect 21 0 0 0;
#X connect 22 0 23 0;
#X connect 23 0 21 0;
#X connect 24 0 0 0;
#X connect 25 0 16 0;
#X connect 26 1 1 0;
#X connect 27 0 28 0;
#X connect 28 0 17 0;
#X connect 29 0 25 0;
#X connect 30 0 27 0;
#X connect 31 0 22 0;
#X restore 11 409 pd kick;
#X obj 17 17 inlet~ inL-\$1;
#X obj 127 17 inlet~ inR-\$1;
#X obj 244 14 r notesIn-\$1;
#X obj 345 14 r ctrlIn-\$1;
#X obj 445 664 s notesOut-\$1;
#X obj 551 664 s ctrlOut-\$1;
#X obj 308 696 outlet~ outL-\$1;
#X obj 330 667 outlet~ outR-\$1;
#N canvas 457 214 983 658 cg-rim 0;
#X obj 56 49 inlet;
#X obj 180 457 outlet~;
#X obj 239 264 list prepend gain;
#X obj 355 300 list prepend gate;
#X obj 239 235 / 127;
#X obj 56 232 list prepend freq;
#X obj 56 186 mtof;
#X obj 316 207 > 0;
#X obj 56 152 unpack 0 0, f 22;
#X obj 206 180 t a a, f 16;
#X obj 207 204 sel 0;
#X obj 70 337 list trim;
#N canvas 4 50 450 300 gate 0;
#X obj 4 13 inlet;
#X obj 4 37 t b b b;
#X msg 111 79 stop;
#X obj 64 147 i 0;
#X obj 4 142 i 1;
#X obj 22 237 outlet;
#X obj 64 123 del 5;
#X connect 0 0 1 0;
#X connect 1 0 4 0;
#X connect 1 1 6 0;
#X connect 1 2 2 0;
#X connect 2 0 6 0;
#X connect 3 0 5 0;
#X connect 4 0 5 0;
#X connect 6 0 3 0;
#X restore 400 167 pd gate;
#X obj 316 231 sel 1;
#X obj 602 383 list prepend decay;
#X obj 530 175 list prepend bpF;
#X obj 533 419 list prepend noiseDec;
#X obj 641 24 r loadbang-\$1;
#X obj 671 210 list prepend hpF;
#X obj 541 145 clip 20 10000;
#X obj 674 182 clip 20 10000;
#X obj 73 378 cg_real_rim~;
#X msg 569 313 0.2;
#X obj 678 336 list prepend noiseAmp;
#X msg 687 155 1010;
#X msg 687 305 0.3;
#X obj 426 108 list prepend bpQ;
#X msg 564 100 3000;
#X msg 611 316 0.02;
#X msg 422 77 2;
#X obj 56 97 i 50;
#X obj 56 121 pack 0 0;
#X obj 56 74 t b a, f 10;
#X obj 697 55 r tone-\$1;
#X obj 697 79 * 5000;
#X obj 697 103 + 1000;
#X obj 800 81 * 5000;
#X obj 800 105 + 1000;
#X obj 800 57 r surprise-\$1;
#X obj 789 465 + 0.001;
#X obj 789 417 r shape-\$1;
#X obj 789 441 * 0.2;
#X obj 167 412 hip~ 40;
#X connect 0 0 32 0;
#X connect 2 0 11 0;
#X connect 3 0 11 0;
#X connect 4 0 2 0;
#X connect 5 0 11 0;
#X connect 6 0 5 0;
#X connect 7 0 13 0;
#X connect 8 0 6 0;
#X connect 8 1 9 0;
#X connect 9 0 10 0;
#X connect 9 1 7 0;
#X connect 10 1 4 0;
#X connect 11 0 21 0;
#X connect 12 0 3 0;
#X connect 13 0 12 0;
#X connect 14 0 11 0;
#X connect 15 0 11 0;
#X connect 16 0 11 0;
#X connect 17 0 22 0;
#X connect 17 0 28 0;
#X connect 17 0 25 0;
#X connect 17 0 24 0;
#X connect 17 0 27 0;
#X connect 17 0 29 0;
#X connect 18 0 11 0;
#X connect 19 0 15 0;
#X connect 20 0 18 0;
#X connect 21 1 42 0;
#X connect 22 0 16 0;
#X connect 23 0 11 0;
#X connect 24 0 20 0;
#X connect 25 0 23 0;
#X connect 26 0 11 0;
#X connect 27 0 19 0;
#X connect 28 0 14 0;
#X connect 29 0 26 0;
#X connect 30 0 31 0;
#X connect 31 0 8 0;
#X connect 32 0 30 0;
#X connect 32 1 31 1;
#X connect 33 0 34 0;
#X connect 34 0 35 0;
#X connect 35 0 19 0;
#X connect 36 0 37 0;
#X connect 37 0 20 0;
#X connect 38 0 36 0;
#X connect 39 0 14 0;
#X connect 40 0 41 0;
#X connect 41 0 39 0;
#X connect 42 0 1 0;
#X restore 91 305 pd cg-rim;
#N canvas 376 320 983 552 ride(symbol) 0;
#X obj 56 9 inlet;
#X obj 136 455 outlet~;
#X obj 239 285 list prepend gain;
#X obj 378 265 list prepend gate;
#X obj 56 202 list prepend freq;
#X obj 56 156 mtof;
#X obj 378 177 > 0;
#X obj 56 122 unpack 0 0, f 22;
#X obj 206 150 t a a, f 25;
#X obj 207 174 sel 0;
#X obj 70 357 list trim;
#X obj 378 201 sel 1;
#N canvas 4 50 450 300 gate-oneShot 0;
#X obj 4 13 inlet;
#X obj 4 37 t b b b;
#X msg 111 79 stop;
#X obj 64 147 i 0;
#X obj 4 142 i 1;
#X obj 22 237 outlet;
#X obj 64 123 del 5;
#X connect 0 0 1 0;
#X connect 1 0 4 0;
#X connect 1 1 6 0;
#X connect 1 2 2 0;
#X connect 2 0 6 0;
#X connect 3 0 5 0;
#X connect 4 0 5 0;
#X connect 6 0 3 0;
#X restore 378 232 pd gate-oneShot;
#X obj 56 33 t b a;
#X obj 57 91 pack 0 0, f 14;
#X obj 709 160 + 100;
#X obj 477 380 * 3;
#X obj 477 428 list prepend dec;
#X obj 709 210 list prepend op1F;
#X obj 767 338 list prepend op2F;
#X msg 517 91 strikeAmt 0;
#X obj 521 33 r loadbang-\$1;
#X obj 244 208 / 127;
#X obj 547 193 list prepend freqHP;
#X obj 647 88 + 1000;
#X obj 59 62 v \$0-og-midi;
#X obj 70 387 FM3_cymbal~;
#X obj 709 136 * 500;
#X obj 767 288 + 300;
#X obj 767 264 * 100;
#X obj 81 234 list prepend op3F;
#X obj 724 96 r knob3-\$1;
#X obj 647 40 r knob2-\$1;
#X obj 477 356 r knob1-\$1;
#X obj 477 404 + 0.25;
#X obj 244 232 * 0.1;
#X obj 244 256 + 0.8;
#X obj 647 64 * 5000;
#X msg 381 62 qHP 10;
#X msg 363 97 qLP 5;
#X msg 410 117 freqLP 10000;
#X connect 0 0 13 0;
#X connect 2 0 10 0;
#X connect 3 0 10 0;
#X connect 4 0 10 0;
#X connect 5 0 4 0;
#X connect 5 0 30 0;
#X connect 6 0 11 0;
#X connect 7 0 5 0;
#X connect 7 1 8 0;
#X connect 8 0 9 0;
#X connect 8 1 6 0;
#X connect 9 1 22 0;
#X connect 10 0 26 0;
#X connect 11 0 12 0;
#X connect 12 0 3 0;
#X connect 13 0 25 0;
#X connect 13 1 14 1;
#X connect 14 0 7 0;
#X connect 15 0 18 0;
#X connect 16 0 34 0;
#X connect 17 0 10 0;
#X connect 18 0 10 0;
#X connect 19 0 10 0;
#X connect 20 0 10 0;
#X connect 21 0 20 0;
#X connect 21 0 38 0;
#X connect 21 0 39 0;
#X connect 21 0 40 0;
#X connect 22 0 35 0;
#X connect 23 0 10 0;
#X connect 24 0 23 0;
#X connect 25 0 14 0;
#X connect 26 1 1 0;
#X connect 27 0 15 0;
#X connect 28 0 19 0;
#X connect 29 0 28 0;
#X connect 30 0 10 0;
#X connect 31 0 27 0;
#X connect 31 0 29 0;
#X connect 32 0 37 0;
#X connect 33 0 16 0;
#X connect 34 0 17 0;
#X connect 35 0 36 0;
#X connect 36 0 2 0;
#X connect 37 0 24 0;
#X connect 38 0 10 0;
#X connect 39 0 10 0;
#X connect 40 0 10 0;
#X restore 1083 444 pd ride(symbol);
#X obj 311 106 v \$0-vel;
#X obj 1105 358 sel 10;
#X obj 244 187 s \$0-midi;
#X obj 1109 323 r \$0-midi;
#X obj 244 163 % 12;
#X obj 284 258 r \$0-midi;
#X obj 1105 382 v \$0-vel;
#X obj 284 324 v \$0-vel;
#X obj 11 315 r \$0-midi;
#X obj 11 381 v \$0-vel;
#X obj 11 349 sel 0;
#X obj 520 278 r \$0-midi;
#X obj 520 344 v \$0-vel;
#X obj 643 344 v \$0-vel;
#X obj 244 74 stripnote;
#X obj 797 291 r \$0-midi;
#X obj 759 389 v \$0-vel;
#X obj 915 397 v \$0-vel;
#X obj 91 207 r \$0-midi;
#X obj 91 273 v \$0-vel;
#X obj 796 325 sel 6 8;
#X obj 91 241 sel 1;
#X obj 284 292 sel 3;
#N canvas 279 277 1152 496 bass-note 0;
#X obj 152 445 outlet~;
#X obj 239 235 / 127;
#X obj 56 152 unpack 0 0, f 22;
#X obj 207 204 sel 0;
#X obj 56 121 pack 0 0, f 19;
#X obj 56 74 t b a, f 19;
#X obj 61 36 inlet;
#X obj 38 307 bl_triangle~;
#X obj 56 97 v \$0-og-midi;
#X obj 156 394 *~;
#X obj 252 349 vline~;
#X obj 251 380 *~;
#X obj 419 62 * 2000;
#X obj 175 271 i 0;
#X obj 56 196 mtof;
#X obj 277 296 pack 0 8 3;
#X obj 366 297 pack 0 3;
#X obj 239 259 t b a b, f 19;
#X obj 176 300 pack 0 0 11;
#X obj 56 226 lop~ 1000;
#X obj 120 354 *~ 0.9;
#X obj 419 86 + 30;
#X obj 408 29 r knob1-\$1;
#X connect 1 0 17 0;
#X connect 2 0 14 0;
#X connect 2 1 3 0;
#X connect 3 1 1 0;
#X connect 4 0 2 0;
#X connect 5 0 8 0;
#X connect 5 1 4 1;
#X connect 6 0 5 0;
#X connect 7 1 20 0;
#X connect 8 0 4 0;
#X connect 9 0 0 0;
#X connect 10 0 11 0;
#X connect 10 0 11 1;
#X connect 11 0 9 1;
#X connect 12 0 21 0;
#X connect 13 0 18 0;
#X connect 14 0 19 0;
#X connect 15 0 10 0;
#X connect 16 0 10 0;
#X connect 17 0 13 0;
#X connect 17 1 15 0;
#X connect 17 2 16 0;
#X connect 18 0 10 0;
#X connect 19 0 7 1;
#X connect 20 0 9 0;
#X connect 21 0 18 1;
#X connect 22 0 12 0;
#X restore 196 409 pd bass-note;
#X obj 197 301 r \$0-midi;
#X obj 197 367 v \$0-vel;
#X obj 197 335 sel 2;
#X obj 520 312 sel 5 7;
#N canvas 158 316 1152 496 tom-hi 0;
#X obj 152 445 outlet~;
#X obj 239 264 list prepend gain;
#X obj 355 300 list prepend gate;
#X obj 239 235 / 127;
#X obj 56 252 list prepend freq;
#X obj 56 226 mtof;
#X obj 316 207 > 0;
#X obj 56 152 unpack 0 0, f 22;
#X obj 206 180 t a a, f 16;
#X obj 207 204 sel 0;
#X obj 70 337 list trim;
#N canvas 4 50 450 300 gate 0;
#X obj 4 13 inlet;
#X obj 4 37 t b b b;
#X msg 111 79 stop;
#X obj 64 147 i 0;
#X obj 4 142 i 1;
#X obj 22 237 outlet;
#X obj 64 123 del 5;
#X connect 0 0 1 0;
#X connect 1 0 4 0;
#X connect 1 1 6 0;
#X connect 1 2 2 0;
#X connect 2 0 6 0;
#X connect 3 0 5 0;
#X connect 4 0 5 0;
#X connect 6 0 3 0;
#X restore 380 256 pd gate;
#X obj 316 231 sel 1;
#X obj 56 121 pack 0 0;
#X obj 56 74 t b a, f 10;
#X obj 61 36 inlet;
#X obj 457 110 + 0.01;
#X obj 657 253 t a a a, f 31;
#X obj 657 277 swap 1;
#X obj 657 301 -, f 6;
#X obj 657 325 * 0.66666;
#X obj 657 349 + 0.3333;
#X obj 871 282 * 0.3333;
#X obj 764 279 swap 1;
#X obj 764 303 -, f 6;
#X obj 764 351 + 0.3333;
#X obj 764 327 * 0.16666;
#X obj 877 108 * 5;
#X obj 877 132 i;
#X obj 973 109 * 12;
#X obj 973 133 i;
#X obj 973 157 + 1;
#X obj 877 156 + 1;
#X obj 816 78 t a a a, f 23;
#X obj 816 128 + 1;
#X obj 816 102 * 1;
#X obj 457 134 list prepend osc1D;
#X obj 627 384 list prepend osc1A;
#X obj 765 386 list prepend osc2A;
#X obj 869 332 list prepend osc3A;
#X obj 857 223 list prepend osc2F;
#X obj 972 192 list prepend osc3F;
#X obj 726 165 list prepend osc1F;
#X obj 457 86 * 0.5;
#X obj 70 381 add_drum_3~;
#X obj 246 377 r loadbang-\$1;
#X msg 275 439 freqAtt 0.001;
#X msg 342 407 freqDec 0.008;
#X obj 56 97 v \$0-og-midi;
#X msg 245 407 freqDepth 12;
#X obj 736 8 r knob3-\$1;
#X obj 660 141 r knob2-\$1;
#X obj 457 62 r knob1-\$1;
#X connect 1 0 10 0;
#X connect 2 0 10 0;
#X connect 3 0 1 0;
#X connect 4 0 10 0;
#X connect 5 0 4 0;
#X connect 6 0 12 0;
#X connect 7 0 5 0;
#X connect 7 1 8 0;
#X connect 8 0 9 0;
#X connect 8 1 6 0;
#X connect 9 1 3 0;
#X connect 10 0 44 0;
#X connect 11 0 2 0;
#X connect 12 0 11 0;
#X connect 13 0 7 0;
#X connect 14 0 48 0;
#X connect 14 1 13 1;
#X connect 15 0 14 0;
#X connect 16 0 36 0;
#X connect 17 0 18 0;
#X connect 17 1 23 0;
#X connect 17 2 22 0;
#X connect 18 0 19 0;
#X connect 18 1 19 1;
#X connect 19 0 20 0;
#X connect 20 0 21 0;
#X connect 21 0 37 0;
#X connect 22 0 39 0;
#X connect 23 0 24 0;
#X connect 23 1 24 1;
#X connect 24 0 26 0;
#X connect 25 0 38 0;
#X connect 26 0 25 0;
#X connect 27 0 28 0;
#X connect 28 0 32 0;
#X connect 29 0 30 0;
#X connect 30 0 31 0;
#X connect 31 0 41 0;
#X connect 32 0 40 0;
#X connect 33 0 35 0;
#X connect 33 1 27 0;
#X connect 33 2 29 0;
#X connect 34 0 42 0;
#X connect 35 0 34 0;
#X connect 36 0 10 0;
#X connect 37 0 10 0;
#X connect 38 0 10 0;
#X connect 39 0 10 0;
#X connect 40 0 10 0;
#X connect 41 0 10 0;
#X connect 42 0 10 0;
#X connect 43 0 16 0;
#X connect 44 1 0 0;
#X connect 45 0 49 0;
#X connect 45 0 46 0;
#X connect 45 0 47 0;
#X connect 46 0 44 0;
#X connect 47 0 44 0;
#X connect 48 0 13 0;
#X connect 49 0 44 0;
#X connect 50 0 33 0;
#X connect 51 0 17 0;
#X connect 52 0 43 0;
#X restore 613 398 pd tom-hi;
#N canvas 288 181 1152 496 tom-lo 0;
#X obj 152 445 outlet~;
#X obj 239 264 list prepend gain;
#X obj 378 302 list prepend gate;
#X obj 239 235 / 127;
#X obj 56 252 list prepend freq;
#X obj 56 226 mtof;
#X obj 379 205 > 0;
#X obj 56 152 unpack 0 0, f 22;
#X obj 206 180 t a a, f 16;
#X obj 207 204 sel 0;
#X obj 70 337 list trim;
#N canvas 4 50 450 300 gate 0;
#X obj 4 13 inlet;
#X obj 4 37 t b b b;
#X msg 111 79 stop;
#X obj 64 147 i 0;
#X obj 4 142 i 1;
#X obj 22 237 outlet;
#X obj 64 123 del 5;
#X connect 0 0 1 0;
#X connect 1 0 4 0;
#X connect 1 1 6 0;
#X connect 1 2 2 0;
#X connect 2 0 6 0;
#X connect 3 0 5 0;
#X connect 4 0 5 0;
#X connect 6 0 3 0;
#X restore 380 256 pd gate;
#X obj 379 229 sel 1;
#X obj 56 121 pack 0 0;
#X obj 56 74 t b a, f 10;
#X obj 61 36 inlet;
#X obj 224 52 + 0.01;
#X obj 657 253 t a a a, f 31;
#X obj 657 277 swap 1;
#X obj 657 301 -, f 6;
#X obj 657 325 * 0.66666;
#X obj 657 349 + 0.3333;
#X obj 871 282 * 0.3333;
#X obj 764 279 swap 1;
#X obj 764 303 -, f 6;
#X obj 764 351 + 0.3333;
#X obj 764 327 * 0.16666;
#X obj 877 108 * 5;
#X obj 877 132 i;
#X obj 973 109 * 12;
#X obj 973 133 i;
#X obj 973 157 + 1;
#X obj 877 156 + 1;
#X obj 816 78 t a a a, f 23;
#X obj 816 128 + 1;
#X obj 816 102 * 1;
#X obj 224 76 list prepend osc1D;
#X obj 972 192 list prepend osc3F;
#X obj 818 208 list prepend osc2F;
#X obj 701 180 list prepend osc1F;
#X obj 512 28 r loadbang-\$1;
#X obj 466 167 list prepend osc1Att;
#X obj 511 140 list prepend osc2Att;
#X obj 531 115 list prepend osc3Att;
#X msg 524 64 0.004;
#X obj 608 386 list prepend osc1Amp;
#X obj 765 386 list prepend osc2Amp;
#X obj 869 332 list prepend osc3Amp;
#X obj 224 28 * 0.5;
#X obj 70 381 add_drum_3~;
#X obj 246 377 r loadbang-\$1;
#X msg 275 439 freqAtt 0.001;
#X msg 333 408 freqDec 0.008;
#X obj 56 97 v \$0-og-midi;
#X msg 245 407 freqDepth 12;
#X obj 736 8 r knob3-\$1;
#X obj 224 4 r knob1-\$1;
#X obj 652 215 r knob2-\$1;
#X connect 1 0 10 0;
#X connect 2 0 10 0;
#X connect 3 0 1 0;
#X connect 4 0 10 0;
#X connect 5 0 4 0;
#X connect 6 0 12 0;
#X connect 7 0 5 0;
#X connect 7 1 8 0;
#X connect 8 0 9 0;
#X connect 8 1 6 0;
#X connect 9 1 3 0;
#X connect 10 0 49 0;
#X connect 11 0 2 0;
#X connect 12 0 11 0;
#X connect 13 0 7 0;
#X connect 14 0 53 0;
#X connect 14 1 13 1;
#X connect 15 0 14 0;
#X connect 16 0 36 0;
#X connect 17 0 18 0;
#X connect 17 1 23 0;
#X connect 17 2 22 0;
#X connect 18 0 19 0;
#X connect 18 1 19 1;
#X connect 19 0 20 0;
#X connect 20 0 21 0;
#X connect 21 0 45 0;
#X connect 22 0 47 0;
#X connect 23 0 24 0;
#X connect 23 1 24 1;
#X connect 24 0 26 0;
#X connect 25 0 46 0;
#X connect 26 0 25 0;
#X connect 27 0 28 0;
#X connect 28 0 32 0;
#X connect 29 0 30 0;
#X connect 30 0 31 0;
#X connect 31 0 37 0;
#X connect 32 0 38 0;
#X connect 33 0 35 0;
#X connect 33 1 27 0;
#X connect 33 2 29 0;
#X connect 34 0 39 0;
#X connect 35 0 34 0;
#X connect 36 0 10 0;
#X connect 37 0 10 0;
#X connect 38 0 10 0;
#X connect 39 0 10 0;
#X connect 40 0 44 0;
#X connect 41 0 10 0;
#X connect 42 0 10 0;
#X connect 43 0 10 0;
#X connect 44 0 41 0;
#X connect 44 0 42 0;
#X connect 44 0 43 0;
#X connect 45 0 10 0;
#X connect 46 0 10 0;
#X connect 47 0 10 0;
#X connect 48 0 16 0;
#X connect 49 1 0 0;
#X connect 50 0 54 0;
#X connect 50 0 51 0;
#X connect 50 0 52 0;
#X connect 51 0 49 0;
#X connect 52 0 49 0;
#X connect 53 0 13 0;
#X connect 54 0 49 0;
#X connect 55 0 33 0;
#X connect 56 0 48 0;
#X connect 57 0 17 0;
#X restore 481 397 pd tom-lo;
#N canvas 385 320 983 552 hi-hat-close(symbol) 0;
#X obj 56 9 inlet;
#X obj 175 454 outlet~;
#X obj 239 285 list prepend gain;
#X obj 378 295 list prepend gate;
#X obj 239 205 / 127;
#X obj 56 202 list prepend freq;
#X obj 56 156 mtof;
#X obj 378 177 > 0;
#X obj 56 122 unpack 0 0, f 22;
#X obj 206 150 t a a, f 25;
#X obj 207 174 sel 0;
#X obj 70 357 list trim;
#X obj 378 201 sel 1;
#N canvas 4 50 450 300 gate-oneShot 0;
#X obj 4 13 inlet;
#X obj 4 37 t b b b;
#X msg 111 79 stop;
#X obj 64 147 i 0;
#X obj 4 142 i 1;
#X obj 22 237 outlet;
#X obj 64 123 del 5;
#X connect 0 0 1 0;
#X connect 1 0 4 0;
#X connect 1 1 6 0;
#X connect 1 2 2 0;
#X connect 2 0 6 0;
#X connect 3 0 5 0;
#X connect 4 0 5 0;
#X connect 6 0 3 0;
#X restore 378 232 pd gate-oneShot;
#X obj 56 33 t b a;
#X obj 57 91 pack 0 0, f 14;
#X obj 462 334 r loadbang-\$1;
#X obj 456 59 max 0.001;
#X obj 441 105 list prepend dec;
#X obj 239 229 * 0.05;
#X obj 239 253 + 0.95;
#X obj 480 181 * 4000;
#X obj 480 205 + 1000;
#X obj 576 299 list prepend freqLP;
#X obj 70 388 FM3_cymbal~;
#X obj 404 17 * 0.5;
#X msg 527 367 freqHP 10000;
#X msg 534 402 freqLP 5000;
#X msg 418 382 qLP 2;
#X msg 394 340 qHP 3;
#X msg 439 428 att 0.01;
#X obj 57 66 v \$0-og-midi;
#X obj 81 234 list prepend op3F;
#X obj 404 -7 r knob1-\$1;
#X obj 480 157 r knob2-\$1;
#X connect 0 0 14 0;
#X connect 2 0 11 0;
#X connect 3 0 11 0;
#X connect 4 0 19 0;
#X connect 5 0 11 0;
#X connect 6 0 5 0;
#X connect 6 0 32 0;
#X connect 7 0 12 0;
#X connect 8 0 6 0;
#X connect 8 1 9 0;
#X connect 9 0 10 0;
#X connect 9 1 7 0;
#X connect 10 1 4 0;
#X connect 11 0 24 0;
#X connect 12 0 13 0;
#X connect 13 0 3 0;
#X connect 14 0 31 0;
#X connect 14 1 15 1;
#X connect 15 0 8 0;
#X connect 16 0 26 0;
#X connect 16 0 27 0;
#X connect 16 0 28 0;
#X connect 16 0 29 0;
#X connect 16 0 30 0;
#X connect 17 0 18 0;
#X connect 18 0 11 0;
#X connect 19 0 20 0;
#X connect 20 0 2 0;
#X connect 21 0 22 0;
#X connect 22 0 23 0;
#X connect 23 0 11 0;
#X connect 24 1 1 0;
#X connect 25 0 17 0;
#X connect 26 0 24 0;
#X connect 27 0 24 0;
#X connect 28 0 24 0;
#X connect 29 0 24 0;
#X connect 30 0 24 0;
#X connect 31 0 15 0;
#X connect 32 0 11 0;
#X connect 33 0 25 0;
#X connect 34 0 21 0;
#X restore 719 434 pd hi-hat-close(symbol);
#N canvas 385 320 983 552 hh-open(symbol) 0;
#X obj 56 9 inlet;
#X obj 162 460 outlet~;
#X obj 239 285 list prepend gain;
#X obj 378 295 list prepend gate;
#X obj 239 205 / 127;
#X obj 56 202 list prepend freq;
#X obj 56 156 mtof;
#X obj 378 177 > 0;
#X obj 56 122 unpack 0 0, f 22;
#X obj 206 150 t a a, f 25;
#X obj 207 174 sel 0;
#X obj 70 357 list trim;
#X obj 56 33 t b a;
#X obj 57 91 pack 0 0, f 14;
#X obj 653 181 list prepend att;
#X obj 815 221 list prepend dec;
#X obj 239 229 * 0.05;
#X obj 239 253 + 0.95;
#X obj 842 179 f 0.01;
#X msg 575 380 freqHP 10000;
#X obj 517 236 list prepend freqLP;
#X obj 604 128 list prepend freqHP;
#X obj 842 155 r loadbang-\$1;
#X obj 610 96 + 1000;
#X obj 610 72 * 4000;
#X obj 488 107 + 2000;
#X obj 488 82 * 16000;
#X obj 70 388 FM3_cymbal~;
#X obj 771 115 * 0.3;
#X obj 771 139 + 0.01;
#X obj 57 66 v \$0-og-midi;
#X obj 81 234 list prepend op3F;
#X obj 771 91 r knob1-\$1;
#X obj 610 48 r knob3-\$1;
#X obj 488 59 r knob2-\$1;
#N canvas 4 50 450 300 gate-oneShot 0;
#X obj 4 13 inlet;
#X obj 4 37 t b b b;
#X msg 111 79 stop;
#X obj 64 147 i 0;
#X obj 4 142 i 1;
#X obj 22 237 outlet;
#X obj 64 123 del 20;
#X connect 0 0 1 0;
#X connect 1 0 4 0;
#X connect 1 1 6 0;
#X connect 1 2 2 0;
#X connect 2 0 6 0;
#X connect 3 0 5 0;
#X connect 4 0 5 0;
#X connect 6 0 3 0;
#X restore 378 232 pd gate-oneShot;
#X connect 0 0 12 0;
#X connect 2 0 11 0;
#X connect 3 0 11 0;
#X connect 4 0 16 0;
#X connect 5 0 11 0;
#X connect 6 0 5 0;
#X connect 6 0 31 0;
#X connect 7 0 35 0;
#X connect 8 0 6 0;
#X connect 8 1 9 0;
#X connect 9 0 10 0;
#X connect 9 1 7 0;
#X connect 10 1 4 0;
#X connect 11 0 27 0;
#X connect 12 0 30 0;
#X connect 12 1 13 1;
#X connect 13 0 8 0;
#X connect 14 0 11 0;
#X connect 15 0 11 0;
#X connect 16 0 17 0;
#X connect 17 0 2 0;
#X connect 18 0 15 0;
#X connect 19 0 27 0;
#X connect 20 0 11 0;
#X connect 21 0 11 0;
#X connect 22 0 18 0;
#X connect 22 0 19 0;
#X connect 23 0 21 0;
#X connect 24 0 23 0;
#X connect 25 0 20 0;
#X connect 26 0 25 0;
#X connect 27 1 1 0;
#X connect 28 0 29 0;
#X connect 29 0 14 0;
#X connect 30 0 13 0;
#X connect 31 0 11 0;
#X connect 32 0 28 0;
#X connect 33 0 24 0;
#X connect 34 0 26 0;
#X connect 35 0 3 0;
#X restore 912 432 pd hh-open(symbol);
#N canvas 4 25 931 847 cg-clap 0;
#X obj 217 398 list prepend gain;
#X obj 85 463 list trim;
#X obj 85 397 list prepend gate;
#N canvas 4 50 450 300 gate 0;
#X obj 4 13 inlet;
#X obj 4 37 t b b b;
#X msg 111 79 stop;
#X obj 64 147 i 0;
#X obj 4 142 i 1;
#X obj 22 237 outlet;
#X obj 64 124 del 3;
#X connect 0 0 1 0;
#X connect 1 0 4 0;
#X connect 1 1 6 0;
#X connect 1 2 2 0;
#X connect 2 0 6 0;
#X connect 3 0 5 0;
#X connect 4 0 5 0;
#X connect 6 0 3 0;
#X restore 85 357 pd gate;
#X obj 115 274 t b a;
#X obj 217 355 / 127;
#X obj 375 500 hsl 128 15 0 127 0 0 empty empty empty -2 -8 0 10 #fcfcfc #000000 #000000 0 1;
#X obj 372 520 / 127;
#X obj 376 594 hsl 128 15 0 127 0 0 empty empty empty -2 -8 0 10 #fcfcfc #000000 #000000 0 1;
#X obj 373 614 / 127;
#X obj 564 361 hsl 128 15 0 127 0 0 empty empty empty -2 -8 0 10 #fcfcfc #000000 #000000 0 1;
#X obj 561 381 / 127;
#X obj 119 158 inlet;
#X obj 166 622 outlet~;
#X obj 357 400 list prepend filterF;
#X obj 561 405 list prepend filterQ;
#X obj 372 544 list prepend att;
#X obj 374 638 list prepend dec;
#X obj 501 780 list prepend rel;
#X obj 370 463 list prepend delAmt;
#X obj 629 540 r loadbang-\$1;
#X msg 240 250 filterQ 2;
#X obj 236 166 r loadbang-\$1;
#X obj 85 514 cg_clap_lp~;
#X obj 514 621 f 0.01;
#X obj 618 569 f 0.01;
#X obj 627 278 * 1000;
#X obj 627 326 i;
#X obj 627 302 + 700;
#X obj 366 209 + 1000;
#X obj 364 185 * 5000;
#X obj 664 462 f 0.8;
#X obj 496 714 * 0.5;
#X obj 496 738 + 0.01;
#X obj 357 75 r knob2-\$1;
#X obj 627 254 r knob3-\$1;
#X obj 510 675 r knob1-\$1;
#X connect 0 0 1 0;
#X connect 1 0 23 0;
#X connect 2 0 1 0;
#X connect 3 0 2 0;
#X connect 4 0 3 0;
#X connect 4 1 5 0;
#X connect 5 0 0 0;
#X connect 6 0 7 0;
#X connect 7 0 16 0;
#X connect 8 0 9 0;
#X connect 9 0 17 0;
#X connect 10 0 11 0;
#X connect 11 0 15 0;
#X connect 12 0 4 0;
#X connect 14 0 1 0;
#X connect 15 0 1 0;
#X connect 16 0 1 0;
#X connect 17 0 1 0;
#X connect 18 0 1 0;
#X connect 19 0 1 0;
#X connect 20 0 24 0;
#X connect 20 0 25 0;
#X connect 20 0 31 0;
#X connect 21 0 23 0;
#X connect 22 0 21 0;
#X connect 23 1 13 0;
#X connect 24 0 17 0;
#X connect 25 0 16 0;
#X connect 26 0 28 0;
#X connect 27 0 19 0;
#X connect 28 0 27 0;
#X connect 29 0 14 0;
#X connect 30 0 29 0;
#X connect 31 0 15 0;
#X connect 32 0 33 0;
#X connect 33 0 18 0;
#X connect 34 0 30 0;
#X connect 35 0 26 0;
#X connect 36 0 32 0;
#X restore 284 362 pd cg-clap;
#X obj 272 135 v \$0-og-midi;
#X obj 244 98 t a a;
#X obj 711 469 *~ 0.6;
#X obj 912 456 *~ 0.6;
#X obj 1083 468 *~ 0.6;
#X obj 385 295 r \$0-midi;
#X obj 385 361 v \$0-vel;
#X obj 385 329 sel 4;
#N canvas 4 25 931 847 808-snare 0;
#X obj 119 158 inlet;
#X obj 116 356 outlet~;
#X obj 170 51 r loadbang-\$1;
#N canvas 0 25 1055 614 tr808-snare 0;
#X obj 236 10 inlet;
#X obj 174 410 vcf~ 3;
#X obj 205 109 noise~;
#X obj 196 164 *~;
#X obj 175 442 hip~ 50;
#X obj 384 312 +~ 100;
#X obj 383 285 *~ 8000;
#X obj 244 410 vcf~ 5;
#X obj 480 282 *~ 5000;
#X obj 484 310 +~ 200;
#X obj 296 15 inlet;
#X obj 175 483 outlet~;
#X obj 503 5 inlet;
#X obj 554 236 * 0.6;
#N canvas 381 209 450 300 vol_env 0;
#X obj 37 37 inlet;
#X obj 29 204 *~;
#X obj 29 225 outlet~;
#X obj 38 155 vline~;
#X msg 37 58 1 0.5 \, 0 \$1 0.5;
#X connect 0 0 4 0;
#X connect 1 0 2 0;
#X connect 3 0 1 0;
#X connect 3 0 1 1;
#X connect 4 0 3 0;
#X restore 132 82 pd vol_env;
#X obj 247 57 f 250;
#N canvas 381 209 450 300 cutoff_env 0;
#X obj 37 37 inlet;
#X obj 29 204 *~;
#X obj 29 225 outlet~;
#X obj 38 155 vline~;
#X msg 37 58 1 0.5 \, 0 \$1 0.5;
#X connect 0 0 4 0;
#X connect 1 0 2 0;
#X connect 3 0 1 0;
#X connect 3 0 1 1;
#X connect 4 0 3 0;
#X restore 400 172 pd cutoff_env;
#X obj 398 137 * 2;
#X text 591 220 Noise;
#N canvas 0 25 450 300 FM_osc 0;
#X obj 63 166 osc~ 150;
#X obj 68 135 +~;
#X obj 60 92 sig~ 150;
#X obj 134 70 osc~ 50;
#X obj 134 91 *~ 30;
#X obj 64 199 *~;
#X obj 220 143 *~;
#X obj 225 109 inlet~;
#X obj 64 220 outlet~;
#X obj 323 34 inlet;
#X obj 323 58 lop~ 5;
#X connect 0 0 5 0;
#X connect 1 0 0 0;
#X connect 2 0 1 0;
#X connect 3 0 4 0;
#X connect 4 0 1 1;
#X connect 5 0 8 0;
#X connect 6 0 5 1;
#X connect 7 0 6 0;
#X connect 7 0 6 1;
#X connect 9 0 10 0;
#X connect 10 0 3 0;
#X restore 100 177 pd FM_osc;
#X obj 210 138 hip~ 100;
#X obj 109 237 *~;
#X text 141 241 gain;
#X obj 623 32 inlet;
#X text 667 30 vel;
#X obj 595 98 lop~ 100;
#X obj 731 23 inlet;
#X connect 0 0 15 0;
#X connect 1 0 4 0;
#X connect 2 0 20 0;
#X connect 3 0 1 0;
#X connect 4 0 11 0;
#X connect 5 0 1 1;
#X connect 6 0 5 0;
#X connect 7 0 4 0;
#X connect 8 0 9 0;
#X connect 9 0 7 1;
#X connect 10 0 15 1;
#X connect 12 0 13 0;
#X connect 12 0 6 1;
#X connect 13 0 8 1;
#X connect 14 0 3 0;
#X connect 14 0 19 0;
#X connect 15 0 14 0;
#X connect 15 0 17 0;
#X connect 16 0 6 0;
#X connect 16 0 8 0;
#X connect 17 0 16 0;
#X connect 19 0 21 0;
#X connect 20 0 3 1;
#X connect 21 0 1 0;
#X connect 21 0 7 0;
#X connect 23 0 25 0;
#X connect 25 0 21 1;
#X connect 26 0 19 1;
#X restore 116 325 pd tr808-snare;
#X obj 138 258 * 1000;
#X obj 138 282 + 10;
#X obj 119 182 t b a;
#X obj 252 221 / 127;
#X obj 382 247 + 50;
#X obj 389 213 * 500;
#X obj 236 186 + 800;
#X obj 236 162 * 9100;
#X obj 461 77 r knob3-\$1;
#X obj 138 234 r knob1-\$1;
#X obj 236 138 r knob2-\$1;
#X connect 0 0 6 0;
#X connect 3 0 1 0;
#X connect 4 0 5 0;
#X connect 5 0 3 1;
#X connect 6 0 3 0;
#X connect 6 1 7 0;
#X connect 7 0 3 3;
#X connect 8 0 3 4;
#X connect 9 0 8 0;
#X connect 10 0 3 2;
#X connect 11 0 10 0;
#X connect 12 0 9 0;
#X connect 13 0 4 0;
#X connect 14 0 11 0;
#X restore 385 399 pd 808-snare;
#X obj 1176 92 r \$0-midi;
#X obj 1176 116 sel 11;
#X obj 968 71 r \$0-midi;
#X obj 1028 168 v \$0-vel;
#X obj 968 95 sel 9;
#N canvas 63 88 558 391 bell 0;
#X obj 37 37 inlet;
#X obj 128 164 cg_bell~, f 27;
#X obj 128 188 outlet~;
#X obj 137 81 * 3000;
#X obj 137 105 + 200;
#X obj 301 102 r loadbang-\$1;
#X obj 301 126 i 8;
#X obj 229 61 r knob3-\$1;
#X obj 431 36 r knob2-\$1;
#X obj 137 57 r knob1-\$1;
#X connect 0 0 1 0;
#X connect 1 0 2 0;
#X connect 3 0 4 0;
#X connect 4 0 1 1;
#X connect 5 0 6 0;
#X connect 6 0 1 3;
#X connect 7 0 1 2;
#X connect 8 0 1 4;
#X connect 9 0 3 0;
#X restore 969 241 pd bell;
#N canvas 440 149 834 633 suprise 0;
#X obj 37 37 inlet;
#X obj 295 17 r global-bpm;
#X obj 295 70 swap 60000;
#X obj 295 98 /, f 10;
#X obj 295 122 / 4;
#X obj 295 150 swap 1000;
#X obj 295 174 /, f 9;
#X obj 105 284 noise~;
#X obj 105 308 *~ 0.1;
#X obj 63 85 unpack;
#X obj 106 112 sel 0;
#X obj 139 145 / 127;
#X obj 139 169 sqrt;
#X obj 290 449 vline~;
#X obj 290 491 *~;
#X obj 198 512 *~;
#X obj 261 355 i 0;
#X obj 336 258 t b a;
#X obj 293 373 + 125;
#N canvas 619 250 450 577 oscp 0;
#X obj 48 41 inlet;
#X obj 48 71 t a b;
#X obj 167 129 + 1;
#X obj 167 153 == 1;
#X obj 128 126 i 1;
#X obj 47 182 list prepend;
#X obj 47 206 route 0 1, f 29;
#X obj 53 377 osc~;
#X obj 53 401 *~, f 9;
#X text 107 48 new freq;
#X obj 112 371 vline~;
#X obj 112 343 == 0;
#X obj 112 309 t a a;
#X obj 181 385 osc~;
#X obj 181 409 *~, f 9;
#X obj 240 379 vline~;
#X obj 171 271 i 1;
#X obj 113 273 i 0;
#X obj 47 230 t a b b;
#X obj 65 346 i 0;
#X obj 207 356 i 0;
#X obj 158 234 t a b b;
#X obj 152 527 outlet~;
#X connect 0 0 1 0;
#X connect 1 0 5 0;
#X connect 1 1 4 0;
#X connect 2 0 3 0;
#X connect 3 0 4 1;
#X connect 4 0 2 0;
#X connect 4 0 5 1;
#X connect 5 0 6 0;
#X connect 6 0 18 0;
#X connect 6 1 21 0;
#X connect 7 0 8 0;
#X connect 8 0 22 0;
#X connect 10 0 8 1;
#X connect 11 0 10 0;
#X connect 12 0 11 0;
#X connect 12 1 15 0;
#X connect 13 0 14 0;
#X connect 14 0 22 0;
#X connect 15 0 14 1;
#X connect 16 0 12 0;
#X connect 17 0 12 0;
#X connect 18 0 7 0;
#X connect 18 1 17 0;
#X connect 18 2 19 0;
#X connect 19 0 7 1;
#X connect 20 0 13 1;
#X connect 21 0 13 0;
#X connect 21 1 16 0;
#X connect 21 2 20 0;
#X restore 206 244 pd oscp;
#X obj 206 217 f;
#X obj 139 193 t a b;
#X obj 160 379 clip~ 30 10000;
#X obj 58 209 lop~ 1000;
#X obj 207 317 +~;
#X obj 429 219 lop~ 5;
#X obj 206 281 *~;
#X obj 400 405 pack 0 8;
#X obj 261 400 pack 0 1000 8;
#X obj 510 471 line 1 1;
#X obj 508 431 pack 0 100;
#X obj 506 406 + 1;
#X obj 529 317 t a a;
#X obj 603 429 * 4;
#X obj 603 453 + 0.5;
#X obj 603 500 lop~ 5;
#X obj 170 480 *~;
#X obj 603 405 pow 1;
#X obj 198 549 hip~ 40;
#X obj 198 610 outlet~;
#X obj 429 147 r knob2-\$1;
#X obj 522 279 r knob3-\$1;
#X obj 293 325 r knob1-\$1;
#X obj 81 418 vcf~ 20, f 10;
#X obj 81 450 vcf~ 20, f 10;
#X obj 429 183 * 48;
#X obj 207 341 mtof~;
#X obj 502 378 * 20;
#X obj 529 341 pow 4;
#X obj 293 349 * 2000;
#X connect 0 0 9 0;
#X connect 1 0 2 0;
#X connect 2 0 3 0;
#X connect 2 1 3 1;
#X connect 3 0 4 0;
#X connect 4 0 5 0;
#X connect 5 0 6 0;
#X connect 5 1 6 1;
#X connect 6 0 20 1;
#X connect 7 0 8 0;
#X connect 8 0 43 0;
#X connect 9 0 23 0;
#X connect 9 1 10 0;
#X connect 10 1 11 0;
#X connect 11 0 12 0;
#X connect 12 0 21 0;
#X connect 13 0 14 0;
#X connect 13 0 14 1;
#X connect 14 0 15 1;
#X connect 15 0 38 0;
#X connect 16 0 28 0;
#X connect 17 0 16 0;
#X connect 17 1 27 0;
#X connect 18 0 28 1;
#X connect 19 0 26 0;
#X connect 20 0 19 0;
#X connect 21 0 17 0;
#X connect 21 1 20 0;
#X connect 22 0 43 1;
#X connect 22 0 44 1;
#X connect 23 0 24 1;
#X connect 24 0 46 0;
#X connect 25 0 26 1;
#X connect 26 0 24 0;
#X connect 27 0 13 0;
#X connect 28 0 13 0;
#X connect 29 0 43 2;
#X connect 29 0 44 2;
#X connect 30 0 29 0;
#X connect 31 0 30 0;
#X connect 32 0 48 0;
#X connect 32 1 37 0;
#X connect 33 0 34 0;
#X connect 34 0 35 0;
#X connect 35 0 36 1;
#X connect 36 0 15 0;
#X connect 37 0 33 0;
#X connect 38 0 39 0;
#X connect 40 0 45 0;
#X connect 41 0 32 0;
#X connect 42 0 49 0;
#X connect 43 0 44 0;
#X connect 44 0 36 0;
#X connect 45 0 25 0;
#X connect 46 0 22 0;
#X connect 47 0 31 0;
#X connect 48 0 47 0;
#X connect 49 0 18 0;
#X restore 1176 244 pd suprise;
#X text 476 34 12 drum synth sounds;
#X obj 11 433 *~ 0.9;
#X obj 91 329 *~ 0.8;
#X obj 196 433 *~ 0.6;
#X obj 480 429 *~ 0.8;
#X obj 612 436 *~ 0.8;
#X obj 385 423 *~ 0.1;
#X obj 311 399 *~ 3;
#X obj 930 171 v \$0-og-midi;
#X obj 968 119 t b b;
#X obj 930 195 pack 0 0;
#X obj 1258 171 v \$0-vel;
#X obj 1160 174 v \$0-og-midi;
#X obj 1197 212 pack 0 0;
#X obj 1178 143 t b b;
#X obj 1176 268 *~ 3;
#X obj 969 265 *~ 0.15;
#X connect 0 0 8 0;
#X connect 0 0 9 0;
#X connect 1 0 62 0;
#X connect 4 0 26 0;
#X connect 10 0 63 0;
#X connect 11 0 49 0;
#X connect 13 0 18 0;
#X connect 15 0 13 0;
#X connect 16 0 14 0;
#X connect 17 0 34 0;
#X connect 18 0 11 0;
#X connect 19 0 44 0;
#X connect 20 0 22 0;
#X connect 21 0 1 0;
#X connect 22 0 21 0;
#X connect 23 0 39 0;
#X connect 24 0 41 0;
#X connect 25 0 40 0;
#X connect 26 0 46 0;
#X connect 26 1 12 0;
#X connect 27 0 32 0;
#X connect 28 0 42 0;
#X connect 29 0 43 0;
#X connect 30 0 33 0;
#X connect 31 0 10 0;
#X connect 32 0 28 0;
#X connect 32 1 29 0;
#X connect 33 0 31 0;
#X connect 34 0 19 0;
#X connect 35 0 64 0;
#X connect 36 0 38 0;
#X connect 37 0 35 0;
#X connect 38 0 37 0;
#X connect 39 0 24 0;
#X connect 39 1 25 0;
#X connect 40 0 66 0;
#X connect 41 0 65 0;
#X connect 42 0 47 0;
#X connect 43 0 48 0;
#X connect 44 0 68 0;
#X connect 46 0 16 0;
#X connect 46 1 45 0;
#X connect 47 0 0 0;
#X connect 48 0 0 0;
#X connect 49 0 0 0;
#X connect 50 0 52 0;
#X connect 51 0 53 0;
#X connect 52 0 51 0;
#X connect 53 0 67 0;
#X connect 54 0 55 0;
#X connect 55 0 75 0;
#X connect 56 0 58 0;
#X connect 57 0 71 1;
#X connect 58 0 70 0;
#X connect 59 0 77 0;
#X connect 60 0 76 0;
#X connect 62 0 0 0;
#X connect 63 0 0 0;
#X connect 64 0 0 0;
#X connect 65 0 0 0;
#X connect 66 0 0 0;
#X connect 67 0 0 0;
#X connect 68 0 0 0;
#X connect 69 0 71 0;
#X connect 70 0 69 0;
#X connect 70 1 57 0;
#X connect 71 0 59 0;
#X connect 72 0 74 1;
#X connect 73 0 74 0;
#X connect 74 0 60 0;
#X connect 75 0 73 0;
#X connect 75 1 72 0;
#X connect 76 0 0 0;
#X connect 77 0 0 0;
